<svg xmlns="http://www.w3.org/2000/svg" xmlns:xlink="http://www.w3.org/1999/xlink" width="500" zoomAndPan="magnify" viewBox="0 0 375 374.999991" height="500" preserveAspectRatio="xMidYMid meet" version="1.0"><defs><clipPath id="3e17a096fd"><path d="M 56.402344 61 L 317 61 L 317 353.167969 L 56.402344 353.167969 Z M 56.402344 61 " clip-rule="nonzero"/></clipPath></defs><path fill="#804898" d="M 310.894531 132.671875 C 321.753906 134.996094 323.78125 147.808594 324.09375 154.414062 L 324.121094 158.371094 L 324.121094 158.386719 L 324.453125 190.097656 C 324.453125 190.097656 328.160156 241 279.878906 255.949219 L 279.878906 283.175781 C 308.167969 277.914062 346.386719 257.804688 346.386719 187.441406 L 346.386719 155.074219 C 346.648438 153.09375 346.488281 150.441406 346.386719 147.503906 L 346.386719 145.871094 L 346.339844 145.871094 C 346.226562 140.183594 346.675781 133.777344 351.042969 129.296875 C 358.179688 122.007812 372.449219 119.351562 369.316406 112.355469 C 366.175781 105.363281 352.457031 115.90625 350.472656 112.488281 C 348.480469 109.058594 374.582031 91.652344 365.53125 85.945312 C 356.484375 80.242188 352.703125 99.070312 344.097656 99.179688 C 335.476562 99.28125 349.300781 78.886719 335.960938 74.664062 C 322.621094 70.441406 330.597656 99.050781 325.785156 98.421875 C 320.949219 97.800781 314.8125 79.714844 307.980469 78.820312 C 301.140625 77.917969 302.121094 88.75 306.167969 92.15625 C 310.199219 95.5625 316.601562 108.734375 312.804688 115.652344 C 308.996094 122.546875 291.539062 112.445312 288.539062 119.453125 C 285.542969 126.472656 291.703125 128.582031 310.894531 132.671875 " fill-opacity="1" fill-rule="nonzero"/><path fill="#804898" d="M 63.316406 129.074219 C 52.460938 131.40625 50.429688 144.214844 50.113281 150.824219 L 50.101562 154.777344 L 50.101562 154.792969 L 49.757812 186.507812 C 49.757812 186.507812 46.050781 237.40625 94.335938 252.355469 L 94.335938 279.585938 C 66.042969 274.3125 27.824219 254.207031 27.824219 183.839844 L 27.824219 151.480469 C 27.554688 149.496094 27.726562 146.84375 27.824219 143.910156 L 27.824219 142.285156 L 27.867188 142.285156 C 27.988281 136.589844 27.53125 130.179688 23.167969 125.699219 C 16.039062 118.40625 1.757812 115.757812 4.894531 108.765625 C 8.035156 101.765625 21.75 112.308594 23.742188 108.898438 C 25.734375 105.460938 -0.367188 88.0625 8.683594 82.355469 C 17.730469 76.648438 21.515625 95.476562 30.121094 95.585938 C 38.730469 95.6875 24.90625 75.292969 38.257812 71.074219 C 51.601562 66.851562 43.605469 95.457031 48.429688 94.828125 C 53.261719 94.203125 59.402344 76.117188 66.234375 75.226562 C 73.066406 74.324219 72.089844 85.152344 68.046875 88.5625 C 64.007812 91.96875 57.613281 105.140625 61.410156 112.054688 C 65.210938 118.957031 82.675781 108.851562 85.667969 115.863281 C 88.671875 122.875 82.503906 124.992188 63.316406 129.074219 " fill-opacity="1" fill-rule="nonzero"/><g clip-path="url(#3e17a096fd)"><path fill="#9153af" d="M 56.652344 353.226562 L 317 353.226562 C 313.417969 336.40625 311.609375 224.757812 311.609375 224.757812 C 311.609375 192.675781 285.597656 166.671875 253.511719 166.671875 L 218.496094 166.671875 C 224.640625 138.910156 244.152344 84.964844 304.371094 68.953125 L 291.351562 61.71875 C 225.320312 79.273438 208.222656 142.433594 204.046875 166.671875 L 173.019531 166.671875 C 168.859375 142.433594 151.898438 79.273438 86.367188 61.71875 L 73.453125 68.953125 C 133.210938 84.964844 152.582031 138.910156 158.679688 166.671875 L 124.410156 166.671875 C 92.335938 166.671875 66.328125 192.675781 66.328125 224.757812 C 66.328125 224.757812 61.21875 330.523438 56.652344 353.226562 " fill-opacity="1" fill-rule="nonzero"/></g><path fill="#f03a74" d="M 276.71875 61.71875 C 276.71875 50.203125 286.042969 40.890625 297.558594 40.890625 C 309.050781 40.890625 318.390625 50.203125 318.390625 61.71875 C 318.390625 73.214844 309.050781 82.542969 297.558594 82.542969 C 286.042969 82.542969 276.71875 73.214844 276.71875 61.71875 " fill-opacity="1" fill-rule="nonzero"/><path fill="#f03a74" d="M 100.796875 61.71875 C 100.796875 50.203125 91.546875 40.890625 80.113281 40.890625 C 68.703125 40.890625 59.445312 50.203125 59.445312 61.71875 C 59.445312 73.214844 68.703125 82.542969 80.113281 82.542969 C 91.546875 82.542969 100.796875 73.214844 100.796875 61.71875 " fill-opacity="1" fill-rule="nonzero"/><path fill="#80cc28" d="M 205.367188 159.710938 L 219.746094 161.246094 C 220.507812 158.277344 221.402344 155.113281 222.476562 151.800781 L 207.882812 149.707031 C 206.851562 153.308594 206.03125 156.660156 205.367188 159.710938 " fill-opacity="1" fill-rule="nonzero"/><path fill="#80cc28" d="M 210.785156 140.609375 L 225.289062 143.769531 C 226.3125 141.089844 227.4375 138.347656 228.671875 135.566406 L 214.917969 130.011719 C 213.347656 133.636719 211.980469 137.179688 210.785156 140.609375 " fill-opacity="1" fill-rule="nonzero"/><path fill="#80cc28" d="M 220.480469 118.558594 L 233.972656 124.941406 C 235.496094 122.164062 237.164062 119.382812 238.949219 116.628906 L 225.914062 109.429688 C 223.945312 112.460938 222.140625 115.507812 220.480469 118.558594 " fill-opacity="1" fill-rule="nonzero"/><path fill="#80cc28" d="M 232.613281 100.078125 L 245.925781 106.949219 C 248.3125 103.96875 250.890625 101.046875 253.65625 98.21875 L 245.761719 86.058594 C 240.84375 90.476562 236.480469 95.1875 232.613281 100.078125 " fill-opacity="1" fill-rule="nonzero"/><path fill="#80cc28" d="M 255.855469 78.0625 L 262.636719 89.972656 C 265.824219 87.382812 269.246094 84.929688 272.875 82.621094 L 267.328125 71.054688 C 263.246094 73.207031 259.425781 75.550781 255.855469 78.0625 " fill-opacity="1" fill-rule="nonzero"/><path fill="#80cc28" d="M 171.761719 159.710938 L 157.382812 161.246094 C 156.625 158.277344 155.726562 155.113281 154.660156 151.800781 L 169.238281 149.707031 C 170.269531 153.308594 171.097656 156.660156 171.761719 159.710938 " fill-opacity="1" fill-rule="nonzero"/><path fill="#80cc28" d="M 166.34375 140.609375 L 151.839844 143.769531 C 150.816406 141.089844 149.699219 138.347656 148.449219 135.566406 L 162.210938 130.011719 C 163.773438 133.636719 165.148438 137.179688 166.34375 140.609375 " fill-opacity="1" fill-rule="nonzero"/><path fill="#80cc28" d="M 156.644531 118.558594 L 143.160156 124.941406 C 141.625 122.164062 139.980469 119.382812 138.183594 116.628906 L 151.214844 109.429688 C 153.179688 112.460938 154.992188 115.507812 156.644531 118.558594 " fill-opacity="1" fill-rule="nonzero"/><path fill="#80cc28" d="M 144.519531 100.078125 L 131.199219 106.949219 C 128.816406 103.96875 126.234375 101.046875 123.472656 98.21875 L 131.355469 86.058594 C 136.28125 90.476562 140.65625 95.1875 144.519531 100.078125 " fill-opacity="1" fill-rule="nonzero"/><path fill="#80cc28" d="M 121.277344 78.0625 L 114.484375 89.972656 C 111.304688 87.382812 107.886719 84.929688 104.253906 82.621094 L 109.8125 71.054688 C 113.882812 73.207031 117.703125 75.550781 121.277344 78.0625 " fill-opacity="1" fill-rule="nonzero"/><path fill="#ffffff" d="M 290.34375 223.367188 C 290.34375 239.59375 277.183594 252.757812 260.933594 252.757812 C 244.695312 252.757812 231.53125 239.59375 231.53125 223.367188 C 231.53125 207.132812 244.695312 193.972656 260.933594 193.972656 C 277.183594 193.972656 290.34375 207.132812 290.34375 223.367188 " fill-opacity="1" fill-rule="nonzero"/><path fill="#54c8f4" d="M 282.746094 223.367188 C 282.746094 235.402344 272.988281 245.167969 260.933594 245.167969 C 248.890625 245.167969 239.128906 235.402344 239.128906 223.367188 C 239.128906 211.328125 248.890625 201.554688 260.933594 201.554688 C 272.988281 201.554688 282.746094 211.328125 282.746094 223.367188 " fill-opacity="1" fill-rule="nonzero"/><path fill="#5a3114" d="M 278.636719 223.367188 C 278.636719 233.132812 270.710938 241.054688 260.933594 241.054688 C 251.160156 241.054688 243.234375 233.132812 243.234375 223.367188 C 243.234375 213.585938 251.160156 205.664062 260.933594 205.664062 C 270.710938 205.664062 278.636719 213.585938 278.636719 223.367188 " fill-opacity="1" fill-rule="nonzero"/><path fill="#ffffff" d="M 245.507812 236.082031 C 245.507812 238.824219 243.277344 241.054688 240.527344 241.054688 C 237.785156 241.054688 235.546875 238.824219 235.546875 236.082031 C 235.546875 233.332031 237.785156 231.109375 240.527344 231.109375 C 243.277344 231.109375 245.507812 233.332031 245.507812 236.082031 " fill-opacity="1" fill-rule="nonzero"/><path fill="#ffffff" d="M 276.21875 208.730469 C 276.21875 211.476562 273.992188 213.695312 271.242188 213.695312 C 268.496094 213.695312 266.269531 211.476562 266.269531 208.730469 C 266.269531 205.984375 268.496094 203.753906 271.242188 203.753906 C 273.992188 203.753906 276.21875 205.984375 276.21875 208.730469 " fill-opacity="1" fill-rule="nonzero"/><path fill="#ffffff" d="M 221.59375 223.367188 C 221.59375 239.59375 208.425781 252.757812 192.183594 252.757812 C 175.945312 252.757812 162.777344 239.59375 162.777344 223.367188 C 162.777344 207.132812 175.945312 193.972656 192.183594 193.972656 C 208.425781 193.972656 221.59375 207.132812 221.59375 223.367188 " fill-opacity="1" fill-rule="nonzero"/><path fill="#54c8f4" d="M 213.996094 223.367188 C 213.996094 235.402344 204.230469 245.167969 192.183594 245.167969 C 180.132812 245.167969 170.378906 235.402344 170.378906 223.367188 C 170.378906 211.328125 180.132812 201.554688 192.183594 201.554688 C 204.230469 201.554688 213.996094 211.328125 213.996094 223.367188 " fill-opacity="1" fill-rule="nonzero"/><path fill="#5a3114" d="M 209.886719 223.367188 C 209.886719 233.132812 201.957031 241.054688 192.183594 241.054688 C 182.402344 241.054688 174.488281 233.132812 174.488281 223.367188 C 174.488281 213.585938 182.402344 205.664062 192.183594 205.664062 C 201.957031 205.664062 209.886719 213.585938 209.886719 223.367188 " fill-opacity="1" fill-rule="nonzero"/><path fill="#ffffff" d="M 176.746094 236.082031 C 176.746094 238.824219 174.523438 241.054688 171.769531 241.054688 C 169.027344 241.054688 166.792969 238.824219 166.792969 236.082031 C 166.792969 233.332031 169.027344 231.109375 171.769531 231.109375 C 174.523438 231.109375 176.746094 233.332031 176.746094 236.082031 " fill-opacity="1" fill-rule="nonzero"/><path fill="#ffffff" d="M 207.460938 208.730469 C 207.460938 211.476562 205.234375 213.695312 202.492188 213.695312 C 199.738281 213.695312 197.519531 211.476562 197.519531 208.730469 C 197.519531 205.984375 199.738281 203.753906 202.492188 203.753906 C 205.234375 203.753906 207.460938 205.984375 207.460938 208.730469 " fill-opacity="1" fill-rule="nonzero"/><path fill="#ffffff" d="M 142.683594 223.367188 C 142.683594 239.59375 129.515625 252.757812 113.269531 252.757812 C 97.035156 252.757812 83.875 239.59375 83.875 223.367188 C 83.875 207.132812 97.035156 193.972656 113.269531 193.972656 C 129.515625 193.972656 142.683594 207.132812 142.683594 223.367188 " fill-opacity="1" fill-rule="nonzero"/><path fill="#54c8f4" d="M 135.089844 223.367188 C 135.089844 235.402344 125.316406 245.167969 113.269531 245.167969 C 101.222656 245.167969 91.453125 235.402344 91.453125 223.367188 C 91.453125 211.328125 101.222656 201.554688 113.269531 201.554688 C 125.316406 201.554688 135.089844 211.328125 135.089844 223.367188 " fill-opacity="1" fill-rule="nonzero"/><path fill="#5a3114" d="M 130.972656 223.367188 C 130.972656 233.132812 123.039062 241.054688 113.269531 241.054688 C 103.496094 241.054688 95.570312 233.132812 95.570312 223.367188 C 95.570312 213.585938 103.496094 205.664062 113.269531 205.664062 C 123.039062 205.664062 130.972656 213.585938 130.972656 223.367188 " fill-opacity="1" fill-rule="nonzero"/><path fill="#ffffff" d="M 97.839844 236.082031 C 97.839844 238.824219 95.609375 241.054688 92.859375 241.054688 C 90.105469 241.054688 87.882812 238.824219 87.882812 236.082031 C 87.882812 233.332031 90.105469 231.109375 92.859375 231.109375 C 95.609375 231.109375 97.839844 233.332031 97.839844 236.082031 " fill-opacity="1" fill-rule="nonzero"/><path fill="#ffffff" d="M 128.5625 208.730469 C 128.5625 211.476562 126.332031 213.695312 123.574219 213.695312 C 120.828125 213.695312 118.601562 211.476562 118.601562 208.730469 C 118.601562 205.984375 120.828125 203.753906 123.574219 203.753906 C 126.332031 203.753906 128.5625 205.984375 128.5625 208.730469 " fill-opacity="1" fill-rule="nonzero"/><path fill="#271325" d="M 191.667969 313.886719 L 191.097656 313.886719 C 159.390625 313.761719 139.09375 303.609375 127.628906 295.078125 C 115.042969 285.726562 110.152344 276.441406 109.953125 276.046875 L 112.710938 274.617188 C 112.753906 274.707031 117.5625 283.765625 129.628906 292.703125 C 140.746094 300.925781 160.472656 310.726562 191.386719 310.785156 C 250.707031 310.667969 269.867188 274.976562 270.054688 274.617188 L 272.796875 276.046875 C 272.601562 276.441406 267.710938 285.726562 255.128906 295.078125 C 243.664062 303.609375 223.367188 313.761719 191.667969 313.886719 " fill-opacity="1" fill-rule="nonzero"/><path fill="#271325" d="M 251.773438 271.671875 C 254.726562 270.46875 257.941406 269.980469 261.175781 269.980469 C 264.40625 270.011719 267.738281 270.640625 270.761719 272.21875 C 273.773438 273.765625 276.316406 276.441406 277.59375 279.546875 C 278.917969 282.664062 279.136719 286.011719 278.570312 289.128906 C 277.835938 286.039062 276.953125 283.117188 275.421875 280.660156 C 273.921875 278.191406 271.816406 276.285156 269.308594 274.96875 C 266.792969 273.648438 263.945312 272.867188 260.972656 272.410156 C 258.011719 271.929688 254.945312 271.75 251.773438 271.671875 " fill-opacity="1" fill-rule="nonzero"/><path fill="#271325" d="M 131.078125 271.671875 C 127.914062 271.75 124.847656 271.929688 121.878906 272.410156 C 118.921875 272.867188 116.058594 273.648438 113.539062 274.96875 C 111.03125 276.285156 108.917969 278.191406 107.425781 280.660156 C 105.902344 283.117188 105.015625 286.039062 104.277344 289.128906 C 103.714844 286.011719 103.949219 282.664062 105.238281 279.554688 C 106.535156 276.441406 109.074219 273.765625 112.09375 272.226562 C 115.109375 270.640625 118.445312 270.011719 121.675781 269.980469 C 124.910156 269.980469 128.113281 270.46875 131.078125 271.671875 " fill-opacity="1" fill-rule="nonzero"/><path fill="#271325" d="M 168.464844 332.644531 C 171.558594 334.140625 174.652344 335.40625 177.796875 336.359375 C 180.929688 337.320312 184.117188 337.953125 187.304688 338.085938 C 190.496094 338.226562 193.683594 337.847656 196.769531 336.898438 C 199.859375 335.96875 202.804688 334.441406 205.742188 332.644531 C 203.679688 335.40625 200.875 337.671875 197.644531 339.179688 C 194.402344 340.683594 190.753906 341.355469 187.175781 341.191406 C 183.59375 341.035156 180.101562 340.097656 176.917969 338.632812 C 173.753906 337.140625 170.808594 335.195312 168.464844 332.644531 " fill-opacity="1" fill-rule="nonzero"/><path fill="#271325" d="M 279.121094 275.351562 C 279.261719 273.128906 279.410156 270.960938 279.277344 268.890625 C 279.152344 266.851562 278.644531 264.792969 277.398438 263.863281 C 276.789062 263.402344 275.898438 263.152344 274.9375 263.046875 C 273.960938 262.945312 272.914062 262.960938 271.859375 263.015625 C 269.726562 263.109375 267.515625 263.390625 265.277344 263.296875 C 267.34375 262.460938 269.394531 261.714844 271.617188 261.226562 C 272.726562 261 273.867188 260.824219 275.085938 260.859375 C 276.273438 260.898438 277.621094 261.148438 278.792969 262.003906 C 279.953125 262.875 280.589844 264.140625 280.902344 265.34375 C 281.199219 266.558594 281.226562 267.761719 281.128906 268.917969 C 280.902344 271.222656 280.222656 273.394531 279.121094 275.351562 " fill-opacity="1" fill-rule="nonzero"/><path fill="#271325" d="M 95.101562 275.351562 C 93.992188 273.394531 93.3125 271.222656 93.078125 268.917969 C 92.96875 267.761719 93.007812 266.558594 93.3125 265.34375 C 93.625 264.140625 94.257812 262.875 95.421875 262.003906 C 96.589844 261.148438 97.933594 260.898438 99.132812 260.859375 C 100.347656 260.824219 101.488281 261 102.601562 261.226562 C 104.8125 261.714844 106.875 262.460938 108.945312 263.296875 C 106.691406 263.390625 104.488281 263.109375 102.367188 263.015625 C 101.292969 262.960938 100.25 262.945312 99.273438 263.046875 C 98.296875 263.152344 97.421875 263.402344 96.816406 263.863281 C 95.566406 264.792969 95.0625 266.851562 94.9375 268.890625 C 94.808594 270.960938 94.945312 273.128906 95.101562 275.351562 " fill-opacity="1" fill-rule="nonzero"/><path fill="#57c6c1" d="M 265.230469 175.523438 L 117.523438 175.523438 C 117.523438 175.523438 170.253906 50.148438 189.753906 50.148438 C 209.367188 50.148438 265.230469 175.523438 265.230469 175.523438 " fill-opacity="1" fill-rule="nonzero"/><path fill="#295a5b" d="M 246.871094 146.097656 C 236.699219 155.554688 225.402344 163.316406 213.402344 169.3125 L 243.402344 169.3125 C 246.757812 166.105469 249.96875 162.738281 253.054688 159.226562 C 251.371094 155.582031 249.273438 151.109375 246.871094 146.097656 " fill-opacity="1" fill-rule="nonzero"/><path fill="#295a5b" d="M 239.261719 130.472656 C 236.886719 125.675781 234.363281 120.691406 231.765625 115.683594 C 203.875 135.316406 170.222656 144.089844 137.1875 140.835938 C 129.699219 157.160156 124.597656 169.3125 124.597656 169.3125 L 159.335938 169.3125 C 188.996094 163.941406 216.714844 150.582031 239.261719 130.472656 " fill-opacity="1" fill-rule="nonzero"/><path fill="#295a5b" d="M 142.804688 128.777344 C 171.894531 126.484375 199.765625 116.605469 223.507812 100.210938 C 220.316406 94.4375 217.109375 88.855469 213.964844 83.714844 C 196.355469 92.601562 177.214844 97.65625 157.820312 98.652344 C 152.589844 108.511719 147.433594 118.996094 142.804688 128.777344 " fill-opacity="1" fill-rule="nonzero"/><path fill="#295a5b" d="M 204.1875 68.996094 C 198.425781 61.257812 193.332031 56.371094 189.667969 56.371094 C 184.1875 56.371094 175.804688 67.339844 166.859375 82.441406 C 179.824219 79.476562 192.347656 74.949219 204.1875 68.996094 " fill-opacity="1" fill-rule="nonzero"/><path fill="#ee205d" d="M 189.003906 50.84375 C 189.003906 50.84375 188.695312 36.121094 199.125 32.898438 C 199.125 32.898438 196.214844 21.710938 183.789062 24.464844 C 183.789062 24.464844 177.039062 40.875 189.003906 50.84375 " fill-opacity="1" fill-rule="nonzero"/><path fill="#ee205d" d="M 188.320312 49.921875 C 188.320312 49.921875 201.820312 55.816406 200.367188 66.628906 C 200.367188 66.628906 211.753906 68.671875 214.457031 56.238281 C 214.457031 56.238281 202.375 43.234375 188.320312 49.921875 " fill-opacity="1" fill-rule="nonzero"/><path fill="#ee205d" d="M 188.230469 50.84375 C 188.230469 50.84375 177.730469 61.171875 168.230469 55.800781 C 168.230469 55.800781 162.09375 65.609375 172.625 72.734375 C 172.625 72.734375 189.199219 66.375 188.230469 50.84375 " fill-opacity="1" fill-rule="nonzero"/><path fill="#ee205d" d="M 189.085938 50.085938 C 189.085938 50.085938 200.59375 43.273438 207.796875 50.074219 C 207.796875 50.074219 215.335938 42.777344 207.621094 34.195312 C 207.621094 34.195312 191.628906 36.183594 189.085938 50.085938 " fill-opacity="1" fill-rule="nonzero"/><path fill="#ee205d" d="M 189.511719 49.140625 C 189.511719 49.140625 190.886719 62.433594 181.679688 66.117188 C 181.679688 66.117188 185.148438 76.03125 196.183594 72.609375 C 196.183594 72.609375 201.078125 57.261719 189.511719 49.140625 " fill-opacity="1" fill-rule="nonzero"/><path fill="#ee205d" d="M 188.753906 49.472656 C 188.753906 49.472656 175.894531 45.796875 175.90625 35.898438 C 175.90625 35.898438 165.410156 35.414062 164.46875 46.925781 C 164.46875 46.925781 176.898438 57.179688 188.753906 49.472656 " fill-opacity="1" fill-rule="nonzero"/></svg>