<svg xmlns="http://www.w3.org/2000/svg" xmlns:xlink="http://www.w3.org/1999/xlink" width="40" zoomAndPan="magnify" viewBox="0 0 375 374.999991" height="40" preserveAspectRatio="xMidYMid meet" version="1.0"><defs><clipPath id="e4000cef7b"><path d="M 6.507812 6.507812 L 368.757812 6.507812 L 368.757812 368.757812 L 6.507812 368.757812 Z M 6.507812 6.507812 " clip-rule="nonzero"/></clipPath><clipPath id="086f91fe6a"><path d="M 93 276 L 349 276 L 349 368.757812 L 93 368.757812 Z M 93 276 " clip-rule="nonzero"/></clipPath><clipPath id="5c61fa9a32"><path d="M 6.507812 187.644531 C 6.507812 181.710938 6.796875 175.792969 7.378906 169.890625 C 7.960938 163.988281 8.832031 158.125 9.988281 152.308594 C 11.144531 146.488281 12.585938 140.742188 14.308594 135.0625 C 16.03125 129.386719 18.027344 123.808594 20.296875 118.328125 C 22.566406 112.847656 25.101562 107.488281 27.894531 102.257812 C 30.691406 97.027344 33.738281 91.941406 37.035156 87.011719 C 40.332031 82.078125 43.859375 77.320312 47.625 72.734375 C 51.386719 68.148438 55.367188 63.757812 59.5625 59.5625 C 63.757812 55.367188 68.148438 51.386719 72.734375 47.625 C 77.320312 43.859375 82.078125 40.332031 87.011719 37.035156 C 91.941406 33.738281 97.027344 30.691406 102.257812 27.894531 C 107.488281 25.101562 112.847656 22.566406 118.328125 20.296875 C 123.808594 18.027344 129.386719 16.03125 135.0625 14.308594 C 140.742188 12.585938 146.488281 11.144531 152.308594 9.988281 C 158.125 8.832031 163.988281 7.960938 169.890625 7.378906 C 175.792969 6.796875 181.710938 6.507812 187.644531 6.507812 C 193.578125 6.507812 199.496094 6.796875 205.398438 7.378906 C 211.304688 7.960938 217.164062 8.832031 222.984375 9.988281 C 228.800781 11.144531 234.550781 12.585938 240.226562 14.308594 C 245.902344 16.03125 251.484375 18.027344 256.964844 20.296875 C 262.445312 22.566406 267.800781 25.101562 273.03125 27.894531 C 278.265625 30.691406 283.347656 33.738281 288.28125 37.035156 C 293.210938 40.332031 297.972656 43.859375 302.558594 47.625 C 307.144531 51.386719 311.535156 55.367188 315.730469 59.5625 C 319.921875 63.757812 323.902344 68.148438 327.667969 72.734375 C 331.429688 77.320312 334.960938 82.078125 338.253906 87.011719 C 341.550781 91.941406 344.597656 97.027344 347.394531 102.257812 C 350.191406 107.488281 352.722656 112.847656 354.996094 118.328125 C 357.265625 123.808594 359.261719 129.386719 360.984375 135.0625 C 362.703125 140.742188 364.144531 146.488281 365.300781 152.308594 C 366.460938 158.125 367.328125 163.988281 367.910156 169.890625 C 368.492188 175.792969 368.78125 181.710938 368.78125 187.644531 C 368.78125 193.578125 368.492188 199.496094 367.910156 205.398438 C 367.328125 211.304688 366.460938 217.164062 365.300781 222.984375 C 364.144531 228.800781 362.703125 234.550781 360.984375 240.226562 C 359.261719 245.902344 357.265625 251.484375 354.996094 256.964844 C 352.722656 262.445312 350.191406 267.800781 347.394531 273.03125 C 344.597656 278.265625 341.550781 283.347656 338.253906 288.28125 C 334.960938 293.210938 331.429688 297.972656 327.667969 302.558594 C 323.902344 307.144531 319.921875 311.535156 315.730469 315.730469 C 311.535156 319.921875 307.144531 323.902344 302.558594 327.667969 C 297.972656 331.429688 293.210938 334.960938 288.28125 338.253906 C 283.347656 341.550781 278.265625 344.597656 273.03125 347.394531 C 267.800781 350.191406 262.445312 352.722656 256.964844 354.996094 C 251.484375 357.265625 245.902344 359.261719 240.226562 360.984375 C 234.550781 362.703125 228.800781 364.144531 222.984375 365.300781 C 217.164062 366.460938 211.304688 367.328125 205.398438 367.910156 C 199.496094 368.492188 193.578125 368.78125 187.644531 368.78125 C 181.710938 368.78125 175.792969 368.492188 169.890625 367.910156 C 163.988281 367.328125 158.125 366.460938 152.308594 365.300781 C 146.488281 364.144531 140.742188 362.703125 135.0625 360.984375 C 129.386719 359.261719 123.808594 357.265625 118.328125 354.996094 C 112.847656 352.722656 107.488281 350.191406 102.257812 347.394531 C 97.027344 344.597656 91.941406 341.550781 87.011719 338.253906 C 82.078125 334.960938 77.320312 331.429688 72.734375 327.667969 C 68.148438 323.902344 63.757812 319.921875 59.5625 315.730469 C 55.367188 311.535156 51.386719 307.144531 47.625 302.558594 C 43.859375 297.972656 40.332031 293.210938 37.035156 288.28125 C 33.738281 283.347656 30.691406 278.265625 27.894531 273.03125 C 25.101562 267.800781 22.566406 262.445312 20.296875 256.964844 C 18.027344 251.484375 16.03125 245.902344 14.308594 240.226562 C 12.585938 234.550781 11.144531 228.800781 9.988281 222.984375 C 8.832031 217.164062 7.960938 211.304688 7.378906 205.398438 C 6.796875 199.496094 6.507812 193.578125 6.507812 187.644531 Z M 6.507812 187.644531 " clip-rule="nonzero"/></clipPath></defs><g clip-path="url(#e4000cef7b)"><path fill="#e9e9e9" d="M 368.78125 187.644531 C 368.78125 190.609375 368.710938 193.570312 368.5625 196.53125 C 368.417969 199.492188 368.199219 202.449219 367.910156 205.398438 C 367.621094 208.351562 367.257812 211.292969 366.820312 214.222656 C 366.386719 217.15625 365.878906 220.074219 365.300781 222.984375 C 364.722656 225.890625 364.074219 228.78125 363.355469 231.65625 C 362.632812 234.535156 361.84375 237.390625 360.984375 240.226562 C 360.121094 243.0625 359.191406 245.878906 358.195312 248.667969 C 357.195312 251.460938 356.128906 254.226562 354.996094 256.964844 C 353.859375 259.703125 352.660156 262.410156 351.390625 265.089844 C 350.125 267.769531 348.792969 270.417969 347.394531 273.03125 C 345.996094 275.648438 344.535156 278.226562 343.011719 280.769531 C 341.488281 283.3125 339.902344 285.816406 338.253906 288.28125 C 336.609375 290.746094 334.902344 293.167969 333.136719 295.546875 C 331.371094 297.929688 329.546875 300.265625 327.667969 302.558594 C 325.785156 304.847656 323.851562 307.09375 321.859375 309.289062 C 319.867188 311.484375 317.824219 313.632812 315.730469 315.730469 C 313.632812 317.824219 311.484375 319.867188 309.289062 321.859375 C 307.09375 323.851562 304.847656 325.785156 302.558594 327.667969 C 300.265625 329.546875 297.929688 331.371094 295.546875 333.136719 C 293.167969 334.902344 290.746094 336.609375 288.28125 338.253906 C 285.816406 339.902344 283.3125 341.488281 280.769531 343.011719 C 278.226562 344.535156 275.648438 345.996094 273.03125 347.394531 C 270.417969 348.792969 267.769531 350.125 265.089844 351.390625 C 262.410156 352.660156 259.703125 353.859375 256.964844 354.996094 C 254.222656 356.128906 251.460938 357.195312 248.667969 358.195312 C 245.878906 359.191406 243.0625 360.121094 240.226562 360.984375 C 237.390625 361.84375 234.535156 362.632812 231.65625 363.355469 C 228.78125 364.074219 225.890625 364.722656 222.984375 365.300781 C 220.074219 365.878906 217.15625 366.386719 214.222656 366.820312 C 211.292969 367.257812 208.351562 367.621094 205.398438 367.910156 C 202.449219 368.199219 199.492188 368.417969 196.53125 368.5625 C 193.570312 368.710938 190.609375 368.78125 187.644531 368.78125 C 184.679688 368.78125 181.71875 368.710938 178.757812 368.5625 C 175.796875 368.417969 172.839844 368.199219 169.890625 367.910156 C 166.941406 367.621094 164 367.257812 161.066406 366.820312 C 158.132812 366.386719 155.214844 365.878906 152.308594 365.300781 C 149.398438 364.722656 146.507812 364.074219 143.632812 363.355469 C 140.757812 362.632812 137.902344 361.84375 135.0625 360.984375 C 132.226562 360.121094 129.414062 359.191406 126.621094 358.195312 C 123.832031 357.195312 121.066406 356.128906 118.328125 354.996094 C 115.589844 353.859375 112.878906 352.660156 110.199219 351.390625 C 107.519531 350.125 104.871094 348.792969 102.257812 347.394531 C 99.644531 345.996094 97.066406 344.535156 94.523438 343.011719 C 91.980469 341.488281 89.476562 339.902344 87.011719 338.253906 C 84.546875 336.609375 82.121094 334.902344 79.742188 333.136719 C 77.359375 331.371094 75.023438 329.546875 72.734375 327.667969 C 70.441406 325.785156 68.195312 323.851562 66 321.859375 C 63.804688 319.867188 61.65625 317.824219 59.5625 315.730469 C 57.464844 313.632812 55.421875 311.484375 53.429688 309.289062 C 51.441406 307.09375 49.503906 304.847656 47.625 302.558594 C 45.742188 300.265625 43.921875 297.929688 42.152344 295.546875 C 40.386719 293.167969 38.683594 290.746094 37.035156 288.28125 C 35.386719 285.816406 33.800781 283.3125 32.277344 280.769531 C 30.753906 278.226562 29.292969 275.648438 27.894531 273.03125 C 26.5 270.417969 25.167969 267.769531 23.898438 265.089844 C 22.632812 262.410156 21.429688 259.703125 20.296875 256.964844 C 19.160156 254.226562 18.09375 251.460938 17.097656 248.667969 C 16.097656 245.878906 15.167969 243.0625 14.308594 240.226562 C 13.445312 237.390625 12.65625 234.535156 11.9375 231.65625 C 11.214844 228.78125 10.566406 225.890625 9.988281 222.984375 C 9.410156 220.074219 8.902344 217.15625 8.46875 214.222656 C 8.035156 211.292969 7.671875 208.351562 7.378906 205.398438 C 7.089844 202.449219 6.871094 199.492188 6.726562 196.53125 C 6.582031 193.570312 6.507812 190.609375 6.507812 187.644531 C 6.507812 184.679688 6.582031 181.71875 6.726562 178.757812 C 6.871094 175.796875 7.089844 172.839844 7.378906 169.890625 C 7.671875 166.941406 8.035156 164 8.46875 161.066406 C 8.902344 158.132812 9.410156 155.214844 9.988281 152.308594 C 10.566406 149.398438 11.214844 146.507812 11.9375 143.632812 C 12.65625 140.757812 13.445312 137.902344 14.308594 135.0625 C 15.167969 132.226562 16.097656 129.414062 17.097656 126.621094 C 18.09375 123.832031 19.160156 121.066406 20.296875 118.328125 C 21.429688 115.589844 22.632812 112.878906 23.898438 110.199219 C 25.167969 107.519531 26.5 104.871094 27.894531 102.257812 C 29.292969 99.644531 30.753906 97.066406 32.277344 94.523438 C 33.800781 91.980469 35.386719 89.476562 37.035156 87.011719 C 38.683594 84.546875 40.386719 82.121094 42.152344 79.742188 C 43.921875 77.359375 45.742188 75.023438 47.625 72.734375 C 49.503906 70.441406 51.441406 68.195312 53.429688 66 C 55.421875 63.804688 57.464844 61.65625 59.5625 59.5625 C 61.65625 57.464844 63.804688 55.421875 66 53.429688 C 68.195312 51.441406 70.441406 49.503906 72.734375 47.625 C 75.023438 45.742188 77.359375 43.921875 79.742188 42.152344 C 82.121094 40.386719 84.546875 38.683594 87.011719 37.035156 C 89.476562 35.386719 91.980469 33.800781 94.523438 32.277344 C 97.066406 30.753906 99.644531 29.292969 102.257812 27.894531 C 104.871094 26.5 107.519531 25.167969 110.199219 23.898438 C 112.878906 22.632812 115.589844 21.429688 118.328125 20.296875 C 121.066406 19.160156 123.832031 18.09375 126.621094 17.097656 C 129.414062 16.097656 132.226562 15.167969 135.0625 14.308594 C 137.902344 13.445312 140.757812 12.65625 143.632812 11.9375 C 146.507812 11.214844 149.398438 10.566406 152.308594 9.988281 C 155.214844 9.410156 158.132812 8.902344 161.066406 8.46875 C 164 8.035156 166.941406 7.671875 169.890625 7.378906 C 172.839844 7.089844 175.796875 6.871094 178.757812 6.726562 C 181.71875 6.582031 184.679688 6.507812 187.644531 6.507812 C 190.609375 6.507812 193.570312 6.582031 196.53125 6.726562 C 199.492188 6.871094 202.449219 7.089844 205.398438 7.378906 C 208.351562 7.671875 211.292969 8.035156 214.222656 8.46875 C 217.15625 8.902344 220.074219 9.410156 222.984375 9.988281 C 225.890625 10.566406 228.78125 11.214844 231.65625 11.9375 C 234.535156 12.65625 237.390625 13.445312 240.226562 14.308594 C 243.0625 15.167969 245.878906 16.097656 248.667969 17.097656 C 251.460938 18.09375 254.222656 19.160156 256.964844 20.296875 C 259.703125 21.429688 262.410156 22.632812 265.089844 23.898438 C 267.769531 25.167969 270.417969 26.5 273.03125 27.894531 C 275.648438 29.292969 278.226562 30.753906 280.769531 32.277344 C 283.3125 33.800781 285.816406 35.386719 288.28125 37.035156 C 290.746094 38.683594 293.167969 40.386719 295.546875 42.152344 C 297.929688 43.921875 300.265625 45.742188 302.558594 47.625 C 304.847656 49.503906 307.09375 51.441406 309.289062 53.429688 C 311.484375 55.421875 313.632812 57.464844 315.730469 59.5625 C 317.824219 61.65625 319.867188 63.804688 321.859375 66 C 323.851562 68.195312 325.785156 70.441406 327.667969 72.734375 C 329.546875 75.023438 331.371094 77.359375 333.136719 79.742188 C 334.902344 82.121094 336.609375 84.546875 338.253906 87.011719 C 339.902344 89.476562 341.488281 91.980469 343.011719 94.523438 C 344.535156 97.066406 345.996094 99.644531 347.394531 102.257812 C 348.792969 104.871094 350.125 107.519531 351.390625 110.199219 C 352.660156 112.878906 353.859375 115.589844 354.996094 118.328125 C 356.128906 121.066406 357.195312 123.832031 358.195312 126.621094 C 359.191406 129.414062 360.121094 132.226562 360.984375 135.0625 C 361.84375 137.902344 362.632812 140.757812 363.355469 143.632812 C 364.074219 146.507812 364.722656 149.398438 365.300781 152.308594 C 365.878906 155.214844 366.386719 158.132812 366.820312 161.066406 C 367.257812 164 367.621094 166.941406 367.910156 169.890625 C 368.199219 172.839844 368.417969 175.796875 368.5625 178.757812 C 368.710938 181.71875 368.78125 184.679688 368.78125 187.644531 Z M 368.78125 187.644531 " fill-opacity="1" fill-rule="nonzero"/><path fill="#9df4e6" d="M 368.78125 187.644531 C 368.78125 190.609375 368.710938 193.570312 368.5625 196.53125 C 368.417969 199.492188 368.199219 202.449219 367.910156 205.398438 C 367.621094 208.351562 367.257812 211.292969 366.820312 214.222656 C 366.386719 217.15625 365.878906 220.074219 365.300781 222.984375 C 364.722656 225.890625 364.074219 228.78125 363.355469 231.65625 C 362.632812 234.535156 361.84375 237.390625 360.984375 240.226562 C 360.121094 243.0625 359.191406 245.878906 358.195312 248.667969 C 357.195312 251.460938 356.128906 254.226562 354.996094 256.964844 C 353.859375 259.703125 352.660156 262.410156 351.390625 265.089844 C 350.125 267.769531 348.792969 270.417969 347.394531 273.03125 C 345.996094 275.648438 344.535156 278.226562 343.011719 280.769531 C 341.488281 283.3125 339.902344 285.816406 338.253906 288.28125 C 336.609375 290.746094 334.902344 293.167969 333.136719 295.546875 C 331.371094 297.929688 329.546875 300.265625 327.667969 302.558594 C 325.785156 304.847656 323.851562 307.09375 321.859375 309.289062 C 319.867188 311.484375 317.824219 313.632812 315.730469 315.730469 C 313.632812 317.824219 311.484375 319.867188 309.289062 321.859375 C 307.09375 323.851562 304.847656 325.785156 302.558594 327.667969 C 300.265625 329.546875 297.929688 331.371094 295.546875 333.136719 C 293.167969 334.902344 290.746094 336.609375 288.28125 338.253906 C 285.816406 339.902344 283.3125 341.488281 280.769531 343.011719 C 278.226562 344.535156 275.648438 345.996094 273.03125 347.394531 C 270.417969 348.792969 267.769531 350.125 265.089844 351.390625 C 262.410156 352.660156 259.703125 353.859375 256.964844 354.996094 C 254.222656 356.128906 251.460938 357.195312 248.667969 358.195312 C 245.878906 359.191406 243.0625 360.121094 240.226562 360.984375 C 237.390625 361.84375 234.535156 362.632812 231.65625 363.355469 C 228.78125 364.074219 225.890625 364.722656 222.984375 365.300781 C 220.074219 365.878906 217.15625 366.386719 214.222656 366.820312 C 211.292969 367.257812 208.351562 367.621094 205.398438 367.910156 C 202.449219 368.199219 199.492188 368.417969 196.53125 368.5625 C 193.570312 368.710938 190.609375 368.78125 187.644531 368.78125 C 184.679688 368.78125 181.71875 368.710938 178.757812 368.5625 C 175.796875 368.417969 172.839844 368.199219 169.890625 367.910156 C 166.941406 367.621094 164 367.257812 161.066406 366.820312 C 158.132812 366.386719 155.214844 365.878906 152.308594 365.300781 C 149.398438 364.722656 146.507812 364.074219 143.632812 363.355469 C 140.757812 362.632812 137.902344 361.84375 135.0625 360.984375 C 132.226562 360.121094 129.414062 359.191406 126.621094 358.195312 C 123.832031 357.195312 121.066406 356.128906 118.328125 354.996094 C 115.589844 353.859375 112.878906 352.660156 110.199219 351.390625 C 107.519531 350.125 104.871094 348.792969 102.257812 347.394531 C 99.644531 345.996094 97.066406 344.535156 94.523438 343.011719 C 91.980469 341.488281 89.476562 339.902344 87.011719 338.253906 C 84.546875 336.609375 82.121094 334.902344 79.742188 333.136719 C 77.359375 331.371094 75.023438 329.546875 72.734375 327.667969 C 70.441406 325.785156 68.195312 323.851562 66 321.859375 C 63.804688 319.867188 61.65625 317.824219 59.5625 315.730469 C 57.464844 313.632812 55.421875 311.484375 53.429688 309.289062 C 51.441406 307.09375 49.503906 304.847656 47.625 302.558594 C 45.742188 300.265625 43.921875 297.929688 42.152344 295.546875 C 40.386719 293.167969 38.683594 290.746094 37.035156 288.28125 C 35.386719 285.816406 33.800781 283.3125 32.277344 280.769531 C 30.753906 278.226562 29.292969 275.648438 27.894531 273.03125 C 26.5 270.417969 25.167969 267.769531 23.898438 265.089844 C 22.632812 262.410156 21.429688 259.703125 20.296875 256.964844 C 19.160156 254.226562 18.09375 251.460938 17.097656 248.667969 C 16.097656 245.878906 15.167969 243.0625 14.308594 240.226562 C 13.445312 237.390625 12.65625 234.535156 11.9375 231.65625 C 11.214844 228.78125 10.566406 225.890625 9.988281 222.984375 C 9.410156 220.074219 8.902344 217.15625 8.46875 214.222656 C 8.035156 211.292969 7.671875 208.351562 7.378906 205.398438 C 7.089844 202.449219 6.871094 199.492188 6.726562 196.53125 C 6.582031 193.570312 6.507812 190.609375 6.507812 187.644531 C 6.507812 184.679688 6.582031 181.71875 6.726562 178.757812 C 6.871094 175.796875 7.089844 172.839844 7.378906 169.890625 C 7.671875 166.941406 8.035156 164 8.46875 161.066406 C 8.902344 158.132812 9.410156 155.214844 9.988281 152.308594 C 10.566406 149.398438 11.214844 146.507812 11.9375 143.632812 C 12.65625 140.757812 13.445312 137.902344 14.308594 135.0625 C 15.167969 132.226562 16.097656 129.414062 17.097656 126.621094 C 18.09375 123.832031 19.160156 121.066406 20.296875 118.328125 C 21.429688 115.589844 22.632812 112.878906 23.898438 110.199219 C 25.167969 107.519531 26.5 104.871094 27.894531 102.257812 C 29.292969 99.644531 30.753906 97.066406 32.277344 94.523438 C 33.800781 91.980469 35.386719 89.476562 37.035156 87.011719 C 38.683594 84.546875 40.386719 82.121094 42.152344 79.742188 C 43.921875 77.359375 45.742188 75.023438 47.625 72.734375 C 49.503906 70.441406 51.441406 68.195312 53.429688 66 C 55.421875 63.804688 57.464844 61.65625 59.5625 59.5625 C 61.65625 57.464844 63.804688 55.421875 66 53.429688 C 68.195312 51.441406 70.441406 49.503906 72.734375 47.625 C 75.023438 45.742188 77.359375 43.921875 79.742188 42.152344 C 82.121094 40.386719 84.546875 38.683594 87.011719 37.035156 C 89.476562 35.386719 91.980469 33.800781 94.523438 32.277344 C 97.066406 30.753906 99.644531 29.292969 102.257812 27.894531 C 104.871094 26.5 107.519531 25.167969 110.199219 23.898438 C 112.878906 22.632812 115.589844 21.429688 118.328125 20.296875 C 121.066406 19.160156 123.832031 18.09375 126.621094 17.097656 C 129.414062 16.097656 132.226562 15.167969 135.0625 14.308594 C 137.902344 13.445312 140.757812 12.65625 143.632812 11.9375 C 146.507812 11.214844 149.398438 10.566406 152.308594 9.988281 C 155.214844 9.410156 158.132812 8.902344 161.066406 8.46875 C 164 8.035156 166.941406 7.671875 169.890625 7.378906 C 172.839844 7.089844 175.796875 6.871094 178.757812 6.726562 C 181.71875 6.582031 184.679688 6.507812 187.644531 6.507812 C 190.609375 6.507812 193.570312 6.582031 196.53125 6.726562 C 199.492188 6.871094 202.449219 7.089844 205.398438 7.378906 C 208.351562 7.671875 211.292969 8.035156 214.222656 8.46875 C 217.15625 8.902344 220.074219 9.410156 222.984375 9.988281 C 225.890625 10.566406 228.78125 11.214844 231.65625 11.9375 C 234.535156 12.65625 237.390625 13.445312 240.226562 14.308594 C 243.0625 15.167969 245.878906 16.097656 248.667969 17.097656 C 251.460938 18.09375 254.222656 19.160156 256.964844 20.296875 C 259.703125 21.429688 262.410156 22.632812 265.089844 23.898438 C 267.769531 25.167969 270.417969 26.5 273.03125 27.894531 C 275.648438 29.292969 278.226562 30.753906 280.769531 32.277344 C 283.3125 33.800781 285.816406 35.386719 288.28125 37.035156 C 290.746094 38.683594 293.167969 40.386719 295.546875 42.152344 C 297.929688 43.921875 300.265625 45.742188 302.558594 47.625 C 304.847656 49.503906 307.09375 51.441406 309.289062 53.429688 C 311.484375 55.421875 313.632812 57.464844 315.730469 59.5625 C 317.824219 61.65625 319.867188 63.804688 321.859375 66 C 323.851562 68.195312 325.785156 70.441406 327.667969 72.734375 C 329.546875 75.023438 331.371094 77.359375 333.136719 79.742188 C 334.902344 82.121094 336.609375 84.546875 338.253906 87.011719 C 339.902344 89.476562 341.488281 91.980469 343.011719 94.523438 C 344.535156 97.066406 345.996094 99.644531 347.394531 102.257812 C 348.792969 104.871094 350.125 107.519531 351.390625 110.199219 C 352.660156 112.878906 353.859375 115.589844 354.996094 118.328125 C 356.128906 121.066406 357.195312 123.832031 358.195312 126.621094 C 359.191406 129.414062 360.121094 132.226562 360.984375 135.0625 C 361.84375 137.902344 362.632812 140.757812 363.355469 143.632812 C 364.074219 146.507812 364.722656 149.398438 365.300781 152.308594 C 365.878906 155.214844 366.386719 158.132812 366.820312 161.066406 C 367.257812 164 367.621094 166.941406 367.910156 169.890625 C 368.199219 172.839844 368.417969 175.796875 368.5625 178.757812 C 368.710938 181.71875 368.78125 184.679688 368.78125 187.644531 Z M 368.78125 187.644531 " fill-opacity="1" fill-rule="nonzero"/></g><g clip-path="url(#086f91fe6a)"><g clip-path="url(#5c61fa9a32)"><path fill="#ffc089" d="M 348.175781 374.628906 C 348.175781 376.242188 348.125 377.855469 348.023438 379.464844 C 347.921875 381.078125 347.765625 382.6875 347.5625 384.292969 C 347.359375 385.898438 347.105469 387.5 346.800781 389.09375 C 346.492188 390.691406 346.136719 392.277344 345.730469 393.863281 C 345.324219 395.445312 344.871094 397.015625 344.363281 398.582031 C 343.859375 400.148438 343.304688 401.703125 342.699219 403.246094 C 342.09375 404.789062 341.441406 406.320312 340.742188 407.839844 C 340.039062 409.359375 339.289062 410.863281 338.492188 412.355469 C 337.695312 413.84375 336.855469 415.320312 335.964844 416.777344 C 335.074219 418.234375 334.136719 419.675781 333.15625 421.097656 C 332.175781 422.523438 331.148438 423.925781 330.078125 425.308594 C 329.007812 426.691406 327.894531 428.054688 326.738281 429.398438 C 325.582031 430.738281 324.382812 432.058594 323.144531 433.351562 C 321.90625 434.648438 320.625 435.921875 319.304688 437.167969 C 317.984375 438.414062 316.625 439.636719 315.226562 440.832031 C 313.828125 442.027344 312.394531 443.195312 310.921875 444.335938 C 309.449219 445.476562 307.941406 446.589844 306.398438 447.671875 C 304.855469 448.753906 303.28125 449.808594 301.671875 450.832031 C 300.0625 451.855469 298.421875 452.847656 296.75 453.808594 C 295.078125 454.769531 293.378906 455.699219 291.644531 456.59375 C 289.914062 457.492188 288.15625 458.355469 286.371094 459.183594 C 284.585938 460.011719 282.777344 460.808594 280.941406 461.570312 C 279.105469 462.328125 277.246094 463.054688 275.363281 463.746094 C 273.480469 464.433594 271.578125 465.085938 269.65625 465.703125 C 267.734375 466.324219 265.789062 466.902344 263.832031 467.445312 C 261.871094 467.988281 259.894531 468.496094 257.902344 468.964844 C 255.910156 469.433594 253.90625 469.863281 251.886719 470.253906 C 249.867188 470.648438 247.835938 471 245.792969 471.316406 C 243.753906 471.628906 241.703125 471.90625 239.644531 472.140625 C 237.585938 472.378906 235.519531 472.578125 233.449219 472.734375 C 231.375 472.890625 229.300781 473.011719 227.222656 473.089844 C 225.140625 473.167969 223.0625 473.210938 220.980469 473.210938 C 218.898438 473.210938 216.816406 473.167969 214.738281 473.089844 C 212.660156 473.011719 210.585938 472.890625 208.511719 472.734375 C 206.441406 472.578125 204.375 472.378906 202.316406 472.140625 C 200.257812 471.90625 198.207031 471.628906 196.164062 471.316406 C 194.125 471 192.09375 470.648438 190.074219 470.253906 C 188.054688 469.863281 186.050781 469.433594 184.058594 468.964844 C 182.066406 468.496094 180.089844 467.988281 178.128906 467.445312 C 176.167969 466.902344 174.226562 466.324219 172.304688 465.703125 C 170.382812 465.085938 168.480469 464.433594 166.597656 463.746094 C 164.714844 463.054688 162.855469 462.328125 161.019531 461.570312 C 159.183594 460.808594 157.375 460.011719 155.589844 459.183594 C 153.804688 458.355469 152.042969 457.492188 150.3125 456.59375 C 148.582031 455.699219 146.882812 454.769531 145.210938 453.808594 C 143.539062 452.847656 141.898438 451.855469 140.289062 450.832031 C 138.679688 449.808594 137.101562 448.753906 135.5625 447.671875 C 134.019531 446.589844 132.511719 445.476562 131.039062 444.335938 C 129.566406 443.195312 128.132812 442.027344 126.734375 440.832031 C 125.335938 439.636719 123.976562 438.414062 122.65625 437.167969 C 121.335938 435.921875 120.054688 434.648438 118.816406 433.351562 C 117.574219 432.058594 116.378906 430.738281 115.21875 429.398438 C 114.0625 428.054688 112.949219 426.691406 111.878906 425.308594 C 110.808594 423.925781 109.785156 422.523438 108.804688 421.097656 C 107.820312 419.675781 106.886719 418.234375 105.996094 416.777344 C 105.105469 415.320312 104.261719 413.84375 103.464844 412.355469 C 102.667969 410.863281 101.921875 409.359375 101.21875 407.839844 C 100.519531 406.320312 99.867188 404.789062 99.261719 403.246094 C 98.65625 401.703125 98.101562 400.148438 97.597656 398.582031 C 97.089844 397.015625 96.632812 395.445312 96.226562 393.863281 C 95.820312 392.277344 95.464844 390.691406 95.160156 389.09375 C 94.855469 387.5 94.601562 385.898438 94.398438 384.292969 C 94.191406 382.6875 94.039062 381.078125 93.9375 379.464844 C 93.835938 377.855469 93.785156 376.242188 93.785156 374.628906 C 93.785156 373.015625 93.835938 371.402344 93.9375 369.792969 C 94.039062 368.179688 94.191406 366.574219 94.398438 364.96875 C 94.601562 363.363281 94.855469 361.761719 95.160156 360.164062 C 95.464844 358.570312 95.820312 356.980469 96.226562 355.398438 C 96.632812 353.816406 97.089844 352.242188 97.597656 350.675781 C 98.101562 349.113281 98.65625 347.558594 99.261719 346.011719 C 99.867188 344.46875 100.519531 342.9375 101.21875 341.417969 C 101.921875 339.898438 102.667969 338.394531 103.464844 336.90625 C 104.261719 335.414062 105.105469 333.941406 105.996094 332.480469 C 106.886719 331.023438 107.820312 329.582031 108.804688 328.160156 C 109.785156 326.738281 110.808594 325.332031 111.878906 323.949219 C 112.949219 322.566406 114.0625 321.203125 115.21875 319.863281 C 116.378906 318.519531 117.574219 317.203125 118.816406 315.90625 C 120.054688 314.609375 121.335938 313.339844 122.65625 312.089844 C 123.976562 310.84375 125.335938 309.621094 126.734375 308.425781 C 128.132812 307.230469 129.566406 306.0625 131.039062 304.921875 C 132.511719 303.78125 134.019531 302.671875 135.5625 301.585938 C 137.101562 300.503906 138.679688 299.449219 140.289062 298.425781 C 141.898438 297.402344 143.539062 296.410156 145.210938 295.449219 C 146.882812 294.488281 148.582031 293.558594 150.3125 292.664062 C 152.042969 291.765625 153.804688 290.90625 155.589844 290.074219 C 157.375 289.246094 159.183594 288.449219 161.019531 287.691406 C 162.855469 286.929688 164.714844 286.203125 166.597656 285.515625 C 168.480469 284.824219 170.382812 284.171875 172.304688 283.554688 C 174.226562 282.9375 176.167969 282.355469 178.128906 281.8125 C 180.089844 281.269531 182.066406 280.761719 184.058594 280.292969 C 186.050781 279.828125 188.054688 279.394531 190.074219 279.003906 C 192.09375 278.613281 194.125 278.257812 196.164062 277.945312 C 198.207031 277.628906 200.257812 277.355469 202.316406 277.117188 C 204.375 276.878906 206.441406 276.683594 208.511719 276.523438 C 210.585938 276.367188 212.660156 276.246094 214.738281 276.167969 C 216.816406 276.089844 218.898438 276.050781 220.980469 276.050781 C 223.0625 276.050781 225.140625 276.089844 227.222656 276.167969 C 229.300781 276.246094 231.375 276.367188 233.449219 276.523438 C 235.519531 276.683594 237.585938 276.878906 239.644531 277.117188 C 241.703125 277.355469 243.753906 277.628906 245.792969 277.945312 C 247.835938 278.257812 249.867188 278.613281 251.886719 279.003906 C 253.90625 279.394531 255.910156 279.828125 257.902344 280.292969 C 259.894531 280.761719 261.871094 281.269531 263.832031 281.8125 C 265.789062 282.355469 267.734375 282.9375 269.65625 283.554688 C 271.578125 284.171875 273.480469 284.824219 275.363281 285.515625 C 277.246094 286.203125 279.105469 286.929688 280.941406 287.691406 C 282.777344 288.449219 284.585938 289.246094 286.371094 290.074219 C 288.15625 290.90625 289.914062 291.765625 291.644531 292.664062 C 293.378906 293.558594 295.078125 294.488281 296.75 295.449219 C 298.421875 296.410156 300.0625 297.402344 301.671875 298.425781 C 303.28125 299.449219 304.855469 300.503906 306.398438 301.585938 C 307.941406 302.671875 309.449219 303.78125 310.921875 304.921875 C 312.394531 306.0625 313.828125 307.230469 315.226562 308.425781 C 316.625 309.621094 317.984375 310.84375 319.304688 312.089844 C 320.625 313.339844 321.90625 314.609375 323.144531 315.90625 C 324.382812 317.203125 325.582031 318.519531 326.738281 319.863281 C 327.894531 321.203125 329.007812 322.566406 330.078125 323.949219 C 331.148438 325.332031 332.175781 326.738281 333.15625 328.160156 C 334.136719 329.582031 335.074219 331.023438 335.964844 332.480469 C 336.855469 333.941406 337.695312 335.414062 338.492188 336.90625 C 339.289062 338.394531 340.039062 339.898438 340.742188 341.417969 C 341.441406 342.9375 342.09375 344.46875 342.699219 346.011719 C 343.304688 347.558594 343.859375 349.113281 344.363281 350.675781 C 344.871094 352.242188 345.324219 353.816406 345.730469 355.398438 C 346.136719 356.980469 346.492188 358.570312 346.800781 360.164062 C 347.105469 361.761719 347.359375 363.363281 347.5625 364.96875 C 347.765625 366.574219 347.921875 368.179688 348.023438 369.792969 C 348.125 371.402344 348.175781 373.015625 348.175781 374.628906 Z M 348.175781 374.628906 " fill-opacity="1" fill-rule="nonzero"/></g></g><path fill="#d37a7a" d="M 182.714844 227.734375 L 217.957031 227.734375 C 218.53125 227.734375 219.09375 227.789062 219.65625 227.902344 C 220.214844 228.011719 220.757812 228.179688 221.285156 228.398438 C 221.8125 228.613281 222.3125 228.882812 222.789062 229.199219 C 223.261719 229.515625 223.703125 229.878906 224.105469 230.28125 C 224.507812 230.683594 224.871094 231.125 225.1875 231.597656 C 225.503906 232.074219 225.769531 232.574219 225.988281 233.101562 C 226.207031 233.628906 226.371094 234.171875 226.484375 234.730469 C 226.59375 235.292969 226.652344 235.855469 226.652344 236.425781 L 226.652344 280.421875 C 226.652344 281.285156 226.609375 282.144531 226.523438 283 C 226.441406 283.859375 226.3125 284.710938 226.144531 285.554688 C 225.976562 286.402344 225.769531 287.234375 225.519531 288.058594 C 225.269531 288.886719 224.976562 289.695312 224.648438 290.492188 C 224.320312 291.289062 223.949219 292.066406 223.542969 292.824219 C 223.136719 293.585938 222.695312 294.324219 222.21875 295.039062 C 221.738281 295.757812 221.226562 296.449219 220.679688 297.113281 C 220.132812 297.78125 219.554688 298.417969 218.945312 299.027344 C 218.335938 299.636719 217.699219 300.214844 217.03125 300.761719 C 216.363281 301.308594 215.671875 301.820312 214.957031 302.300781 C 214.242188 302.777344 213.503906 303.222656 212.742188 303.628906 C 211.980469 304.035156 211.203125 304.402344 210.40625 304.730469 C 209.613281 305.0625 208.800781 305.351562 207.976562 305.601562 C 207.152344 305.851562 206.316406 306.0625 205.472656 306.230469 C 204.625 306.398438 203.777344 306.523438 202.917969 306.609375 C 202.058594 306.691406 201.199219 306.734375 200.339844 306.734375 C 199.476562 306.734375 198.617188 306.691406 197.757812 306.609375 C 196.902344 306.523438 196.050781 306.398438 195.203125 306.230469 C 194.359375 306.0625 193.523438 305.851562 192.699219 305.601562 C 191.875 305.351562 191.066406 305.0625 190.269531 304.734375 C 189.472656 304.402344 188.695312 304.035156 187.933594 303.628906 C 187.175781 303.222656 186.4375 302.78125 185.71875 302.300781 C 185.003906 301.824219 184.3125 301.308594 183.644531 300.761719 C 182.980469 300.214844 182.339844 299.636719 181.730469 299.027344 C 181.121094 298.417969 180.542969 297.78125 179.996094 297.117188 C 179.449219 296.449219 178.9375 295.757812 178.457031 295.042969 C 177.980469 294.324219 177.539062 293.585938 177.132812 292.828125 C 176.726562 292.066406 176.355469 291.289062 176.027344 290.492188 C 175.695312 289.695312 175.40625 288.886719 175.15625 288.0625 C 174.90625 287.234375 174.699219 286.402344 174.527344 285.554688 C 174.359375 284.710938 174.234375 283.859375 174.148438 283 C 174.066406 282.144531 174.023438 281.285156 174.023438 280.421875 L 174.023438 236.425781 C 174.023438 235.855469 174.078125 235.292969 174.191406 234.730469 C 174.300781 234.171875 174.46875 233.628906 174.683594 233.101562 C 174.902344 232.574219 175.171875 232.074219 175.488281 231.597656 C 175.804688 231.125 176.164062 230.683594 176.570312 230.28125 C 176.972656 229.878906 177.414062 229.515625 177.886719 229.199219 C 178.363281 228.882812 178.863281 228.617188 179.390625 228.398438 C 179.917969 228.179688 180.460938 228.011719 181.019531 227.902344 C 181.582031 227.789062 182.144531 227.734375 182.714844 227.734375 Z M 182.714844 227.734375 " fill-opacity="1" fill-rule="nonzero"/><path fill="#e58b89" d="M 141.308594 197.902344 C 141.308594 198.875 141.214844 199.839844 141.023438 200.792969 C 140.835938 201.746094 140.554688 202.675781 140.179688 203.574219 C 139.808594 204.472656 139.351562 205.328125 138.8125 206.136719 C 138.269531 206.945312 137.65625 207.695312 136.96875 208.382812 C 136.28125 209.070312 135.53125 209.683594 134.722656 210.226562 C 133.910156 210.765625 133.058594 211.222656 132.160156 211.59375 C 131.257812 211.96875 130.332031 212.25 129.378906 212.4375 C 128.421875 212.628906 127.460938 212.722656 126.484375 212.722656 C 118.300781 212.722656 111.664062 202.945312 111.664062 194.757812 C 111.664062 186.570312 118.300781 183.078125 126.484375 183.078125 C 127.460938 183.078125 128.421875 183.171875 129.378906 183.363281 C 130.332031 183.550781 131.257812 183.832031 132.160156 184.207031 C 133.058594 184.578125 133.914062 185.035156 134.722656 185.574219 C 135.53125 186.117188 136.28125 186.730469 136.96875 187.417969 C 137.65625 188.109375 138.269531 188.855469 138.8125 189.664062 C 139.351562 190.476562 139.808594 191.328125 140.179688 192.230469 C 140.554688 193.128906 140.835938 194.054688 141.023438 195.007812 C 141.214844 195.964844 141.308594 196.929688 141.308594 197.902344 Z M 141.308594 197.902344 " fill-opacity="1" fill-rule="nonzero"/><path fill="#e58b89" d="M 270.609375 195.433594 C 270.609375 204.09375 263.589844 214.441406 254.929688 214.441406 C 253.910156 214.425781 252.898438 214.316406 251.898438 214.105469 C 250.898438 213.894531 249.929688 213.589844 248.992188 213.191406 C 248.050781 212.789062 247.15625 212.304688 246.3125 211.730469 C 245.46875 211.15625 244.6875 210.503906 243.96875 209.777344 C 243.25 209.050781 242.609375 208.261719 242.046875 207.410156 C 241.484375 206.558594 241.007812 205.660156 240.621094 204.714844 C 240.230469 203.769531 239.9375 202.796875 239.742188 201.792969 C 239.542969 200.792969 239.445312 199.78125 239.445312 198.757812 C 239.445312 197.738281 239.542969 196.726562 239.742188 195.722656 C 239.9375 194.722656 240.230469 193.746094 240.621094 192.804688 C 241.007812 191.859375 241.484375 190.960938 242.046875 190.109375 C 242.609375 189.253906 243.25 188.464844 243.96875 187.738281 C 244.6875 187.011719 245.46875 186.363281 246.3125 185.789062 C 247.15625 185.214844 248.050781 184.726562 248.992188 184.328125 C 249.929688 183.925781 250.898438 183.621094 251.898438 183.410156 C 252.898438 183.203125 253.910156 183.089844 254.929688 183.078125 C 263.597656 183.078125 270.609375 186.773438 270.609375 195.433594 Z M 270.609375 195.433594 " fill-opacity="1" fill-rule="nonzero"/><path fill="#fda297" d="M 189.199219 280.832031 C 135.808594 287.675781 124.234375 204.796875 123.484375 173.296875 C 122.621094 137.015625 152.90625 107.582031 189.199219 107.582031 C 225.492188 107.582031 255.789062 137.015625 254.914062 173.296875 C 254.152344 204.796875 249.664062 273.074219 189.199219 280.832031 Z M 189.199219 280.832031 " fill-opacity="1" fill-rule="nonzero"/><path fill="#18008b" d="M 125.113281 194.40625 C 125.113281 194.40625 112.78125 153.507812 116.65625 136.507812 C 120.53125 119.503906 140.546875 92.597656 186.714844 92.597656 C 234.5 92.597656 248.242188 126.605469 254.929688 141.242188 C 261.621094 155.875 253.269531 198.753906 253.269531 198.753906 C 253.269531 198.753906 246.554688 156.738281 237.082031 144.898438 C 227.613281 133.058594 177.4375 119.714844 176.800781 119.714844 C 176.167969 119.714844 128.910156 145.320312 128.910156 145.320312 Z M 125.113281 194.40625 " fill-opacity="1" fill-rule="nonzero"/><path fill="#18008b" d="M 155.234375 195.214844 C 155.234375 195.640625 155.214844 196.066406 155.175781 196.484375 C 155.136719 196.902344 155.078125 197.308594 155 197.703125 C 154.921875 198.097656 154.828125 198.472656 154.714844 198.828125 C 154.601562 199.183594 154.472656 199.515625 154.332031 199.816406 C 154.1875 200.117188 154.03125 200.386719 153.863281 200.625 C 153.691406 200.863281 153.515625 201.0625 153.328125 201.226562 C 153.140625 201.390625 152.945312 201.511719 152.746094 201.597656 C 152.550781 201.679688 152.347656 201.722656 152.144531 201.722656 C 151.941406 201.722656 151.742188 201.679688 151.542969 201.597656 C 151.34375 201.511719 151.148438 201.390625 150.960938 201.226562 C 150.773438 201.0625 150.597656 200.863281 150.429688 200.625 C 150.257812 200.386719 150.101562 200.117188 149.960938 199.816406 C 149.816406 199.515625 149.6875 199.183594 149.574219 198.828125 C 149.460938 198.472656 149.367188 198.097656 149.289062 197.703125 C 149.210938 197.308594 149.152344 196.902344 149.113281 196.484375 C 149.074219 196.066406 149.054688 195.640625 149.054688 195.214844 C 149.054688 194.785156 149.074219 194.363281 149.113281 193.945312 C 149.152344 193.527344 149.210938 193.117188 149.289062 192.722656 C 149.367188 192.328125 149.460938 191.953125 149.574219 191.597656 C 149.6875 191.242188 149.816406 190.914062 149.960938 190.613281 C 150.101562 190.308594 150.257812 190.039062 150.429688 189.804688 C 150.597656 189.566406 150.773438 189.367188 150.960938 189.203125 C 151.148438 189.039062 151.34375 188.914062 151.542969 188.832031 C 151.742188 188.75 151.941406 188.707031 152.144531 188.707031 C 152.347656 188.707031 152.550781 188.75 152.746094 188.832031 C 152.945312 188.914062 153.140625 189.039062 153.328125 189.203125 C 153.515625 189.367188 153.691406 189.566406 153.863281 189.804688 C 154.03125 190.039062 154.1875 190.308594 154.332031 190.613281 C 154.472656 190.914062 154.601562 191.242188 154.714844 191.597656 C 154.828125 191.953125 154.921875 192.328125 155 192.722656 C 155.078125 193.117188 155.136719 193.527344 155.175781 193.945312 C 155.214844 194.363281 155.234375 194.785156 155.234375 195.214844 Z M 155.234375 195.214844 " fill-opacity="1" fill-rule="nonzero"/><path fill="#18008b" d="M 202 195.214844 C 202 195.640625 201.980469 196.066406 201.941406 196.484375 C 201.898438 196.902344 201.839844 197.308594 201.765625 197.703125 C 201.6875 198.097656 201.589844 198.472656 201.476562 198.828125 C 201.367188 199.183594 201.238281 199.515625 201.09375 199.816406 C 200.949219 200.117188 200.792969 200.386719 200.625 200.625 C 200.457031 200.863281 200.277344 201.0625 200.089844 201.226562 C 199.902344 201.390625 199.710938 201.511719 199.511719 201.597656 C 199.3125 201.679688 199.113281 201.722656 198.910156 201.722656 C 198.707031 201.722656 198.503906 201.679688 198.304688 201.597656 C 198.105469 201.511719 197.914062 201.390625 197.726562 201.226562 C 197.539062 201.0625 197.359375 200.863281 197.191406 200.625 C 197.023438 200.386719 196.867188 200.117188 196.722656 199.816406 C 196.578125 199.515625 196.453125 199.183594 196.339844 198.828125 C 196.226562 198.472656 196.132812 198.097656 196.054688 197.703125 C 195.976562 197.308594 195.917969 196.902344 195.878906 196.484375 C 195.835938 196.066406 195.816406 195.640625 195.816406 195.214844 C 195.816406 194.785156 195.835938 194.363281 195.878906 193.945312 C 195.917969 193.527344 195.976562 193.117188 196.054688 192.722656 C 196.132812 192.328125 196.226562 191.953125 196.339844 191.597656 C 196.453125 191.242188 196.578125 190.914062 196.722656 190.613281 C 196.867188 190.308594 197.023438 190.039062 197.191406 189.804688 C 197.359375 189.566406 197.539062 189.367188 197.726562 189.203125 C 197.914062 189.039062 198.105469 188.914062 198.304688 188.832031 C 198.503906 188.75 198.707031 188.707031 198.910156 188.707031 C 199.113281 188.707031 199.3125 188.75 199.511719 188.832031 C 199.710938 188.914062 199.902344 189.039062 200.089844 189.203125 C 200.277344 189.367188 200.457031 189.566406 200.625 189.804688 C 200.792969 190.039062 200.949219 190.308594 201.09375 190.613281 C 201.238281 190.914062 201.367188 191.242188 201.476562 191.597656 C 201.589844 191.953125 201.6875 192.328125 201.765625 192.722656 C 201.839844 193.117188 201.898438 193.527344 201.941406 193.945312 C 201.980469 194.363281 202 194.785156 202 195.214844 Z M 202 195.214844 " fill-opacity="1" fill-rule="nonzero"/><path fill="#18008b" d="M 176.992188 234.398438 C 176.933594 234.402344 176.871094 234.402344 176.808594 234.398438 C 176.097656 234.398438 175.394531 234.304688 174.703125 234.121094 C 174.015625 233.933594 173.363281 233.660156 172.746094 233.304688 C 172.128906 232.945312 171.566406 232.511719 171.0625 232.003906 C 170.558594 231.5 170.132812 230.9375 169.777344 230.316406 C 167.285156 225.367188 171.394531 218.25 171.867188 217.449219 C 171.996094 217.246094 172.160156 217.074219 172.355469 216.933594 C 172.554688 216.792969 172.769531 216.695312 173.003906 216.640625 C 173.238281 216.582031 173.472656 216.574219 173.714844 216.609375 C 173.953125 216.648438 174.175781 216.726562 174.382812 216.851562 C 174.589844 216.976562 174.765625 217.132812 174.910156 217.328125 C 175.054688 217.519531 175.15625 217.734375 175.21875 217.96875 C 175.28125 218.199219 175.292969 218.4375 175.261719 218.675781 C 175.230469 218.914062 175.15625 219.140625 175.039062 219.347656 C 174.101562 220.914062 171.738281 225.988281 173.078125 228.652344 C 173.296875 229.082031 173.960938 230.386719 177.171875 230.714844 C 177.40625 230.746094 177.621094 230.816406 177.828125 230.925781 C 178.03125 231.039062 178.210938 231.183594 178.359375 231.363281 C 178.507812 231.539062 178.621094 231.738281 178.695312 231.960938 C 178.769531 232.183594 178.800781 232.410156 178.789062 232.640625 C 178.78125 232.875 178.726562 233.097656 178.628906 233.308594 C 178.535156 233.523438 178.402344 233.710938 178.238281 233.871094 C 178.070312 234.035156 177.878906 234.164062 177.664062 234.253906 C 177.449219 234.34375 177.226562 234.390625 176.992188 234.398438 Z M 176.992188 234.398438 " fill-opacity="1" fill-rule="nonzero"/><path fill="#18008b" d="M 137.617188 186.660156 C 137.214844 186.660156 136.851562 186.539062 136.523438 186.300781 C 136.199219 186.0625 135.976562 185.75 135.855469 185.367188 C 135.734375 184.984375 135.738281 184.597656 135.867188 184.21875 C 136 183.835938 136.230469 183.527344 136.558594 183.296875 C 136.878906 183.074219 144.488281 177.941406 157.179688 180.632812 C 157.414062 180.691406 157.628906 180.789062 157.824219 180.929688 C 158.019531 181.070312 158.179688 181.242188 158.308594 181.445312 C 158.4375 181.648438 158.519531 181.867188 158.5625 182.105469 C 158.605469 182.339844 158.601562 182.574219 158.550781 182.8125 C 158.503906 183.046875 158.410156 183.261719 158.277344 183.460938 C 158.140625 183.660156 157.972656 183.828125 157.773438 183.960938 C 157.574219 184.097656 157.359375 184.1875 157.125 184.238281 C 156.886719 184.285156 156.652344 184.289062 156.414062 184.246094 C 154.9375 183.855469 153.433594 183.609375 151.90625 183.5 C 150.378906 183.394531 148.855469 183.429688 147.335938 183.609375 C 145.816406 183.785156 144.328125 184.105469 142.867188 184.566406 C 141.410156 185.023438 140.003906 185.617188 138.65625 186.339844 C 138.34375 186.554688 137.996094 186.660156 137.617188 186.660156 Z M 137.617188 186.660156 " fill-opacity="1" fill-rule="nonzero"/><path fill="#18008b" d="M 213.441406 186.664062 C 213.0625 186.664062 212.714844 186.554688 212.398438 186.339844 C 211.050781 185.617188 209.644531 185.023438 208.1875 184.566406 C 206.726562 184.105469 205.238281 183.789062 203.71875 183.609375 C 202.199219 183.429688 200.675781 183.394531 199.148438 183.503906 C 197.621094 183.609375 196.121094 183.859375 194.640625 184.246094 C 194.398438 184.308594 194.152344 184.316406 193.90625 184.277344 C 193.660156 184.234375 193.429688 184.148438 193.21875 184.015625 C 193.007812 183.882812 192.828125 183.714844 192.6875 183.507812 C 192.542969 183.304688 192.445312 183.078125 192.394531 182.835938 C 192.34375 182.589844 192.339844 182.34375 192.390625 182.097656 C 192.4375 181.855469 192.53125 181.628906 192.667969 181.421875 C 192.808594 181.210938 192.984375 181.039062 193.191406 180.902344 C 193.402344 180.765625 193.628906 180.675781 193.875 180.632812 C 206.570312 177.941406 214.164062 183.078125 214.496094 183.296875 C 214.828125 183.527344 215.058594 183.832031 215.191406 184.214844 C 215.324219 184.597656 215.328125 184.980469 215.207031 185.367188 C 215.085938 185.753906 214.863281 186.066406 214.539062 186.304688 C 214.210938 186.542969 213.847656 186.664062 213.441406 186.664062 Z M 213.441406 186.664062 " fill-opacity="1" fill-rule="nonzero"/><path fill="#18008b" d="M 187.632812 254.707031 C 187.386719 254.707031 187.152344 254.660156 186.925781 254.566406 C 186.699219 254.472656 186.5 254.335938 186.324219 254.164062 C 186.152344 253.992188 186.019531 253.792969 185.925781 253.566406 C 185.832031 253.339844 185.785156 253.101562 185.785156 252.859375 C 185.785156 252.613281 185.832031 252.375 185.925781 252.148438 C 186.019531 251.921875 186.152344 251.722656 186.324219 251.550781 C 186.5 251.378906 186.699219 251.242188 186.925781 251.148438 C 187.152344 251.054688 187.386719 251.007812 187.632812 251.007812 C 188.007812 251.007812 188.378906 250.972656 188.746094 250.898438 C 189.113281 250.824219 189.46875 250.71875 189.816406 250.574219 C 190.164062 250.429688 190.492188 250.253906 190.804688 250.046875 C 191.113281 249.835938 191.402344 249.601562 191.667969 249.335938 C 191.933594 249.070312 192.171875 248.78125 192.378906 248.472656 C 192.585938 248.160156 192.761719 247.832031 192.90625 247.484375 C 193.050781 247.136719 193.160156 246.78125 193.234375 246.414062 C 193.304688 246.046875 193.34375 245.675781 193.34375 245.300781 C 193.335938 245.050781 193.375 244.808594 193.464844 244.574219 C 193.554688 244.339844 193.6875 244.132812 193.859375 243.949219 C 194.035156 243.769531 194.238281 243.628906 194.46875 243.53125 C 194.699219 243.433594 194.941406 243.382812 195.191406 243.382812 C 195.441406 243.382812 195.683594 243.433594 195.914062 243.53125 C 196.144531 243.628906 196.347656 243.769531 196.519531 243.949219 C 196.695312 244.132812 196.828125 244.339844 196.917969 244.574219 C 197.007812 244.808594 197.046875 245.050781 197.039062 245.300781 C 197.035156 245.917969 196.976562 246.53125 196.855469 247.136719 C 196.734375 247.738281 196.554688 248.328125 196.320312 248.898438 C 196.082031 249.46875 195.792969 250.011719 195.449219 250.523438 C 195.105469 251.035156 194.714844 251.511719 194.28125 251.949219 C 193.84375 252.382812 193.367188 252.773438 192.855469 253.117188 C 192.34375 253.460938 191.800781 253.75 191.230469 253.988281 C 190.660156 254.222656 190.070312 254.402344 189.464844 254.523438 C 188.863281 254.644531 188.25 254.707031 187.632812 254.707031 Z M 187.632812 254.707031 " fill-opacity="1" fill-rule="nonzero"/><path fill="#ffffff" d="M 142.847656 217.621094 C 141.957031 217.621094 141.074219 217.578125 140.1875 217.488281 C 139.304688 217.402344 138.429688 217.273438 137.558594 217.097656 C 136.6875 216.925781 135.828125 216.710938 134.976562 216.453125 C 134.128906 216.195312 133.292969 215.894531 132.472656 215.554688 C 131.652344 215.214844 130.851562 214.835938 130.066406 214.417969 C 129.285156 214 128.523438 213.542969 127.785156 213.050781 C 127.046875 212.558594 126.335938 212.03125 125.648438 211.464844 C 124.960938 210.902344 124.304688 210.308594 123.675781 209.679688 C 123.050781 209.050781 122.453125 208.394531 121.890625 207.707031 C 121.328125 207.023438 120.800781 206.308594 120.304688 205.570312 C 119.8125 204.832031 119.355469 204.074219 118.9375 203.289062 C 118.519531 202.507812 118.140625 201.703125 117.800781 200.882812 C 117.460938 200.066406 117.160156 199.230469 116.90625 198.378906 C 116.648438 197.53125 116.429688 196.671875 116.257812 195.800781 C 116.085938 194.929688 115.953125 194.050781 115.867188 193.167969 C 115.78125 192.285156 115.738281 191.398438 115.738281 190.511719 C 115.738281 189.621094 115.78125 188.738281 115.867188 187.851562 C 115.953125 186.96875 116.085938 186.09375 116.257812 185.222656 C 116.429688 184.351562 116.648438 183.492188 116.90625 182.640625 C 117.160156 181.792969 117.460938 180.957031 117.800781 180.136719 C 118.140625 179.316406 118.519531 178.515625 118.9375 177.730469 C 119.355469 176.949219 119.8125 176.1875 120.304688 175.449219 C 120.800781 174.710938 121.328125 174 121.890625 173.3125 C 122.453125 172.625 123.050781 171.96875 123.675781 171.339844 C 124.304688 170.714844 124.960938 170.117188 125.648438 169.554688 C 126.335938 168.992188 127.046875 168.464844 127.785156 167.96875 C 128.523438 167.476562 129.285156 167.019531 130.066406 166.601562 C 130.851562 166.183594 131.652344 165.804688 132.472656 165.464844 C 133.292969 165.125 134.128906 164.824219 134.976562 164.570312 C 135.828125 164.3125 136.6875 164.09375 137.558594 163.921875 C 138.429688 163.75 139.304688 163.617188 140.1875 163.53125 C 141.074219 163.445312 141.957031 163.402344 142.847656 163.402344 C 143.734375 163.402344 144.621094 163.445312 145.503906 163.53125 C 146.386719 163.617188 147.265625 163.75 148.136719 163.921875 C 149.007812 164.09375 149.867188 164.3125 150.714844 164.570312 C 151.566406 164.824219 152.398438 165.125 153.21875 165.464844 C 154.039062 165.804688 154.84375 166.183594 155.625 166.601562 C 156.410156 167.019531 157.167969 167.476562 157.90625 167.96875 C 158.644531 168.464844 159.359375 168.992188 160.042969 169.554688 C 160.730469 170.117188 161.386719 170.714844 162.015625 171.339844 C 162.644531 171.96875 163.238281 172.625 163.800781 173.3125 C 164.367188 174 164.894531 174.710938 165.386719 175.449219 C 165.878906 176.1875 166.335938 176.949219 166.753906 177.730469 C 167.171875 178.515625 167.550781 179.316406 167.890625 180.136719 C 168.230469 180.957031 168.53125 181.792969 168.789062 182.640625 C 169.046875 183.492188 169.261719 184.351562 169.433594 185.222656 C 169.609375 186.09375 169.738281 186.96875 169.824219 187.851562 C 169.914062 188.738281 169.957031 189.621094 169.957031 190.511719 C 169.953125 191.398438 169.910156 192.285156 169.824219 193.167969 C 169.734375 194.050781 169.601562 194.925781 169.429688 195.796875 C 169.253906 196.667969 169.039062 197.527344 168.78125 198.375 C 168.523438 199.226562 168.222656 200.058594 167.882812 200.878906 C 167.542969 201.699219 167.164062 202.5 166.746094 203.285156 C 166.328125 204.066406 165.871094 204.828125 165.378906 205.5625 C 164.882812 206.300781 164.355469 207.015625 163.792969 207.699219 C 163.230469 208.386719 162.632812 209.042969 162.007812 209.671875 C 161.378906 210.296875 160.722656 210.894531 160.035156 211.457031 C 159.351562 212.019531 158.636719 212.546875 157.898438 213.042969 C 157.160156 213.535156 156.402344 213.992188 155.621094 214.410156 C 154.835938 214.828125 154.035156 215.207031 153.214844 215.546875 C 152.394531 215.886719 151.5625 216.1875 150.710938 216.445312 C 149.863281 216.703125 149.003906 216.917969 148.132812 217.09375 C 147.261719 217.269531 146.386719 217.398438 145.503906 217.488281 C 144.621094 217.574219 143.734375 217.617188 142.847656 217.621094 Z M 142.847656 167.097656 C 142.078125 167.097656 141.3125 167.136719 140.550781 167.210938 C 139.789062 167.285156 139.03125 167.398438 138.277344 167.546875 C 137.527344 167.699219 136.78125 167.882812 136.050781 168.105469 C 135.316406 168.328125 134.59375 168.585938 133.886719 168.878906 C 133.175781 169.171875 132.484375 169.5 131.808594 169.863281 C 131.132812 170.222656 130.476562 170.617188 129.835938 171.042969 C 129.199219 171.46875 128.585938 171.925781 127.992188 172.414062 C 127.398438 172.898438 126.832031 173.414062 126.289062 173.957031 C 125.746094 174.5 125.234375 175.066406 124.746094 175.660156 C 124.257812 176.25 123.804688 176.867188 123.378906 177.503906 C 122.949219 178.140625 122.558594 178.800781 122.195312 179.476562 C 121.835938 180.152344 121.507812 180.84375 121.214844 181.554688 C 120.921875 182.261719 120.660156 182.984375 120.4375 183.714844 C 120.214844 184.449219 120.03125 185.195312 119.882812 185.945312 C 119.730469 186.699219 119.617188 187.457031 119.542969 188.21875 C 119.46875 188.980469 119.429688 189.746094 119.429688 190.515625 C 119.429688 191.28125 119.46875 192.046875 119.542969 192.808594 C 119.621094 193.570312 119.730469 194.328125 119.882812 195.082031 C 120.03125 195.835938 120.21875 196.578125 120.441406 197.3125 C 120.664062 198.042969 120.921875 198.765625 121.214844 199.472656 C 121.507812 200.183594 121.835938 200.875 122.195312 201.550781 C 122.558594 202.226562 122.953125 202.886719 123.378906 203.523438 C 123.804688 204.160156 124.261719 204.777344 124.746094 205.367188 C 125.234375 205.960938 125.746094 206.527344 126.289062 207.070312 C 126.832031 207.613281 127.398438 208.128906 127.992188 208.613281 C 128.585938 209.101562 129.199219 209.558594 129.839844 209.984375 C 130.476562 210.410156 131.132812 210.800781 131.808594 211.164062 C 132.484375 211.527344 133.179688 211.851562 133.886719 212.144531 C 134.59375 212.441406 135.316406 212.699219 136.050781 212.921875 C 136.785156 213.144531 137.527344 213.328125 138.28125 213.476562 C 139.03125 213.628906 139.789062 213.742188 140.554688 213.816406 C 141.316406 213.890625 142.082031 213.929688 142.847656 213.929688 C 143.613281 213.929688 144.378906 213.890625 145.144531 213.816406 C 145.90625 213.738281 146.664062 213.628906 147.417969 213.476562 C 148.167969 213.328125 148.910156 213.140625 149.644531 212.917969 C 150.378906 212.695312 151.101562 212.4375 151.808594 212.144531 C 152.515625 211.851562 153.210938 211.523438 153.886719 211.164062 C 154.5625 210.800781 155.21875 210.40625 155.855469 209.980469 C 156.496094 209.554688 157.109375 209.097656 157.703125 208.613281 C 158.296875 208.125 158.863281 207.609375 159.40625 207.070312 C 159.945312 206.527344 160.460938 205.957031 160.949219 205.367188 C 161.433594 204.773438 161.890625 204.15625 162.316406 203.519531 C 162.742188 202.882812 163.136719 202.226562 163.496094 201.546875 C 163.859375 200.871094 164.1875 200.179688 164.480469 199.472656 C 164.773438 198.761719 165.03125 198.042969 165.253906 197.308594 C 165.476562 196.574219 165.664062 195.832031 165.8125 195.078125 C 165.960938 194.328125 166.074219 193.570312 166.148438 192.804688 C 166.222656 192.042969 166.261719 191.277344 166.261719 190.511719 C 166.261719 189.742188 166.222656 188.980469 166.144531 188.214844 C 166.070312 187.453125 165.957031 186.695312 165.808594 185.945312 C 165.65625 185.191406 165.472656 184.449219 165.246094 183.714844 C 165.023438 182.984375 164.765625 182.261719 164.472656 181.554688 C 164.179688 180.84375 163.851562 180.152344 163.488281 179.476562 C 163.128906 178.800781 162.734375 178.144531 162.308594 177.507812 C 161.882812 176.871094 161.425781 176.253906 160.9375 175.664062 C 160.453125 175.070312 159.9375 174.503906 159.394531 173.960938 C 158.855469 173.417969 158.285156 172.90625 157.695312 172.417969 C 157.101562 171.929688 156.488281 171.476562 155.847656 171.050781 C 155.210938 170.621094 154.554688 170.230469 153.878906 169.867188 C 153.203125 169.503906 152.511719 169.179688 151.804688 168.882812 C 151.09375 168.589844 150.375 168.332031 149.640625 168.109375 C 148.90625 167.886719 148.164062 167.699219 147.414062 167.550781 C 146.660156 167.398438 145.902344 167.285156 145.140625 167.210938 C 144.378906 167.132812 143.613281 167.097656 142.847656 167.09375 Z M 142.847656 167.097656 " fill-opacity="1" fill-rule="nonzero"/><path fill="#ffffff" d="M 208.207031 217.621094 C 207.320312 217.621094 206.433594 217.578125 205.550781 217.488281 C 204.667969 217.402344 203.789062 217.273438 202.917969 217.097656 C 202.046875 216.925781 201.1875 216.710938 200.335938 216.453125 C 199.488281 216.195312 198.652344 215.894531 197.832031 215.554688 C 197.011719 215.214844 196.210938 214.835938 195.429688 214.417969 C 194.644531 214 193.882812 213.542969 193.144531 213.050781 C 192.40625 212.558594 191.695312 212.03125 191.007812 211.464844 C 190.324219 210.902344 189.664062 210.308594 189.039062 209.679688 C 188.410156 209.050781 187.816406 208.394531 187.25 207.707031 C 186.6875 207.023438 186.160156 206.308594 185.667969 205.570312 C 185.171875 204.832031 184.71875 204.074219 184.300781 203.289062 C 183.878906 202.507812 183.5 201.703125 183.160156 200.882812 C 182.820312 200.066406 182.523438 199.230469 182.265625 198.378906 C 182.007812 197.53125 181.792969 196.671875 181.617188 195.800781 C 181.445312 194.929688 181.316406 194.050781 181.226562 193.167969 C 181.140625 192.285156 181.097656 191.398438 181.097656 190.511719 C 181.097656 189.621094 181.140625 188.738281 181.226562 187.851562 C 181.316406 186.96875 181.445312 186.09375 181.617188 185.222656 C 181.792969 184.351562 182.007812 183.492188 182.265625 182.640625 C 182.523438 181.792969 182.820312 180.957031 183.160156 180.136719 C 183.5 179.316406 183.878906 178.515625 184.300781 177.730469 C 184.71875 176.949219 185.171875 176.1875 185.667969 175.449219 C 186.160156 174.710938 186.6875 174 187.25 173.3125 C 187.816406 172.625 188.410156 171.96875 189.039062 171.339844 C 189.664062 170.714844 190.324219 170.117188 191.007812 169.554688 C 191.695312 168.992188 192.40625 168.464844 193.144531 167.96875 C 193.882812 167.476562 194.644531 167.019531 195.429688 166.601562 C 196.210938 166.183594 197.011719 165.804688 197.832031 165.464844 C 198.652344 165.125 199.488281 164.824219 200.335938 164.570312 C 201.1875 164.3125 202.046875 164.09375 202.917969 163.921875 C 203.789062 163.75 204.667969 163.617188 205.550781 163.53125 C 206.433594 163.445312 207.320312 163.402344 208.207031 163.402344 C 209.09375 163.402344 209.980469 163.445312 210.863281 163.53125 C 211.746094 163.617188 212.625 163.75 213.496094 163.921875 C 214.367188 164.09375 215.226562 164.3125 216.078125 164.570312 C 216.925781 164.824219 217.761719 165.125 218.582031 165.464844 C 219.402344 165.804688 220.203125 166.183594 220.988281 166.601562 C 221.769531 167.019531 222.53125 167.476562 223.269531 167.96875 C 224.007812 168.464844 224.71875 168.992188 225.40625 169.554688 C 226.089844 170.117188 226.75 170.714844 227.375 171.339844 C 228.003906 171.96875 228.601562 172.625 229.164062 173.3125 C 229.726562 174 230.253906 174.710938 230.746094 175.449219 C 231.242188 176.1875 231.695312 176.949219 232.117188 177.730469 C 232.535156 178.515625 232.914062 179.316406 233.253906 180.136719 C 233.59375 180.957031 233.890625 181.792969 234.148438 182.640625 C 234.40625 183.492188 234.621094 184.351562 234.796875 185.222656 C 234.96875 186.09375 235.097656 186.96875 235.1875 187.851562 C 235.273438 188.738281 235.316406 189.621094 235.316406 190.511719 C 235.316406 191.398438 235.269531 192.285156 235.183594 193.167969 C 235.09375 194.050781 234.964844 194.925781 234.789062 195.796875 C 234.617188 196.667969 234.402344 197.527344 234.144531 198.375 C 233.882812 199.226562 233.585938 200.058594 233.246094 200.878906 C 232.90625 201.699219 232.527344 202.5 232.105469 203.285156 C 231.6875 204.066406 231.230469 204.828125 230.738281 205.566406 C 230.246094 206.300781 229.71875 207.015625 229.152344 207.699219 C 228.589844 208.386719 227.996094 209.042969 227.367188 209.671875 C 226.738281 210.296875 226.082031 210.894531 225.398438 211.457031 C 224.710938 212.019531 224 212.546875 223.261719 213.042969 C 222.523438 213.535156 221.761719 213.992188 220.980469 214.410156 C 220.199219 214.828125 219.398438 215.207031 218.578125 215.546875 C 217.757812 215.886719 216.921875 216.1875 216.074219 216.445312 C 215.222656 216.703125 214.363281 216.921875 213.492188 217.09375 C 212.625 217.269531 211.746094 217.398438 210.863281 217.488281 C 209.980469 217.574219 209.09375 217.617188 208.207031 217.621094 Z M 208.207031 167.097656 C 207.441406 167.097656 206.675781 167.136719 205.914062 167.210938 C 205.148438 167.285156 204.390625 167.398438 203.640625 167.546875 C 202.886719 167.699219 202.144531 167.882812 201.410156 168.105469 C 200.675781 168.328125 199.953125 168.585938 199.246094 168.878906 C 198.539062 169.171875 197.84375 169.5 197.167969 169.863281 C 196.492188 170.222656 195.835938 170.617188 195.199219 171.042969 C 194.5625 171.46875 193.945312 171.925781 193.351562 172.414062 C 192.761719 172.898438 192.191406 173.414062 191.648438 173.957031 C 191.109375 174.5 190.59375 175.066406 190.105469 175.660156 C 189.621094 176.25 189.164062 176.867188 188.738281 177.503906 C 188.3125 178.140625 187.917969 178.800781 187.558594 179.476562 C 187.195312 180.152344 186.867188 180.84375 186.574219 181.554688 C 186.28125 182.261719 186.023438 182.984375 185.800781 183.714844 C 185.578125 184.449219 185.390625 185.195312 185.242188 185.945312 C 185.09375 186.699219 184.980469 187.457031 184.90625 188.21875 C 184.828125 188.980469 184.792969 189.746094 184.792969 190.515625 C 184.792969 191.28125 184.828125 192.046875 184.90625 192.808594 C 184.980469 193.570312 185.09375 194.328125 185.242188 195.082031 C 185.390625 195.835938 185.578125 196.578125 185.800781 197.3125 C 186.023438 198.042969 186.28125 198.765625 186.574219 199.472656 C 186.867188 200.183594 187.195312 200.875 187.558594 201.550781 C 187.917969 202.226562 188.3125 202.886719 188.738281 203.523438 C 189.164062 204.160156 189.621094 204.777344 190.109375 205.367188 C 190.59375 205.960938 191.109375 206.527344 191.652344 207.070312 C 192.195312 207.613281 192.761719 208.128906 193.355469 208.613281 C 193.945312 209.101562 194.5625 209.558594 195.199219 209.984375 C 195.835938 210.410156 196.496094 210.800781 197.171875 211.164062 C 197.847656 211.527344 198.539062 211.851562 199.246094 212.144531 C 199.957031 212.441406 200.679688 212.699219 201.410156 212.921875 C 202.144531 213.144531 202.886719 213.328125 203.640625 213.476562 C 204.394531 213.628906 205.152344 213.742188 205.914062 213.816406 C 206.675781 213.890625 207.441406 213.929688 208.207031 213.929688 C 208.976562 213.929688 209.742188 213.890625 210.503906 213.816406 C 211.265625 213.738281 212.023438 213.628906 212.777344 213.476562 C 213.527344 213.328125 214.273438 213.140625 215.007812 212.917969 C 215.738281 212.695312 216.460938 212.4375 217.167969 212.144531 C 217.878906 211.851562 218.570312 211.523438 219.246094 211.164062 C 219.921875 210.800781 220.578125 210.40625 221.21875 209.980469 C 221.855469 209.554688 222.46875 209.097656 223.0625 208.613281 C 223.65625 208.125 224.222656 207.609375 224.765625 207.070312 C 225.308594 206.527344 225.820312 205.957031 226.308594 205.367188 C 226.796875 204.773438 227.25 204.15625 227.675781 203.519531 C 228.101562 202.882812 228.496094 202.226562 228.859375 201.546875 C 229.21875 200.871094 229.546875 200.179688 229.839844 199.472656 C 230.132812 198.761719 230.390625 198.042969 230.613281 197.308594 C 230.835938 196.574219 231.023438 195.832031 231.171875 195.078125 C 231.324219 194.328125 231.433594 193.570312 231.511719 192.804688 C 231.585938 192.042969 231.621094 191.277344 231.621094 190.511719 C 231.621094 189.742188 231.582031 188.980469 231.507812 188.214844 C 231.429688 187.453125 231.320312 186.695312 231.167969 185.945312 C 231.019531 185.191406 230.832031 184.449219 230.609375 183.714844 C 230.386719 182.984375 230.128906 182.261719 229.832031 181.554688 C 229.539062 180.84375 229.210938 180.152344 228.851562 179.476562 C 228.488281 178.800781 228.09375 178.144531 227.667969 177.507812 C 227.242188 176.871094 226.785156 176.253906 226.300781 175.664062 C 225.8125 175.070312 225.300781 174.503906 224.757812 173.960938 C 224.214844 173.417969 223.648438 172.90625 223.054688 172.417969 C 222.460938 171.929688 221.847656 171.476562 221.210938 171.050781 C 220.574219 170.621094 219.917969 170.230469 219.238281 169.867188 C 218.5625 169.503906 217.871094 169.179688 217.164062 168.882812 C 216.457031 168.589844 215.734375 168.332031 215 168.109375 C 214.269531 167.886719 213.527344 167.699219 212.773438 167.550781 C 212.023438 167.398438 211.265625 167.285156 210.5 167.210938 C 209.738281 167.132812 208.972656 167.097656 208.207031 167.09375 Z M 208.207031 167.097656 " fill-opacity="1" fill-rule="nonzero"/><path fill="#ffffff" d="M 183.207031 196.441406 C 182.960938 196.441406 182.726562 196.394531 182.5 196.300781 C 182.273438 196.207031 182.074219 196.074219 181.898438 195.902344 C 181.726562 195.730469 181.59375 195.527344 181.5 195.300781 C 181.40625 195.078125 181.359375 194.839844 181.359375 194.59375 C 181.359375 194.214844 181.320312 193.839844 181.246094 193.464844 C 181.171875 193.09375 181.0625 192.730469 180.917969 192.382812 C 180.773438 192.03125 180.59375 191.695312 180.382812 191.378906 C 180.171875 191.0625 179.929688 190.773438 179.664062 190.503906 C 179.394531 190.234375 179.101562 189.996094 178.785156 189.785156 C 178.46875 189.574219 178.136719 189.394531 177.785156 189.25 C 177.433594 189.101562 177.070312 188.992188 176.699219 188.917969 C 176.328125 188.84375 175.949219 188.808594 175.570312 188.808594 C 175.191406 188.808594 174.8125 188.84375 174.441406 188.917969 C 174.066406 188.992188 173.707031 189.101562 173.355469 189.25 C 173.003906 189.394531 172.671875 189.574219 172.355469 189.785156 C 172.039062 189.996094 171.746094 190.234375 171.476562 190.503906 C 171.207031 190.773438 170.96875 191.0625 170.757812 191.378906 C 170.546875 191.695312 170.367188 192.03125 170.222656 192.382812 C 170.078125 192.730469 169.96875 193.09375 169.894531 193.464844 C 169.820312 193.839844 169.78125 194.214844 169.78125 194.59375 C 169.773438 194.835938 169.71875 195.0625 169.625 195.28125 C 169.527344 195.5 169.390625 195.691406 169.21875 195.859375 C 169.046875 196.023438 168.847656 196.152344 168.628906 196.242188 C 168.40625 196.332031 168.175781 196.375 167.933594 196.375 C 167.695312 196.375 167.464844 196.332031 167.242188 196.242188 C 167.023438 196.152344 166.824219 196.023438 166.652344 195.859375 C 166.480469 195.691406 166.34375 195.5 166.246094 195.28125 C 166.148438 195.0625 166.097656 194.835938 166.089844 194.59375 C 166.089844 193.972656 166.148438 193.355469 166.269531 192.746094 C 166.390625 192.136719 166.570312 191.542969 166.808594 190.96875 C 167.046875 190.390625 167.339844 189.84375 167.6875 189.328125 C 168.03125 188.808594 168.425781 188.332031 168.867188 187.890625 C 169.304688 187.449219 169.785156 187.058594 170.300781 186.710938 C 170.820312 186.367188 171.367188 186.074219 171.941406 185.835938 C 172.515625 185.597656 173.109375 185.417969 173.71875 185.296875 C 174.332031 185.175781 174.949219 185.113281 175.570312 185.113281 C 176.191406 185.113281 176.808594 185.175781 177.417969 185.296875 C 178.03125 185.417969 178.625 185.597656 179.199219 185.835938 C 179.773438 186.074219 180.320312 186.367188 180.839844 186.710938 C 181.355469 187.058594 181.835938 187.449219 182.273438 187.890625 C 182.714844 188.332031 183.109375 188.808594 183.453125 189.328125 C 183.800781 189.84375 184.09375 190.390625 184.332031 190.96875 C 184.570312 191.542969 184.75 192.136719 184.871094 192.746094 C 184.992188 193.355469 185.050781 193.972656 185.050781 194.59375 C 185.050781 194.839844 185.003906 195.074219 184.910156 195.300781 C 184.816406 195.527344 184.683594 195.726562 184.511719 195.902344 C 184.339844 196.074219 184.136719 196.207031 183.914062 196.300781 C 183.6875 196.394531 183.449219 196.441406 183.207031 196.441406 Z M 183.207031 196.441406 " fill-opacity="1" fill-rule="nonzero"/><path fill="#555ce4" d="M 256.792969 125.957031 C 256.792969 125.957031 260.007812 109.265625 231.285156 94.636719 C 202.753906 80.109375 168.273438 84.605469 148.640625 91.085938 C 133.617188 96.035156 48.003906 129.320312 118.292969 146.621094 C 126.6875 148.6875 141.746094 148.683594 157.636719 147.546875 C 154.835938 149.191406 153.328125 150.667969 153.613281 151.753906 C 154.402344 154.773438 168.515625 153.691406 185.132812 149.339844 C 196.761719 146.289062 206.53125 142.449219 211.078125 139.382812 C 212.464844 138.976562 213.820312 138.480469 215.144531 137.898438 C 218.375 150.164062 241.296875 165.988281 246.464844 164.050781 C 251.628906 162.113281 280.683594 140.484375 256.792969 125.957031 Z M 256.792969 125.957031 " fill-opacity="1" fill-rule="nonzero"/></svg>