    <svg
      xmlns="http://www.w3.org/2000/svg"
      xmlns:xlink="http://www.w3.org/1999/xlink"
      width="40"
      zoomAndPan="magnify"
      viewBox="0 0 375 374.999991"
      height="40"
      preserveAspectRatio="xMidYMid meet"
      version="1.0">
      <defs>
        <clipPath id="40973df953">
          <path
            d="M 4.089844 4.089844 L 370.839844 4.089844 L 370.839844 370.839844 L 4.089844 370.839844 Z M 4.089844 4.089844 "
            clip-rule="nonzero"
          />
        </clipPath>
        <clipPath id="a2b3a55c23">
          <path
            d="M 370.855469 187.46875 C 370.855469 288.75 288.75 370.855469 187.46875 370.855469 C 86.183594 370.855469 4.078125 288.75 4.078125 187.46875 C 4.078125 86.179688 86.183594 4.078125 187.46875 4.078125 C 288.75 4.078125 370.855469 86.179688 370.855469 187.46875 "
            clip-rule="nonzero"
          />
        </clipPath>
        <clipPath id="454725d1a3">
          <path
            d="M 257.230469 291 L 284 291 L 284 370.839844 L 257.230469 370.839844 Z M 257.230469 291 "
            clip-rule="nonzero"
          />
        </clipPath>
        <clipPath id="779007a430">
          <path
            d="M 370.855469 187.46875 C 370.855469 288.75 288.75 370.855469 187.46875 370.855469 C 86.183594 370.855469 4.078125 288.75 4.078125 187.46875 C 4.078125 86.179688 86.183594 4.078125 187.46875 4.078125 C 288.75 4.078125 370.855469 86.179688 370.855469 187.46875 "
            clip-rule="nonzero"
          />
        </clipPath>
        <clipPath id="f221bbb4de">
          <path
            d="M 257.230469 310 L 261.5 310 L 261.5 313.769531 L 257.230469 313.769531 Z M 257.230469 310 "
            clip-rule="nonzero"
          />
        </clipPath>
        <clipPath id="d2e0429749">
          <path
            d="M 370.855469 187.46875 C 370.855469 288.75 288.75 370.855469 187.46875 370.855469 C 86.183594 370.855469 4.078125 288.75 4.078125 187.46875 C 4.078125 86.179688 86.183594 4.078125 187.46875 4.078125 C 288.75 4.078125 370.855469 86.179688 370.855469 187.46875 "
            clip-rule="nonzero"
          />
        </clipPath>
        <clipPath id="4469310f9b">
          <path
            d="M 257.230469 303.101562 L 283.902344 303.101562 L 283.902344 356.441406 L 257.230469 356.441406 Z M 257.230469 303.101562 "
            clip-rule="nonzero"
          />
        </clipPath>
        <clipPath id="6dc50a1894">
          <path
            d="M 370.855469 187.46875 C 370.855469 288.75 288.75 370.855469 187.46875 370.855469 C 86.183594 370.855469 4.078125 288.75 4.078125 187.46875 C 4.078125 86.179688 86.183594 4.078125 187.46875 4.078125 C 288.75 4.078125 370.855469 86.179688 370.855469 187.46875 "
            clip-rule="nonzero"
          />
        </clipPath>
        <clipPath id="fa9aa9cd51">
          <path
            d="M 244.429688 244.429688 L 293.5 244.429688 L 293.5 335 L 244.429688 335 Z M 244.429688 244.429688 "
            clip-rule="nonzero"
          />
        </clipPath>
        <clipPath id="b28fbd89eb">
          <path
            d="M 370.855469 187.46875 C 370.855469 288.75 288.75 370.855469 187.46875 370.855469 C 86.183594 370.855469 4.078125 288.75 4.078125 187.46875 C 4.078125 86.179688 86.183594 4.078125 187.46875 4.078125 C 288.75 4.078125 370.855469 86.179688 370.855469 187.46875 "
            clip-rule="nonzero"
          />
        </clipPath>
        <clipPath id="cbbeed4f58">
          <path
            d="M 244.429688 260 L 266 260 L 266 335 L 244.429688 335 Z M 244.429688 260 "
            clip-rule="nonzero"
          />
        </clipPath>
        <clipPath id="22ca561235">
          <path
            d="M 370.855469 187.46875 C 370.855469 288.75 288.75 370.855469 187.46875 370.855469 C 86.183594 370.855469 4.078125 288.75 4.078125 187.46875 C 4.078125 86.179688 86.183594 4.078125 187.46875 4.078125 C 288.75 4.078125 370.855469 86.179688 370.855469 187.46875 "
            clip-rule="nonzero"
          />
        </clipPath>
        <clipPath id="bed1dce377">
          <path
            d="M 91 291 L 118.554688 291 L 118.554688 370.839844 L 91 370.839844 Z M 91 291 "
            clip-rule="nonzero"
          />
        </clipPath>
        <clipPath id="c18a02097b">
          <path
            d="M 370.855469 187.46875 C 370.855469 288.75 288.75 370.855469 187.46875 370.855469 C 86.183594 370.855469 4.078125 288.75 4.078125 187.46875 C 4.078125 86.179688 86.183594 4.078125 187.46875 4.078125 C 288.75 4.078125 370.855469 86.179688 370.855469 187.46875 "
            clip-rule="nonzero"
          />
        </clipPath>
        <clipPath id="a36556f90a">
          <path
            d="M 92 303.101562 L 95 303.101562 L 95 339.371094 L 92 339.371094 Z M 92 303.101562 "
            clip-rule="nonzero"
          />
        </clipPath>
        <clipPath id="b6f0f3f4ad">
          <path
            d="M 370.855469 187.46875 C 370.855469 288.75 288.75 370.855469 187.46875 370.855469 C 86.183594 370.855469 4.078125 288.75 4.078125 187.46875 C 4.078125 86.179688 86.183594 4.078125 187.46875 4.078125 C 288.75 4.078125 370.855469 86.179688 370.855469 187.46875 "
            clip-rule="nonzero"
          />
        </clipPath>
        <clipPath id="3a2ac44d43">
          <path
            d="M 92 303.101562 L 118.554688 303.101562 L 118.554688 357 L 92 357 Z M 92 303.101562 "
            clip-rule="nonzero"
          />
        </clipPath>
        <clipPath id="ac6d88be69">
          <path
            d="M 370.855469 187.46875 C 370.855469 288.75 288.75 370.855469 187.46875 370.855469 C 86.183594 370.855469 4.078125 288.75 4.078125 187.46875 C 4.078125 86.179688 86.183594 4.078125 187.46875 4.078125 C 288.75 4.078125 370.855469 86.179688 370.855469 187.46875 "
            clip-rule="nonzero"
          />
        </clipPath>
        <clipPath id="f5291861d7">
          <path
            d="M 81.21875 244.429688 L 130.289062 244.429688 L 130.289062 335 L 81.21875 335 Z M 81.21875 244.429688 "
            clip-rule="nonzero"
          />
        </clipPath>
        <clipPath id="2208ae891e">
          <path
            d="M 370.855469 187.46875 C 370.855469 288.75 288.75 370.855469 187.46875 370.855469 C 86.183594 370.855469 4.078125 288.75 4.078125 187.46875 C 4.078125 86.179688 86.183594 4.078125 187.46875 4.078125 C 288.75 4.078125 370.855469 86.179688 370.855469 187.46875 "
            clip-rule="nonzero"
          />
        </clipPath>
        <clipPath id="7508e8d5a5">
          <path
            d="M 104 250 L 130.289062 250 L 130.289062 335 L 104 335 Z M 104 250 "
            clip-rule="nonzero"
          />
        </clipPath>
        <clipPath id="c357f6a664">
          <path
            d="M 370.855469 187.46875 C 370.855469 288.75 288.75 370.855469 187.46875 370.855469 C 86.183594 370.855469 4.078125 288.75 4.078125 187.46875 C 4.078125 86.179688 86.183594 4.078125 187.46875 4.078125 C 288.75 4.078125 370.855469 86.179688 370.855469 187.46875 "
            clip-rule="nonzero"
          />
        </clipPath>
        <clipPath id="cfd821efe9">
          <path
            d="M 115 227.363281 L 261 227.363281 L 261 370.839844 L 115 370.839844 Z M 115 227.363281 "
            clip-rule="nonzero"
          />
        </clipPath>
        <clipPath id="40706c11cd">
          <path
            d="M 370.855469 187.46875 C 370.855469 288.75 288.75 370.855469 187.46875 370.855469 C 86.183594 370.855469 4.078125 288.75 4.078125 187.46875 C 4.078125 86.179688 86.183594 4.078125 187.46875 4.078125 C 288.75 4.078125 370.855469 86.179688 370.855469 187.46875 "
            clip-rule="nonzero"
          />
        </clipPath>
        <clipPath id="25110e14e1">
          <path
            d="M 162.292969 196.425781 L 214 196.425781 L 214 243 L 162.292969 243 Z M 162.292969 196.425781 "
            clip-rule="nonzero"
          />
        </clipPath>
        <clipPath id="921368cae5">
          <path
            d="M 370.855469 187.46875 C 370.855469 288.75 288.75 370.855469 187.46875 370.855469 C 86.183594 370.855469 4.078125 288.75 4.078125 187.46875 C 4.078125 86.179688 86.183594 4.078125 187.46875 4.078125 C 288.75 4.078125 370.855469 86.179688 370.855469 187.46875 "
            clip-rule="nonzero"
          />
        </clipPath>
        <clipPath id="dbfb88fb6c">
          <path
            d="M 208.160156 206.027344 L 211 206.027344 L 211 222 L 208.160156 222 Z M 208.160156 206.027344 "
            clip-rule="nonzero"
          />
        </clipPath>
        <clipPath id="0475d5eef3">
          <path
            d="M 370.855469 187.46875 C 370.855469 288.75 288.75 370.855469 187.46875 370.855469 C 86.183594 370.855469 4.078125 288.75 4.078125 187.46875 C 4.078125 86.179688 86.183594 4.078125 187.46875 4.078125 C 288.75 4.078125 370.855469 86.179688 370.855469 187.46875 "
            clip-rule="nonzero"
          />
        </clipPath>
        <clipPath id="6c65f21e43">
          <path
            d="M 167 206.027344 L 211 206.027344 L 211 222 L 167 222 Z M 167 206.027344 "
            clip-rule="nonzero"
          />
        </clipPath>
        <clipPath id="8ea8195e56">
          <path
            d="M 370.855469 187.46875 C 370.855469 288.75 288.75 370.855469 187.46875 370.855469 C 86.183594 370.855469 4.078125 288.75 4.078125 187.46875 C 4.078125 86.179688 86.183594 4.078125 187.46875 4.078125 C 288.75 4.078125 370.855469 86.179688 370.855469 187.46875 "
            clip-rule="nonzero"
          />
        </clipPath>
        <clipPath id="ff86007f0c">
          <path
            d="M 231 131.355469 L 250.832031 131.355469 L 250.832031 163.359375 L 231 163.359375 Z M 231 131.355469 "
            clip-rule="nonzero"
          />
        </clipPath>
        <clipPath id="8a89c7bee1">
          <path
            d="M 370.855469 187.46875 C 370.855469 288.75 288.75 370.855469 187.46875 370.855469 C 86.183594 370.855469 4.078125 288.75 4.078125 187.46875 C 4.078125 86.179688 86.183594 4.078125 187.46875 4.078125 C 288.75 4.078125 370.855469 86.179688 370.855469 187.46875 "
            clip-rule="nonzero"
          />
        </clipPath>
        <clipPath id="5aca3c088f">
          <path
            d="M 238 137.753906 L 247.632812 137.753906 L 247.632812 159 L 238 159 Z M 238 137.753906 "
            clip-rule="nonzero"
          />
        </clipPath>
        <clipPath id="0b79cacaa6">
          <path
            d="M 370.855469 187.46875 C 370.855469 288.75 288.75 370.855469 187.46875 370.855469 C 86.183594 370.855469 4.078125 288.75 4.078125 187.46875 C 4.078125 86.179688 86.183594 4.078125 187.46875 4.078125 C 288.75 4.078125 370.855469 86.179688 370.855469 187.46875 "
            clip-rule="nonzero"
          />
        </clipPath>
        <clipPath id="721e41d9b1">
          <path
            d="M 236 137 L 247.632812 137 L 247.632812 159 L 236 159 Z M 236 137 "
            clip-rule="nonzero"
          />
        </clipPath>
        <clipPath id="e378458b84">
          <path
            d="M 370.855469 187.46875 C 370.855469 288.75 288.75 370.855469 187.46875 370.855469 C 86.183594 370.855469 4.078125 288.75 4.078125 187.46875 C 4.078125 86.179688 86.183594 4.078125 187.46875 4.078125 C 288.75 4.078125 370.855469 86.179688 370.855469 187.46875 "
            clip-rule="nonzero"
          />
        </clipPath>
        <clipPath id="c53c447f04">
          <path
            d="M 238.03125 139 L 245 139 L 245 148.421875 L 238.03125 148.421875 Z M 238.03125 139 "
            clip-rule="nonzero"
          />
        </clipPath>
        <clipPath id="18f4faeffa">
          <path
            d="M 370.855469 187.46875 C 370.855469 288.75 288.75 370.855469 187.46875 370.855469 C 86.183594 370.855469 4.078125 288.75 4.078125 187.46875 C 4.078125 86.179688 86.183594 4.078125 187.46875 4.078125 C 288.75 4.078125 370.855469 86.179688 370.855469 187.46875 "
            clip-rule="nonzero"
          />
        </clipPath>
        <clipPath id="a88997e9e4">
          <path
            d="M 125 131.355469 L 145.222656 131.355469 L 145.222656 163.359375 L 125 163.359375 Z M 125 131.355469 "
            clip-rule="nonzero"
          />
        </clipPath>
        <clipPath id="a7530bf170">
          <path
            d="M 370.855469 187.46875 C 370.855469 288.75 288.75 370.855469 187.46875 370.855469 C 86.183594 370.855469 4.078125 288.75 4.078125 187.46875 C 4.078125 86.179688 86.183594 4.078125 187.46875 4.078125 C 288.75 4.078125 370.855469 86.179688 370.855469 187.46875 "
            clip-rule="nonzero"
          />
        </clipPath>
        <clipPath id="00d2c58ccd">
          <path
            d="M 129.222656 138 L 138.824219 138 L 138.824219 158 L 129.222656 158 Z M 129.222656 138 "
            clip-rule="nonzero"
          />
        </clipPath>
        <clipPath id="202ecfbb95">
          <path
            d="M 370.855469 187.46875 C 370.855469 288.75 288.75 370.855469 187.46875 370.855469 C 86.183594 370.855469 4.078125 288.75 4.078125 187.46875 C 4.078125 86.179688 86.183594 4.078125 187.46875 4.078125 C 288.75 4.078125 370.855469 86.179688 370.855469 187.46875 "
            clip-rule="nonzero"
          />
        </clipPath>
        <clipPath id="e422bfcfbb">
          <path
            d="M 129.222656 137 L 140.957031 137 L 140.957031 159 L 129.222656 159 Z M 129.222656 137 "
            clip-rule="nonzero"
          />
        </clipPath>
        <clipPath id="ac2a1dd96e">
          <path
            d="M 370.855469 187.46875 C 370.855469 288.75 288.75 370.855469 187.46875 370.855469 C 86.183594 370.855469 4.078125 288.75 4.078125 187.46875 C 4.078125 86.179688 86.183594 4.078125 187.46875 4.078125 C 288.75 4.078125 370.855469 86.179688 370.855469 187.46875 "
            clip-rule="nonzero"
          />
        </clipPath>
        <clipPath id="c90db34c83">
          <path
            d="M 131.355469 139 L 138.824219 139 L 138.824219 148.421875 L 131.355469 148.421875 Z M 131.355469 139 "
            clip-rule="nonzero"
          />
        </clipPath>
        <clipPath id="8bbc0ab8ec">
          <path
            d="M 370.855469 187.46875 C 370.855469 288.75 288.75 370.855469 187.46875 370.855469 C 86.183594 370.855469 4.078125 288.75 4.078125 187.46875 C 4.078125 86.179688 86.183594 4.078125 187.46875 4.078125 C 288.75 4.078125 370.855469 86.179688 370.855469 187.46875 "
            clip-rule="nonzero"
          />
        </clipPath>
        <clipPath id="3dcd953182">
          <path
            d="M 138 82.285156 L 239 82.285156 L 239 215 L 138 215 Z M 138 82.285156 "
            clip-rule="nonzero"
          />
        </clipPath>
        <clipPath id="a92ad87e18">
          <path
            d="M 370.855469 187.46875 C 370.855469 288.75 288.75 370.855469 187.46875 370.855469 C 86.183594 370.855469 4.078125 288.75 4.078125 187.46875 C 4.078125 86.179688 86.183594 4.078125 187.46875 4.078125 C 288.75 4.078125 370.855469 86.179688 370.855469 187.46875 "
            clip-rule="nonzero"
          />
        </clipPath>
        <clipPath id="8aaaec0b34">
          <path
            d="M 150 96 L 230.5625 96 L 230.5625 115 L 150 115 Z M 150 96 "
            clip-rule="nonzero"
          />
        </clipPath>
        <clipPath id="6e85648627">
          <path
            d="M 370.855469 187.46875 C 370.855469 288.75 288.75 370.855469 187.46875 370.855469 C 86.183594 370.855469 4.078125 288.75 4.078125 187.46875 C 4.078125 86.179688 86.183594 4.078125 187.46875 4.078125 C 288.75 4.078125 370.855469 86.179688 370.855469 187.46875 "
            clip-rule="nonzero"
          />
        </clipPath>
        <clipPath id="3b152b19cd">
          <path
            d="M 188 214.5625 L 190 214.5625 L 190 215 L 188 215 Z M 188 214.5625 "
            clip-rule="nonzero"
          />
        </clipPath>
        <clipPath id="48742d12d3">
          <path
            d="M 370.855469 187.46875 C 370.855469 288.75 288.75 370.855469 187.46875 370.855469 C 86.183594 370.855469 4.078125 288.75 4.078125 187.46875 C 4.078125 86.179688 86.183594 4.078125 187.46875 4.078125 C 288.75 4.078125 370.855469 86.179688 370.855469 187.46875 "
            clip-rule="nonzero"
          />
        </clipPath>
        <clipPath id="fbcb7d7cf8">
          <path
            d="M 138 102.554688 L 224 102.554688 L 224 215 L 138 215 Z M 138 102.554688 "
            clip-rule="nonzero"
          />
        </clipPath>
        <clipPath id="79d5fd3073">
          <path
            d="M 370.855469 187.46875 C 370.855469 288.75 288.75 370.855469 187.46875 370.855469 C 86.183594 370.855469 4.078125 288.75 4.078125 187.46875 C 4.078125 86.179688 86.183594 4.078125 187.46875 4.078125 C 288.75 4.078125 370.855469 86.179688 370.855469 187.46875 "
            clip-rule="nonzero"
          />
        </clipPath>
        <clipPath id="cd07cad253">
          <path
            d="M 149.488281 95.085938 L 154.824219 95.085938 L 154.824219 103.621094 L 149.488281 103.621094 Z M 149.488281 95.085938 "
            clip-rule="nonzero"
          />
        </clipPath>
        <clipPath id="e1a4ab36d1">
          <path
            d="M 370.855469 187.46875 C 370.855469 288.75 288.75 370.855469 187.46875 370.855469 C 86.183594 370.855469 4.078125 288.75 4.078125 187.46875 C 4.078125 86.179688 86.183594 4.078125 187.46875 4.078125 C 288.75 4.078125 370.855469 86.179688 370.855469 187.46875 "
            clip-rule="nonzero"
          />
        </clipPath>
        <clipPath id="3ba76a1205">
          <path
            d="M 150 121 L 178.292969 121 L 178.292969 129 L 150 129 Z M 150 121 "
            clip-rule="nonzero"
          />
        </clipPath>
        <clipPath id="ab61f9ba5a">
          <path
            d="M 370.855469 187.46875 C 370.855469 288.75 288.75 370.855469 187.46875 370.855469 C 86.183594 370.855469 4.078125 288.75 4.078125 187.46875 C 4.078125 86.179688 86.183594 4.078125 187.46875 4.078125 C 288.75 4.078125 370.855469 86.179688 370.855469 187.46875 "
            clip-rule="nonzero"
          />
        </clipPath>
        <clipPath id="2e1f5b19c3">
          <path
            d="M 196.425781 121 L 225 121 L 225 129 L 196.425781 129 Z M 196.425781 121 "
            clip-rule="nonzero"
          />
        </clipPath>
        <clipPath id="6c7424e74b">
          <path
            d="M 370.855469 187.46875 C 370.855469 288.75 288.75 370.855469 187.46875 370.855469 C 86.183594 370.855469 4.078125 288.75 4.078125 187.46875 C 4.078125 86.179688 86.183594 4.078125 187.46875 4.078125 C 288.75 4.078125 370.855469 86.179688 370.855469 187.46875 "
            clip-rule="nonzero"
          />
        </clipPath>
        <clipPath id="39f6f2f250">
          <path
            d="M 179 160.15625 L 197.492188 160.15625 L 197.492188 168.691406 L 179 168.691406 Z M 179 160.15625 "
            clip-rule="nonzero"
          />
        </clipPath>
        <clipPath id="5ba6c22182">
          <path
            d="M 370.855469 187.46875 C 370.855469 288.75 288.75 370.855469 187.46875 370.855469 C 86.183594 370.855469 4.078125 288.75 4.078125 187.46875 C 4.078125 86.179688 86.183594 4.078125 187.46875 4.078125 C 288.75 4.078125 370.855469 86.179688 370.855469 187.46875 "
            clip-rule="nonzero"
          />
        </clipPath>
        <clipPath id="e395608a32">
          <path
            d="M 167.625 176.160156 L 209 176.160156 L 209 190 L 167.625 190 Z M 167.625 176.160156 "
            clip-rule="nonzero"
          />
        </clipPath>
        <clipPath id="a32fc6718a">
          <path
            d="M 370.855469 187.46875 C 370.855469 288.75 288.75 370.855469 187.46875 370.855469 C 86.183594 370.855469 4.078125 288.75 4.078125 187.46875 C 4.078125 86.179688 86.183594 4.078125 187.46875 4.078125 C 288.75 4.078125 370.855469 86.179688 370.855469 187.46875 "
            clip-rule="nonzero"
          />
        </clipPath>
        <clipPath id="63515e6154">
          <path
            d="M 167.625 176.160156 L 209 176.160156 L 209 184 L 167.625 184 Z M 167.625 176.160156 "
            clip-rule="nonzero"
          />
        </clipPath>
        <clipPath id="9053e74fe7">
          <path
            d="M 370.855469 187.46875 C 370.855469 288.75 288.75 370.855469 187.46875 370.855469 C 86.183594 370.855469 4.078125 288.75 4.078125 187.46875 C 4.078125 86.179688 86.183594 4.078125 187.46875 4.078125 C 288.75 4.078125 370.855469 86.179688 370.855469 187.46875 "
            clip-rule="nonzero"
          />
        </clipPath>
        <clipPath id="a1569132a3">
          <path
            d="M 182 194.292969 L 194.292969 194.292969 L 194.292969 198.5625 L 182 198.5625 Z M 182 194.292969 "
            clip-rule="nonzero"
          />
        </clipPath>
        <clipPath id="1cc654429f">
          <path
            d="M 370.855469 187.46875 C 370.855469 288.75 288.75 370.855469 187.46875 370.855469 C 86.183594 370.855469 4.078125 288.75 4.078125 187.46875 C 4.078125 86.179688 86.183594 4.078125 187.46875 4.078125 C 288.75 4.078125 370.855469 86.179688 370.855469 187.46875 "
            clip-rule="nonzero"
          />
        </clipPath>
        <clipPath id="fd5a005910">
          <path
            d="M 179.359375 163.359375 L 197.492188 163.359375 L 197.492188 171.890625 L 179.359375 171.890625 Z M 179.359375 163.359375 "
            clip-rule="nonzero"
          />
        </clipPath>
        <clipPath id="e14db3b8b4">
          <path
            d="M 370.855469 187.46875 C 370.855469 288.75 288.75 370.855469 187.46875 370.855469 C 86.183594 370.855469 4.078125 288.75 4.078125 187.46875 C 4.078125 86.179688 86.183594 4.078125 187.46875 4.078125 C 288.75 4.078125 370.855469 86.179688 370.855469 187.46875 "
            clip-rule="nonzero"
          />
        </clipPath>
        <clipPath id="2e084559dd">
          <path
            d="M 167.625 176.160156 L 174 176.160156 L 174 183.625 L 167.625 183.625 Z M 167.625 176.160156 "
            clip-rule="nonzero"
          />
        </clipPath>
        <clipPath id="5d998ce12f">
          <path
            d="M 370.855469 187.46875 C 370.855469 288.75 288.75 370.855469 187.46875 370.855469 C 86.183594 370.855469 4.078125 288.75 4.078125 187.46875 C 4.078125 86.179688 86.183594 4.078125 187.46875 4.078125 C 288.75 4.078125 370.855469 86.179688 370.855469 187.46875 "
            clip-rule="nonzero"
          />
        </clipPath>
        <clipPath id="0832f6fdac">
          <path
            d="M 202.828125 176.160156 L 209 176.160156 L 209 183.625 L 202.828125 183.625 Z M 202.828125 176.160156 "
            clip-rule="nonzero"
          />
        </clipPath>
        <clipPath id="e7264b5feb">
          <path
            d="M 370.855469 187.46875 C 370.855469 288.75 288.75 370.855469 187.46875 370.855469 C 86.183594 370.855469 4.078125 288.75 4.078125 187.46875 C 4.078125 86.179688 86.183594 4.078125 187.46875 4.078125 C 288.75 4.078125 370.855469 86.179688 370.855469 187.46875 "
            clip-rule="nonzero"
          />
        </clipPath>
        <clipPath id="ce86e88ac8">
          <path
            d="M 132 46.015625 L 251.898438 46.015625 L 251.898438 138 L 132 138 Z M 132 46.015625 "
            clip-rule="nonzero"
          />
        </clipPath>
        <clipPath id="664a6e222b">
          <path
            d="M 370.855469 187.46875 C 370.855469 288.75 288.75 370.855469 187.46875 370.855469 C 86.183594 370.855469 4.078125 288.75 4.078125 187.46875 C 4.078125 86.179688 86.183594 4.078125 187.46875 4.078125 C 288.75 4.078125 370.855469 86.179688 370.855469 187.46875 "
            clip-rule="nonzero"
          />
        </clipPath>
        <clipPath id="291a2be74b">
          <path
            d="M 134 73.75 L 227 73.75 L 227 96 L 134 96 Z M 134 73.75 "
            clip-rule="nonzero"
          />
        </clipPath>
        <clipPath id="c4e02dc63a">
          <path
            d="M 370.855469 187.46875 C 370.855469 288.75 288.75 370.855469 187.46875 370.855469 C 86.183594 370.855469 4.078125 288.75 4.078125 187.46875 C 4.078125 86.179688 86.183594 4.078125 187.46875 4.078125 C 288.75 4.078125 370.855469 86.179688 370.855469 187.46875 "
            clip-rule="nonzero"
          />
        </clipPath>
        <clipPath id="b9ce38eb13">
          <path
            d="M 125 345 L 246.566406 345 L 246.566406 370.839844 L 125 370.839844 Z M 125 345 "
            clip-rule="nonzero"
          />
        </clipPath>
        <clipPath id="296462b59e">
          <path
            d="M 370.855469 187.46875 C 370.855469 288.75 288.75 370.855469 187.46875 370.855469 C 86.183594 370.855469 4.078125 288.75 4.078125 187.46875 C 4.078125 86.179688 86.183594 4.078125 187.46875 4.078125 C 288.75 4.078125 370.855469 86.179688 370.855469 187.46875 "
            clip-rule="nonzero"
          />
        </clipPath>
        <clipPath id="3d7660670a">
          <path
            d="M 166 140 L 175.09375 140 L 175.09375 156.957031 L 166 156.957031 Z M 166 140 "
            clip-rule="nonzero"
          />
        </clipPath>
        <clipPath id="6d0f903208">
          <path
            d="M 370.855469 187.46875 C 370.855469 288.75 288.75 370.855469 187.46875 370.855469 C 86.183594 370.855469 4.078125 288.75 4.078125 187.46875 C 4.078125 86.179688 86.183594 4.078125 187.46875 4.078125 C 288.75 4.078125 370.855469 86.179688 370.855469 187.46875 "
            clip-rule="nonzero"
          />
        </clipPath>
        <clipPath id="b785b68116">
          <path
            d="M 201 140 L 210.296875 140 L 210.296875 156.957031 L 201 156.957031 Z M 201 140 "
            clip-rule="nonzero"
          />
        </clipPath>
        <clipPath id="3544766026">
          <path
            d="M 370.855469 187.46875 C 370.855469 288.75 288.75 370.855469 187.46875 370.855469 C 86.183594 370.855469 4.078125 288.75 4.078125 187.46875 C 4.078125 86.179688 86.183594 4.078125 187.46875 4.078125 C 288.75 4.078125 370.855469 86.179688 370.855469 187.46875 "
            clip-rule="nonzero"
          />
        </clipPath>
      </defs>
      <g clip-path="url(#40973df953)">
        <g clip-path="url(#a2b3a55c23)">
          <path
            fill="#82d7f6"
            d="M 370.855469 187.46875 C 370.855469 288.75 288.75 370.855469 187.46875 370.855469 C 86.183594 370.855469 4.078125 288.75 4.078125 187.46875 C 4.078125 86.179688 86.183594 4.078125 187.46875 4.078125 C 288.75 4.078125 370.855469 86.179688 370.855469 187.46875 "
            fill-opacity="1"
            fill-rule="nonzero"
          />
        </g>
      </g>
      <g clip-path="url(#454725d1a3)">
        <g clip-path="url(#779007a430)">
          <path
            fill="#f0a176"
            d="M 278.332031 387.769531 C 281.074219 341.953125 283.941406 291.128906 283.941406 291.128906 L 257.523438 313.558594 C 258 321.550781 259.035156 355.050781 259.992188 387.769531 L 278.332031 387.769531 "
            fill-opacity="1"
            fill-rule="nonzero"
          />
        </g>
      </g>
      <g clip-path="url(#f221bbb4de)">
        <g clip-path="url(#d2e0429749)">
          <path
            fill="#b7977b"
            d="M 257.523438 313.558594 L 261.195312 310.441406 L 257.523438 313.558594 "
            fill-opacity="1"
            fill-rule="nonzero"
          />
        </g>
      </g>
      <g clip-path="url(#4469310f9b)">
        <g clip-path="url(#6dc50a1894)">
          <path
            fill="#d6855a"
            d="M 259.050781 356.355469 C 258.414062 335.878906 257.839844 318.9375 257.523438 313.558594 L 261.195312 310.441406 L 283.242188 303.480469 C 282.707031 312.90625 281.902344 326.949219 280.980469 342.808594 C 276.542969 345.4375 271.589844 347.628906 266.953125 348.027344 L 266.828125 352.839844 C 264.265625 354.074219 261.679688 355.246094 259.050781 356.355469 "
            fill-opacity="1"
            fill-rule="nonzero"
          />
        </g>
      </g>
      <g clip-path="url(#fa9aa9cd51)">
        <g clip-path="url(#b28fbd89eb)">
          <path
            fill="#3583b0"
            d="M 257.625 244.953125 C 257.625 244.953125 272.449219 249.90625 278.496094 262.347656 C 284.539062 274.796875 293.429688 320.3125 293.429688 320.3125 C 293.429688 320.3125 283.472656 340.582031 253.25 333.46875 C 253.25 333.46875 231.777344 246.046875 257.625 244.953125 "
            fill-opacity="1"
            fill-rule="nonzero"
          />
        </g>
      </g>
      <g clip-path="url(#cbbeed4f58)">
        <g clip-path="url(#22ca561235)">
          <path
            fill="#337393"
            d="M 245.871094 260.160156 C 241.464844 285.472656 253.25 333.46875 253.25 333.46875 C 256.230469 334.167969 259.011719 334.59375 261.613281 334.808594 C 265.136719 318.34375 274.535156 264.019531 245.871094 260.160156 "
            fill-opacity="1"
            fill-rule="nonzero"
          />
        </g>
      </g>
      <g clip-path="url(#bed1dce377)">
        <g clip-path="url(#c18a02097b)">
          <path
            fill="#f0a176"
            d="M 115.75 387.769531 C 116.703125 355.050781 117.742188 321.550781 118.222656 313.558594 L 91.796875 291.128906 C 91.796875 291.128906 94.664062 341.953125 97.402344 387.769531 L 115.75 387.769531 "
            fill-opacity="1"
            fill-rule="nonzero"
          />
        </g>
      </g>
      <g clip-path="url(#a36556f90a)">
        <g clip-path="url(#b6f0f3f4ad)">
          <path
            fill="#b7977b"
            d="M 94.554688 339.308594 C 93.71875 324.886719 92.992188 312.207031 92.496094 303.480469 C 92.992188 312.210938 93.71875 324.886719 94.554688 339.308594 "
            fill-opacity="1"
            fill-rule="nonzero"
          />
        </g>
      </g>
      <g clip-path="url(#3a2ac44d43)">
        <g clip-path="url(#ac6d88be69)">
          <path
            fill="#d6855a"
            d="M 116.679688 356.695312 C 114.0625 355.597656 111.472656 354.445312 108.921875 353.226562 L 108.78125 348.027344 C 104.148438 347.628906 99.199219 345.4375 94.757812 342.808594 C 94.691406 341.628906 94.625 340.464844 94.554688 339.308594 C 93.71875 324.886719 92.992188 312.210938 92.496094 303.480469 L 114.546875 310.441406 L 118.222656 313.558594 C 117.894531 318.964844 117.316406 336.0625 116.679688 356.695312 "
            fill-opacity="1"
            fill-rule="nonzero"
          />
        </g>
      </g>
      <g clip-path="url(#f5291861d7)">
        <g clip-path="url(#2208ae891e)">
          <path
            fill="#3583b0"
            d="M 117.3125 244.953125 C 117.3125 244.953125 102.484375 249.90625 96.441406 262.347656 C 90.394531 274.796875 81.503906 320.3125 81.503906 320.3125 C 81.503906 320.3125 91.460938 340.582031 121.6875 333.46875 C 121.6875 333.46875 143.15625 246.046875 117.3125 244.953125 "
            fill-opacity="1"
            fill-rule="nonzero"
          />
        </g>
      </g>
      <g clip-path="url(#7508e8d5a5)">
        <g clip-path="url(#c357f6a664)">
          <path
            fill="#337393"
            d="M 121.6875 333.46875 C 121.6875 333.46875 137.390625 269.511719 125.757812 250.328125 C 124.636719 250.402344 123.46875 250.601562 122.222656 250.972656 C 91.050781 260.140625 108.1875 318.546875 113.625 334.792969 C 116.136719 334.566406 118.816406 334.144531 121.6875 333.46875 "
            fill-opacity="1"
            fill-rule="nonzero"
          />
        </g>
      </g>
      <g clip-path="url(#cfd821efe9)">
        <g clip-path="url(#40706c11cd)">
          <path
            fill="#3583b0"
            d="M 244.023438 387.769531 C 251.25 335.128906 262.027344 253.296875 260.359375 245.640625 C 260.359375 245.640625 217.289062 231.414062 209.820312 227.859375 L 187.796875 231.324219 L 165.777344 227.859375 C 158.3125 231.414062 115.242188 245.640625 115.242188 245.640625 C 113.5625 253.296875 124.351562 335.128906 131.570312 387.769531 L 244.023438 387.769531 "
            fill-opacity="1"
            fill-rule="nonzero"
          />
        </g>
      </g>
      <g clip-path="url(#25110e14e1)">
        <g clip-path="url(#921368cae5)">
          <path
            fill="#da8b65"
            d="M 207.542969 196.570312 L 188.265625 202.167969 L 168.980469 196.570312 C 168.980469 196.570312 167.460938 223.238281 162.929688 229.371094 C 162.929688 229.371094 175.730469 242.171875 188.265625 242.707031 C 200.796875 242.171875 213.597656 229.371094 213.597656 229.371094 C 209.066406 223.238281 207.542969 196.570312 207.542969 196.570312 "
            fill-opacity="1"
            fill-rule="nonzero"
          />
        </g>
      </g>
      <g clip-path="url(#dbfb88fb6c)">
        <g clip-path="url(#0475d5eef3)">
          <path
            fill="#908475"
            d="M 210.644531 221.242188 C 209.621094 216.691406 208.890625 211.222656 208.394531 206.59375 L 208.398438 206.589844 C 208.890625 211.222656 209.625 216.691406 210.644531 221.242188 "
            fill-opacity="1"
            fill-rule="nonzero"
          />
        </g>
      </g>
      <g clip-path="url(#6c65f21e43)">
        <g clip-path="url(#8ea8195e56)">
          <path
            fill="#b06749"
            d="M 201.863281 221.703125 C 182.664062 221.703125 171.449219 214.777344 167.507812 211.785156 C 167.75 209.984375 167.957031 208.203125 168.136719 206.535156 C 175.46875 211.640625 182.8125 214.761719 188.265625 214.761719 C 188.269531 214.761719 188.277344 214.761719 188.285156 214.761719 C 188.289062 214.761719 188.289062 214.761719 188.292969 214.761719 C 188.300781 214.761719 188.304688 214.761719 188.3125 214.761719 C 188.3125 214.761719 188.316406 214.761719 188.316406 214.761719 C 188.328125 214.761719 188.335938 214.761719 188.34375 214.761719 C 188.347656 214.761719 188.347656 214.761719 188.347656 214.761719 C 188.355469 214.761719 188.359375 214.761719 188.367188 214.761719 C 188.371094 214.761719 188.371094 214.761719 188.375 214.761719 C 188.386719 214.761719 188.390625 214.761719 188.398438 214.761719 C 188.398438 214.761719 188.402344 214.761719 188.402344 214.761719 C 188.410156 214.761719 188.417969 214.761719 188.425781 214.761719 C 188.429688 214.761719 188.429688 214.761719 188.429688 214.761719 C 188.4375 214.761719 188.449219 214.761719 188.453125 214.761719 C 188.457031 214.761719 188.457031 214.761719 188.460938 214.761719 C 188.46875 214.761719 188.476562 214.761719 188.484375 214.761719 C 188.492188 214.761719 188.5 214.761719 188.511719 214.761719 C 188.511719 214.761719 188.515625 214.761719 188.519531 214.761719 C 188.523438 214.761719 188.53125 214.761719 188.535156 214.761719 C 188.539062 214.761719 188.539062 214.761719 188.542969 214.761719 C 188.550781 214.761719 188.558594 214.761719 188.566406 214.761719 C 188.566406 214.761719 188.566406 214.761719 188.574219 214.761719 C 188.578125 214.761719 188.585938 214.761719 188.59375 214.761719 C 188.59375 214.761719 188.597656 214.761719 188.597656 214.761719 C 188.617188 214.757812 188.628906 214.757812 188.652344 214.757812 C 188.652344 214.757812 188.65625 214.757812 188.65625 214.757812 C 188.664062 214.757812 188.667969 214.757812 188.675781 214.757812 C 188.675781 214.757812 188.679688 214.757812 188.679688 214.757812 C 188.6875 214.757812 188.703125 214.757812 188.710938 214.757812 C 188.71875 214.757812 188.726562 214.757812 188.734375 214.757812 C 188.734375 214.757812 188.734375 214.757812 188.738281 214.757812 C 188.746094 214.757812 188.753906 214.757812 188.765625 214.753906 C 188.773438 214.753906 188.785156 214.753906 188.792969 214.753906 C 188.800781 214.753906 188.808594 214.753906 188.816406 214.753906 C 188.816406 214.753906 188.824219 214.753906 188.824219 214.753906 C 188.84375 214.753906 188.859375 214.753906 188.875 214.75 L 188.878906 214.75 C 188.90625 214.75 188.933594 214.75 188.964844 214.75 C 188.984375 214.746094 189 214.746094 189.019531 214.746094 L 189.023438 214.746094 C 189.03125 214.746094 189.039062 214.746094 189.046875 214.746094 C 189.046875 214.746094 189.046875 214.746094 189.050781 214.746094 C 189.066406 214.742188 189.085938 214.742188 189.105469 214.742188 C 194.441406 214.445312 201.421875 211.402344 208.394531 206.59375 C 208.890625 211.222656 209.621094 216.691406 210.644531 221.242188 C 207.550781 221.5625 204.625 221.703125 201.863281 221.703125 "
            fill-opacity="1"
            fill-rule="nonzero"
          />
        </g>
      </g>
      <g clip-path="url(#ff86007f0c)">
        <g clip-path="url(#8a89c7bee1)">
          <path
            fill="#d17a50"
            d="M 231.574219 146.582031 C 230.929688 155.25 234.695312 162.597656 239.992188 162.996094 C 245.289062 163.386719 250.101562 156.683594 250.753906 148.011719 C 251.398438 139.34375 247.628906 131.996094 242.335938 131.597656 C 237.039062 131.199219 232.226562 137.910156 231.574219 146.582031 "
            fill-opacity="1"
            fill-rule="nonzero"
          />
        </g>
      </g>
      <g clip-path="url(#5aca3c088f)">
        <g clip-path="url(#0b79cacaa6)">
          <path
            fill="#ba6449"
            d="M 241.0625 158.148438 C 239.90625 158.148438 238.800781 157.023438 238.265625 153.359375 C 238.265625 153.359375 244.746094 151.550781 239.105469 149.03125 L 238.082031 148.640625 C 238.085938 147.777344 238.085938 146.925781 238.085938 146.085938 C 238.085938 144.382812 238.0625 142.648438 238.015625 140.890625 C 238.675781 139.175781 239.867188 137.851562 241.980469 137.851562 C 242.050781 137.851562 242.121094 137.851562 242.195312 137.855469 C 247.472656 138.074219 247.058594 144.421875 247.121094 144.421875 C 247.136719 144.421875 247.160156 144.230469 247.234375 143.773438 C 247.234375 143.773438 247.199219 146.222656 245.863281 146.53125 C 245.863281 146.53125 246.726562 141.511719 242.195312 140.445312 C 242.195312 140.445312 245.234375 142.175781 244.714844 149.578125 C 244.714844 149.578125 244.59375 146.042969 240.191406 145.011719 C 240.191406 145.011719 246.800781 150.578125 241.164062 154.246094 C 241.164062 154.246094 241.273438 156.285156 242.714844 156.285156 C 243.238281 156.285156 243.9375 156.015625 244.882812 155.277344 C 244.882812 155.277344 242.90625 158.148438 241.0625 158.148438 "
            fill-opacity="1"
            fill-rule="nonzero"
          />
        </g>
      </g>
      <g clip-path="url(#721e41d9b1)">
        <g clip-path="url(#e378458b84)">
          <path
            fill="#9a4f36"
            d="M 247.253906 145.195312 C 247.273438 144.230469 247.132812 143.269531 246.851562 142.363281 C 246.714844 141.910156 246.527344 141.472656 246.289062 141.070312 C 246.066406 140.660156 245.792969 140.273438 245.46875 139.945312 C 245.324219 139.765625 245.15625 139.605469 244.96875 139.46875 C 244.792969 139.324219 244.621094 139.164062 244.414062 139.058594 C 244.035156 138.796875 243.605469 138.621094 243.175781 138.449219 C 242.734375 138.328125 242.285156 138.171875 241.839844 138.125 C 241.375 138.074219 240.976562 138.09375 240.5625 138.234375 C 239.761719 138.5 239.152344 139.183594 238.746094 139.988281 C 238.328125 140.792969 238.085938 141.707031 237.90625 142.621094 C 237.734375 143.546875 237.644531 144.488281 237.59375 145.433594 C 237.570312 145.910156 237.558594 146.386719 237.5625 146.859375 L 237.582031 148.300781 L 237.257812 147.878906 C 238.039062 148.113281 238.777344 148.398438 239.511719 148.753906 C 239.875 148.925781 240.234375 149.125 240.582031 149.359375 C 240.925781 149.601562 241.269531 149.875 241.535156 150.285156 C 241.671875 150.484375 241.761719 150.753906 241.789062 151.027344 C 241.789062 151.308594 241.726562 151.597656 241.585938 151.808594 C 241.324219 152.242188 240.957031 152.5 240.605469 152.734375 C 239.890625 153.167969 239.136719 153.460938 238.375 153.699219 L 238.617188 153.316406 C 238.734375 154.234375 238.953125 155.1875 239.308594 156.042969 C 239.492188 156.472656 239.71875 156.882812 240.011719 157.214844 C 240.164062 157.378906 240.324219 157.527344 240.511719 157.628906 C 240.6875 157.742188 240.898438 157.789062 241.105469 157.820312 C 241.3125 157.839844 241.53125 157.816406 241.746094 157.765625 C 241.964844 157.695312 242.175781 157.613281 242.382812 157.5 C 242.789062 157.273438 243.171875 156.980469 243.523438 156.65625 C 244.230469 156.003906 244.851562 155.25 245.457031 154.480469 C 244.941406 155.308594 244.378906 156.117188 243.699219 156.832031 C 243.359375 157.195312 242.984375 157.527344 242.558594 157.808594 C 242.351562 157.949219 242.113281 158.058594 241.871094 158.152344 C 241.617188 158.230469 241.351562 158.292969 241.074219 158.277344 C 240.800781 158.257812 240.519531 158.195312 240.277344 158.058594 C 240.027344 157.9375 239.824219 157.761719 239.628906 157.574219 C 239.261719 157.191406 238.992188 156.746094 238.777344 156.285156 C 238.34375 155.367188 238.082031 154.40625 237.90625 153.40625 L 237.855469 153.128906 L 238.148438 153.019531 C 238.859375 152.75 239.574219 152.460938 240.183594 152.078125 C 240.480469 151.878906 240.753906 151.648438 240.894531 151.410156 C 240.976562 151.289062 240.976562 151.183594 240.984375 151.074219 C 240.960938 150.964844 240.9375 150.84375 240.847656 150.722656 C 240.503906 150.222656 239.804688 149.832031 239.144531 149.515625 C 238.464844 149.203125 237.734375 148.9375 237.019531 148.726562 L 236.710938 148.640625 L 236.695312 148.300781 C 236.675781 147.851562 236.660156 147.335938 236.671875 146.851562 C 236.675781 146.363281 236.691406 145.878906 236.722656 145.386719 C 236.789062 144.410156 236.898438 143.429688 237.09375 142.464844 C 237.296875 141.496094 237.5625 140.53125 238.050781 139.621094 C 238.292969 139.175781 238.582031 138.730469 238.96875 138.363281 C 239.347656 137.992188 239.835938 137.707031 240.355469 137.554688 C 240.859375 137.394531 241.453125 137.402344 241.933594 137.484375 C 242.449219 137.5625 242.910156 137.746094 243.386719 137.90625 C 243.84375 138.113281 244.300781 138.324219 244.707031 138.625 C 244.921875 138.753906 245.105469 138.933594 245.292969 139.101562 C 245.484375 139.265625 245.65625 139.445312 245.808594 139.644531 C 245.972656 139.835938 246.128906 140.035156 246.246094 140.25 C 246.382812 140.464844 246.511719 140.675781 246.601562 140.90625 C 246.820312 141.351562 246.980469 141.824219 247.085938 142.296875 C 247.320312 143.246094 247.371094 144.234375 247.253906 145.195312 "
            fill-opacity="1"
            fill-rule="nonzero"
          />
        </g>
      </g>
      <g clip-path="url(#c53c447f04)">
        <g clip-path="url(#18f4faeffa)">
          <path
            fill="#9a4f36"
            d="M 244.859375 148.378906 C 244.859375 148.378906 244.890625 147.597656 244.730469 146.453125 C 244.65625 145.878906 244.527344 145.214844 244.308594 144.535156 C 244.203125 144.195312 244.085938 143.847656 243.917969 143.511719 C 243.785156 143.160156 243.570312 142.851562 243.386719 142.535156 C 243.164062 142.238281 242.945312 141.9375 242.679688 141.699219 C 242.40625 141.46875 242.160156 141.21875 241.847656 141.082031 C 241.703125 140.996094 241.558594 140.921875 241.421875 140.84375 C 241.269531 140.792969 241.117188 140.746094 240.972656 140.707031 C 240.828125 140.660156 240.683594 140.613281 240.546875 140.574219 C 240.40625 140.558594 240.265625 140.542969 240.128906 140.535156 C 239.863281 140.519531 239.625 140.460938 239.402344 140.484375 C 239.179688 140.5 238.988281 140.519531 238.835938 140.535156 C 238.519531 140.558594 238.339844 140.574219 238.339844 140.574219 L 238.214844 139.515625 C 238.214844 139.515625 238.417969 139.515625 238.785156 139.515625 C 238.964844 139.515625 239.183594 139.515625 239.433594 139.515625 C 239.683594 139.511719 239.972656 139.597656 240.28125 139.644531 C 240.433594 139.675781 240.59375 139.707031 240.761719 139.734375 C 240.914062 139.796875 241.082031 139.867188 241.246094 139.929688 C 241.414062 140 241.585938 140.074219 241.761719 140.144531 C 241.917969 140.25 242.082031 140.355469 242.242188 140.46875 C 242.585938 140.664062 242.851562 140.976562 243.140625 141.261719 C 243.410156 141.558594 243.625 141.910156 243.839844 142.257812 C 244.011719 142.617188 244.210938 142.972656 244.320312 143.347656 C 244.460938 143.714844 244.550781 144.089844 244.636719 144.449219 C 244.796875 145.167969 244.867188 145.851562 244.898438 146.4375 C 244.957031 147.601562 244.859375 148.378906 244.859375 148.378906 "
            fill-opacity="1"
            fill-rule="nonzero"
          />
        </g>
      </g>
      <g clip-path="url(#a88997e9e4)">
        <g clip-path="url(#a7530bf170)">
          <path
            fill="#d17a50"
            d="M 145.144531 146.582031 C 145.789062 155.25 142.023438 162.597656 136.726562 162.996094 C 131.429688 163.386719 126.613281 156.683594 125.96875 148.011719 C 125.320312 139.34375 129.09375 131.996094 134.382812 131.597656 C 139.679688 131.199219 144.492188 137.910156 145.144531 146.582031 "
            fill-opacity="1"
            fill-rule="nonzero"
          />
        </g>
      </g>
      <g clip-path="url(#00d2c58ccd)">
        <g clip-path="url(#202ecfbb95)">
          <path
            fill="#ba6449"
            d="M 135.46875 157.828125 C 135.304688 157.828125 135.140625 157.804688 134.972656 157.765625 C 134.753906 157.695312 134.542969 157.613281 134.339844 157.5 C 133.929688 157.273438 133.546875 156.980469 133.195312 156.652344 C 132.785156 156.273438 132.402344 155.855469 132.035156 155.429688 C 132.875 156.054688 133.519531 156.285156 134.003906 156.285156 C 135.445312 156.285156 135.554688 154.246094 135.554688 154.246094 C 129.917969 150.578125 136.527344 145.011719 136.527344 145.011719 C 132.125 146.042969 132 149.578125 132 149.578125 C 131.914062 148.296875 131.929688 147.191406 132.019531 146.226562 C 132.097656 145.710938 132.222656 145.128906 132.410156 144.53125 C 132.519531 144.195312 132.632812 143.84375 132.800781 143.511719 C 132.933594 143.160156 133.152344 142.851562 133.335938 142.535156 C 133.554688 142.234375 133.777344 141.9375 134.039062 141.699219 C 134.3125 141.46875 134.558594 141.21875 134.871094 141.082031 C 135.019531 140.996094 135.15625 140.917969 135.296875 140.84375 C 135.453125 140.792969 135.601562 140.746094 135.746094 140.707031 C 135.894531 140.660156 136.035156 140.613281 136.171875 140.574219 C 136.3125 140.558594 136.457031 140.542969 136.589844 140.535156 C 136.8125 140.523438 137.015625 140.476562 137.203125 140.476562 C 137.238281 140.476562 137.28125 140.480469 137.316406 140.484375 C 137.539062 140.5 137.730469 140.519531 137.886719 140.535156 C 138.035156 140.542969 138.152344 140.550781 138.234375 140.558594 C 138.335938 140.804688 138.421875 141.058594 138.496094 141.3125 C 138.460938 142.925781 138.441406 144.523438 138.441406 146.085938 C 138.441406 146.570312 138.441406 147.050781 138.441406 147.539062 C 138.441406 147.769531 138.441406 147.992188 138.441406 148.222656 C 138.027344 148.382812 137.617188 148.550781 137.210938 148.753906 C 136.84375 148.925781 136.484375 149.125 136.140625 149.359375 C 135.792969 149.601562 135.453125 149.875 135.183594 150.285156 C 135.046875 150.484375 134.957031 150.753906 134.929688 151.027344 C 134.925781 151.308594 134.992188 151.597656 135.128906 151.808594 C 135.398438 152.242188 135.757812 152.5 136.113281 152.734375 C 136.738281 153.117188 137.394531 153.386719 138.054688 153.605469 C 137.933594 154.4375 137.726562 155.277344 137.40625 156.042969 C 137.226562 156.472656 136.996094 156.882812 136.707031 157.214844 C 136.554688 157.378906 136.394531 157.527344 136.210938 157.628906 C 136.03125 157.742188 135.820312 157.789062 135.613281 157.820312 C 135.566406 157.824219 135.519531 157.828125 135.46875 157.828125 M 130.855469 146.53125 C 129.847656 146.296875 129.582031 144.832031 129.507812 144.140625 C 129.511719 144.097656 129.519531 144.054688 129.523438 144.015625 C 129.566406 144.296875 129.585938 144.421875 129.59375 144.421875 C 129.613281 144.421875 129.589844 143.835938 129.695312 143.007812 C 129.746094 142.789062 129.804688 142.578125 129.867188 142.363281 C 130.003906 141.910156 130.191406 141.472656 130.429688 141.070312 C 130.65625 140.660156 130.925781 140.273438 131.25 139.945312 C 131.398438 139.765625 131.5625 139.605469 131.75 139.46875 C 131.925781 139.324219 132.097656 139.164062 132.304688 139.058594 C 132.683594 138.796875 133.113281 138.621094 133.542969 138.449219 C 133.984375 138.328125 134.433594 138.171875 134.878906 138.125 C 135.035156 138.105469 135.179688 138.097656 135.320312 138.097656 C 135.609375 138.097656 135.878906 138.140625 136.15625 138.234375 C 136.792969 138.449219 137.3125 138.921875 137.703125 139.515625 C 137.578125 139.515625 137.433594 139.515625 137.285156 139.515625 C 137.28125 139.515625 137.277344 139.515625 137.273438 139.515625 C 137.027344 139.515625 136.742188 139.597656 136.4375 139.644531 C 136.285156 139.675781 136.125 139.707031 135.960938 139.734375 C 135.804688 139.796875 135.640625 139.863281 135.46875 139.929688 C 135.304688 140 135.128906 140.074219 134.960938 140.144531 C 134.808594 140.242188 134.660156 140.34375 134.503906 140.449219 C 129.992188 141.523438 130.855469 146.53125 130.855469 146.53125 M 131.15625 139.359375 C 131.46875 139 131.847656 138.683594 132.300781 138.433594 C 132.199219 138.492188 132.105469 138.558594 132.011719 138.625 C 131.796875 138.753906 131.613281 138.933594 131.425781 139.101562 C 131.332031 139.183594 131.238281 139.269531 131.15625 139.359375 "
            fill-opacity="1"
            fill-rule="nonzero"
          />
        </g>
      </g>
      <g clip-path="url(#e422bfcfbb)">
        <g clip-path="url(#ac2a1dd96e)">
          <path
            fill="#9a4f36"
            d="M 129.46875 145.195312 C 129.347656 144.234375 129.402344 143.246094 129.632812 142.296875 C 129.738281 141.820312 129.902344 141.351562 130.117188 140.90625 C 130.210938 140.675781 130.339844 140.464844 130.472656 140.25 C 130.59375 140.035156 130.746094 139.835938 130.910156 139.644531 C 131.0625 139.445312 131.234375 139.265625 131.425781 139.101562 C 131.613281 138.933594 131.796875 138.753906 132.011719 138.625 C 132.417969 138.324219 132.875 138.113281 133.335938 137.90625 C 133.808594 137.746094 134.273438 137.5625 134.785156 137.484375 C 135.269531 137.402344 135.859375 137.394531 136.363281 137.554688 C 136.886719 137.707031 137.371094 137.992188 137.75 138.363281 C 138.140625 138.730469 138.425781 139.175781 138.667969 139.621094 C 139.15625 140.53125 139.421875 141.496094 139.625 142.464844 C 139.824219 143.429688 139.929688 144.410156 139.996094 145.386719 C 140.027344 145.878906 140.042969 146.363281 140.046875 146.851562 C 140.058594 147.335938 140.042969 147.851562 140.023438 148.300781 L 140.011719 148.640625 L 139.703125 148.726562 C 138.984375 148.9375 138.253906 149.199219 137.578125 149.515625 C 136.914062 149.832031 136.214844 150.222656 135.871094 150.722656 C 135.78125 150.84375 135.753906 150.964844 135.734375 151.074219 C 135.742188 151.183594 135.742188 151.289062 135.828125 151.410156 C 135.960938 151.648438 136.238281 151.878906 136.53125 152.078125 C 137.144531 152.460938 137.859375 152.75 138.574219 153.019531 L 138.859375 153.128906 L 138.8125 153.40625 C 138.640625 154.40625 138.375 155.367188 137.941406 156.285156 C 137.722656 156.746094 137.457031 157.191406 137.089844 157.574219 C 136.898438 157.761719 136.6875 157.9375 136.441406 158.058594 C 136.203125 158.195312 135.917969 158.257812 135.648438 158.277344 C 135.367188 158.292969 135.101562 158.230469 134.847656 158.152344 C 134.605469 158.058594 134.367188 157.949219 134.160156 157.808594 C 133.734375 157.527344 133.359375 157.195312 133.023438 156.832031 C 132.34375 156.117188 131.78125 155.308594 131.261719 154.480469 C 131.867188 155.25 132.488281 156 133.195312 156.652344 C 133.546875 156.980469 133.929688 157.273438 134.339844 157.5 C 134.542969 157.613281 134.753906 157.695312 134.972656 157.765625 C 135.1875 157.816406 135.40625 157.839844 135.613281 157.820312 C 135.820312 157.789062 136.03125 157.742188 136.210938 157.628906 C 136.394531 157.527344 136.554688 157.378906 136.707031 157.214844 C 136.996094 156.882812 137.226562 156.472656 137.40625 156.042969 C 137.769531 155.1875 137.984375 154.234375 138.097656 153.316406 L 138.339844 153.699219 C 137.582031 153.460938 136.832031 153.167969 136.113281 152.734375 C 135.757812 152.5 135.398438 152.242188 135.128906 151.808594 C 134.992188 151.597656 134.925781 151.308594 134.929688 151.027344 C 134.957031 150.753906 135.046875 150.484375 135.183594 150.285156 C 135.453125 149.875 135.792969 149.601562 136.140625 149.359375 C 136.484375 149.125 136.84375 148.925781 137.210938 148.753906 C 137.941406 148.398438 138.679688 148.113281 139.460938 147.878906 L 139.140625 148.300781 L 139.15625 146.859375 C 139.160156 146.386719 139.148438 145.910156 139.125 145.433594 C 139.078125 144.488281 138.984375 143.546875 138.8125 142.621094 C 138.636719 141.707031 138.394531 140.792969 137.972656 139.988281 C 137.566406 139.183594 136.960938 138.5 136.15625 138.234375 C 135.742188 138.09375 135.34375 138.074219 134.878906 138.125 C 134.433594 138.171875 133.984375 138.328125 133.542969 138.449219 C 133.113281 138.621094 132.683594 138.796875 132.304688 139.058594 C 132.097656 139.164062 131.925781 139.324219 131.75 139.46875 C 131.5625 139.605469 131.398438 139.765625 131.25 139.945312 C 130.925781 140.273438 130.65625 140.660156 130.429688 141.070312 C 130.191406 141.472656 130.003906 141.910156 129.867188 142.363281 C 129.589844 143.269531 129.445312 144.230469 129.46875 145.195312 "
            fill-opacity="1"
            fill-rule="nonzero"
          />
        </g>
      </g>
      <g clip-path="url(#c90db34c83)">
        <g clip-path="url(#8bbc0ab8ec)">
          <path
            fill="#9a4f36"
            d="M 131.859375 148.378906 C 131.859375 148.378906 131.761719 147.601562 131.820312 146.4375 C 131.851562 145.851562 131.921875 145.167969 132.085938 144.449219 C 132.164062 144.085938 132.253906 143.714844 132.398438 143.347656 C 132.507812 142.972656 132.710938 142.617188 132.878906 142.257812 C 133.09375 141.910156 133.308594 141.558594 133.582031 141.261719 C 133.867188 140.972656 134.128906 140.664062 134.476562 140.46875 C 134.640625 140.355469 134.800781 140.25 134.960938 140.144531 C 135.128906 140.074219 135.304688 140 135.46875 139.929688 C 135.640625 139.863281 135.804688 139.796875 135.960938 139.734375 C 136.125 139.707031 136.285156 139.675781 136.4375 139.644531 C 136.746094 139.597656 137.035156 139.511719 137.285156 139.515625 C 137.535156 139.515625 137.753906 139.515625 137.933594 139.515625 C 138.300781 139.515625 138.503906 139.515625 138.503906 139.515625 L 138.378906 140.574219 C 138.378906 140.574219 138.203125 140.558594 137.886719 140.535156 C 137.730469 140.519531 137.539062 140.5 137.316406 140.484375 C 137.09375 140.457031 136.855469 140.519531 136.589844 140.535156 C 136.457031 140.542969 136.3125 140.558594 136.171875 140.574219 C 136.035156 140.613281 135.894531 140.660156 135.746094 140.707031 C 135.601562 140.746094 135.453125 140.792969 135.296875 140.84375 C 135.15625 140.917969 135.019531 140.996094 134.871094 141.082031 C 134.558594 141.21875 134.3125 141.46875 134.039062 141.699219 C 133.777344 141.9375 133.554688 142.234375 133.335938 142.535156 C 133.152344 142.851562 132.933594 143.160156 132.800781 143.511719 C 132.632812 143.84375 132.519531 144.195312 132.410156 144.53125 C 132.191406 145.214844 132.0625 145.878906 131.988281 146.449219 C 131.832031 147.597656 131.859375 148.378906 131.859375 148.378906 "
            fill-opacity="1"
            fill-rule="nonzero"
          />
        </g>
      </g>
      <g clip-path="url(#3dcd953182)">
        <g clip-path="url(#a92ad87e18)">
          <path
            fill="#f0a176"
            d="M 238.085938 146.085938 C 238.085938 154.574219 238.074219 164.363281 234.929688 173.835938 C 227.875 195.082031 201.9375 214.761719 188.265625 214.761719 C 174.390625 214.761719 148.214844 194.507812 141.292969 172.914062 C 138.351562 163.730469 138.441406 154.296875 138.441406 146.085938 C 138.441406 118.574219 143.53125 82.5625 188.265625 82.5625 C 232.992188 82.5625 238.085938 118.574219 238.085938 146.085938 "
            fill-opacity="1"
            fill-rule="nonzero"
          />
        </g>
      </g>
      <g clip-path="url(#8aaaec0b34)">
        <g clip-path="url(#6e85648627)">
          <path
            fill="#d6855a"
            d="M 186.773438 114.328125 C 172.332031 114.328125 159.632812 108.757812 150.3125 103.023438 C 151.480469 100.558594 152.804688 98.246094 154.28125 96.148438 C 155.746094 97.5 167.042969 107.339844 186.210938 107.339844 C 192.75 107.339844 200.214844 106.195312 208.515625 103.167969 C 208.515625 103.167969 211.636719 102.503906 215.667969 102.503906 C 220.617188 102.503906 226.945312 103.511719 230.5625 108.011719 C 228.878906 107.734375 227.070312 107.621094 225.242188 107.621094 C 217.199219 107.621094 208.761719 109.804688 208.761719 109.804688 C 201.148438 113.023438 193.757812 114.328125 186.773438 114.328125 "
            fill-opacity="1"
            fill-rule="nonzero"
          />
        </g>
      </g>
      <g clip-path="url(#3b152b19cd)">
        <g clip-path="url(#48742d12d3)">
          <path
            fill="#c3744e"
            d="M 188.285156 214.761719 C 188.289062 214.761719 188.289062 214.761719 188.292969 214.761719 C 188.289062 214.761719 188.289062 214.761719 188.285156 214.761719 M 188.3125 214.761719 C 188.3125 214.761719 188.316406 214.761719 188.316406 214.761719 C 188.316406 214.761719 188.3125 214.761719 188.3125 214.761719 M 188.34375 214.761719 C 188.347656 214.761719 188.347656 214.761719 188.347656 214.761719 C 188.347656 214.761719 188.347656 214.761719 188.34375 214.761719 M 188.367188 214.761719 C 188.371094 214.761719 188.371094 214.761719 188.375 214.761719 C 188.371094 214.761719 188.371094 214.761719 188.367188 214.761719 M 188.398438 214.761719 C 188.398438 214.761719 188.402344 214.761719 188.402344 214.761719 C 188.402344 214.761719 188.398438 214.761719 188.398438 214.761719 M 188.425781 214.761719 C 188.429688 214.761719 188.429688 214.761719 188.429688 214.761719 C 188.429688 214.761719 188.429688 214.761719 188.425781 214.761719 M 188.453125 214.761719 C 188.457031 214.761719 188.457031 214.761719 188.460938 214.761719 C 188.457031 214.761719 188.457031 214.761719 188.453125 214.761719 M 188.511719 214.761719 C 188.511719 214.761719 188.515625 214.761719 188.519531 214.761719 C 188.515625 214.761719 188.511719 214.761719 188.511719 214.761719 M 188.535156 214.761719 C 188.539062 214.761719 188.539062 214.761719 188.542969 214.761719 C 188.539062 214.761719 188.539062 214.761719 188.535156 214.761719 M 188.566406 214.761719 C 188.566406 214.761719 188.566406 214.761719 188.574219 214.761719 C 188.566406 214.761719 188.566406 214.761719 188.566406 214.761719 M 188.59375 214.761719 C 188.59375 214.761719 188.597656 214.761719 188.597656 214.761719 C 188.597656 214.761719 188.59375 214.761719 188.59375 214.761719 M 188.652344 214.757812 C 188.652344 214.757812 188.65625 214.757812 188.65625 214.757812 C 188.65625 214.757812 188.652344 214.757812 188.652344 214.757812 M 188.675781 214.757812 C 188.675781 214.757812 188.679688 214.757812 188.679688 214.757812 C 188.679688 214.757812 188.675781 214.757812 188.675781 214.757812 M 188.734375 214.757812 C 188.734375 214.757812 188.738281 214.757812 188.738281 214.757812 C 188.734375 214.757812 188.734375 214.757812 188.734375 214.757812 M 188.816406 214.753906 C 188.816406 214.753906 188.824219 214.753906 188.824219 214.753906 C 188.824219 214.753906 188.816406 214.753906 188.816406 214.753906 M 188.875 214.75 L 188.878906 214.75 L 188.875 214.75 M 189.019531 214.746094 L 189.023438 214.746094 L 189.019531 214.746094 M 189.046875 214.746094 L 189.050781 214.746094 C 189.046875 214.746094 189.046875 214.746094 189.046875 214.746094 "
            fill-opacity="1"
            fill-rule="nonzero"
          />
        </g>
      </g>
      <g clip-path="url(#fbcb7d7cf8)">
        <g clip-path="url(#79d5fd3073)">
          <path
            fill="#d6855a"
            d="M 188.265625 214.761719 C 174.390625 214.761719 148.214844 194.507812 141.292969 172.914062 C 139.335938 166.800781 138.722656 160.582031 138.53125 154.6875 C 138.511719 154.117188 138.496094 153.546875 138.484375 152.984375 C 138.460938 151.6875 138.449219 150.40625 138.441406 149.148438 C 138.441406 148.839844 138.441406 148.53125 138.441406 148.222656 C 138.441406 147.992188 138.441406 147.769531 138.441406 147.539062 C 138.441406 147.050781 138.441406 146.570312 138.441406 146.085938 C 138.441406 142.546875 138.640625 138.769531 139.0625 134.894531 C 140.421875 128.667969 144.09375 113.59375 149.816406 102.714844 C 149.980469 102.820312 150.144531 102.921875 150.3125 103.023438 C 144.785156 114.671875 142.578125 129.773438 142.578125 141.601562 C 142.578125 149.816406 142.484375 159.246094 145.425781 168.429688 C 152.347656 190.023438 178.527344 210.277344 192.398438 210.277344 C 200.6875 210.277344 213.484375 203.035156 223.847656 192.601562 C 213.285156 205.019531 198.589844 214.210938 189.105469 214.742188 C 189.085938 214.742188 189.066406 214.742188 189.050781 214.746094 L 189.046875 214.746094 C 189.039062 214.746094 189.03125 214.746094 189.023438 214.746094 L 189.019531 214.746094 C 189 214.746094 188.984375 214.746094 188.964844 214.75 C 188.933594 214.75 188.90625 214.75 188.878906 214.75 L 188.875 214.75 C 188.859375 214.753906 188.84375 214.753906 188.824219 214.753906 C 188.824219 214.753906 188.816406 214.753906 188.816406 214.753906 C 188.808594 214.753906 188.800781 214.753906 188.792969 214.753906 C 188.785156 214.753906 188.773438 214.753906 188.765625 214.753906 C 188.753906 214.757812 188.746094 214.757812 188.738281 214.757812 C 188.738281 214.757812 188.734375 214.757812 188.734375 214.757812 C 188.726562 214.757812 188.71875 214.757812 188.710938 214.757812 C 188.703125 214.757812 188.6875 214.757812 188.679688 214.757812 C 188.679688 214.757812 188.675781 214.757812 188.675781 214.757812 C 188.667969 214.757812 188.664062 214.757812 188.65625 214.757812 C 188.65625 214.757812 188.652344 214.757812 188.652344 214.757812 C 188.628906 214.757812 188.617188 214.757812 188.597656 214.761719 C 188.597656 214.761719 188.59375 214.761719 188.59375 214.761719 C 188.585938 214.761719 188.578125 214.761719 188.574219 214.761719 C 188.566406 214.761719 188.566406 214.761719 188.566406 214.761719 C 188.558594 214.761719 188.550781 214.761719 188.542969 214.761719 C 188.539062 214.761719 188.539062 214.761719 188.535156 214.761719 C 188.53125 214.761719 188.523438 214.761719 188.519531 214.761719 C 188.515625 214.761719 188.511719 214.761719 188.511719 214.761719 C 188.5 214.761719 188.492188 214.761719 188.484375 214.761719 C 188.476562 214.761719 188.46875 214.761719 188.460938 214.761719 C 188.457031 214.761719 188.457031 214.761719 188.453125 214.761719 C 188.449219 214.761719 188.4375 214.761719 188.429688 214.761719 C 188.429688 214.761719 188.429688 214.761719 188.425781 214.761719 C 188.417969 214.761719 188.410156 214.761719 188.402344 214.761719 C 188.402344 214.761719 188.398438 214.761719 188.398438 214.761719 C 188.390625 214.761719 188.386719 214.761719 188.375 214.761719 C 188.371094 214.761719 188.371094 214.761719 188.367188 214.761719 C 188.359375 214.761719 188.355469 214.761719 188.347656 214.761719 C 188.347656 214.761719 188.347656 214.761719 188.34375 214.761719 C 188.335938 214.761719 188.328125 214.761719 188.316406 214.761719 C 188.316406 214.761719 188.3125 214.761719 188.3125 214.761719 C 188.304688 214.761719 188.300781 214.761719 188.292969 214.761719 C 188.289062 214.761719 188.289062 214.761719 188.285156 214.761719 C 188.277344 214.761719 188.269531 214.761719 188.265625 214.761719 "
            fill-opacity="1"
            fill-rule="nonzero"
          />
        </g>
      </g>
      <g clip-path="url(#cd07cad253)">
        <g clip-path="url(#e1a4ab36d1)">
          <path
            fill="#cf7d53"
            d="M 150.3125 103.023438 C 150.144531 102.921875 149.980469 102.820312 149.816406 102.714844 C 151.140625 100.199219 152.578125 97.902344 154.121094 95.992188 C 154.121094 95.992188 154.171875 96.046875 154.28125 96.148438 C 152.804688 98.246094 151.480469 100.558594 150.3125 103.023438 "
            fill-opacity="1"
            fill-rule="nonzero"
          />
        </g>
      </g>
      <g clip-path="url(#3ba76a1205)">
        <g clip-path="url(#ab61f9ba5a)">
          <path
            fill="#211a1b"
            d="M 150.402344 128.78125 C 150.402344 128.78125 156.089844 123.71875 161.574219 124.96875 C 167.058594 126.214844 175.578125 126.203125 178.078125 123.421875 C 178.078125 123.421875 159.511719 115.96875 150.402344 128.78125 "
            fill-opacity="1"
            fill-rule="nonzero"
          />
        </g>
      </g>
      <g clip-path="url(#2e1f5b19c3)">
        <g clip-path="url(#6c7424e74b)">
          <path
            fill="#211a1b"
            d="M 224.488281 128.78125 C 224.488281 128.78125 218.800781 123.71875 213.316406 124.96875 C 207.832031 126.214844 199.3125 126.203125 196.8125 123.421875 C 196.8125 123.421875 215.382812 115.96875 224.488281 128.78125 "
            fill-opacity="1"
            fill-rule="nonzero"
          />
        </g>
      </g>
      <g clip-path="url(#39f6f2f250)">
        <g clip-path="url(#5ba6c22182)">
          <path
            fill="#b05838"
            d="M 179.386719 168.199219 C 179.386719 168.199219 179.375 168.105469 179.351562 167.925781 C 179.320312 167.746094 179.285156 167.488281 179.320312 167.125 C 179.351562 166.765625 179.414062 166.332031 179.59375 165.871094 C 179.746094 165.390625 180.007812 164.886719 180.363281 164.375 C 180.714844 163.867188 181.15625 163.347656 181.695312 162.894531 C 182.230469 162.421875 182.855469 161.996094 183.550781 161.640625 C 184.246094 161.300781 184.992188 160.972656 185.792969 160.800781 C 186.609375 160.582031 187.378906 160.519531 188.308594 160.492188 C 188.703125 160.519531 189.035156 160.507812 189.476562 160.570312 C 189.914062 160.621094 190.339844 160.691406 190.730469 160.796875 C 191.535156 160.96875 192.28125 161.300781 192.976562 161.636719 C 193.667969 161.992188 194.296875 162.417969 194.828125 162.890625 C 195.371094 163.34375 195.816406 163.867188 196.164062 164.375 C 196.519531 164.886719 196.777344 165.390625 196.9375 165.867188 C 197.113281 166.332031 197.175781 166.769531 197.207031 167.117188 C 197.238281 167.46875 197.207031 167.742188 197.171875 167.925781 C 197.152344 168.105469 197.136719 168.199219 197.136719 168.199219 C 197.136719 168.199219 197.109375 168.109375 197.0625 167.933594 C 197.023438 167.757812 196.925781 167.515625 196.792969 167.21875 C 196.660156 166.929688 196.46875 166.589844 196.210938 166.242188 C 195.960938 165.886719 195.613281 165.53125 195.238281 165.171875 C 194.84375 164.820312 194.386719 164.484375 193.878906 164.171875 C 193.371094 163.847656 192.792969 163.597656 192.199219 163.34375 C 191.597656 163.117188 190.953125 162.9375 190.289062 162.816406 C 189.953125 162.742188 189.636719 162.714844 189.316406 162.679688 C 189.015625 162.628906 188.582031 162.640625 188.21875 162.621094 C 187.625 162.640625 186.875 162.679688 186.234375 162.816406 C 185.570312 162.9375 184.929688 163.113281 184.328125 163.34375 C 183.734375 163.597656 183.152344 163.84375 182.648438 164.171875 C 182.136719 164.484375 181.679688 164.820312 181.289062 165.171875 C 180.910156 165.53125 180.5625 165.882812 180.3125 166.242188 C 180.054688 166.585938 179.863281 166.933594 179.734375 167.214844 C 179.601562 167.5 179.503906 167.753906 179.46875 167.933594 C 179.417969 168.109375 179.386719 168.199219 179.386719 168.199219 "
            fill-opacity="1"
            fill-rule="nonzero"
          />
        </g>
      </g>
      <g clip-path="url(#e395608a32)">
        <g clip-path="url(#a32fc6718a)">
          <path
            fill="#ffffff"
            d="M 167.957031 176.78125 C 167.957031 176.78125 183.871094 185.847656 208.761719 176.78125 C 208.761719 176.78125 189.109375 205.582031 167.957031 176.78125 "
            fill-opacity="1"
            fill-rule="nonzero"
          />
        </g>
      </g>
      <g clip-path="url(#63515e6154)">
        <g clip-path="url(#9053e74fe7)">
          <path
            fill="#c7d3df"
            d="M 167.957031 176.78125 C 168.207031 177.113281 168.449219 177.433594 168.699219 177.75 C 174.292969 181.886719 187.996094 189.179688 207.835938 178.003906 C 208.621094 177.046875 208.761719 176.78125 208.761719 176.78125 C 183.871094 185.847656 167.957031 176.78125 167.957031 176.78125 "
            fill-opacity="1"
            fill-rule="nonzero"
          />
        </g>
      </g>
      <g clip-path="url(#a1569132a3)">
        <g clip-path="url(#1cc654429f)">
          <path
            fill="#ad6544"
            d="M 182.492188 194.515625 C 182.492188 194.515625 188.359375 197.316406 194.226562 194.515625 C 194.226562 194.515625 189.148438 203.621094 182.492188 194.515625 "
            fill-opacity="1"
            fill-rule="nonzero"
          />
        </g>
      </g>
      <g clip-path="url(#fd5a005910)">
        <g clip-path="url(#e14db3b8b4)">
          <path
            fill="#d6855a"
            d="M 188.480469 171.503906 C 183.222656 171.503906 179.386719 169.3125 179.386719 169.3125 C 180.921875 163.957031 186.382812 163.566406 187.941406 163.566406 C 188.210938 163.566406 188.359375 163.578125 188.359375 163.578125 C 188.464844 163.574219 188.5625 163.574219 188.664062 163.574219 C 194.925781 163.574219 197.136719 169.3125 197.136719 169.3125 C 194.09375 170.957031 191.109375 171.503906 188.480469 171.503906 "
            fill-opacity="1"
            fill-rule="nonzero"
          />
        </g>
      </g>
      <g clip-path="url(#2e084559dd)">
        <g clip-path="url(#5d998ce12f)">
          <path
            fill="#211a1b"
            d="M 173.53125 183.125 C 172.421875 181.421875 171.511719 179.59375 170.835938 178.054688 C 168.953125 177.347656 167.957031 176.78125 167.957031 176.78125 C 169.832031 179.328125 171.691406 181.421875 173.53125 183.125 "
            fill-opacity="1"
            fill-rule="nonzero"
          />
        </g>
      </g>
      <g clip-path="url(#0832f6fdac)">
        <g clip-path="url(#e7264b5feb)">
          <path
            fill="#211a1b"
            d="M 202.972656 183.101562 C 206.613281 179.925781 208.761719 176.78125 208.761719 176.78125 C 207.898438 177.09375 207.054688 177.378906 206.214844 177.652344 C 205.414062 179.265625 204.308594 181.277344 202.972656 183.101562 "
            fill-opacity="1"
            fill-rule="nonzero"
          />
        </g>
      </g>
      <g clip-path="url(#ce86e88ac8)">
        <g clip-path="url(#664a6e222b)">
          <path
            fill="#211a1b"
            d="M 138.46875 137.761719 C 138.46875 137.761719 143.984375 108.527344 154.121094 95.992188 C 154.121094 95.992188 174.101562 115.703125 208.515625 103.167969 C 208.515625 103.167969 225.636719 99.5 231.503906 109.367188 C 231.503906 109.367188 235.726562 137.761719 237.722656 137.851562 C 237.722656 137.851562 255.707031 112.527344 250.824219 77.859375 C 250.824219 77.859375 238.488281 79 226.753906 71.363281 C 226.753906 71.363281 198.753906 38.65625 154.214844 62.390625 C 154.214844 62.390625 152.785156 55.164062 155.453125 46.097656 C 155.453125 46.097656 147.71875 58.367188 148.253906 66.898438 C 148.253906 66.898438 140.433594 65.566406 134.476562 67.167969 C 134.476562 67.167969 142.445312 68.5 145.214844 70.367188 C 145.214844 70.367188 121.21875 81.179688 138.46875 137.761719 "
            fill-opacity="1"
            fill-rule="nonzero"
          />
        </g>
      </g>
      <g clip-path="url(#291a2be74b)">
        <g clip-path="url(#c4e02dc63a)">
          <path
            fill="#4a3835"
            d="M 193.820312 95.207031 C 186.628906 95.207031 178.445312 93.609375 169.460938 89.285156 C 160.25 84.851562 152.691406 83.234375 146.554688 83.234375 C 141.597656 83.234375 137.566406 84.292969 134.355469 85.78125 C 136 80.351562 138.335938 76.703125 140.417969 74.320312 C 142.421875 74.011719 144.863281 73.777344 147.644531 73.777344 C 154.679688 73.777344 163.867188 75.300781 173.53125 81.058594 C 183.414062 86.949219 193.339844 89.289062 202.261719 89.289062 C 211.933594 89.285156 220.425781 86.535156 226.390625 82.5625 C 226.390625 82.5625 214.058594 95.207031 193.820312 95.207031 "
            fill-opacity="1"
            fill-rule="nonzero"
          />
        </g>
      </g>
      <g clip-path="url(#b9ce38eb13)">
        <g clip-path="url(#296462b59e)">
          <path
            fill="#337393"
            d="M 244.023438 387.769531 C 244.691406 382.921875 245.386719 377.835938 246.097656 372.578125 C 167.902344 393.746094 125.902344 345.644531 125.894531 345.636719 C 127.847656 360.417969 129.8125 374.953125 131.570312 387.769531 L 244.023438 387.769531 "
            fill-opacity="1"
            fill-rule="nonzero"
          />
        </g>
      </g>
      <g clip-path="url(#3d7660670a)">
        <g clip-path="url(#6d0f903208)">
          <path
            fill="#211a1b"
            d="M 175.027344 148.570312 C 175.027344 152.886719 173.085938 156.390625 170.703125 156.390625 C 168.316406 156.390625 166.382812 152.886719 166.382812 148.570312 C 166.382812 144.246094 168.316406 140.742188 170.703125 140.742188 C 173.085938 140.742188 175.027344 144.246094 175.027344 148.570312 "
            fill-opacity="1"
            fill-rule="nonzero"
          />
        </g>
      </g>
      <g clip-path="url(#b785b68116)">
        <g clip-path="url(#3544766026)">
          <path
            fill="#211a1b"
            d="M 210.144531 148.570312 C 210.144531 152.886719 208.210938 156.390625 205.824219 156.390625 C 203.4375 156.390625 201.503906 152.886719 201.503906 148.570312 C 201.503906 144.246094 203.4375 140.742188 205.824219 140.742188 C 208.210938 140.742188 210.144531 144.246094 210.144531 148.570312 "
            fill-opacity="1"
            fill-rule="nonzero"
          />
        </g>
      </g>
    </svg>