  <svg
      xmlns="http://www.w3.org/2000/svg"
      xmlns:xlink="http://www.w3.org/1999/xlink"
      width="40"
      zoomAndPan="magnify"
      viewBox="0 0 375 374.999991"
      height="40"
      preserveAspectRatio="xMidYMid meet"
      version="1.0">
      <defs>
        <filter x="0%" y="0%" width="100%" height="100%" id="1f7c3af3f4">
          <feColorMatrix
            values="0 0 0 0 1 0 0 0 0 1 0 0 0 0 1 0 0 0 1 0"
            color-interpolation-filters="sRGB"
          />
        </filter>
        <clipPath id="ec4f93527a">
          <path
            d="M 12.144531 12.144531 L 363.144531 12.144531 L 363.144531 363.144531 L 12.144531 363.144531 Z M 12.144531 12.144531 "
            clip-rule="nonzero"
          />
        </clipPath>
        <clipPath id="456d9ab4af">
          <path
            d="M 67 207 L 308 207 L 308 363.144531 L 67 363.144531 Z M 67 207 "
            clip-rule="nonzero"
          />
        </clipPath>
        <mask id="fa207407a5">
          <g filter="url(#1f7c3af3f4)">
            <rect
              x="-37.5"
              width="450"
              fill="#000000"
              y="-37.499999"
              height="449.999989"
              fill-opacity="0.22"
            />
          </g>
        </mask>
        <clipPath id="726ef97aa2">
          <rect x="0" width="98" y="0" height="30" />
        </clipPath>
        <clipPath id="f003ee9545">
          <path
            d="M 67 257 L 308 257 L 308 363.144531 L 67 363.144531 Z M 67 257 "
            clip-rule="nonzero"
          />
        </clipPath>
      </defs>
      <path
        fill="#fcfcfc"
        d="M 139.78125 283.066406 C 139.421875 283.726562 138.496094 284 138.53125 285.03125 C 137.878906 284.703125 137.242188 284.484375 136.519531 284.535156 C 135.707031 284.582031 135.078125 284.125 134.738281 283.441406 C 134.355469 282.648438 133.75 282.171875 133 281.804688 C 133.042969 281.765625 133.085938 281.722656 133.128906 281.671875 C 133.96875 281.359375 134.429688 281.890625 134.867188 282.457031 C 136.261719 284.265625 136.851562 284.378906 138.832031 283.171875 C 139.078125 283.027344 139.316406 282.859375 139.632812 282.949219 C 139.683594 282.992188 139.722656 283.027344 139.773438 283.066406 Z M 139.78125 283.066406 "
        fill-opacity="1"
        fill-rule="nonzero"
      />
      <path
        fill="#fcfcfc"
        d="M 222.332031 314.972656 C 222.386719 315.027344 222.464844 315.078125 222.492188 315.148438 C 222.691406 315.660156 222.519531 316.136719 222.050781 316.253906 C 221.679688 316.34375 221.160156 316.085938 221.019531 315.671875 C 220.929688 315.398438 220.851562 315.253906 220.601562 315.175781 C 220.566406 315.160156 220.507812 315.113281 220.507812 315.105469 C 220.8125 314.601562 221.027344 313.984375 221.460938 313.632812 C 221.769531 313.378906 221.90625 313.949219 222.042969 314.222656 C 222.078125 314.292969 222.074219 314.382812 222.085938 314.46875 C 222.042969 314.605469 222.023438 314.753906 222.039062 314.886719 C 222.039062 314.957031 222.078125 315.015625 222.148438 315.035156 C 222.207031 315.007812 222.269531 314.984375 222.332031 314.980469 Z M 222.332031 314.972656 "
        fill-opacity="1"
        fill-rule="nonzero"
      />
      <path
        fill="#fcfcfc"
        d="M 132.753906 281.566406 C 132.277344 281.566406 131.867188 281.464844 131.765625 280.894531 C 131.675781 280.363281 131.003906 280.152344 131.015625 279.554688 C 131.074219 279.535156 131.128906 279.515625 131.179688 279.492188 C 132.070312 279.835938 132.550781 280.539062 132.832031 281.40625 C 132.804688 281.464844 132.785156 281.511719 132.753906 281.566406 Z M 132.753906 281.566406 "
        fill-opacity="1"
        fill-rule="nonzero"
      />
      <path
        fill="#fcfcfc"
        d="M 142.773438 279.828125 C 142.378906 280.882812 141.628906 281.644531 140.769531 282.3125 C 140.734375 282.269531 140.691406 282.21875 140.65625 282.179688 C 140.945312 281.0625 141.695312 280.328125 142.625 279.738281 C 142.675781 279.765625 142.722656 279.792969 142.773438 279.828125 Z M 142.773438 279.828125 "
        fill-opacity="1"
        fill-rule="nonzero"
      />
      <path
        fill="#fcfcfc"
        d="M 140.769531 282.3125 C 140.675781 282.871094 140.207031 282.941406 139.78125 283.066406 C 139.78125 283.066406 139.730469 283.019531 139.730469 283.019531 C 139.757812 282.402344 140.046875 282.101562 140.691406 282.242188 L 140.769531 282.316406 Z M 140.769531 282.3125 "
        fill-opacity="1"
        fill-rule="nonzero"
      />
      <path
        fill="#eae9e5"
        d="M 222.332031 314.972656 C 222.324219 315.0625 222.3125 315.160156 222.304688 315.253906 C 222.128906 315.351562 221.96875 315.378906 221.820312 315.203125 C 221.90625 314.957031 221.433594 314.515625 222.078125 314.460938 C 222.277344 314.570312 222.316406 314.761719 222.332031 314.964844 Z M 222.332031 314.972656 "
        fill-opacity="1"
        fill-rule="nonzero"
      />
      <path
        fill="#fcfcfc"
        d="M 131.015625 279.554688 C 130.828125 279.449219 130.777344 279.269531 130.757812 279.074219 C 130.757812 279.074219 130.820312 279.007812 130.820312 279.007812 C 131.128906 279.050781 131.179688 279.234375 131.085938 279.492188 L 131.011719 279.554688 Z M 131.015625 279.554688 "
        fill-opacity="1"
        fill-rule="nonzero"
      />
      <path
        fill="#fcfcfc"
        d="M 188.78125 310.386719 C 188.78125 310.386719 188.832031 310.457031 188.832031 310.484375 C 188.832031 310.511719 188.789062 310.542969 188.765625 310.570312 C 188.691406 310.5 188.695312 310.4375 188.78125 310.378906 Z M 188.78125 310.386719 "
        fill-opacity="1"
        fill-rule="nonzero"
      />
      <path
        fill="#fcfcfc"
        d="M 219.023438 313.984375 C 219.023438 313.984375 218.972656 314.039062 218.953125 314.066406 C 218.933594 314.03125 218.902344 313.996094 218.902344 313.96875 C 218.902344 313.941406 218.945312 313.914062 218.972656 313.886719 C 218.996094 313.921875 219.007812 313.957031 219.03125 313.984375 Z M 219.023438 313.984375 "
        fill-opacity="1"
        fill-rule="nonzero"
      />
      <path
        fill="#fcfcfc"
        d="M 220.425781 314.292969 C 220.417969 314.257812 220.402344 314.222656 220.398438 314.1875 C 220.425781 314.179688 220.480469 314.152344 220.488281 314.164062 C 220.558594 314.261719 220.539062 314.304688 220.433594 314.296875 Z M 220.425781 314.292969 "
        fill-opacity="1"
        fill-rule="nonzero"
      />
      <path
        fill="#fcfcfc"
        d="M 219.210938 315.628906 C 219.210938 315.628906 219.269531 315.699219 219.261719 315.730469 C 219.261719 315.757812 219.21875 315.785156 219.191406 315.8125 C 219.113281 315.742188 219.121094 315.679688 219.207031 315.625 Z M 219.210938 315.628906 "
        fill-opacity="1"
        fill-rule="nonzero"
      />
      <path
        fill="#fcfcfc"
        d="M 209.167969 300.910156 C 209.132812 300.921875 209.097656 300.929688 209.0625 300.945312 C 209.054688 300.917969 209.027344 300.859375 209.039062 300.851562 C 209.140625 300.78125 209.179688 300.804688 209.175781 300.910156 Z M 209.167969 300.910156 "
        fill-opacity="1"
        fill-rule="nonzero"
      />
      <path
        fill="#fcfcfc"
        d="M 133 281.800781 C 132.917969 281.722656 132.839844 281.644531 132.753906 281.5625 C 132.753906 281.5625 132.785156 281.527344 132.785156 281.527344 C 132.972656 281.476562 133.050781 281.566406 133.0625 281.742188 Z M 133 281.800781 "
        fill-opacity="1"
        fill-rule="nonzero"
      />
      <path
        fill="#b6b2ac"
        d="M 221.820312 315.210938 C 221.980469 315.222656 222.144531 315.238281 222.304688 315.257812 C 222.246094 315.421875 222.15625 315.601562 221.988281 315.589844 C 221.769531 315.574219 221.828125 315.363281 221.820312 315.210938 Z M 221.820312 315.210938 "
        fill-opacity="1"
        fill-rule="nonzero"
      />
      <path
        fill="#867652"
        d="M 136.679688 281.394531 C 136.679688 281.394531 136.746094 281.351562 136.773438 281.359375 C 136.871094 281.386719 136.886719 281.433594 136.800781 281.484375 C 136.78125 281.496094 136.730469 281.484375 136.703125 281.464844 C 136.6875 281.449219 136.6875 281.414062 136.679688 281.386719 Z M 136.679688 281.394531 "
        fill-opacity="1"
        fill-rule="nonzero"
      />
      <path
        fill="#ada082"
        d="M 137.125 282.976562 L 137.09375 282.898438 L 137.164062 282.90625 Z M 137.125 282.976562 "
        fill-opacity="1"
        fill-rule="nonzero"
      />
      <g clip-path="url(#ec4f93527a)">
        <path
          fill="#e3ebe0"
          d="M 363.105469 187.609375 C 363.105469 238.027344 341.839844 283.480469 307.800781 315.492188 C 299.730469 323.074219 290.949219 329.902344 281.554688 335.867188 C 263.566406 347.296875 243.347656 355.53125 221.707031 359.792969 C 210.679688 361.960938 199.28125 363.105469 187.609375 363.105469 C 175.9375 363.105469 164.546875 361.960938 153.511719 359.792969 C 131.871094 355.53125 111.65625 347.296875 93.667969 335.867188 C 84.273438 329.902344 75.488281 323.074219 67.421875 315.492188 C 33.371094 283.480469 12.117188 238.027344 12.117188 187.609375 C 12.117188 90.6875 90.6875 12.117188 187.609375 12.117188 C 284.535156 12.117188 363.105469 90.6875 363.105469 187.609375 Z M 363.105469 187.609375 "
          fill-opacity="1"
          fill-rule="nonzero"
        />
      </g>
      <path
        fill="#7d2416"
        d="M 282.984375 232.671875 L 124.707031 232.671875 C 122.996094 222.023438 112.160156 204.6875 112.160156 204.6875 C 107.300781 212.328125 106.882812 226.558594 106.9375 232.671875 L 90.890625 232.671875 C 90.890625 232.671875 85.296875 221.925781 87.085938 203.566406 C 88.871094 185.207031 99.84375 179.835938 99.617188 170.652344 C 99.394531 161.46875 84.839844 153.640625 86.1875 141.769531 C 87.53125 129.902344 114.84375 116.695312 117.53125 111.101562 C 120.214844 105.507812 113.5 101.476562 114.621094 94.3125 C 115.742188 87.148438 118.425781 85.800781 130.960938 75.726562 C 143.496094 65.65625 176.410156 62.296875 191.632812 62.296875 C 222.304688 62.296875 246.929688 77.746094 253.871094 91.179688 C 260.8125 104.609375 255.441406 114.683594 261.035156 122.746094 C 266.628906 130.808594 279.621094 133.269531 281.183594 148.046875 C 282.753906 162.824219 269.3125 172 270.660156 178.492188 C 272.007812 184.980469 284.316406 200.65625 285.660156 208.269531 C 287.007812 215.882812 282.976562 232.671875 282.976562 232.671875 Z M 282.984375 232.671875 "
        fill-opacity="1"
        fill-rule="nonzero"
      />
      <path
        fill="#7d2416"
        d="M 220.746094 50.660156 C 220.746094 51.335938 220.703125 52.007812 220.613281 52.679688 C 220.519531 53.351562 220.386719 54.015625 220.207031 54.675781 C 220.027344 55.339844 219.800781 55.992188 219.53125 56.636719 C 219.265625 57.285156 218.953125 57.917969 218.601562 58.542969 C 218.246094 59.164062 217.851562 59.773438 217.417969 60.367188 C 216.980469 60.964844 216.507812 61.542969 215.992188 62.101562 C 215.480469 62.664062 214.929688 63.203125 214.34375 63.726562 C 213.757812 64.246094 213.140625 64.746094 212.484375 65.222656 C 211.832031 65.699219 211.148438 66.152344 210.433594 66.582031 C 209.71875 67.007812 208.980469 67.410156 208.210938 67.785156 C 207.441406 68.160156 206.652344 68.503906 205.835938 68.824219 C 205.023438 69.140625 204.1875 69.429688 203.332031 69.6875 C 202.480469 69.945312 201.613281 70.171875 200.726562 70.367188 C 199.84375 70.566406 198.949219 70.726562 198.042969 70.859375 C 197.136719 70.992188 196.222656 71.089844 195.304688 71.15625 C 194.382812 71.222656 193.460938 71.253906 192.539062 71.253906 C 191.613281 71.253906 190.691406 71.222656 189.773438 71.15625 C 188.855469 71.089844 187.941406 70.992188 187.035156 70.859375 C 186.128906 70.726562 185.234375 70.566406 184.351562 70.367188 C 183.464844 70.171875 182.597656 69.945312 181.742188 69.6875 C 180.890625 69.429688 180.054688 69.140625 179.242188 68.824219 C 178.425781 68.503906 177.636719 68.160156 176.867188 67.785156 C 176.097656 67.410156 175.355469 67.007812 174.644531 66.582031 C 173.929688 66.152344 173.246094 65.699219 172.59375 65.222656 C 171.9375 64.746094 171.320312 64.246094 170.734375 63.726562 C 170.148438 63.203125 169.597656 62.664062 169.082031 62.101562 C 168.570312 61.542969 168.097656 60.964844 167.660156 60.367188 C 167.226562 59.773438 166.832031 59.164062 166.476562 58.542969 C 166.125 57.917969 165.8125 57.285156 165.542969 56.636719 C 165.277344 55.992188 165.050781 55.339844 164.871094 54.675781 C 164.691406 54.015625 164.554688 53.351562 164.464844 52.679688 C 164.375 52.007812 164.328125 51.335938 164.328125 50.660156 C 164.328125 49.984375 164.375 49.3125 164.464844 48.640625 C 164.554688 47.96875 164.691406 47.304688 164.871094 46.640625 C 165.050781 45.980469 165.277344 45.328125 165.542969 44.679688 C 165.8125 44.035156 166.125 43.402344 166.476562 42.777344 C 166.832031 42.15625 167.226562 41.546875 167.660156 40.949219 C 168.097656 40.355469 168.570312 39.777344 169.082031 39.21875 C 169.597656 38.65625 170.148438 38.113281 170.734375 37.59375 C 171.320312 37.074219 171.9375 36.574219 172.59375 36.097656 C 173.246094 35.617188 173.929688 35.167969 174.644531 34.738281 C 175.355469 34.3125 176.097656 33.910156 176.867188 33.535156 C 177.636719 33.160156 178.425781 32.8125 179.242188 32.496094 C 180.054688 32.175781 180.890625 31.890625 181.742188 31.632812 C 182.597656 31.375 183.464844 31.144531 184.351562 30.949219 C 185.234375 30.753906 186.128906 30.589844 187.035156 30.460938 C 187.941406 30.328125 188.855469 30.230469 189.773438 30.164062 C 190.691406 30.097656 191.613281 30.0625 192.539062 30.0625 C 193.460938 30.0625 194.382812 30.097656 195.304688 30.164062 C 196.222656 30.230469 197.136719 30.328125 198.042969 30.460938 C 198.949219 30.589844 199.84375 30.753906 200.726562 30.949219 C 201.613281 31.144531 202.480469 31.375 203.332031 31.632812 C 204.1875 31.890625 205.023438 32.175781 205.835938 32.496094 C 206.652344 32.8125 207.441406 33.160156 208.210938 33.535156 C 208.980469 33.910156 209.71875 34.3125 210.433594 34.738281 C 211.148438 35.167969 211.832031 35.617188 212.484375 36.097656 C 213.140625 36.574219 213.757812 37.074219 214.34375 37.59375 C 214.929688 38.113281 215.480469 38.65625 215.992188 39.21875 C 216.507812 39.777344 216.980469 40.355469 217.417969 40.949219 C 217.851562 41.546875 218.246094 42.15625 218.601562 42.777344 C 218.953125 43.402344 219.265625 44.035156 219.53125 44.679688 C 219.800781 45.328125 220.027344 45.980469 220.207031 46.640625 C 220.386719 47.304688 220.519531 47.96875 220.613281 48.640625 C 220.703125 49.3125 220.746094 49.984375 220.746094 50.660156 Z M 220.746094 50.660156 "
        fill-opacity="1"
        fill-rule="nonzero"
      />
      <path
        fill="#7d2416"
        d="M 215.53125 67.457031 L 214.761719 66.089844 C 214.761719 66.089844 218.265625 64.089844 220.867188 60.558594 C 224.289062 55.925781 224.6875 50.898438 222.050781 45.632812 C 215.847656 33.21875 203.902344 27.636719 186.546875 29.046875 C 178.804688 29.679688 171.558594 32.285156 166.132812 36.394531 C 160.902344 40.363281 157.671875 45.457031 157.03125 50.75 C 156.511719 55.089844 158.152344 58.820312 161.910156 61.828125 C 164.785156 64.125 167.875 65.128906 167.90625 65.136719 L 167.433594 66.628906 C 167.300781 66.585938 164.070312 65.550781 160.972656 63.082031 C 156.792969 59.75 154.894531 55.425781 155.476562 50.570312 C 156.164062 44.847656 159.613281 39.375 165.183594 35.144531 C 170.84375 30.863281 178.378906 28.144531 186.417969 27.492188 C 195.070312 26.789062 202.542969 27.804688 208.628906 30.519531 C 215.125 33.414062 220.117188 38.265625 223.445312 44.933594 C 227.09375 52.230469 224.722656 57.984375 222.085938 61.53125 C 219.277344 65.316406 215.671875 67.371094 215.519531 67.457031 Z M 215.53125 67.457031 "
        fill-opacity="1"
        fill-rule="nonzero"
      />
      <path
        fill="#7d2416"
        d="M 81.265625 160.699219 C 80.878906 160.699219 80.542969 160.417969 80.488281 160.027344 C 80.398438 159.378906 78.246094 144.175781 78.917969 136.5625 C 79.605469 128.796875 80.914062 127.582031 86.445312 122.480469 L 86.777344 122.171875 C 89.714844 119.457031 94.632812 117.109375 98.972656 115.035156 C 102.992188 113.113281 107.140625 111.136719 107.609375 109.734375 C 108.171875 108.050781 106.929688 106.328125 105.722656 104.660156 C 104.890625 103.496094 104.097656 102.402344 103.992188 101.328125 C 103.71875 98.589844 105.023438 92.75 116.863281 84.492188 C 128.71875 76.21875 144.292969 72.539062 144.449219 72.503906 C 144.871094 72.40625 145.289062 72.664062 145.386719 73.09375 C 145.488281 73.511719 145.226562 73.933594 144.800781 74.03125 C 144.644531 74.066406 129.355469 77.675781 117.753906 85.773438 C 106.160156 93.871094 105.351562 99.238281 105.550781 101.175781 C 105.613281 101.828125 106.285156 102.757812 106.992188 103.742188 C 108.289062 105.542969 109.910156 107.785156 109.097656 110.230469 C 108.453125 112.167969 105.085938 113.855469 99.648438 116.449219 C 95.40625 118.476562 90.597656 120.769531 87.835938 123.320312 L 87.503906 123.628906 C 81.960938 128.746094 81.105469 129.53125 80.472656 136.695312 C 79.816406 144.132812 82.015625 159.648438 82.039062 159.800781 C 82.101562 160.230469 81.796875 160.628906 81.371094 160.683594 C 81.335938 160.683594 81.292969 160.691406 81.257812 160.691406 Z M 81.265625 160.699219 "
        fill-opacity="1"
        fill-rule="nonzero"
      />
      <path
        fill="#7d2416"
        d="M 282.085938 131.144531 C 281.707031 131.144531 281.371094 130.863281 281.316406 130.476562 C 280.707031 126.441406 275.386719 121.660156 271.109375 117.816406 C 267.675781 114.734375 264.960938 112.300781 264.539062 110.378906 C 264.167969 108.710938 264.777344 106.636719 265.550781 104.007812 C 266.824219 99.652344 268.410156 94.242188 266.355469 88.074219 C 263.71875 80.171875 235.203125 73.8125 224.433594 72.035156 C 224.007812 71.964844 223.71875 71.558594 223.789062 71.128906 C 223.859375 70.703125 224.265625 70.414062 224.695312 70.484375 C 224.792969 70.5 234.648438 72.144531 244.785156 75.007812 C 258.609375 78.902344 266.363281 83.136719 267.84375 87.574219 C 270.058594 94.207031 268.320312 100.128906 267.058594 104.449219 C 266.378906 106.769531 265.789062 108.765625 266.074219 110.042969 C 266.390625 111.472656 269.195312 113.988281 272.167969 116.652344 C 276.863281 120.867188 282.183594 125.648438 282.878906 130.246094 C 282.941406 130.675781 282.648438 131.074219 282.21875 131.136719 C 282.179688 131.136719 282.144531 131.144531 282.101562 131.144531 Z M 282.085938 131.144531 "
        fill-opacity="1"
        fill-rule="nonzero"
      />
      <g clip-path="url(#456d9ab4af)">
        <path
          fill="#db9c7b"
          d="M 221.707031 359.792969 C 210.679688 361.960938 199.28125 363.105469 187.609375 363.105469 C 175.9375 363.105469 164.546875 361.960938 153.511719 359.792969 C 131.871094 355.53125 111.65625 347.296875 93.667969 335.867188 C 84.273438 329.902344 75.488281 323.074219 67.421875 315.492188 C 71.957031 302.726562 78.34375 287.015625 84.175781 280.8125 C 85.042969 279.894531 85.96875 279.074219 86.957031 278.34375 C 87.035156 278.289062 87.121094 278.222656 87.195312 278.167969 C 87.28125 278.105469 87.371094 278.042969 87.457031 277.984375 C 87.519531 277.9375 87.589844 277.894531 87.660156 277.84375 C 87.75 277.78125 87.839844 277.71875 87.933594 277.664062 C 88.605469 277.222656 89.308594 276.816406 90.023438 276.445312 C 90.121094 276.394531 90.21875 276.339844 90.316406 276.289062 C 90.414062 276.242188 90.511719 276.191406 90.617188 276.140625 C 90.671875 276.113281 90.730469 276.085938 90.792969 276.058594 C 90.863281 276.023438 90.941406 275.988281 91.011719 275.953125 C 91.191406 275.867188 91.367188 275.785156 91.550781 275.707031 C 91.640625 275.664062 91.730469 275.628906 91.832031 275.589844 C 91.878906 275.566406 91.929688 275.546875 91.984375 275.523438 C 92.097656 275.476562 92.203125 275.433594 92.3125 275.390625 C 92.574219 275.285156 92.839844 275.183594 93.105469 275.082031 C 93.316406 275.007812 93.519531 274.929688 93.738281 274.859375 C 93.828125 274.832031 93.914062 274.796875 94.011719 274.769531 C 94.144531 274.726562 94.277344 274.675781 94.410156 274.636719 C 94.585938 274.578125 94.761719 274.523438 94.941406 274.464844 C 95.097656 274.417969 95.25 274.375 95.40625 274.328125 C 95.644531 274.257812 95.882812 274.1875 96.113281 274.125 C 96.441406 274.03125 96.773438 273.949219 97.101562 273.863281 C 97.332031 273.808594 97.566406 273.75 97.796875 273.695312 C 97.839844 273.6875 97.886719 273.675781 97.929688 273.667969 C 98.105469 273.632812 98.273438 273.589844 98.449219 273.554688 C 99.183594 273.394531 99.925781 273.246094 100.691406 273.121094 C 100.902344 273.085938 101.113281 273.050781 101.328125 273.007812 L 101.378906 273.007812 C 101.867188 272.917969 102.359375 272.847656 102.859375 272.769531 C 102.871094 272.769531 102.878906 272.769531 102.886719 272.769531 C 103.648438 272.65625 104.421875 272.558594 105.199219 272.460938 C 105.480469 272.425781 105.757812 272.398438 106.046875 272.363281 C 106.328125 272.335938 106.609375 272.300781 106.886719 272.273438 C 107.183594 272.246094 107.46875 272.210938 107.765625 272.179688 C 108.046875 272.152344 108.320312 272.125 108.597656 272.097656 C 110.097656 271.949219 111.621094 271.816406 113.164062 271.675781 C 113.714844 271.628906 114.277344 271.578125 114.84375 271.53125 C 116.851562 271.347656 118.890625 271.152344 120.9375 270.914062 C 121.230469 270.878906 121.519531 270.84375 121.8125 270.808594 C 122.003906 270.785156 122.183594 270.765625 122.375 270.738281 C 122.605469 270.710938 122.835938 270.679688 123.066406 270.644531 C 123.574219 270.582031 124.078125 270.507812 124.589844 270.4375 C 124.765625 270.40625 124.933594 270.386719 125.109375 270.359375 C 125.351562 270.324219 125.597656 270.28125 125.84375 270.238281 C 126.097656 270.199219 126.339844 270.164062 126.59375 270.113281 C 126.796875 270.078125 127 270.042969 127.210938 270.007812 C 127.433594 269.972656 127.652344 269.929688 127.875 269.890625 C 127.96875 269.875 128.058594 269.855469 128.15625 269.839844 C 128.382812 269.796875 128.605469 269.757812 128.832031 269.707031 C 129.378906 269.601562 129.921875 269.488281 130.46875 269.363281 C 130.703125 269.3125 130.933594 269.257812 131.164062 269.210938 C 131.851562 269.054688 132.539062 268.878906 133.21875 268.703125 C 133.40625 268.65625 133.597656 268.597656 133.785156 268.550781 C 133.949219 268.507812 134.109375 268.460938 134.269531 268.417969 C 134.5 268.355469 134.734375 268.289062 134.957031 268.21875 C 135.246094 268.144531 135.519531 268.058594 135.796875 267.976562 C 136.359375 267.808594 136.90625 267.640625 137.445312 267.464844 C 137.710938 267.378906 137.976562 267.296875 138.238281 267.203125 C 138.503906 267.121094 138.761719 267.027344 139.03125 266.9375 C 139.296875 266.847656 139.546875 266.753906 139.800781 266.664062 C 140.046875 266.574219 140.300781 266.480469 140.542969 266.390625 C 140.542969 266.390625 140.550781 266.390625 140.558594 266.390625 C 140.804688 266.300781 141.050781 266.207031 141.292969 266.109375 C 141.484375 266.039062 141.671875 265.964844 141.863281 265.894531 C 141.910156 265.871094 141.96875 265.851562 142.015625 265.832031 C 142.210938 265.753906 142.410156 265.675781 142.597656 265.597656 C 142.683594 265.5625 142.765625 265.535156 142.84375 265.492188 C 143.03125 265.417969 143.222656 265.339844 143.410156 265.253906 C 143.453125 265.242188 143.496094 265.21875 143.539062 265.207031 C 143.726562 265.128906 143.910156 265.046875 144.089844 264.96875 C 144.316406 264.871094 144.53125 264.773438 144.757812 264.671875 C 144.976562 264.574219 145.191406 264.476562 145.410156 264.371094 C 145.859375 264.160156 146.292969 263.953125 146.726562 263.734375 C 147.160156 263.515625 147.574219 263.304688 147.980469 263.089844 C 148.136719 263.011719 148.285156 262.929688 148.429688 262.851562 C 148.816406 262.640625 149.1875 262.429688 149.558594 262.214844 C 149.9375 261.988281 150.308594 261.765625 150.675781 261.539062 C 150.792969 261.46875 150.90625 261.394531 151.023438 261.324219 C 152.875 260.144531 154.472656 258.9375 155.839844 257.71875 C 155.898438 257.664062 155.960938 257.605469 156.023438 257.558594 C 156.167969 257.425781 156.316406 257.292969 156.457031 257.160156 C 159.375 254.417969 161.148438 251.667969 162.109375 249.222656 C 163.1875 246.476562 163.578125 239.914062 163.679688 233.402344 C 163.804688 225.039062 163.453125 216.765625 163.453125 216.765625 L 180.761719 209.875 L 187.632812 207.140625 L 197.585938 211.101562 L 211.808594 216.765625 C 211.808594 216.765625 211.410156 226.097656 211.613281 234.957031 C 211.753906 240.9375 212.160156 246.699219 213.15625 249.230469 C 214.117188 251.675781 215.898438 254.425781 218.804688 257.164062 C 218.945312 257.296875 219.09375 257.433594 219.242188 257.566406 C 219.296875 257.621094 219.359375 257.675781 219.421875 257.726562 C 220.789062 258.9375 222.382812 260.152344 224.238281 261.328125 C 224.359375 261.398438 224.46875 261.476562 224.589844 261.546875 C 224.953125 261.769531 225.324219 261.996094 225.703125 262.21875 C 226.070312 262.4375 226.445312 262.648438 226.832031 262.859375 C 226.980469 262.933594 227.132812 263.019531 227.28125 263.097656 C 227.6875 263.3125 228.109375 263.53125 228.535156 263.742188 C 228.964844 263.953125 229.40625 264.167969 229.855469 264.378906 C 230.070312 264.484375 230.28125 264.582031 230.507812 264.679688 C 230.722656 264.777344 230.949219 264.875 231.171875 264.976562 C 231.355469 265.050781 231.542969 265.136719 231.726562 265.214844 C 231.769531 265.234375 231.804688 265.25 231.851562 265.261719 C 232.042969 265.339844 232.230469 265.421875 232.417969 265.5 C 232.503906 265.535156 232.589844 265.570312 232.664062 265.605469 C 232.855469 265.683594 233.050781 265.765625 233.246094 265.835938 C 233.296875 265.859375 233.351562 265.878906 233.402344 265.898438 C 233.589844 265.976562 233.78125 266.046875 233.96875 266.117188 C 234.214844 266.214844 234.460938 266.308594 234.703125 266.398438 C 234.703125 266.398438 234.710938 266.398438 234.71875 266.398438 C 234.964844 266.488281 235.210938 266.582031 235.460938 266.671875 C 235.714844 266.761719 235.972656 266.855469 236.234375 266.945312 C 236.492188 267.035156 236.757812 267.128906 237.023438 267.210938 C 237.292969 267.300781 237.550781 267.386719 237.816406 267.46875 C 238.355469 267.644531 238.902344 267.8125 239.464844 267.980469 C 239.746094 268.066406 240.027344 268.152344 240.304688 268.226562 C 240.53125 268.289062 240.761719 268.359375 240.992188 268.425781 C 241.15625 268.464844 241.316406 268.515625 241.476562 268.558594 C 241.667969 268.605469 241.855469 268.664062 242.042969 268.710938 C 242.726562 268.894531 243.410156 269.0625 244.097656 269.214844 C 244.328125 269.273438 244.5625 269.320312 244.792969 269.371094 C 245.339844 269.488281 245.886719 269.601562 246.433594 269.714844 C 246.65625 269.757812 246.882812 269.804688 247.105469 269.847656 C 247.195312 269.859375 247.289062 269.882812 247.386719 269.894531 C 247.609375 269.9375 247.828125 269.972656 248.050781 270.015625 C 248.253906 270.050781 248.457031 270.085938 248.667969 270.121094 C 248.921875 270.164062 249.167969 270.203125 249.417969 270.246094 C 249.664062 270.289062 249.910156 270.324219 250.15625 270.367188 C 250.332031 270.394531 250.5 270.414062 250.675781 270.441406 C 251.179688 270.511719 251.683594 270.589844 252.195312 270.652344 C 252.425781 270.679688 252.65625 270.714844 252.890625 270.746094 C 253.078125 270.773438 253.269531 270.792969 253.449219 270.8125 C 253.746094 270.847656 254.03125 270.882812 254.328125 270.917969 C 256.375 271.15625 258.40625 271.347656 260.417969 271.535156 C 260.980469 271.585938 261.539062 271.632812 262.101562 271.683594 C 263.644531 271.824219 265.171875 271.957031 266.664062 272.105469 C 266.945312 272.132812 267.21875 272.160156 267.5 272.1875 C 267.792969 272.214844 268.082031 272.25 268.375 272.28125 C 268.65625 272.308594 268.9375 272.34375 269.214844 272.371094 C 269.503906 272.40625 269.785156 272.433594 270.0625 272.46875 C 270.84375 272.566406 271.621094 272.664062 272.378906 272.777344 C 272.382812 272.777344 272.398438 272.777344 272.40625 272.777344 C 272.902344 272.847656 273.394531 272.925781 273.886719 273.007812 L 273.933594 273.007812 C 274.144531 273.050781 274.355469 273.085938 274.570312 273.128906 C 275.328125 273.261719 276.078125 273.40625 276.816406 273.5625 C 276.992188 273.597656 277.164062 273.640625 277.332031 273.675781 C 277.375 273.6875 277.425781 273.695312 277.46875 273.703125 C 277.699219 273.757812 277.929688 273.816406 278.160156 273.871094 C 278.492188 273.953125 278.828125 274.039062 279.148438 274.128906 C 279.386719 274.191406 279.625 274.261719 279.859375 274.332031 C 280.011719 274.375 280.167969 274.425781 280.320312 274.472656 C 280.503906 274.53125 280.679688 274.585938 280.851562 274.640625 C 280.984375 274.683594 281.121094 274.726562 281.253906 274.773438 C 281.34375 274.804688 281.433594 274.839844 281.527344 274.867188 C 281.738281 274.9375 281.945312 275.011719 282.15625 275.089844 C 282.421875 275.1875 282.683594 275.285156 282.949219 275.398438 C 283.0625 275.441406 283.167969 275.492188 283.277344 275.53125 C 283.328125 275.554688 283.382812 275.574219 283.433594 275.59375 C 283.53125 275.628906 283.621094 275.671875 283.714844 275.714844 C 283.894531 275.792969 284.078125 275.875 284.253906 275.960938 C 284.324219 275.996094 284.398438 276.023438 284.46875 276.066406 C 284.527344 276.09375 284.589844 276.121094 284.644531 276.148438 C 284.75 276.199219 284.847656 276.246094 284.945312 276.296875 C 285.046875 276.34375 285.144531 276.394531 285.242188 276.449219 C 285.964844 276.820312 286.65625 277.230469 287.332031 277.671875 C 287.421875 277.734375 287.511719 277.796875 287.605469 277.851562 C 287.667969 277.894531 287.738281 277.945312 287.808594 277.992188 C 287.898438 278.050781 287.984375 278.113281 288.066406 278.175781 C 288.152344 278.230469 288.226562 278.292969 288.304688 278.351562 C 289.292969 279.078125 290.21875 279.898438 291.089844 280.816406 C 296.921875 287.023438 303.3125 302.730469 307.84375 315.496094 C 299.773438 323.082031 290.988281 329.910156 281.597656 335.875 C 263.609375 347.300781 243.390625 355.539062 221.75 359.800781 Z M 221.707031 359.792969 "
          fill-opacity="1"
          fill-rule="nonzero"
        />
      </g>
      <path
        fill="#c47347"
        d="M 211.59375 234.972656 C 205.828125 239.507812 196.429688 244.882812 184.925781 244.089844 C 173.246094 243.285156 166.886719 237.734375 163.65625 233.414062 C 163.78125 225.050781 163.433594 216.773438 163.433594 216.773438 L 180.742188 209.882812 C 186.460938 210.300781 192.382812 210.738281 197.566406 211.109375 L 211.789062 216.773438 C 211.789062 216.773438 211.390625 226.105469 211.59375 234.964844 Z M 211.59375 234.972656 "
        fill-opacity="1"
        fill-rule="nonzero"
      />
      <path
        fill="#db9c7b"
        d="M 240.894531 158.566406 C 240.894531 198.386719 221.195312 230.660156 187.609375 230.660156 C 154.023438 230.660156 134.324219 198.386719 134.324219 158.566406 C 134.324219 118.75 142.386719 83.789062 187.609375 83.789062 C 232.832031 83.789062 240.894531 118.75 240.894531 158.566406 Z M 240.894531 158.566406 "
        fill-opacity="1"
        fill-rule="nonzero"
      />
      <path
        fill="#db9c7b"
        d="M 135.449219 146.921875 C 135.449219 146.921875 130.296875 139.757812 121.566406 142.894531 C 112.832031 146.027344 113.730469 163.9375 121.566406 170.652344 C 129.40625 177.367188 137.242188 171.101562 137.242188 171.101562 L 135.453125 146.921875 Z M 135.449219 146.921875 "
        fill-opacity="1"
        fill-rule="nonzero"
      />
      <path
        fill="#c37245"
        d="M 132.003906 168.824219 C 130.808594 168.824219 129.25 168.488281 127.289062 167.457031 C 124.113281 165.792969 121.800781 162.324219 121.671875 159.03125 C 121.574219 156.394531 122.824219 154.121094 125.191406 152.644531 C 126.992188 151.523438 128.78125 151.191406 130.519531 151.667969 C 133.652344 152.523438 135.34375 155.742188 135.414062 155.882812 C 135.714844 156.464844 135.484375 157.179688 134.902344 157.480469 C 134.320312 157.78125 133.609375 157.558594 133.308594 156.976562 C 133.296875 156.949219 132.003906 154.53125 129.882812 153.953125 C 128.796875 153.660156 127.671875 153.890625 126.445312 154.65625 C 124.804688 155.679688 123.972656 157.164062 124.042969 158.945312 C 124.132812 161.390625 125.964844 164.089844 128.386719 165.367188 C 132.039062 167.28125 133.4375 166.089844 133.449219 166.074219 C 133.882812 165.585938 134.632812 165.542969 135.117188 165.976562 C 135.609375 166.410156 135.652344 167.160156 135.214844 167.652344 C 135.0625 167.828125 134.074219 168.835938 132.003906 168.835938 Z M 132.003906 168.824219 "
        fill-opacity="1"
        fill-rule="nonzero"
      />
      <path
        fill="#db9c7b"
        d="M 239.773438 146.921875 C 239.773438 146.921875 244.925781 139.757812 253.652344 142.894531 C 262.386719 146.027344 261.492188 163.9375 253.652344 170.652344 C 245.816406 177.367188 237.980469 171.101562 237.980469 171.101562 L 239.765625 146.921875 Z M 239.773438 146.921875 "
        fill-opacity="1"
        fill-rule="nonzero"
      />
      <path
        fill="#c37245"
        d="M 243.214844 168.824219 C 241.148438 168.824219 240.164062 167.8125 240.003906 167.636719 L 241.769531 166.066406 C 241.769531 166.066406 241.765625 166.054688 241.734375 166.035156 C 241.75 166.046875 243.132812 167.296875 246.824219 165.359375 C 249.25 164.089844 251.074219 161.390625 251.171875 158.9375 C 251.242188 157.160156 250.40625 155.671875 248.765625 154.648438 C 247.535156 153.878906 246.410156 153.652344 245.320312 153.949219 C 243.207031 154.523438 241.910156 156.933594 241.90625 156.960938 C 241.601562 157.542969 240.886719 157.769531 240.304688 157.464844 C 239.722656 157.164062 239.5 156.449219 239.792969 155.867188 C 239.863281 155.734375 241.5625 152.519531 244.6875 151.65625 C 246.425781 151.179688 248.214844 151.507812 250.015625 152.628906 C 252.382812 154.109375 253.632812 156.378906 253.535156 159.015625 C 253.40625 162.3125 251.101562 165.773438 247.917969 167.441406 C 245.949219 168.472656 244.394531 168.808594 243.203125 168.808594 Z M 243.214844 168.824219 "
        fill-opacity="1"
        fill-rule="nonzero"
      />
      <path
        fill="#ffffff"
        d="M 176.414062 187.226562 L 198.804688 187.226562 C 198.804688 187.226562 197.683594 197.296875 187.609375 197.296875 C 177.535156 197.296875 176.414062 187.226562 176.414062 187.226562 Z M 176.414062 187.226562 "
        fill-opacity="1"
        fill-rule="nonzero"
      />
      <path
        fill="#45150c"
        d="M 169.8125 154.535156 C 169.8125 154.902344 169.792969 155.269531 169.75 155.628906 C 169.710938 155.988281 169.652344 156.339844 169.574219 156.675781 C 169.496094 157.015625 169.398438 157.339844 169.285156 157.644531 C 169.167969 157.949219 169.039062 158.234375 168.894531 158.492188 C 168.75 158.75 168.589844 158.984375 168.417969 159.1875 C 168.246094 159.390625 168.066406 159.5625 167.878906 159.703125 C 167.6875 159.84375 167.492188 159.953125 167.289062 160.023438 C 167.085938 160.09375 166.882812 160.128906 166.679688 160.128906 C 166.472656 160.128906 166.269531 160.09375 166.066406 160.023438 C 165.863281 159.953125 165.667969 159.84375 165.480469 159.703125 C 165.289062 159.5625 165.109375 159.390625 164.9375 159.1875 C 164.765625 158.984375 164.609375 158.75 164.460938 158.492188 C 164.316406 158.234375 164.1875 157.949219 164.074219 157.644531 C 163.957031 157.339844 163.863281 157.015625 163.78125 156.675781 C 163.703125 156.339844 163.644531 155.988281 163.605469 155.628906 C 163.566406 155.269531 163.542969 154.902344 163.542969 154.535156 C 163.542969 154.167969 163.566406 153.804688 163.605469 153.445312 C 163.644531 153.085938 163.703125 152.734375 163.78125 152.394531 C 163.863281 152.054688 163.957031 151.734375 164.074219 151.429688 C 164.1875 151.125 164.316406 150.839844 164.460938 150.582031 C 164.609375 150.320312 164.765625 150.089844 164.9375 149.886719 C 165.109375 149.679688 165.289062 149.507812 165.480469 149.367188 C 165.667969 149.226562 165.863281 149.121094 166.066406 149.050781 C 166.269531 148.976562 166.472656 148.941406 166.679688 148.941406 C 166.882812 148.941406 167.085938 148.976562 167.289062 149.050781 C 167.492188 149.121094 167.6875 149.226562 167.878906 149.367188 C 168.066406 149.507812 168.246094 149.679688 168.417969 149.886719 C 168.589844 150.089844 168.75 150.320312 168.894531 150.582031 C 169.039062 150.839844 169.167969 151.125 169.285156 151.429688 C 169.398438 151.734375 169.496094 152.054688 169.574219 152.394531 C 169.652344 152.734375 169.710938 153.085938 169.75 153.445312 C 169.792969 153.804688 169.8125 154.167969 169.8125 154.535156 Z M 169.8125 154.535156 "
        fill-opacity="1"
        fill-rule="nonzero"
      />
      <path
        fill="#45150c"
        d="M 211.675781 154.535156 C 211.675781 154.902344 211.65625 155.269531 211.617188 155.628906 C 211.574219 155.988281 211.515625 156.339844 211.4375 156.675781 C 211.359375 157.015625 211.261719 157.339844 211.148438 157.644531 C 211.035156 157.949219 210.902344 158.234375 210.757812 158.492188 C 210.613281 158.75 210.453125 158.984375 210.285156 159.1875 C 210.113281 159.390625 209.933594 159.5625 209.742188 159.703125 C 209.550781 159.84375 209.355469 159.953125 209.152344 160.023438 C 208.953125 160.09375 208.75 160.128906 208.542969 160.128906 C 208.335938 160.128906 208.132812 160.09375 207.929688 160.023438 C 207.730469 159.953125 207.535156 159.84375 207.34375 159.703125 C 207.152344 159.5625 206.972656 159.390625 206.800781 159.1875 C 206.632812 158.984375 206.472656 158.75 206.328125 158.492188 C 206.183594 158.234375 206.050781 157.949219 205.9375 157.644531 C 205.824219 157.339844 205.726562 157.015625 205.648438 156.675781 C 205.570312 156.339844 205.507812 155.988281 205.46875 155.628906 C 205.429688 155.269531 205.410156 154.902344 205.410156 154.535156 C 205.410156 154.167969 205.429688 153.804688 205.46875 153.445312 C 205.507812 153.085938 205.570312 152.734375 205.648438 152.394531 C 205.726562 152.054688 205.824219 151.734375 205.9375 151.429688 C 206.050781 151.125 206.183594 150.839844 206.328125 150.582031 C 206.472656 150.320312 206.632812 150.089844 206.800781 149.886719 C 206.972656 149.679688 207.152344 149.507812 207.34375 149.367188 C 207.535156 149.226562 207.730469 149.121094 207.929688 149.050781 C 208.132812 148.976562 208.335938 148.941406 208.542969 148.941406 C 208.75 148.941406 208.953125 148.976562 209.152344 149.050781 C 209.355469 149.121094 209.550781 149.226562 209.742188 149.367188 C 209.933594 149.507812 210.113281 149.679688 210.285156 149.886719 C 210.453125 150.089844 210.613281 150.320312 210.757812 150.582031 C 210.902344 150.839844 211.035156 151.125 211.148438 151.429688 C 211.261719 151.734375 211.359375 152.054688 211.4375 152.394531 C 211.515625 152.734375 211.574219 153.085938 211.617188 153.445312 C 211.65625 153.804688 211.675781 154.167969 211.675781 154.535156 Z M 211.675781 154.535156 "
        fill-opacity="1"
        fill-rule="nonzero"
      />
      <path
        fill="#45150c"
        d="M 170.597656 143.566406 C 170.191406 143.566406 169.796875 143.339844 169.601562 142.957031 C 169.539062 142.835938 168.21875 140.390625 164.722656 140.207031 C 161.105469 140.019531 159.421875 142.199219 159.410156 142.226562 C 159.035156 142.722656 158.335938 142.824219 157.839844 142.449219 C 157.339844 142.078125 157.242188 141.378906 157.613281 140.878906 C 157.710938 140.753906 160.039062 137.71875 164.835938 137.972656 C 169.683594 138.222656 171.523438 141.792969 171.597656 141.945312 C 171.871094 142.5 171.648438 143.171875 171.101562 143.445312 C 170.941406 143.523438 170.773438 143.566406 170.605469 143.566406 Z M 170.597656 143.566406 "
        fill-opacity="1"
        fill-rule="nonzero"
      />
      <path
        fill="#45150c"
        d="M 204.625 143.566406 C 204.457031 143.566406 204.28125 143.523438 204.121094 143.445312 C 203.574219 143.167969 203.347656 142.5 203.621094 141.953125 C 203.699219 141.800781 205.535156 138.230469 210.386719 137.976562 C 215.179688 137.726562 217.515625 140.761719 217.605469 140.886719 C 217.980469 141.386719 217.878906 142.085938 217.382812 142.457031 C 216.886719 142.828125 216.183594 142.730469 215.8125 142.234375 C 215.75 142.148438 214.058594 140.027344 210.5 140.214844 C 206.988281 140.398438 205.667969 142.859375 205.621094 142.960938 C 205.417969 143.347656 205.023438 143.566406 204.625 143.566406 Z M 204.625 143.566406 "
        fill-opacity="1"
        fill-rule="nonzero"
      />
      <path
        fill="#c37245"
        d="M 188.507812 176.988281 C 188.507812 176.988281 188.457031 176.988281 188.4375 176.988281 C 188.25 176.976562 183.851562 176.683594 182.480469 173.097656 C 182.253906 172.519531 181.660156 170.960938 183.679688 160.503906 C 184.652344 155.46875 185.773438 150.730469 185.789062 150.6875 C 185.941406 150.050781 186.578125 149.65625 187.210938 149.8125 C 187.847656 149.964844 188.242188 150.605469 188.085938 151.234375 C 185.929688 160.304688 184.0625 170.644531 184.679688 172.25 C 185.507812 174.402344 188.542969 174.628906 188.578125 174.628906 C 189.230469 174.667969 189.726562 175.230469 189.6875 175.882812 C 189.644531 176.507812 189.125 176.988281 188.507812 176.988281 Z M 188.507812 176.988281 "
        fill-opacity="1"
        fill-rule="nonzero"
      />
      <g mask="url(#fa207407a5)">
        <g transform="matrix(1, 0, 0, 1, 137, 160)">
          <g clip-path="url(#726ef97aa2)">
            <path
              fill="#ff4440"
              d="M 22.542969 7.949219 C 23 8.40625 23.410156 8.902344 23.769531 9.441406 C 24.125 9.976562 24.429688 10.546875 24.679688 11.144531 C 24.925781 11.742188 25.113281 12.355469 25.238281 12.992188 C 25.363281 13.625 25.425781 14.265625 25.425781 14.914062 C 25.425781 15.558594 25.363281 16.199219 25.238281 16.832031 C 25.113281 17.46875 24.925781 18.082031 24.679688 18.679688 C 24.429688 19.277344 24.125 19.847656 23.769531 20.382812 C 23.410156 20.921875 23 21.417969 22.542969 21.875 C 22.085938 22.332031 21.585938 22.742188 21.050781 23.101562 C 20.511719 23.460938 19.945312 23.765625 19.347656 24.011719 C 18.75 24.257812 18.132812 24.445312 17.5 24.570312 C 16.867188 24.699219 16.226562 24.761719 15.578125 24.761719 C 14.929688 24.761719 14.289062 24.699219 13.65625 24.570312 C 13.023438 24.445312 12.40625 24.257812 11.808594 24.011719 C 11.210938 23.765625 10.644531 23.460938 10.105469 23.101562 C 9.570312 22.742188 9.070312 22.332031 8.613281 21.875 C 8.15625 21.417969 7.75 20.921875 7.390625 20.382812 C 7.03125 19.847656 6.726562 19.277344 6.480469 18.679688 C 6.230469 18.082031 6.042969 17.46875 5.917969 16.832031 C 5.792969 16.199219 5.730469 15.558594 5.730469 14.914062 C 5.730469 14.265625 5.792969 13.625 5.917969 12.992188 C 6.042969 12.355469 6.230469 11.742188 6.480469 11.144531 C 6.726562 10.546875 7.03125 9.976562 7.390625 9.441406 C 7.75 8.902344 8.15625 8.40625 8.613281 7.949219 C 9.070312 7.492188 9.570312 7.082031 10.105469 6.722656 C 10.644531 6.363281 11.210938 6.058594 11.808594 5.8125 C 12.40625 5.566406 13.023438 5.378906 13.65625 5.253906 C 14.289062 5.125 14.929688 5.0625 15.578125 5.0625 C 16.226562 5.0625 16.867188 5.125 17.5 5.253906 C 18.132812 5.378906 18.75 5.566406 19.347656 5.8125 C 19.945312 6.058594 20.511719 6.363281 21.050781 6.722656 C 21.589844 7.082031 22.085938 7.492188 22.542969 7.949219 Z M 22.542969 7.949219 "
              fill-opacity="1"
              fill-rule="nonzero"
            />
            <path
              fill="#ff4440"
              d="M 87.964844 5.34375 C 88.589844 5.496094 89.199219 5.707031 89.785156 5.976562 C 90.375 6.25 90.929688 6.574219 91.453125 6.953125 C 91.976562 7.335938 92.457031 7.761719 92.894531 8.238281 C 93.332031 8.710938 93.722656 9.226562 94.058594 9.777344 C 94.398438 10.328125 94.675781 10.910156 94.902344 11.515625 C 95.125 12.121094 95.285156 12.746094 95.386719 13.382812 C 95.488281 14.023438 95.527344 14.664062 95.5 15.3125 C 95.472656 15.957031 95.386719 16.59375 95.234375 17.222656 C 95.082031 17.851562 94.871094 18.460938 94.601562 19.046875 C 94.328125 19.636719 94.003906 20.191406 93.625 20.714844 C 93.242188 21.234375 92.816406 21.71875 92.339844 22.15625 C 91.867188 22.59375 91.351562 22.984375 90.800781 23.320312 C 90.25 23.65625 89.667969 23.9375 89.0625 24.160156 C 88.457031 24.386719 87.832031 24.546875 87.195312 24.648438 C 86.554688 24.75 85.914062 24.785156 85.265625 24.761719 C 84.621094 24.734375 83.984375 24.648438 83.355469 24.496094 C 82.726562 24.34375 82.117188 24.132812 81.53125 23.863281 C 80.941406 23.589844 80.386719 23.265625 79.863281 22.886719 C 79.34375 22.503906 78.859375 22.078125 78.421875 21.601562 C 77.984375 21.125 77.59375 20.613281 77.257812 20.0625 C 76.921875 19.511719 76.640625 18.929688 76.417969 18.324219 C 76.191406 17.71875 76.03125 17.09375 75.929688 16.457031 C 75.828125 15.816406 75.792969 15.175781 75.816406 14.527344 C 75.84375 13.882812 75.929688 13.242188 76.082031 12.617188 C 76.234375 11.988281 76.445312 11.378906 76.714844 10.792969 C 76.988281 10.203125 77.3125 9.648438 77.695312 9.125 C 78.074219 8.601562 78.5 8.121094 78.976562 7.683594 C 79.453125 7.246094 79.964844 6.855469 80.515625 6.519531 C 81.070312 6.179688 81.648438 5.902344 82.253906 5.675781 C 82.863281 5.453125 83.484375 5.292969 84.121094 5.191406 C 84.761719 5.089844 85.402344 5.050781 86.050781 5.078125 C 86.695312 5.105469 87.335938 5.191406 87.964844 5.34375 Z M 87.964844 5.34375 "
              fill-opacity="1"
              fill-rule="nonzero"
            />
          </g>
        </g>
      </g>
      <path
        fill="#7d2416"
        d="M 194.101562 106.40625 C 194.101562 107.078125 191.640625 122.304688 180.671875 127 C 169.699219 131.703125 160.523438 126.101562 160.523438 126.101562 C 160.523438 126.101562 153.808594 141.328125 139.703125 137.972656 C 139.703125 137.972656 140.222656 143.832031 134.367188 145.71875 C 134.367188 145.71875 128.738281 135.960938 128.964844 127.898438 C 129.1875 119.835938 141.496094 94.535156 160.980469 86.707031 C 180.460938 78.867188 207.324219 80.886719 216.722656 86.707031 C 226.125 92.523438 232.621094 98.351562 237.09375 110.660156 C 241.574219 122.976562 240.683594 145.992188 240.683594 145.992188 C 240.683594 145.992188 223.664062 138.195312 223.441406 125.660156 C 223.441406 125.660156 218.070312 129.242188 207.539062 123.875 C 197.011719 118.503906 194.109375 106.410156 194.109375 106.410156 Z M 194.101562 106.40625 "
        fill-opacity="1"
        fill-rule="nonzero"
      />
      <g clip-path="url(#f003ee9545)">
        <path
          fill="#fbfdef"
          d="M 291.046875 280.8125 C 296.878906 287.015625 303.273438 302.726562 307.800781 315.492188 C 299.730469 323.074219 290.949219 329.902344 281.554688 335.867188 C 263.566406 347.296875 243.347656 355.53125 221.707031 359.792969 C 210.679688 361.960938 199.28125 363.105469 187.609375 363.105469 C 175.9375 363.105469 164.546875 361.960938 153.511719 359.792969 C 131.871094 355.53125 111.65625 347.296875 93.667969 335.867188 C 84.273438 329.902344 75.488281 323.074219 67.421875 315.492188 C 71.957031 302.726562 78.34375 287.015625 84.175781 280.8125 C 85.042969 279.894531 85.96875 279.074219 86.957031 278.34375 C 87.035156 278.289062 87.121094 278.222656 87.195312 278.167969 C 87.28125 278.105469 87.371094 278.042969 87.457031 277.984375 C 87.519531 277.9375 87.589844 277.894531 87.660156 277.84375 C 87.75 277.78125 87.839844 277.71875 87.933594 277.664062 C 88.605469 277.222656 89.308594 276.816406 90.023438 276.445312 C 90.121094 276.394531 90.21875 276.339844 90.316406 276.289062 C 90.414062 276.242188 90.511719 276.191406 90.617188 276.140625 C 90.671875 276.113281 90.730469 276.085938 90.792969 276.058594 C 90.863281 276.023438 90.941406 275.988281 91.011719 275.953125 C 91.191406 275.867188 91.367188 275.785156 91.550781 275.707031 C 91.640625 275.664062 91.730469 275.628906 91.832031 275.589844 C 91.878906 275.566406 91.929688 275.546875 91.984375 275.523438 C 92.097656 275.476562 92.203125 275.433594 92.3125 275.390625 C 92.574219 275.285156 92.839844 275.183594 93.105469 275.082031 C 93.316406 275.007812 93.519531 274.929688 93.738281 274.859375 C 93.828125 274.832031 93.914062 274.796875 94.011719 274.769531 C 94.144531 274.726562 94.277344 274.675781 94.410156 274.636719 C 94.585938 274.578125 94.761719 274.523438 94.941406 274.464844 C 95.097656 274.417969 95.25 274.375 95.40625 274.328125 C 95.636719 274.257812 95.875 274.1875 96.113281 274.125 C 96.441406 274.03125 96.773438 273.949219 97.101562 273.863281 C 97.332031 273.808594 97.566406 273.75 97.796875 273.695312 C 97.839844 273.6875 97.886719 273.675781 97.929688 273.667969 C 98.105469 273.632812 98.273438 273.589844 98.449219 273.554688 C 99.183594 273.394531 99.925781 273.246094 100.691406 273.121094 C 100.902344 273.085938 101.113281 273.050781 101.328125 273.007812 L 101.378906 273.007812 C 101.867188 272.917969 102.359375 272.847656 102.855469 272.769531 C 102.871094 272.769531 102.878906 272.769531 102.886719 272.769531 C 103.375 272.699219 103.867188 272.636719 104.359375 272.574219 C 104.636719 272.539062 104.917969 272.503906 105.199219 272.46875 C 105.480469 272.433594 105.757812 272.40625 106.046875 272.371094 C 106.328125 272.34375 106.609375 272.308594 106.886719 272.28125 C 107.183594 272.25 107.46875 272.214844 107.765625 272.1875 C 108.046875 272.160156 108.316406 272.132812 108.597656 272.105469 C 110.097656 271.957031 111.621094 271.824219 113.164062 271.683594 C 113.722656 271.632812 114.277344 271.585938 114.84375 271.535156 C 116.851562 271.355469 118.890625 271.15625 120.9375 270.917969 C 121.230469 270.882812 121.519531 270.847656 121.8125 270.816406 C 122.003906 270.792969 122.191406 270.773438 122.375 270.746094 C 122.605469 270.714844 122.835938 270.6875 123.066406 270.652344 C 123.574219 270.589844 124.078125 270.511719 124.589844 270.441406 C 124.765625 270.421875 124.933594 270.394531 125.109375 270.367188 C 125.351562 270.332031 125.597656 270.289062 125.84375 270.246094 C 126.097656 270.210938 126.339844 270.167969 126.59375 270.121094 C 126.796875 270.085938 127 270.050781 127.210938 270.015625 C 127.433594 269.980469 127.652344 269.9375 127.875 269.894531 C 127.96875 269.882812 128.058594 269.859375 128.15625 269.847656 C 128.382812 269.804688 128.605469 269.761719 128.832031 269.714844 C 129.375 269.609375 129.921875 269.496094 130.46875 269.371094 C 130.703125 269.320312 130.933594 269.265625 131.164062 269.214844 C 131.851562 269.0625 132.539062 268.886719 133.21875 268.710938 C 133.40625 268.664062 133.597656 268.605469 133.785156 268.558594 C 133.949219 268.515625 134.109375 268.464844 134.269531 268.425781 C 134.5 268.359375 134.734375 268.296875 134.957031 268.226562 C 135.246094 268.152344 135.519531 268.066406 135.796875 267.980469 C 136.359375 267.8125 136.90625 267.644531 137.445312 267.46875 C 137.710938 267.386719 137.976562 267.300781 138.238281 267.210938 C 138.503906 267.128906 138.761719 267.035156 139.03125 266.945312 C 139.296875 266.855469 139.546875 266.761719 139.800781 266.671875 C 140.046875 266.582031 140.300781 266.488281 140.542969 266.398438 C 140.542969 266.398438 140.550781 266.398438 140.558594 266.398438 C 140.804688 266.308594 141.050781 266.214844 141.292969 266.117188 C 141.484375 266.046875 141.671875 265.96875 141.863281 265.898438 C 141.910156 265.878906 141.96875 265.859375 142.015625 265.835938 C 142.210938 265.761719 142.410156 265.683594 142.597656 265.605469 C 142.683594 265.570312 142.765625 265.542969 142.84375 265.5 C 143.03125 265.421875 143.222656 265.347656 143.410156 265.261719 C 143.453125 265.25 143.496094 265.226562 143.539062 265.214844 C 143.726562 265.136719 143.910156 265.050781 144.089844 264.976562 C 144.316406 264.875 144.53125 264.777344 144.757812 264.679688 C 144.976562 264.582031 145.191406 264.484375 145.410156 264.378906 C 145.859375 264.167969 146.292969 263.957031 146.726562 263.742188 C 147.160156 263.523438 147.574219 263.3125 147.980469 263.097656 C 148.136719 263.019531 148.285156 262.933594 148.429688 262.859375 C 148.816406 262.648438 149.1875 262.4375 149.558594 262.21875 C 149.9375 261.996094 150.308594 261.769531 150.675781 261.546875 C 150.792969 261.476562 150.90625 261.398438 151.023438 261.328125 C 152.875 260.152344 154.472656 258.945312 155.839844 257.726562 C 155.902344 257.671875 155.960938 257.613281 156.023438 257.566406 C 156.167969 257.433594 156.316406 257.296875 156.457031 257.164062 C 156.457031 257.164062 172.40625 266.019531 187.632812 266.019531 C 202.859375 266.019531 218.804688 257.164062 218.804688 257.164062 C 218.945312 257.296875 219.09375 257.433594 219.242188 257.566406 C 219.296875 257.621094 219.359375 257.675781 219.421875 257.726562 C 220.789062 258.9375 222.382812 260.152344 224.238281 261.328125 C 224.359375 261.398438 224.46875 261.476562 224.589844 261.546875 C 224.953125 261.769531 225.324219 261.996094 225.703125 262.21875 C 226.070312 262.429688 226.445312 262.640625 226.832031 262.859375 C 226.980469 262.933594 227.132812 263.019531 227.28125 263.097656 C 227.6875 263.3125 228.109375 263.53125 228.535156 263.742188 C 228.964844 263.953125 229.40625 264.167969 229.855469 264.378906 C 230.0625 264.476562 230.28125 264.574219 230.507812 264.679688 C 230.722656 264.777344 230.949219 264.875 231.171875 264.976562 C 231.355469 265.050781 231.542969 265.136719 231.726562 265.214844 C 231.769531 265.234375 231.804688 265.25 231.851562 265.261719 C 232.042969 265.339844 232.230469 265.421875 232.417969 265.5 C 232.503906 265.535156 232.589844 265.570312 232.664062 265.605469 C 232.855469 265.683594 233.050781 265.765625 233.246094 265.835938 C 233.296875 265.859375 233.351562 265.878906 233.402344 265.898438 C 233.589844 265.976562 233.78125 266.046875 233.96875 266.117188 C 234.214844 266.214844 234.460938 266.308594 234.703125 266.398438 C 234.703125 266.398438 234.710938 266.398438 234.71875 266.398438 C 234.964844 266.488281 235.210938 266.582031 235.460938 266.671875 C 235.714844 266.761719 235.972656 266.855469 236.234375 266.945312 C 236.492188 267.035156 236.757812 267.128906 237.023438 267.210938 C 237.292969 267.300781 237.550781 267.386719 237.816406 267.46875 C 238.355469 267.644531 238.902344 267.8125 239.464844 267.980469 C 239.746094 268.066406 240.027344 268.152344 240.304688 268.226562 C 240.53125 268.289062 240.761719 268.359375 240.992188 268.425781 C 241.15625 268.464844 241.316406 268.515625 241.476562 268.558594 C 241.667969 268.605469 241.855469 268.664062 242.042969 268.710938 C 242.726562 268.894531 243.410156 269.0625 244.097656 269.214844 C 244.328125 269.273438 244.5625 269.320312 244.792969 269.371094 C 245.339844 269.488281 245.886719 269.601562 246.433594 269.714844 C 246.65625 269.757812 246.882812 269.804688 247.105469 269.847656 C 247.195312 269.859375 247.289062 269.882812 247.386719 269.894531 C 247.609375 269.9375 247.828125 269.972656 248.050781 270.015625 C 248.253906 270.050781 248.457031 270.085938 248.667969 270.121094 C 248.921875 270.164062 249.167969 270.203125 249.417969 270.246094 C 249.664062 270.289062 249.910156 270.324219 250.15625 270.367188 C 250.332031 270.394531 250.5 270.414062 250.675781 270.441406 C 251.179688 270.511719 251.683594 270.589844 252.195312 270.652344 C 252.425781 270.679688 252.65625 270.714844 252.890625 270.746094 C 253.078125 270.773438 253.269531 270.792969 253.449219 270.816406 C 253.746094 270.847656 254.03125 270.882812 254.328125 270.917969 C 256.375 271.15625 258.40625 271.347656 260.417969 271.535156 C 260.980469 271.585938 261.539062 271.632812 262.101562 271.683594 C 263.644531 271.824219 265.171875 271.957031 266.664062 272.105469 C 266.945312 272.132812 267.21875 272.160156 267.5 272.1875 C 267.792969 272.214844 268.082031 272.25 268.375 272.28125 C 268.65625 272.308594 268.9375 272.34375 269.214844 272.371094 C 269.503906 272.40625 269.785156 272.433594 270.0625 272.46875 C 270.34375 272.503906 270.625 272.539062 270.90625 272.574219 C 271.402344 272.636719 271.894531 272.707031 272.378906 272.769531 C 272.382812 272.769531 272.398438 272.769531 272.40625 272.769531 C 272.902344 272.839844 273.394531 272.917969 273.886719 273 L 273.933594 273 C 274.144531 273.042969 274.355469 273.078125 274.570312 273.121094 C 275.328125 273.253906 276.078125 273.402344 276.816406 273.554688 C 276.992188 273.589844 277.164062 273.632812 277.332031 273.667969 C 277.375 273.679688 277.425781 273.6875 277.46875 273.695312 C 277.699219 273.75 277.929688 273.808594 278.160156 273.863281 C 278.492188 273.949219 278.828125 274.03125 279.148438 274.125 C 279.386719 274.1875 279.625 274.257812 279.859375 274.328125 C 280.011719 274.367188 280.167969 274.417969 280.320312 274.464844 C 280.503906 274.523438 280.679688 274.578125 280.851562 274.636719 C 280.984375 274.675781 281.121094 274.71875 281.253906 274.769531 C 281.34375 274.796875 281.433594 274.832031 281.527344 274.859375 C 281.738281 274.929688 281.945312 275.007812 282.15625 275.082031 C 282.421875 275.183594 282.683594 275.28125 282.949219 275.390625 C 283.0625 275.433594 283.167969 275.484375 283.277344 275.523438 C 283.328125 275.546875 283.382812 275.566406 283.433594 275.589844 C 283.53125 275.625 283.621094 275.664062 283.714844 275.707031 C 283.894531 275.785156 284.078125 275.867188 284.253906 275.953125 C 284.324219 275.988281 284.398438 276.015625 284.46875 276.058594 C 284.527344 276.085938 284.589844 276.113281 284.644531 276.140625 C 284.75 276.191406 284.847656 276.242188 284.945312 276.289062 C 285.046875 276.339844 285.144531 276.386719 285.242188 276.445312 C 285.964844 276.816406 286.65625 277.222656 287.332031 277.664062 C 287.421875 277.726562 287.511719 277.789062 287.605469 277.84375 C 287.667969 277.886719 287.738281 277.9375 287.808594 277.984375 C 287.898438 278.042969 287.984375 278.105469 288.066406 278.167969 C 288.152344 278.222656 288.226562 278.289062 288.304688 278.34375 C 289.292969 279.074219 290.21875 279.894531 291.089844 280.8125 Z M 291.046875 280.8125 "
          fill-opacity="1"
          fill-rule="nonzero"
        />
      </g>
      <path
        fill="#f9b96f"
        d="M 153.511719 359.792969 C 131.871094 355.53125 111.65625 347.296875 93.667969 335.867188 C 98.25 317.046875 102.5625 294.808594 104.351562 272.574219 C 104.632812 272.539062 104.910156 272.503906 105.191406 272.46875 C 105.472656 272.433594 105.753906 272.40625 106.039062 272.371094 C 106.320312 272.34375 106.601562 272.308594 106.882812 272.28125 C 107.175781 272.25 107.464844 272.214844 107.757812 272.1875 C 108.039062 272.160156 108.3125 272.132812 108.589844 272.105469 C 110.09375 271.957031 111.613281 271.824219 113.15625 271.683594 C 113.714844 271.632812 114.269531 271.585938 114.835938 271.535156 C 116.84375 271.355469 118.882812 271.15625 120.929688 270.917969 C 121.222656 270.882812 121.511719 270.847656 121.804688 270.816406 C 121.996094 270.792969 122.183594 270.773438 122.367188 270.746094 C 122.597656 270.714844 122.828125 270.6875 123.0625 270.652344 C 123.566406 270.589844 124.070312 270.511719 124.582031 270.441406 C 124.757812 270.421875 124.925781 270.394531 125.101562 270.367188 C 125.347656 270.332031 125.589844 270.289062 125.835938 270.246094 C 126.089844 270.210938 126.335938 270.167969 126.585938 270.121094 C 126.789062 270.085938 126.992188 270.050781 127.203125 270.015625 C 127.429688 269.980469 127.644531 269.9375 127.871094 269.894531 C 127.960938 269.882812 128.050781 269.859375 128.148438 269.847656 C 128.375 269.804688 128.597656 269.761719 128.824219 269.714844 C 129.371094 269.609375 129.917969 269.496094 130.464844 269.371094 C 130.695312 269.320312 130.925781 269.265625 131.15625 269.214844 C 131.84375 269.0625 132.53125 268.886719 133.210938 268.710938 C 133.402344 268.664062 133.589844 268.605469 133.78125 268.558594 C 133.941406 268.515625 134.101562 268.464844 134.261719 268.425781 C 134.496094 268.359375 134.726562 268.296875 134.949219 268.226562 C 135.238281 268.152344 135.511719 268.066406 135.792969 267.980469 C 136.351562 267.8125 136.898438 267.644531 137.4375 267.46875 C 137.703125 267.386719 137.972656 267.300781 138.230469 267.210938 C 138.496094 267.128906 138.757812 267.035156 139.023438 266.945312 C 139.289062 266.855469 139.542969 266.761719 139.792969 266.671875 C 140.039062 266.582031 140.292969 266.488281 140.539062 266.398438 C 140.539062 266.398438 140.542969 266.398438 140.550781 266.398438 C 140.796875 266.308594 141.042969 266.214844 141.289062 266.117188 C 141.476562 266.046875 141.664062 265.96875 141.855469 265.898438 C 141.902344 265.878906 141.960938 265.859375 142.007812 265.835938 C 142.207031 265.761719 142.402344 265.683594 142.589844 265.605469 C 142.675781 265.570312 142.757812 265.542969 142.835938 265.5 C 143.027344 265.421875 143.214844 265.347656 143.40625 265.261719 C 143.445312 265.25 143.488281 265.226562 143.53125 265.214844 C 143.71875 265.136719 143.902344 265.050781 144.085938 264.976562 C 144.308594 264.875 144.527344 264.777344 144.75 264.679688 C 144.96875 264.582031 145.183594 264.484375 145.402344 264.378906 C 145.445312 284.183594 146.511719 324.226562 153.519531 359.78125 Z M 153.511719 359.792969 "
        fill-opacity="1"
        fill-rule="nonzero"
      />
      <path
        fill="#f9b96f"
        d="M 281.554688 335.867188 C 263.566406 347.296875 243.347656 355.53125 221.707031 359.792969 C 228.726562 324.238281 229.789062 284.191406 229.824219 264.394531 C 230.035156 264.492188 230.253906 264.589844 230.476562 264.695312 C 230.695312 264.792969 230.917969 264.890625 231.144531 264.988281 C 231.324219 265.066406 231.515625 265.148438 231.699219 265.226562 C 231.738281 265.25 231.773438 265.261719 231.824219 265.277344 C 232.011719 265.355469 232.203125 265.4375 232.390625 265.515625 C 232.476562 265.550781 232.558594 265.585938 232.636719 265.621094 C 232.828125 265.695312 233.023438 265.78125 233.21875 265.851562 C 233.269531 265.871094 233.324219 265.894531 233.371094 265.914062 C 233.5625 265.992188 233.75 266.0625 233.941406 266.132812 C 234.1875 266.230469 234.429688 266.320312 234.675781 266.410156 C 234.675781 266.410156 234.683594 266.410156 234.691406 266.410156 C 234.9375 266.503906 235.183594 266.59375 235.433594 266.683594 C 235.6875 266.777344 235.945312 266.867188 236.207031 266.957031 C 236.464844 267.050781 236.730469 267.140625 236.996094 267.226562 C 237.265625 267.316406 237.523438 267.402344 237.789062 267.484375 C 238.328125 267.660156 238.875 267.828125 239.4375 267.996094 C 239.71875 268.082031 239.996094 268.164062 240.277344 268.242188 C 240.503906 268.304688 240.734375 268.375 240.964844 268.4375 C 241.125 268.480469 241.289062 268.527344 241.449219 268.570312 C 241.636719 268.621094 241.828125 268.675781 242.015625 268.726562 C 242.695312 268.90625 243.382812 269.074219 244.070312 269.230469 C 244.300781 269.285156 244.535156 269.335938 244.765625 269.382812 C 245.3125 269.503906 245.859375 269.617188 246.40625 269.726562 C 246.628906 269.769531 246.855469 269.820312 247.078125 269.859375 C 247.167969 269.875 247.261719 269.894531 247.359375 269.910156 C 247.582031 269.953125 247.800781 269.988281 248.023438 270.03125 C 248.226562 270.0625 248.429688 270.097656 248.640625 270.132812 C 248.894531 270.175781 249.140625 270.21875 249.390625 270.261719 C 249.636719 270.304688 249.882812 270.335938 250.128906 270.378906 C 250.300781 270.40625 250.472656 270.429688 250.644531 270.457031 C 251.152344 270.527344 251.65625 270.605469 252.167969 270.667969 C 252.398438 270.695312 252.628906 270.730469 252.863281 270.757812 C 253.050781 270.785156 253.238281 270.808594 253.421875 270.828125 C 253.714844 270.863281 254.003906 270.898438 254.296875 270.933594 C 256.34375 271.171875 258.378906 271.359375 260.390625 271.550781 C 260.949219 271.601562 261.511719 271.648438 262.074219 271.699219 C 263.613281 271.839844 265.144531 271.972656 266.636719 272.117188 C 266.917969 272.144531 267.191406 272.175781 267.46875 272.203125 C 267.765625 272.230469 268.050781 272.265625 268.347656 272.292969 C 268.628906 272.320312 268.90625 272.355469 269.1875 272.386719 C 269.476562 272.417969 269.757812 272.449219 270.035156 272.484375 C 270.316406 272.519531 270.597656 272.554688 270.878906 272.589844 C 272.664062 294.824219 276.976562 317.0625 281.5625 335.882812 Z M 281.554688 335.867188 "
        fill-opacity="1"
        fill-rule="nonzero"
      />
      <path
        fill="#fa856d"
        d="M 128.640625 206.082031 C 124.757812 206.082031 122.71875 198.519531 122.71875 191.046875 C 122.71875 183.574219 124.75 176.007812 128.640625 176.007812 C 132.53125 176.007812 134.566406 183.574219 134.566406 191.046875 C 134.566406 198.519531 132.53125 206.082031 128.640625 206.082031 Z M 128.640625 178.371094 C 127.433594 178.371094 125.085938 182.84375 125.085938 191.039062 C 125.085938 199.234375 127.433594 203.707031 128.640625 203.707031 C 129.847656 203.707031 132.195312 199.234375 132.195312 191.039062 C 132.195312 182.84375 129.847656 178.371094 128.640625 178.371094 Z M 128.640625 178.371094 "
        fill-opacity="1"
        fill-rule="nonzero"
      />
      <path
        fill="#ffffff"
        d="M 132.425781 173.640625 C 132.425781 174.109375 132.335938 174.5625 132.15625 175 C 131.976562 175.433594 131.71875 175.820312 131.386719 176.152344 C 131.050781 176.484375 130.667969 176.742188 130.230469 176.921875 C 129.796875 177.101562 129.34375 177.195312 128.871094 177.195312 C 128.402344 177.195312 127.949219 177.101562 127.511719 176.921875 C 127.078125 176.742188 126.691406 176.484375 126.359375 176.152344 C 126.027344 175.820312 125.769531 175.433594 125.589844 175 C 125.410156 174.5625 125.316406 174.109375 125.316406 173.640625 C 125.316406 173.167969 125.410156 172.714844 125.589844 172.277344 C 125.769531 171.84375 126.027344 171.460938 126.359375 171.125 C 126.691406 170.792969 127.078125 170.535156 127.511719 170.355469 C 127.949219 170.175781 128.402344 170.085938 128.871094 170.085938 C 129.34375 170.085938 129.796875 170.175781 130.230469 170.355469 C 130.667969 170.535156 131.050781 170.792969 131.386719 171.125 C 131.71875 171.460938 131.976562 171.84375 132.15625 172.277344 C 132.335938 172.714844 132.425781 173.167969 132.425781 173.640625 Z M 132.425781 173.640625 "
        fill-opacity="1"
        fill-rule="nonzero"
      />
      <path
        fill="#fa856d"
        d="M 240.425781 191.046875 C 240.425781 183.574219 242.457031 176.007812 246.347656 176.007812 C 250.238281 176.007812 252.273438 183.574219 252.273438 191.046875 C 252.273438 198.519531 250.238281 206.082031 246.347656 206.082031 C 242.457031 206.082031 240.425781 198.519531 240.425781 191.046875 Z M 242.792969 191.046875 C 242.792969 199.242188 245.144531 203.714844 246.347656 203.714844 C 247.554688 203.714844 249.902344 199.242188 249.902344 191.046875 C 249.902344 182.851562 247.554688 178.378906 246.347656 178.378906 C 245.144531 178.378906 242.792969 182.851562 242.792969 191.046875 Z M 242.792969 191.046875 "
        fill-opacity="1"
        fill-rule="nonzero"
      />
      <path
        fill="#ffffff"
        d="M 249.664062 173.640625 C 249.664062 174.109375 249.574219 174.5625 249.394531 175 C 249.214844 175.433594 248.957031 175.820312 248.625 176.152344 C 248.289062 176.484375 247.90625 176.742188 247.46875 176.921875 C 247.035156 177.101562 246.582031 177.195312 246.109375 177.195312 C 245.640625 177.195312 245.1875 177.101562 244.75 176.921875 C 244.316406 176.742188 243.929688 176.484375 243.597656 176.152344 C 243.265625 175.820312 243.007812 175.433594 242.828125 175 C 242.648438 174.5625 242.554688 174.109375 242.554688 173.640625 C 242.554688 173.167969 242.648438 172.714844 242.828125 172.277344 C 243.007812 171.84375 243.265625 171.460938 243.597656 171.125 C 243.929688 170.792969 244.316406 170.535156 244.75 170.355469 C 245.1875 170.175781 245.640625 170.085938 246.109375 170.085938 C 246.582031 170.085938 247.035156 170.175781 247.46875 170.355469 C 247.90625 170.535156 248.289062 170.792969 248.625 171.125 C 248.957031 171.460938 249.214844 171.84375 249.394531 172.277344 C 249.574219 172.714844 249.664062 173.167969 249.664062 173.640625 Z M 249.664062 173.640625 "
        fill-opacity="1"
        fill-rule="nonzero"
      />
    </svg>