 <svg
        xmlns="http://www.w3.org/2000/svg"
        xmlns:xlink="http://www.w3.org/1999/xlink"
        width="40"
        zoomAndPan="magnify"
        viewBox="0 0 375 374.999991"
        height="40"
        preserveAspectRatio="xMidYMid meet"
        version="1.0">
        <defs>
          <clipPath id="bfb1606679">
            <path
              d="M 1.515625 1.515625 L 373.515625 1.515625 L 373.515625 373.515625 L 1.515625 373.515625 Z M 1.515625 1.515625 "
              clip-rule="nonzero"
            />
          </clipPath>
          <clipPath id="fbf31244f9">
            <path
              d="M 373.527344 187.515625 C 373.527344 290.25 290.25 373.527344 187.515625 373.527344 C 84.777344 373.527344 1.5 290.25 1.5 187.515625 C 1.5 84.777344 84.777344 1.5 187.515625 1.5 C 290.25 1.5 373.527344 84.777344 373.527344 187.515625 "
              clip-rule="nonzero"
            />
          </clipPath>
          <clipPath id="e345df1306">
            <path
              d="M 257.195312 292 L 285 292 L 285 373.515625 L 257.195312 373.515625 Z M 257.195312 292 "
              clip-rule="nonzero"
            />
          </clipPath>
          <clipPath id="e77c4484e3">
            <path
              d="M 373.527344 187.515625 C 373.527344 290.25 290.25 373.527344 187.515625 373.527344 C 84.777344 373.527344 1.5 290.25 1.5 187.515625 C 1.5 84.777344 84.777344 1.5 187.515625 1.5 C 290.25 1.5 373.527344 84.777344 373.527344 187.515625 "
              clip-rule="nonzero"
            />
          </clipPath>
          <clipPath id="e1e3bc0bd2">
            <path
              d="M 257.195312 312 L 262 312 L 262 315.625 L 257.195312 315.625 Z M 257.195312 312 "
              clip-rule="nonzero"
            />
          </clipPath>
          <clipPath id="3e1a47d249">
            <path
              d="M 373.527344 187.515625 C 373.527344 290.25 290.25 373.527344 187.515625 373.527344 C 84.777344 373.527344 1.5 290.25 1.5 187.515625 C 1.5 84.777344 84.777344 1.5 187.515625 1.5 C 290.25 1.5 373.527344 84.777344 373.527344 187.515625 "
              clip-rule="nonzero"
            />
          </clipPath>
          <clipPath id="feb2db730a">
            <path
              d="M 257.195312 305 L 284.246094 305 L 284.246094 359.988281 L 257.195312 359.988281 Z M 257.195312 305 "
              clip-rule="nonzero"
            />
          </clipPath>
          <clipPath id="e39a395c21">
            <path
              d="M 373.527344 187.515625 C 373.527344 290.25 290.25 373.527344 187.515625 373.527344 C 84.777344 373.527344 1.5 290.25 1.5 187.515625 C 1.5 84.777344 84.777344 1.5 187.515625 1.5 C 290.25 1.5 373.527344 84.777344 373.527344 187.515625 "
              clip-rule="nonzero"
            />
          </clipPath>
          <clipPath id="ede306f1ba">
            <path
              d="M 246.375 245.292969 L 285.328125 245.292969 L 285.328125 373.515625 L 246.375 373.515625 Z M 246.375 245.292969 "
              clip-rule="nonzero"
            />
          </clipPath>
          <clipPath id="ebfbe99921">
            <path
              d="M 373.527344 187.515625 C 373.527344 290.25 290.25 373.527344 187.515625 373.527344 C 84.777344 373.527344 1.5 290.25 1.5 187.515625 C 1.5 84.777344 84.777344 1.5 187.515625 1.5 C 290.25 1.5 373.527344 84.777344 373.527344 187.515625 "
              clip-rule="nonzero"
            />
          </clipPath>
          <clipPath id="cb2990bb72">
            <path
              d="M 246.375 263.6875 L 270 263.6875 L 270 373.515625 L 246.375 373.515625 Z M 246.375 263.6875 "
              clip-rule="nonzero"
            />
          </clipPath>
          <clipPath id="aca48ebc5c">
            <path
              d="M 373.527344 187.515625 C 373.527344 290.25 290.25 373.527344 187.515625 373.527344 C 84.777344 373.527344 1.5 290.25 1.5 187.515625 C 1.5 84.777344 84.777344 1.5 187.515625 1.5 C 290.25 1.5 373.527344 84.777344 373.527344 187.515625 "
              clip-rule="nonzero"
            />
          </clipPath>
          <clipPath id="564cceea9e">
            <path
              d="M 89.484375 292 L 117 292 L 117 373.515625 L 89.484375 373.515625 Z M 89.484375 292 "
              clip-rule="nonzero"
            />
          </clipPath>
          <clipPath id="84eb8d177a">
            <path
              d="M 373.527344 187.515625 C 373.527344 290.25 290.25 373.527344 187.515625 373.527344 C 84.777344 373.527344 1.5 290.25 1.5 187.515625 C 1.5 84.777344 84.777344 1.5 187.515625 1.5 C 290.25 1.5 373.527344 84.777344 373.527344 187.515625 "
              clip-rule="nonzero"
            />
          </clipPath>
          <clipPath id="071715dddb">
            <path
              d="M 90.566406 305 L 117 305 L 117 315.625 L 90.566406 315.625 Z M 90.566406 305 "
              clip-rule="nonzero"
            />
          </clipPath>
          <clipPath id="ebf3ae95aa">
            <path
              d="M 373.527344 187.515625 C 373.527344 290.25 290.25 373.527344 187.515625 373.527344 C 84.777344 373.527344 1.5 290.25 1.5 187.515625 C 1.5 84.777344 84.777344 1.5 187.515625 1.5 C 290.25 1.5 373.527344 84.777344 373.527344 187.515625 "
              clip-rule="nonzero"
            />
          </clipPath>
          <clipPath id="20a0f56cee">
            <path
              d="M 90.566406 305 L 117 305 L 117 359 L 90.566406 359 Z M 90.566406 305 "
              clip-rule="nonzero"
            />
          </clipPath>
          <clipPath id="af5c4672d4">
            <path
              d="M 373.527344 187.515625 C 373.527344 290.25 290.25 373.527344 187.515625 373.527344 C 84.777344 373.527344 1.5 290.25 1.5 187.515625 C 1.5 84.777344 84.777344 1.5 187.515625 1.5 C 290.25 1.5 373.527344 84.777344 373.527344 187.515625 "
              clip-rule="nonzero"
            />
          </clipPath>
          <clipPath id="5d38a956e1">
            <path
              d="M 89.484375 245.292969 L 128.4375 245.292969 L 128.4375 373.515625 L 89.484375 373.515625 Z M 89.484375 245.292969 "
              clip-rule="nonzero"
            />
          </clipPath>
          <clipPath id="8a0fb07709">
            <path
              d="M 373.527344 187.515625 C 373.527344 290.25 290.25 373.527344 187.515625 373.527344 C 84.777344 373.527344 1.5 290.25 1.5 187.515625 C 1.5 84.777344 84.777344 1.5 187.515625 1.5 C 290.25 1.5 373.527344 84.777344 373.527344 187.515625 "
              clip-rule="nonzero"
            />
          </clipPath>
          <clipPath id="454202c080">
            <path
              d="M 105.714844 263.6875 L 128.4375 263.6875 L 128.4375 373.515625 L 105.714844 373.515625 Z M 105.714844 263.6875 "
              clip-rule="nonzero"
            />
          </clipPath>
          <clipPath id="05bd827bb7">
            <path
              d="M 373.527344 187.515625 C 373.527344 290.25 290.25 373.527344 187.515625 373.527344 C 84.777344 373.527344 1.5 290.25 1.5 187.515625 C 1.5 84.777344 84.777344 1.5 187.515625 1.5 C 290.25 1.5 373.527344 84.777344 373.527344 187.515625 "
              clip-rule="nonzero"
            />
          </clipPath>
          <clipPath id="134ecb0064">
            <path
              d="M 113.289062 228 L 261.523438 228 L 261.523438 373.515625 L 113.289062 373.515625 Z M 113.289062 228 "
              clip-rule="nonzero"
            />
          </clipPath>
          <clipPath id="e599f1ab4d">
            <path
              d="M 373.527344 187.515625 C 373.527344 290.25 290.25 373.527344 187.515625 373.527344 C 84.777344 373.527344 1.5 290.25 1.5 187.515625 C 1.5 84.777344 84.777344 1.5 187.515625 1.5 C 290.25 1.5 373.527344 84.777344 373.527344 187.515625 "
              clip-rule="nonzero"
            />
          </clipPath>
          <clipPath id="7f16f10b9d">
            <path
              d="M 145 229.0625 L 189 229.0625 L 189 347 L 145 347 Z M 145 229.0625 "
              clip-rule="nonzero"
            />
          </clipPath>
          <clipPath id="d6fa24fcaf">
            <path
              d="M 373.527344 187.515625 C 373.527344 290.25 290.25 373.527344 187.515625 373.527344 C 84.777344 373.527344 1.5 290.25 1.5 187.515625 C 1.5 84.777344 84.777344 1.5 187.515625 1.5 C 290.25 1.5 373.527344 84.777344 373.527344 187.515625 "
              clip-rule="nonzero"
            />
          </clipPath>
          <clipPath id="f14e89041e">
            <path
              d="M 188 230.144531 L 232 230.144531 L 232 348 L 188 348 Z M 188 230.144531 "
              clip-rule="nonzero"
            />
          </clipPath>
          <clipPath id="c564a1e1f9">
            <path
              d="M 373.527344 187.515625 C 373.527344 290.25 290.25 373.527344 187.515625 373.527344 C 84.777344 373.527344 1.5 290.25 1.5 187.515625 C 1.5 84.777344 84.777344 1.5 187.515625 1.5 C 290.25 1.5 373.527344 84.777344 373.527344 187.515625 "
              clip-rule="nonzero"
            />
          </clipPath>
          <clipPath id="86a3ea5349">
            <path
              d="M 163.058594 239.882812 L 216 239.882812 L 216 348 L 163.058594 348 Z M 163.058594 239.882812 "
              clip-rule="nonzero"
            />
          </clipPath>
          <clipPath id="d005e4ccc6">
            <path
              d="M 373.527344 187.515625 C 373.527344 290.25 290.25 373.527344 187.515625 373.527344 C 84.777344 373.527344 1.5 290.25 1.5 187.515625 C 1.5 84.777344 84.777344 1.5 187.515625 1.5 C 290.25 1.5 373.527344 84.777344 373.527344 187.515625 "
              clip-rule="nonzero"
            />
          </clipPath>
          <clipPath id="6ec2cda876">
            <path
              d="M 177.125 242.046875 L 202 242.046875 L 202 348 L 177.125 348 Z M 177.125 242.046875 "
              clip-rule="nonzero"
            />
          </clipPath>
          <clipPath id="f0b9fe46cb">
            <path
              d="M 373.527344 187.515625 C 373.527344 290.25 290.25 373.527344 187.515625 373.527344 C 84.777344 373.527344 1.5 290.25 1.5 187.515625 C 1.5 84.777344 84.777344 1.5 187.515625 1.5 C 290.25 1.5 373.527344 84.777344 373.527344 187.515625 "
              clip-rule="nonzero"
            />
          </clipPath>
          <clipPath id="b03a48303c">
            <path
              d="M 180.371094 243.128906 L 198.765625 243.128906 L 198.765625 257 L 180.371094 257 Z M 180.371094 243.128906 "
              clip-rule="nonzero"
            />
          </clipPath>
          <clipPath id="292a423506">
            <path
              d="M 373.527344 187.515625 C 373.527344 290.25 290.25 373.527344 187.515625 373.527344 C 84.777344 373.527344 1.5 290.25 1.5 187.515625 C 1.5 84.777344 84.777344 1.5 187.515625 1.5 C 290.25 1.5 373.527344 84.777344 373.527344 187.515625 "
              clip-rule="nonzero"
            />
          </clipPath>
          <clipPath id="e595a1bb48">
            <path
              d="M 162 196.601562 L 213.914062 196.601562 L 213.914062 244 L 162 244 Z M 162 196.601562 "
              clip-rule="nonzero"
            />
          </clipPath>
          <clipPath id="ad765690a1">
            <path
              d="M 373.527344 187.515625 C 373.527344 290.25 290.25 373.527344 187.515625 373.527344 C 84.777344 373.527344 1.5 290.25 1.5 187.515625 C 1.5 84.777344 84.777344 1.5 187.515625 1.5 C 290.25 1.5 373.527344 84.777344 373.527344 187.515625 "
              clip-rule="nonzero"
            />
          </clipPath>
          <clipPath id="81c1a4e39f">
            <path
              d="M 165.222656 210.667969 L 211.75 210.667969 L 211.75 225.816406 L 165.222656 225.816406 Z M 165.222656 210.667969 "
              clip-rule="nonzero"
            />
          </clipPath>
          <clipPath id="fdc74a0d9a">
            <path
              d="M 373.527344 187.515625 C 373.527344 290.25 290.25 373.527344 187.515625 373.527344 C 84.777344 373.527344 1.5 290.25 1.5 187.515625 C 1.5 84.777344 84.777344 1.5 187.515625 1.5 C 290.25 1.5 373.527344 84.777344 373.527344 187.515625 "
              clip-rule="nonzero"
            />
          </clipPath>
          <clipPath id="042d259b3d">
            <path
              d="M 165.222656 210.667969 L 211.75 210.667969 L 211.75 227.980469 L 165.222656 227.980469 Z M 165.222656 210.667969 "
              clip-rule="nonzero"
            />
          </clipPath>
          <clipPath id="340ab451da">
            <path
              d="M 373.527344 187.515625 C 373.527344 290.25 290.25 373.527344 187.515625 373.527344 C 84.777344 373.527344 1.5 290.25 1.5 187.515625 C 1.5 84.777344 84.777344 1.5 187.515625 1.5 C 290.25 1.5 373.527344 84.777344 373.527344 187.515625 "
              clip-rule="nonzero"
            />
          </clipPath>
          <clipPath id="0b6ed4e85e">
            <path
              d="M 231.226562 130.601562 L 251.785156 130.601562 L 251.785156 163 L 231.226562 163 Z M 231.226562 130.601562 "
              clip-rule="nonzero"
            />
          </clipPath>
          <clipPath id="6e7c17fca9">
            <path
              d="M 373.527344 187.515625 C 373.527344 290.25 290.25 373.527344 187.515625 373.527344 C 84.777344 373.527344 1.5 290.25 1.5 187.515625 C 1.5 84.777344 84.777344 1.5 187.515625 1.5 C 290.25 1.5 373.527344 84.777344 373.527344 187.515625 "
              clip-rule="nonzero"
            />
          </clipPath>
          <clipPath id="2532a69e41">
            <path
              d="M 239 137.09375 L 248 137.09375 L 248 158 L 239 158 Z M 239 137.09375 "
              clip-rule="nonzero"
            />
          </clipPath>
          <clipPath id="dd24d55fec">
            <path
              d="M 373.527344 187.515625 C 373.527344 290.25 290.25 373.527344 187.515625 373.527344 C 84.777344 373.527344 1.5 290.25 1.5 187.515625 C 1.5 84.777344 84.777344 1.5 187.515625 1.5 C 290.25 1.5 373.527344 84.777344 373.527344 187.515625 "
              clip-rule="nonzero"
            />
          </clipPath>
          <clipPath id="ea6d43843a">
            <path
              d="M 236.636719 136.011719 L 248 136.011719 L 248 158 L 236.636719 158 Z M 236.636719 136.011719 "
              clip-rule="nonzero"
            />
          </clipPath>
          <clipPath id="f996842def">
            <path
              d="M 373.527344 187.515625 C 373.527344 290.25 290.25 373.527344 187.515625 373.527344 C 84.777344 373.527344 1.5 290.25 1.5 187.515625 C 1.5 84.777344 84.777344 1.5 187.515625 1.5 C 290.25 1.5 373.527344 84.777344 373.527344 187.515625 "
              clip-rule="nonzero"
            />
          </clipPath>
          <clipPath id="28bd9f9f90">
            <path
              d="M 238 138.175781 L 245.292969 138.175781 L 245.292969 147.910156 L 238 147.910156 Z M 238 138.175781 "
              clip-rule="nonzero"
            />
          </clipPath>
          <clipPath id="7b0c9ff575">
            <path
              d="M 373.527344 187.515625 C 373.527344 290.25 290.25 373.527344 187.515625 373.527344 C 84.777344 373.527344 1.5 290.25 1.5 187.515625 C 1.5 84.777344 84.777344 1.5 187.515625 1.5 C 290.25 1.5 373.527344 84.777344 373.527344 187.515625 "
              clip-rule="nonzero"
            />
          </clipPath>
          <clipPath id="2d539c7f5e">
            <path
              d="M 124.109375 130.601562 L 144.664062 130.601562 L 144.664062 163 L 124.109375 163 Z M 124.109375 130.601562 "
              clip-rule="nonzero"
            />
          </clipPath>
          <clipPath id="f92bef62f1">
            <path
              d="M 373.527344 187.515625 C 373.527344 290.25 290.25 373.527344 187.515625 373.527344 C 84.777344 373.527344 1.5 290.25 1.5 187.515625 C 1.5 84.777344 84.777344 1.5 187.515625 1.5 C 290.25 1.5 373.527344 84.777344 373.527344 187.515625 "
              clip-rule="nonzero"
            />
          </clipPath>
          <clipPath id="aece6d975b">
            <path
              d="M 128 137.09375 L 136 137.09375 L 136 157.648438 L 128 157.648438 Z M 128 137.09375 "
              clip-rule="nonzero"
            />
          </clipPath>
          <clipPath id="c8272313f4">
            <path
              d="M 373.527344 187.515625 C 373.527344 290.25 290.25 373.527344 187.515625 373.527344 C 84.777344 373.527344 1.5 290.25 1.5 187.515625 C 1.5 84.777344 84.777344 1.5 187.515625 1.5 C 290.25 1.5 373.527344 84.777344 373.527344 187.515625 "
              clip-rule="nonzero"
            />
          </clipPath>
          <clipPath id="8968e53df8">
            <path
              d="M 128 136.011719 L 139 136.011719 L 139 158 L 128 158 Z M 128 136.011719 "
              clip-rule="nonzero"
            />
          </clipPath>
          <clipPath id="88f34094a7">
            <path
              d="M 373.527344 187.515625 C 373.527344 290.25 290.25 373.527344 187.515625 373.527344 C 84.777344 373.527344 1.5 290.25 1.5 187.515625 C 1.5 84.777344 84.777344 1.5 187.515625 1.5 C 290.25 1.5 373.527344 84.777344 373.527344 187.515625 "
              clip-rule="nonzero"
            />
          </clipPath>
          <clipPath id="fddcb77b04">
            <path
              d="M 130 138.175781 L 138 138.175781 L 138 147.910156 L 130 147.910156 Z M 130 138.175781 "
              clip-rule="nonzero"
            />
          </clipPath>
          <clipPath id="ccce7bad73">
            <path
              d="M 373.527344 187.515625 C 373.527344 290.25 290.25 373.527344 187.515625 373.527344 C 84.777344 373.527344 1.5 290.25 1.5 187.515625 C 1.5 84.777344 84.777344 1.5 187.515625 1.5 C 290.25 1.5 373.527344 84.777344 373.527344 187.515625 "
              clip-rule="nonzero"
            />
          </clipPath>
          <clipPath id="668b3fcdad">
            <path
              d="M 137.09375 81 L 238.800781 81 L 238.800781 216 L 137.09375 216 Z M 137.09375 81 "
              clip-rule="nonzero"
            />
          </clipPath>
          <clipPath id="d659aa5e19">
            <path
              d="M 373.527344 187.515625 C 373.527344 290.25 290.25 373.527344 187.515625 373.527344 C 84.777344 373.527344 1.5 290.25 1.5 187.515625 C 1.5 84.777344 84.777344 1.5 187.515625 1.5 C 290.25 1.5 373.527344 84.777344 373.527344 187.515625 "
              clip-rule="nonzero"
            />
          </clipPath>
          <clipPath id="dd55cc8c73">
            <path
              d="M 170.632812 180.371094 L 205 180.371094 L 205 187.945312 L 170.632812 187.945312 Z M 170.632812 180.371094 "
              clip-rule="nonzero"
            />
          </clipPath>
          <clipPath id="ce3b6f8134">
            <path
              d="M 373.527344 187.515625 C 373.527344 290.25 290.25 373.527344 187.515625 373.527344 C 84.777344 373.527344 1.5 290.25 1.5 187.515625 C 1.5 84.777344 84.777344 1.5 187.515625 1.5 C 290.25 1.5 373.527344 84.777344 373.527344 187.515625 "
              clip-rule="nonzero"
            />
          </clipPath>
          <clipPath id="caa1e38133">
            <path
              d="M 234.472656 114.371094 L 237.71875 114.371094 L 237.71875 130.601562 L 234.472656 130.601562 Z M 234.472656 114.371094 "
              clip-rule="nonzero"
            />
          </clipPath>
          <clipPath id="a56681fc46">
            <path
              d="M 373.527344 187.515625 C 373.527344 290.25 290.25 373.527344 187.515625 373.527344 C 84.777344 373.527344 1.5 290.25 1.5 187.515625 C 1.5 84.777344 84.777344 1.5 187.515625 1.5 C 290.25 1.5 373.527344 84.777344 373.527344 187.515625 "
              clip-rule="nonzero"
            />
          </clipPath>
          <clipPath id="b07df6017f">
            <path
              d="M 148 82 L 237.71875 82 L 237.71875 132.765625 L 148 132.765625 Z M 148 82 "
              clip-rule="nonzero"
            />
          </clipPath>
          <clipPath id="531b37d735">
            <path
              d="M 373.527344 187.515625 C 373.527344 290.25 290.25 373.527344 187.515625 373.527344 C 84.777344 373.527344 1.5 290.25 1.5 187.515625 C 1.5 84.777344 84.777344 1.5 187.515625 1.5 C 290.25 1.5 373.527344 84.777344 373.527344 187.515625 "
              clip-rule="nonzero"
            />
          </clipPath>
          <clipPath id="5e1b28e2af">
            <path
              d="M 138 93 L 155 93 L 155 160.894531 L 138 160.894531 Z M 138 93 "
              clip-rule="nonzero"
            />
          </clipPath>
          <clipPath id="d2fef90d02">
            <path
              d="M 373.527344 187.515625 C 373.527344 290.25 290.25 373.527344 187.515625 373.527344 C 84.777344 373.527344 1.5 290.25 1.5 187.515625 C 1.5 84.777344 84.777344 1.5 187.515625 1.5 C 290.25 1.5 373.527344 84.777344 373.527344 187.515625 "
              clip-rule="nonzero"
            />
          </clipPath>
          <clipPath id="fa84dc0cad">
            <path
              d="M 134 124.109375 L 240.964844 124.109375 L 240.964844 218 L 134 218 Z M 134 124.109375 "
              clip-rule="nonzero"
            />
          </clipPath>
          <clipPath id="4e807f8960">
            <path
              d="M 373.527344 187.515625 C 373.527344 290.25 290.25 373.527344 187.515625 373.527344 C 84.777344 373.527344 1.5 290.25 1.5 187.515625 C 1.5 84.777344 84.777344 1.5 187.515625 1.5 C 290.25 1.5 373.527344 84.777344 373.527344 187.515625 "
              clip-rule="nonzero"
            />
          </clipPath>
          <clipPath id="26c7d1ad40">
            <path
              d="M 160 171 L 214.996094 171 L 214.996094 199.847656 L 160 199.847656 Z M 160 171 "
              clip-rule="nonzero"
            />
          </clipPath>
          <clipPath id="a7e2de2fa5">
            <path
              d="M 373.527344 187.515625 C 373.527344 290.25 290.25 373.527344 187.515625 373.527344 C 84.777344 373.527344 1.5 290.25 1.5 187.515625 C 1.5 84.777344 84.777344 1.5 187.515625 1.5 C 290.25 1.5 373.527344 84.777344 373.527344 187.515625 "
              clip-rule="nonzero"
            />
          </clipPath>
          <clipPath id="9143113441">
            <path
              d="M 149 120 L 178 120 L 178 128 L 149 128 Z M 149 120 "
              clip-rule="nonzero"
            />
          </clipPath>
          <clipPath id="61c34714b6">
            <path
              d="M 373.527344 187.515625 C 373.527344 290.25 290.25 373.527344 187.515625 373.527344 C 84.777344 373.527344 1.5 290.25 1.5 187.515625 C 1.5 84.777344 84.777344 1.5 187.515625 1.5 C 290.25 1.5 373.527344 84.777344 373.527344 187.515625 "
              clip-rule="nonzero"
            />
          </clipPath>
          <clipPath id="d82dc07a91">
            <path
              d="M 196 120 L 224.734375 120 L 224.734375 128 L 196 128 Z M 196 120 "
              clip-rule="nonzero"
            />
          </clipPath>
          <clipPath id="85117642f7">
            <path
              d="M 373.527344 187.515625 C 373.527344 290.25 290.25 373.527344 187.515625 373.527344 C 84.777344 373.527344 1.5 290.25 1.5 187.515625 C 1.5 84.777344 84.777344 1.5 187.515625 1.5 C 290.25 1.5 373.527344 84.777344 373.527344 187.515625 "
              clip-rule="nonzero"
            />
          </clipPath>
          <clipPath id="9fdad108a1">
            <path
              d="M 178.207031 160 L 197 160 L 197 168 L 178.207031 168 Z M 178.207031 160 "
              clip-rule="nonzero"
            />
          </clipPath>
          <clipPath id="0087916f26">
            <path
              d="M 373.527344 187.515625 C 373.527344 290.25 290.25 373.527344 187.515625 373.527344 C 84.777344 373.527344 1.5 290.25 1.5 187.515625 C 1.5 84.777344 84.777344 1.5 187.515625 1.5 C 290.25 1.5 373.527344 84.777344 373.527344 187.515625 "
              clip-rule="nonzero"
            />
          </clipPath>
          <clipPath id="63ecbc6025">
            <path
              d="M 178.207031 163.058594 L 197 163.058594 L 197 171.714844 L 178.207031 171.714844 Z M 178.207031 163.058594 "
              clip-rule="nonzero"
            />
          </clipPath>
          <clipPath id="89e6cba003">
            <path
              d="M 373.527344 187.515625 C 373.527344 290.25 290.25 373.527344 187.515625 373.527344 C 84.777344 373.527344 1.5 290.25 1.5 187.515625 C 1.5 84.777344 84.777344 1.5 187.515625 1.5 C 290.25 1.5 373.527344 84.777344 373.527344 187.515625 "
              clip-rule="nonzero"
            />
          </clipPath>
          <clipPath id="8f88cf0958">
            <path
              d="M 165.222656 138.175781 L 174.960938 138.175781 L 174.960938 155 L 165.222656 155 Z M 165.222656 138.175781 "
              clip-rule="nonzero"
            />
          </clipPath>
          <clipPath id="98ed7ea75b">
            <path
              d="M 373.527344 187.515625 C 373.527344 290.25 290.25 373.527344 187.515625 373.527344 C 84.777344 373.527344 1.5 290.25 1.5 187.515625 C 1.5 84.777344 84.777344 1.5 187.515625 1.5 C 290.25 1.5 373.527344 84.777344 373.527344 187.515625 "
              clip-rule="nonzero"
            />
          </clipPath>
          <clipPath id="04a15ea2d2">
            <path
              d="M 201 138.175781 L 210.667969 138.175781 L 210.667969 155 L 201 155 Z M 201 138.175781 "
              clip-rule="nonzero"
            />
          </clipPath>
          <clipPath id="60e82cf89e">
            <path
              d="M 373.527344 187.515625 C 373.527344 290.25 290.25 373.527344 187.515625 373.527344 C 84.777344 373.527344 1.5 290.25 1.5 187.515625 C 1.5 84.777344 84.777344 1.5 187.515625 1.5 C 290.25 1.5 373.527344 84.777344 373.527344 187.515625 "
              clip-rule="nonzero"
            />
          </clipPath>
          <clipPath id="d11dc0ba38">
            <path
              d="M 156 224.734375 L 190 224.734375 L 190 256 L 156 256 Z M 156 224.734375 "
              clip-rule="nonzero"
            />
          </clipPath>
          <clipPath id="4cda3c552e">
            <path
              d="M 373.527344 187.515625 C 373.527344 290.25 290.25 373.527344 187.515625 373.527344 C 84.777344 373.527344 1.5 290.25 1.5 187.515625 C 1.5 84.777344 84.777344 1.5 187.515625 1.5 C 290.25 1.5 373.527344 84.777344 373.527344 187.515625 "
              clip-rule="nonzero"
            />
          </clipPath>
          <clipPath id="5c10271f33">
            <path
              d="M 189 224.734375 L 222.570312 224.734375 L 222.570312 256 L 189 256 Z M 189 224.734375 "
              clip-rule="nonzero"
            />
          </clipPath>
          <clipPath id="bc2753cd1e">
            <path
              d="M 373.527344 187.515625 C 373.527344 290.25 290.25 373.527344 187.515625 373.527344 C 84.777344 373.527344 1.5 290.25 1.5 187.515625 C 1.5 84.777344 84.777344 1.5 187.515625 1.5 C 290.25 1.5 373.527344 84.777344 373.527344 187.515625 "
              clip-rule="nonzero"
            />
          </clipPath>
          <clipPath id="27be760c63">
            <path
              d="M 130.601562 53.777344 L 243 53.777344 L 243 144 L 130.601562 144 Z M 130.601562 53.777344 "
              clip-rule="nonzero"
            />
          </clipPath>
          <clipPath id="b29b95a983">
            <path
              d="M 373.527344 187.515625 C 373.527344 290.25 290.25 373.527344 187.515625 373.527344 C 84.777344 373.527344 1.5 290.25 1.5 187.515625 C 1.5 84.777344 84.777344 1.5 187.515625 1.5 C 290.25 1.5 373.527344 84.777344 373.527344 187.515625 "
              clip-rule="nonzero"
            />
          </clipPath>
          <clipPath id="c1d83799dc">
            <path
              d="M 130.601562 89.484375 L 148.992188 89.484375 L 148.992188 144 L 130.601562 144 Z M 130.601562 89.484375 "
              clip-rule="nonzero"
            />
          </clipPath>
          <clipPath id="b82030df8a">
            <path
              d="M 373.527344 187.515625 C 373.527344 290.25 290.25 373.527344 187.515625 373.527344 C 84.777344 373.527344 1.5 290.25 1.5 187.515625 C 1.5 84.777344 84.777344 1.5 187.515625 1.5 C 290.25 1.5 373.527344 84.777344 373.527344 187.515625 "
              clip-rule="nonzero"
            />
          </clipPath>
          <clipPath id="ab08899c3f">
            <path
              d="M 226 85 L 243 85 L 243 142.503906 L 226 142.503906 Z M 226 85 "
              clip-rule="nonzero"
            />
          </clipPath>
          <clipPath id="20b0e42116">
            <path
              d="M 373.527344 187.515625 C 373.527344 290.25 290.25 373.527344 187.515625 373.527344 C 84.777344 373.527344 1.5 290.25 1.5 187.515625 C 1.5 84.777344 84.777344 1.5 187.515625 1.5 C 290.25 1.5 373.527344 84.777344 373.527344 187.515625 "
              clip-rule="nonzero"
            />
          </clipPath>
        </defs>
        <g clip-path="url(#bfb1606679)">
          <g clip-path="url(#fbf31244f9)">
            <path
              fill="#82d7f6"
              d="M 373.527344 187.515625 C 373.527344 290.25 290.25 373.527344 187.515625 373.527344 C 84.777344 373.527344 1.5 290.25 1.5 187.515625 C 1.5 84.777344 84.777344 1.5 187.515625 1.5 C 290.25 1.5 373.527344 84.777344 373.527344 187.515625 "
              fill-opacity="1"
              fill-rule="nonzero"
            />
          </g>
        </g>
        <g clip-path="url(#e345df1306)">
          <g clip-path="url(#e77c4484e3)">
            <path
              fill="#f0a176"
              d="M 278.832031 395.011719 C 281.691406 347.472656 284.78125 292.664062 284.78125 292.664062 L 257.984375 315.410156 C 258.484375 323.867188 259.609375 360.507812 260.609375 395.011719 L 278.832031 395.011719 "
              fill-opacity="1"
              fill-rule="nonzero"
            />
          </g>
        </g>
        <g clip-path="url(#e1e3bc0bd2)">
          <g clip-path="url(#3e1a47d249)">
            <path
              fill="#b7977b"
              d="M 257.984375 315.410156 L 261.707031 312.25 L 257.984375 315.410156 "
              fill-opacity="1"
              fill-rule="nonzero"
            />
          </g>
        </g>
        <g clip-path="url(#feb2db730a)">
          <g clip-path="url(#e39a395c21)">
            <path
              fill="#d6855a"
              d="M 259.539062 359.066406 C 258.894531 338.1875 258.308594 320.886719 257.984375 315.410156 L 261.707031 312.25 L 284.070312 305.191406 C 283.527344 314.75 282.707031 328.996094 281.777344 345.082031 C 277.277344 347.75 272.25 349.96875 267.550781 350.375 L 267.417969 355.539062 C 264.828125 356.773438 262.191406 357.953125 259.539062 359.066406 "
              fill-opacity="1"
              fill-rule="nonzero"
            />
          </g>
        </g>
        <g clip-path="url(#ede306f1ba)">
          <g clip-path="url(#ebfbe99921)">
            <path
              fill="#2b2d36"
              d="M 282.464844 395.011719 C 284.683594 344.609375 287.015625 274.121094 283.121094 266.101562 C 276.988281 253.480469 259.261719 245.824219 259.261719 245.824219 C 241.550781 246.574219 246.296875 336.640625 251.238281 395.011719 L 282.464844 395.011719 "
              fill-opacity="1"
              fill-rule="nonzero"
            />
          </g>
        </g>
        <g clip-path="url(#cb2990bb72)">
          <g clip-path="url(#aca48ebc5c)">
            <path
              fill="#1f2026"
              d="M 267.222656 395.011719 C 270.351562 342.546875 271.4375 272.25 255.585938 264.660156 C 253.398438 263.617188 251.308594 263.480469 249.304688 264.074219 C 244.171875 293.5625 247.652344 352.640625 251.238281 395.011719 L 267.222656 395.011719 "
              fill-opacity="1"
              fill-rule="nonzero"
            />
          </g>
        </g>
        <g clip-path="url(#564cceea9e)">
          <g clip-path="url(#84eb8d177a)">
            <path
              fill="#f0a176"
              d="M 114.0625 395.011719 C 115.058594 360.507812 116.183594 323.867188 116.683594 315.410156 L 89.882812 292.664062 C 89.882812 292.664062 92.972656 347.472656 95.832031 395.011719 L 114.0625 395.011719 "
              fill-opacity="1"
              fill-rule="nonzero"
            />
          </g>
        </g>
        <g clip-path="url(#071715dddb)">
          <g clip-path="url(#ebf3ae95aa)">
            <path
              fill="#b7977b"
              d="M 116.683594 315.410156 L 112.960938 312.25 L 116.683594 315.410156 M 90.902344 310.597656 C 90.792969 308.660156 90.691406 306.855469 90.59375 305.191406 C 90.691406 306.855469 90.796875 308.660156 90.902344 310.597656 "
              fill-opacity="1"
              fill-rule="nonzero"
            />
          </g>
        </g>
        <g clip-path="url(#20a0f56cee)">
          <g clip-path="url(#af5c4672d4)">
            <path
              fill="#d6855a"
              d="M 115.128906 358.917969 C 112.476562 357.796875 109.839844 356.609375 107.246094 355.363281 L 107.117188 350.375 C 102.410156 349.96875 97.394531 347.75 92.890625 345.082031 C 92.121094 331.796875 91.429688 319.769531 90.902344 310.597656 C 90.796875 308.660156 90.691406 306.855469 90.597656 305.191406 L 112.960938 312.25 L 116.683594 315.410156 C 116.359375 320.875 115.777344 338.101562 115.128906 358.917969 "
              fill-opacity="1"
              fill-rule="nonzero"
            />
          </g>
        </g>
        <g clip-path="url(#5d38a956e1)">
          <g clip-path="url(#8a0fb07709)">
            <path
              fill="#2b2d36"
              d="M 123.785156 395.011719 C 128.730469 336.640625 133.472656 246.574219 115.765625 245.824219 C 115.765625 245.824219 98.039062 253.480469 91.90625 266.101562 C 88.011719 274.121094 90.34375 344.609375 92.5625 395.011719 L 123.785156 395.011719 "
              fill-opacity="1"
              fill-rule="nonzero"
            />
          </g>
        </g>
        <g clip-path="url(#454202c080)">
          <g clip-path="url(#05bd827bb7)">
            <path
              fill="#1f2026"
              d="M 123.785156 395.011719 C 127.375 352.640625 130.859375 293.5625 125.722656 264.074219 C 123.722656 263.480469 121.628906 263.617188 119.441406 264.660156 C 103.589844 272.25 104.675781 342.546875 107.808594 395.011719 L 123.785156 395.011719 "
              fill-opacity="1"
              fill-rule="nonzero"
            />
          </g>
        </g>
        <g clip-path="url(#134ecb0064)">
          <g clip-path="url(#e599f1ab4d)">
            <path
              fill="#2b2d36"
              d="M 243.695312 395.011719 C 251.007812 341.90625 262.601562 254.503906 260.855469 246.519531 C 260.855469 246.519531 217.171875 232.089844 209.597656 228.484375 L 187.257812 232 L 164.929688 228.484375 C 157.355469 232.089844 113.667969 246.519531 113.667969 246.519531 C 111.917969 254.503906 123.511719 341.90625 130.828125 395.011719 L 243.695312 395.011719 "
              fill-opacity="1"
              fill-rule="nonzero"
            />
          </g>
        </g>
        <g clip-path="url(#7f16f10b9d)">
          <g clip-path="url(#d6fa24fcaf)">
            <path
              fill="#3e4852"
              d="M 188.589844 346.785156 L 159.863281 320.472656 L 163.363281 303.703125 L 145.589844 295.097656 L 163.363281 229.167969 L 181.882812 274.757812 L 188.589844 346.785156 "
              fill-opacity="1"
              fill-rule="nonzero"
            />
          </g>
        </g>
        <g clip-path="url(#f14e89041e)">
          <g clip-path="url(#c564a1e1f9)">
            <path
              fill="#3e4852"
              d="M 188.527344 347.867188 L 217.253906 321.554688 L 213.75 304.785156 L 231.523438 296.179688 L 213.75 230.25 L 195.234375 275.839844 L 188.527344 347.867188 "
              fill-opacity="1"
              fill-rule="nonzero"
            />
          </g>
        </g>
        <g clip-path="url(#86a3ea5349)">
          <g clip-path="url(#d005e4ccc6)">
            <path
              fill="#d3d49c"
              d="M 189.523438 242.566406 L 163.363281 239.957031 C 163.363281 239.957031 168.539062 330.140625 189.523438 347.625 C 210.511719 330.140625 215.683594 239.957031 215.683594 239.957031 L 189.523438 242.566406 "
              fill-opacity="1"
              fill-rule="nonzero"
            />
          </g>
        </g>
        <g clip-path="url(#6ec2cda876)">
          <g clip-path="url(#f0b9fe46cb)">
            <path
              fill="#b72431"
              d="M 189.261719 243.433594 L 189 242.566406 L 189 244.304688 L 185.714844 255.089844 C 185.714844 255.089844 178.421875 302.773438 177.332031 325.742188 C 180.636719 335.59375 184.65625 343.566406 189.523438 347.625 C 194.164062 343.757812 198.03125 336.332031 201.242188 327.113281 C 200.402344 304.738281 192.808594 255.089844 192.808594 255.089844 L 189.523438 244.304688 L 189.523438 242.566406 L 189.261719 243.433594 "
              fill-opacity="1"
              fill-rule="nonzero"
            />
          </g>
        </g>
        <g clip-path="url(#b03a48303c)">
          <g clip-path="url(#292a423506)">
            <path
              fill="#b72431"
              d="M 189.523438 243.867188 L 189.523438 243.839844 L 189.402344 243.851562 L 189.277344 243.839844 L 189.277344 243.867188 L 180.515625 244.824219 C 180.515625 244.824219 183.285156 251.675781 186.4375 256.1875 L 192.363281 256.1875 C 195.515625 251.675781 198.289062 244.824219 198.289062 244.824219 L 189.523438 243.867188 "
              fill-opacity="1"
              fill-rule="nonzero"
            />
          </g>
        </g>
        <g clip-path="url(#e595a1bb48)">
          <g clip-path="url(#ad765690a1)">
            <path
              fill="#da8b65"
              d="M 207.292969 196.746094 L 187.734375 202.425781 L 168.175781 196.746094 C 168.175781 196.746094 166.636719 223.796875 162.039062 230.019531 C 162.039062 230.019531 175.023438 243.003906 187.734375 243.542969 C 200.449219 243.003906 213.433594 230.019531 213.433594 230.019531 C 208.835938 223.796875 207.292969 196.746094 207.292969 196.746094 "
              fill-opacity="1"
              fill-rule="nonzero"
            />
          </g>
        </g>
        <g clip-path="url(#81c1a4e39f)">
          <g clip-path="url(#fdc74a0d9a)">
            <path
              fill="#908475"
              d="M 211.476562 225.699219 C 210.328125 222.074219 209.457031 217.148438 208.8125 212.394531 C 209.457031 217.148438 210.332031 222.074219 211.476562 225.699219 M 165.925781 217.183594 C 165.925781 217.183594 165.925781 217.183594 165.921875 217.183594 C 166.285156 215.066406 166.597656 212.886719 166.863281 210.773438 C 166.597656 212.886719 166.285156 215.070312 165.925781 217.183594 "
              fill-opacity="1"
              fill-rule="nonzero"
            />
          </g>
        </g>
        <g clip-path="url(#042d259b3d)">
          <g clip-path="url(#340ab451da)">
            <path
              fill="#b06749"
              d="M 194.441406 227.570312 C 183.789062 227.570312 174.945312 224.660156 165.925781 217.183594 C 166.285156 215.070312 166.597656 212.886719 166.863281 210.773438 C 178.222656 217.347656 188.199219 217.761719 188.199219 217.761719 C 196.234375 217.226562 203.042969 215.308594 208.8125 212.394531 C 209.457031 217.148438 210.328125 222.074219 211.476562 225.699219 C 205.21875 226.882812 199.617188 227.570312 194.441406 227.570312 "
              fill-opacity="1"
              fill-rule="nonzero"
            />
          </g>
        </g>
        <g clip-path="url(#0b6ed4e85e)">
          <g clip-path="url(#6e7c17fca9)">
            <path
              fill="#d17a50"
              d="M 231.667969 146.042969 C 231.011719 154.835938 234.828125 162.292969 240.207031 162.691406 C 245.574219 163.089844 250.460938 156.289062 251.117188 147.492188 C 251.769531 138.703125 247.949219 131.25 242.578125 130.84375 C 237.203125 130.441406 232.324219 137.253906 231.667969 146.042969 "
              fill-opacity="1"
              fill-rule="nonzero"
            />
          </g>
        </g>
        <g clip-path="url(#2532a69e41)">
          <g clip-path="url(#dd24d55fec)">
            <path
              fill="#ba6449"
              d="M 241.289062 157.777344 C 240.59375 157.777344 239.917969 157.375 239.363281 156.273438 C 239.492188 154.984375 239.597656 153.710938 239.679688 152.46875 C 241.175781 151.808594 243.117188 150.480469 239.886719 148.8125 C 240.070312 144.714844 240.0625 140.988281 239.976562 137.835938 C 240.578125 137.425781 241.316406 137.1875 242.222656 137.1875 C 242.292969 137.1875 242.363281 137.1875 242.4375 137.191406 C 247.789062 137.414062 247.375 143.855469 247.4375 143.855469 C 247.449219 143.855469 247.476562 143.660156 247.550781 143.195312 C 247.550781 143.195312 247.507812 145.679688 246.15625 145.992188 C 246.15625 145.992188 247.035156 140.898438 242.4375 139.816406 C 242.4375 139.816406 245.523438 141.578125 244.996094 149.082031 C 244.996094 149.082031 244.871094 145.5 240.410156 144.449219 C 240.410156 144.449219 247.109375 150.097656 241.394531 153.816406 C 241.394531 153.816406 241.5 155.886719 242.964844 155.886719 C 243.496094 155.886719 244.207031 155.613281 245.164062 154.863281 C 245.164062 154.863281 243.160156 157.777344 241.289062 157.777344 "
              fill-opacity="1"
              fill-rule="nonzero"
            />
          </g>
        </g>
        <g clip-path="url(#ea6d43843a)">
          <g clip-path="url(#f996842def)">
            <path
              fill="#9a4f36"
              d="M 247.566406 144.636719 C 247.585938 143.660156 247.445312 142.683594 247.160156 141.765625 C 247.023438 141.304688 246.828125 140.863281 246.59375 140.453125 C 246.363281 140.039062 246.085938 139.644531 245.757812 139.3125 C 245.605469 139.128906 245.4375 138.96875 245.253906 138.828125 C 245.070312 138.679688 244.898438 138.519531 244.6875 138.414062 C 244.300781 138.148438 243.871094 137.972656 243.433594 137.792969 C 242.988281 137.671875 242.527344 137.515625 242.074219 137.46875 C 241.605469 137.414062 241.203125 137.433594 240.78125 137.578125 C 239.96875 137.847656 239.347656 138.542969 238.9375 139.355469 C 238.515625 140.171875 238.269531 141.097656 238.085938 142.027344 C 237.914062 142.96875 237.816406 143.921875 237.769531 144.882812 C 237.746094 145.363281 237.738281 145.84375 237.738281 146.328125 L 237.753906 147.789062 L 237.429688 147.359375 C 238.222656 147.597656 238.972656 147.886719 239.714844 148.246094 C 240.082031 148.421875 240.445312 148.621094 240.800781 148.863281 C 241.148438 149.109375 241.496094 149.382812 241.765625 149.800781 C 241.910156 150.003906 241.996094 150.273438 242.027344 150.554688 C 242.027344 150.835938 241.964844 151.132812 241.820312 151.34375 C 241.550781 151.785156 241.183594 152.046875 240.828125 152.285156 C 240.101562 152.726562 239.335938 153.023438 238.566406 153.261719 L 238.8125 152.875 C 238.929688 153.808594 239.148438 154.773438 239.511719 155.644531 C 239.699219 156.078125 239.925781 156.492188 240.222656 156.832031 C 240.378906 156.996094 240.539062 157.148438 240.730469 157.25 C 240.910156 157.363281 241.121094 157.414062 241.328125 157.441406 C 241.546875 157.464844 241.765625 157.4375 241.984375 157.386719 C 242.199219 157.316406 242.421875 157.230469 242.621094 157.117188 C 243.039062 156.890625 243.425781 156.59375 243.785156 156.257812 C 244.5 155.601562 245.132812 154.835938 245.742188 154.058594 C 245.21875 154.894531 244.648438 155.714844 243.960938 156.441406 C 243.621094 156.808594 243.238281 157.148438 242.808594 157.429688 C 242.59375 157.574219 242.355469 157.683594 242.105469 157.78125 C 241.847656 157.863281 241.578125 157.925781 241.300781 157.90625 C 241.019531 157.886719 240.734375 157.824219 240.492188 157.683594 C 240.238281 157.5625 240.03125 157.382812 239.832031 157.195312 C 239.460938 156.804688 239.191406 156.351562 238.96875 155.886719 C 238.527344 154.953125 238.261719 153.980469 238.085938 152.96875 L 238.042969 152.683594 L 238.332031 152.574219 C 239.054688 152.300781 239.777344 152.007812 240.402344 151.617188 C 240.699219 151.414062 240.980469 151.183594 241.117188 150.941406 C 241.203125 150.820312 241.203125 150.710938 241.210938 150.601562 C 241.1875 150.492188 241.164062 150.367188 241.070312 150.246094 C 240.726562 149.738281 240.011719 149.339844 239.339844 149.019531 C 238.652344 148.703125 237.914062 148.433594 237.1875 148.21875 L 236.875 148.132812 L 236.859375 147.789062 C 236.839844 147.332031 236.824219 146.808594 236.832031 146.320312 C 236.839844 145.824219 236.859375 145.328125 236.886719 144.832031 C 236.949219 143.839844 237.066406 142.847656 237.261719 141.867188 C 237.472656 140.886719 237.742188 139.90625 238.230469 138.984375 C 238.480469 138.53125 238.769531 138.082031 239.164062 137.707031 C 239.550781 137.332031 240.039062 137.042969 240.570312 136.890625 C 241.082031 136.722656 241.679688 136.734375 242.175781 136.816406 C 242.691406 136.898438 243.160156 137.082031 243.644531 137.242188 C 244.109375 137.457031 244.570312 137.667969 244.984375 137.976562 C 245.203125 138.105469 245.386719 138.289062 245.578125 138.457031 C 245.773438 138.621094 245.949219 138.804688 246.101562 139.007812 C 246.269531 139.199219 246.425781 139.402344 246.546875 139.625 C 246.679688 139.839844 246.8125 140.054688 246.910156 140.289062 C 247.125 140.738281 247.292969 141.21875 247.398438 141.699219 C 247.632812 142.664062 247.691406 143.664062 247.566406 144.636719 "
              fill-opacity="1"
              fill-rule="nonzero"
            />
          </g>
        </g>
        <g clip-path="url(#28bd9f9f90)">
          <g clip-path="url(#7b0c9ff575)">
            <path
              fill="#9a4f36"
              d="M 245.140625 147.867188 C 245.140625 147.867188 245.167969 147.074219 245.011719 145.910156 C 244.929688 145.328125 244.804688 144.65625 244.585938 143.96875 C 244.46875 143.621094 244.351562 143.265625 244.1875 142.929688 C 244.050781 142.574219 243.832031 142.261719 243.640625 141.941406 C 243.417969 141.636719 243.195312 141.335938 242.925781 141.089844 C 242.652344 140.859375 242.398438 140.605469 242.085938 140.464844 C 241.9375 140.378906 241.792969 140.300781 241.65625 140.222656 C 241.496094 140.171875 241.347656 140.125 241.195312 140.085938 C 241.046875 140.039062 240.902344 139.992188 240.765625 139.949219 C 240.625 139.9375 240.480469 139.917969 240.34375 139.910156 C 240.070312 139.894531 239.828125 139.832031 239.605469 139.859375 C 239.382812 139.878906 239.1875 139.894531 239.027344 139.910156 C 238.710938 139.9375 238.523438 139.949219 238.523438 139.949219 L 238.402344 138.875 C 238.402344 138.875 238.609375 138.875 238.976562 138.875 C 239.15625 138.875 239.382812 138.875 239.636719 138.875 C 239.894531 138.871094 240.179688 138.960938 240.492188 139.007812 C 240.648438 139.039062 240.808594 139.070312 240.980469 139.097656 C 241.140625 139.164062 241.304688 139.230469 241.476562 139.296875 C 241.648438 139.371094 241.820312 139.441406 241.996094 139.515625 C 242.15625 139.625 242.320312 139.730469 242.484375 139.84375 C 242.835938 140.042969 243.105469 140.355469 243.390625 140.644531 C 243.667969 140.949219 243.890625 141.304688 244.101562 141.65625 C 244.28125 142.023438 244.484375 142.382812 244.59375 142.765625 C 244.738281 143.136719 244.828125 143.511719 244.914062 143.878906 C 245.078125 144.609375 245.152344 145.304688 245.179688 145.894531 C 245.234375 147.078125 245.140625 147.867188 245.140625 147.867188 "
              fill-opacity="1"
              fill-rule="nonzero"
            />
          </g>
        </g>
        <g clip-path="url(#2d539c7f5e)">
          <g clip-path="url(#f92bef62f1)">
            <path
              fill="#d17a50"
              d="M 144 146.042969 C 144.648438 154.835938 140.828125 162.292969 135.457031 162.691406 C 130.089844 163.089844 125.203125 156.289062 124.546875 147.492188 C 123.890625 138.703125 127.710938 131.25 133.085938 130.84375 C 138.457031 130.441406 143.339844 137.253906 144 146.042969 "
              fill-opacity="1"
              fill-rule="nonzero"
            />
          </g>
        </g>
        <g clip-path="url(#aece6d975b)">
          <g clip-path="url(#c8272313f4)">
            <path
              fill="#ba6449"
              d="M 134.183594 157.453125 C 134.019531 157.453125 133.851562 157.425781 133.675781 157.386719 C 133.460938 157.316406 133.242188 157.230469 133.039062 157.117188 C 132.625 156.890625 132.234375 156.59375 131.878906 156.265625 C 131.457031 155.875 131.070312 155.453125 130.695312 155.011719 C 131.550781 155.652344 132.203125 155.886719 132.699219 155.886719 C 134.164062 155.886719 134.273438 153.816406 134.273438 153.816406 C 129.710938 150.847656 133.046875 146.660156 134.589844 145.085938 C 134.636719 146.386719 134.699219 147.667969 134.78125 148.921875 C 134.457031 149.15625 134.140625 149.417969 133.894531 149.800781 C 133.753906 150.003906 133.664062 150.273438 133.636719 150.554688 C 133.632812 150.835938 133.703125 151.132812 133.839844 151.34375 C 134.113281 151.785156 134.480469 152.046875 134.835938 152.285156 C 134.90625 152.328125 134.976562 152.367188 135.046875 152.410156 C 135.179688 153.882812 135.335938 155.335938 135.515625 156.742188 C 135.488281 156.769531 135.464844 156.800781 135.4375 156.832031 C 135.28125 156.996094 135.121094 157.148438 134.933594 157.25 C 134.75 157.363281 134.542969 157.414062 134.332031 157.441406 C 134.28125 157.449219 134.234375 157.453125 134.183594 157.453125 M 130.667969 149.082031 C 130.578125 147.785156 130.59375 146.65625 130.683594 145.679688 C 130.765625 145.15625 130.886719 144.570312 131.078125 143.96875 C 131.191406 143.621094 131.308594 143.269531 131.480469 142.929688 C 131.613281 142.574219 131.832031 142.261719 132.019531 141.941406 C 132.242188 141.640625 132.46875 141.335938 132.734375 141.089844 C 133.011719 140.859375 133.261719 140.605469 133.574219 140.464844 C 133.722656 140.378906 133.867188 140.304688 134.011719 140.222656 C 134.167969 140.171875 134.320312 140.125 134.46875 140.085938 C 134.472656 140.078125 134.480469 140.078125 134.488281 140.074219 C 134.492188 141.628906 134.523438 143.148438 134.574219 144.640625 C 130.777344 145.871094 130.667969 149.082031 130.667969 149.082031 M 129.503906 145.992188 C 128.476562 145.757812 128.207031 144.269531 128.136719 143.566406 C 128.140625 143.519531 128.144531 143.476562 128.152344 143.4375 C 128.195312 143.726562 128.214844 143.855469 128.222656 143.855469 C 128.246094 143.855469 128.21875 143.253906 128.328125 142.410156 C 128.375 142.195312 128.4375 141.976562 128.503906 141.765625 C 128.636719 141.304688 128.832031 140.863281 129.070312 140.453125 C 129.296875 140.039062 129.578125 139.644531 129.902344 139.3125 C 130.054688 139.128906 130.222656 138.96875 130.410156 138.828125 C 130.589844 138.679688 130.765625 138.519531 130.976562 138.414062 C 131.359375 138.148438 131.792969 137.972656 132.226562 137.792969 C 132.675781 137.671875 133.136719 137.515625 133.589844 137.46875 C 133.738281 137.445312 133.886719 137.4375 134.03125 137.4375 C 134.191406 137.4375 134.34375 137.449219 134.496094 137.476562 C 134.492188 138.046875 134.488281 138.617188 134.488281 139.179688 C 134.386719 139.21875 134.285156 139.261719 134.183594 139.296875 C 134.015625 139.371094 133.839844 139.441406 133.664062 139.515625 C 133.515625 139.613281 133.363281 139.714844 133.207031 139.820312 C 128.628906 140.914062 129.503906 145.992188 129.503906 145.992188 M 129.808594 138.714844 C 130.125 138.351562 130.507812 138.03125 130.96875 137.78125 C 130.871094 137.839844 130.773438 137.90625 130.675781 137.976562 C 130.457031 138.105469 130.273438 138.289062 130.085938 138.457031 C 129.988281 138.539062 129.894531 138.621094 129.808594 138.714844 "
              fill-opacity="1"
              fill-rule="nonzero"
            />
          </g>
        </g>
        <g clip-path="url(#8968e53df8)">
          <g clip-path="url(#88f34094a7)">
            <path
              fill="#9a4f36"
              d="M 128.097656 144.636719 C 127.96875 143.664062 128.027344 142.664062 128.261719 141.699219 C 128.367188 141.21875 128.535156 140.738281 128.753906 140.289062 C 128.851562 140.054688 128.980469 139.839844 129.117188 139.625 C 129.234375 139.402344 129.390625 139.199219 129.554688 139.007812 C 129.710938 138.804688 129.890625 138.621094 130.085938 138.457031 C 130.273438 138.289062 130.457031 138.105469 130.675781 137.976562 C 131.089844 137.667969 131.550781 137.457031 132.015625 137.242188 C 132.5 137.082031 132.972656 136.898438 133.488281 136.816406 C 133.976562 136.734375 134.582031 136.722656 135.09375 136.890625 C 135.621094 137.042969 136.109375 137.332031 136.496094 137.707031 C 136.894531 138.082031 137.179688 138.53125 137.429688 138.984375 C 137.921875 139.90625 138.195312 140.886719 138.398438 141.867188 C 138.597656 142.847656 138.710938 143.839844 138.773438 144.832031 C 138.804688 145.328125 138.824219 145.824219 138.828125 146.320312 C 138.835938 146.808594 138.820312 147.332031 138.800781 147.789062 L 138.785156 148.132812 L 138.472656 148.21875 C 137.746094 148.433594 137.007812 148.703125 136.316406 149.019531 C 135.644531 149.339844 134.941406 149.738281 134.589844 150.246094 C 134.5 150.367188 134.476562 150.492188 134.453125 150.601562 C 134.460938 150.710938 134.460938 150.820312 134.546875 150.941406 C 134.683594 151.183594 134.964844 151.414062 135.261719 151.617188 C 135.882812 152.007812 136.609375 152.300781 137.332031 152.574219 L 137.625 152.683594 L 137.578125 152.96875 C 137.398438 153.980469 137.132812 154.953125 136.695312 155.886719 C 136.46875 156.351562 136.199219 156.804688 135.824219 157.195312 C 135.632812 157.382812 135.421875 157.5625 135.167969 157.683594 C 134.929688 157.824219 134.640625 157.886719 134.367188 157.90625 C 134.082031 157.925781 133.8125 157.863281 133.554688 157.78125 C 133.304688 157.683594 133.066406 157.574219 132.851562 157.429688 C 132.421875 157.148438 132.039062 156.808594 131.703125 156.441406 C 131.015625 155.714844 130.441406 154.894531 129.917969 154.058594 C 130.527344 154.835938 131.160156 155.601562 131.878906 156.265625 C 132.234375 156.59375 132.625 156.890625 133.039062 157.117188 C 133.242188 157.230469 133.460938 157.316406 133.675781 157.386719 C 133.902344 157.4375 134.121094 157.464844 134.332031 157.441406 C 134.542969 157.414062 134.75 157.363281 134.933594 157.25 C 135.121094 157.148438 135.28125 156.996094 135.4375 156.832031 C 135.734375 156.492188 135.964844 156.078125 136.148438 155.644531 C 136.511719 154.773438 136.738281 153.808594 136.851562 152.875 L 137.097656 153.261719 C 136.328125 153.023438 135.566406 152.726562 134.835938 152.285156 C 134.480469 152.046875 134.113281 151.785156 133.839844 151.34375 C 133.703125 151.132812 133.632812 150.835938 133.636719 150.554688 C 133.664062 150.273438 133.753906 150.003906 133.894531 149.800781 C 134.167969 149.382812 134.511719 149.109375 134.859375 148.863281 C 135.214844 148.621094 135.578125 148.421875 135.945312 148.246094 C 136.695312 147.886719 137.4375 147.597656 138.234375 147.359375 L 137.90625 147.789062 L 137.925781 146.328125 C 137.925781 145.84375 137.917969 145.363281 137.890625 144.882812 C 137.84375 143.921875 137.746094 142.96875 137.574219 142.027344 C 137.390625 141.097656 137.148438 140.171875 136.722656 139.355469 C 136.3125 138.542969 135.691406 137.847656 134.882812 137.578125 C 134.457031 137.433594 134.058594 137.414062 133.589844 137.46875 C 133.136719 137.515625 132.675781 137.671875 132.226562 137.792969 C 131.792969 137.972656 131.359375 138.148438 130.976562 138.414062 C 130.765625 138.519531 130.589844 138.679688 130.410156 138.828125 C 130.222656 138.96875 130.054688 139.128906 129.902344 139.3125 C 129.578125 139.644531 129.296875 140.039062 129.070312 140.453125 C 128.832031 140.863281 128.636719 141.304688 128.503906 141.765625 C 128.214844 142.683594 128.078125 143.660156 128.097656 144.636719 "
              fill-opacity="1"
              fill-rule="nonzero"
            />
          </g>
        </g>
        <g clip-path="url(#fddcb77b04)">
          <g clip-path="url(#ccce7bad73)">
            <path
              fill="#9a4f36"
              d="M 130.519531 147.867188 C 130.519531 147.867188 130.425781 147.078125 130.484375 145.894531 C 130.515625 145.304688 130.582031 144.609375 130.75 143.878906 C 130.832031 143.515625 130.925781 143.136719 131.070312 142.765625 C 131.179688 142.382812 131.382812 142.023438 131.558594 141.65625 C 131.769531 141.304688 131.996094 140.949219 132.265625 140.644531 C 132.5625 140.359375 132.828125 140.042969 133.179688 139.84375 C 133.34375 139.730469 133.507812 139.625 133.664062 139.515625 C 133.839844 139.441406 134.015625 139.371094 134.183594 139.296875 C 134.355469 139.234375 134.523438 139.164062 134.683594 139.097656 C 134.851562 139.070312 135.011719 139.039062 135.167969 139.007812 C 135.480469 138.960938 135.769531 138.875 136.027344 138.875 C 136.28125 138.875 136.5 138.875 136.683594 138.875 C 137.054688 138.875 137.261719 138.875 137.261719 138.875 L 137.132812 139.949219 C 137.132812 139.949219 136.953125 139.9375 136.636719 139.910156 C 136.476562 139.894531 136.28125 139.878906 136.054688 139.859375 C 135.832031 139.835938 135.589844 139.894531 135.316406 139.910156 C 135.179688 139.917969 135.042969 139.9375 134.894531 139.949219 C 134.757812 139.992188 134.613281 140.039062 134.46875 140.085938 C 134.320312 140.125 134.167969 140.171875 134.011719 140.222656 C 133.867188 140.304688 133.722656 140.378906 133.574219 140.464844 C 133.261719 140.605469 133.011719 140.859375 132.734375 141.089844 C 132.46875 141.335938 132.242188 141.640625 132.019531 141.941406 C 131.832031 142.261719 131.613281 142.574219 131.480469 142.929688 C 131.308594 143.269531 131.191406 143.621094 131.078125 143.96875 C 130.859375 144.65625 130.730469 145.328125 130.652344 145.914062 C 130.492188 147.074219 130.519531 147.867188 130.519531 147.867188 "
              fill-opacity="1"
              fill-rule="nonzero"
            />
          </g>
        </g>
        <g clip-path="url(#668b3fcdad)">
          <g clip-path="url(#d659aa5e19)">
            <path
              fill="#f0a176"
              d="M 238.265625 145.539062 C 238.265625 154.152344 238.257812 164.078125 235.066406 173.691406 C 227.910156 195.238281 201.601562 215.199219 187.734375 215.199219 C 173.660156 215.199219 147.109375 194.65625 140.09375 172.753906 C 137.109375 163.4375 137.203125 153.871094 137.203125 145.539062 C 137.203125 117.636719 142.359375 81.109375 187.734375 81.109375 C 233.105469 81.109375 238.265625 117.636719 238.265625 145.539062 "
              fill-opacity="1"
              fill-rule="nonzero"
            />
          </g>
        </g>
        <g clip-path="url(#dd55cc8c73)">
          <g clip-path="url(#ce3b6f8134)">
            <path
              fill="#5c3b37"
              d="M 170.644531 181.597656 C 170.691406 181.632812 177.710938 187.320312 187.84375 187.328125 C 192.914062 187.328125 198.746094 185.886719 204.796875 181.621094 L 204.171875 180.734375 C 198.292969 184.878906 192.707031 186.242188 187.84375 186.246094 C 182.984375 186.246094 178.847656 184.871094 175.921875 183.492188 C 174.460938 182.804688 173.304688 182.113281 172.515625 181.601562 C 172.121094 181.34375 171.824219 181.128906 171.621094 180.980469 C 171.519531 180.910156 171.441406 180.851562 171.390625 180.8125 L 171.320312 180.757812 L 170.644531 181.597656 "
              fill-opacity="1"
              fill-rule="nonzero"
            />
          </g>
        </g>
        <g clip-path="url(#caa1e38133)">
          <g clip-path="url(#a56681fc46)">
            <path
              fill="#b7977b"
              d="M 237.601562 130.3125 C 237.078125 124.972656 236.191406 119.609375 234.71875 114.492188 C 236.40625 119.398438 237.503906 124.738281 237.601562 130.3125 "
              fill-opacity="1"
              fill-rule="nonzero"
            />
          </g>
        </g>
        <g clip-path="url(#b07df6017f)">
          <g clip-path="url(#531b37d735)">
            <path
              fill="#d6855a"
              d="M 237.585938 132.597656 C 228.21875 117.722656 225.949219 110.53125 214.960938 110.53125 C 213.066406 110.53125 210.914062 110.746094 208.425781 111.167969 C 198.597656 115.328125 189.542969 117.054688 181.257812 117.054688 C 168.433594 117.054688 157.433594 112.921875 148.257812 107.300781 C 153.8125 96.152344 159.695312 84.746094 176.1875 82.011719 C 191.203125 84.300781 205.820312 86.539062 216.269531 88.167969 C 221.554688 91.464844 230.234375 101.449219 234.71875 114.492188 C 236.191406 119.609375 237.078125 124.972656 237.601562 130.3125 C 237.613281 131.070312 237.609375 131.828125 237.585938 132.597656 "
              fill-opacity="1"
              fill-rule="nonzero"
            />
          </g>
        </g>
        <g clip-path="url(#5e1b28e2af)">
          <g clip-path="url(#d2fef90d02)">
            <path
              fill="#d6855a"
              d="M 142.382812 160.046875 C 139.222656 148.851562 138.316406 138.316406 138.078125 132.113281 C 139.949219 117.597656 144.972656 102.125 154.648438 93.050781 C 145.035156 105 141.394531 125.691406 141.394531 140.992188 C 141.394531 146.902344 141.347656 153.429688 142.382812 160.046875 "
              fill-opacity="1"
              fill-rule="nonzero"
            />
          </g>
        </g>
        <g clip-path="url(#fa84dc0cad)">
          <g clip-path="url(#4e807f8960)">
            <path
              fill="#211a1b"
              d="M 138.023438 126.390625 C 138.023438 126.390625 135.480469 191.253906 181.335938 203.878906 C 181.335938 203.878906 182.554688 201.175781 182.703125 197.164062 C 182.703125 197.164062 187.261719 199.835938 194.605469 197.164062 C 194.605469 197.164062 195.757812 204.53125 197.230469 204.382812 C 198.699219 204.238281 240.378906 185.601562 238.292969 127.472656 L 239.285156 127.472656 C 239.285156 127.472656 250.273438 213.605469 188.199219 217.761719 C 188.199219 217.761719 127.828125 215.238281 135.09375 124.890625 L 138.023438 126.390625 "
              fill-opacity="1"
              fill-rule="nonzero"
            />
          </g>
        </g>
        <g clip-path="url(#26c7d1ad40)">
          <g clip-path="url(#a7e2de2fa5)">
            <path
              fill="#211a1b"
              d="M 187.671875 172.878906 C 184.046875 171.675781 157.480469 164.003906 161.011719 198.628906 L 164.507812 199.675781 C 164.507812 199.675781 163.605469 181.175781 187.671875 177.0625 C 211.738281 181.175781 210.839844 199.675781 210.839844 199.675781 L 214.339844 198.628906 C 217.863281 164.003906 191.304688 171.675781 187.671875 172.878906 "
              fill-opacity="1"
              fill-rule="nonzero"
            />
          </g>
        </g>
        <g clip-path="url(#9143113441)">
          <g clip-path="url(#61c34714b6)">
            <path
              fill="#211a1b"
              d="M 149.332031 127.988281 C 149.332031 127.988281 155.101562 122.851562 160.664062 124.121094 C 166.222656 125.382812 174.867188 125.375 177.402344 122.550781 C 177.402344 122.550781 158.566406 114.996094 149.332031 127.988281 "
              fill-opacity="1"
              fill-rule="nonzero"
            />
          </g>
        </g>
        <g clip-path="url(#d82dc07a91)">
          <g clip-path="url(#85117642f7)">
            <path
              fill="#211a1b"
              d="M 224.472656 127.988281 C 224.472656 127.988281 218.703125 122.851562 213.140625 124.121094 C 207.585938 125.382812 198.9375 125.375 196.40625 122.550781 C 196.40625 122.550781 215.238281 114.996094 224.472656 127.988281 "
              fill-opacity="1"
              fill-rule="nonzero"
            />
          </g>
        </g>
        <g clip-path="url(#9fdad108a1)">
          <g clip-path="url(#0087916f26)">
            <path
              fill="#b05838"
              d="M 178.730469 167.972656 C 178.730469 167.972656 178.71875 167.875 178.691406 167.691406 C 178.660156 167.511719 178.621094 167.25 178.664062 166.882812 C 178.691406 166.519531 178.753906 166.078125 178.941406 165.609375 C 179.097656 165.121094 179.363281 164.613281 179.71875 164.089844 C 180.078125 163.582031 180.519531 163.050781 181.074219 162.589844 C 181.617188 162.109375 182.246094 161.679688 182.949219 161.320312 C 183.65625 160.972656 184.414062 160.644531 185.230469 160.464844 C 186.035156 160.246094 186.886719 160.183594 187.730469 160.152344 C 188.226562 160.183594 188.496094 160.167969 188.964844 160.234375 C 189.40625 160.285156 189.839844 160.355469 190.234375 160.460938 C 191.050781 160.636719 191.804688 160.972656 192.515625 161.316406 C 193.21875 161.675781 193.851562 162.105469 194.394531 162.585938 C 194.945312 163.046875 195.394531 163.574219 195.75 164.089844 C 196.105469 164.613281 196.371094 165.121094 196.527344 165.609375 C 196.714844 166.078125 196.773438 166.523438 196.800781 166.871094 C 196.839844 167.230469 196.804688 167.507812 196.773438 167.691406 C 196.746094 167.875 196.734375 167.972656 196.734375 167.972656 C 196.734375 167.972656 196.707031 167.878906 196.652344 167.703125 C 196.617188 167.523438 196.519531 167.277344 196.382812 166.980469 C 196.253906 166.683594 196.054688 166.339844 195.792969 165.984375 C 195.542969 165.625 195.1875 165.265625 194.808594 164.898438 C 194.410156 164.542969 193.945312 164.203125 193.429688 163.882812 C 192.917969 163.558594 192.324219 163.304688 191.726562 163.046875 C 191.113281 162.816406 190.457031 162.632812 189.785156 162.511719 C 189.449219 162.433594 189.121094 162.410156 188.800781 162.371094 C 188.511719 162.320312 188.011719 162.332031 187.730469 162.316406 C 186.347656 162.328125 184.964844 162.578125 183.738281 163.046875 C 183.136719 163.304688 182.550781 163.554688 182.035156 163.882812 C 181.523438 164.203125 181.058594 164.542969 180.65625 164.898438 C 180.269531 165.265625 179.925781 165.621094 179.671875 165.984375 C 179.40625 166.335938 179.214844 166.6875 179.082031 166.972656 C 178.949219 167.261719 178.847656 167.519531 178.808594 167.703125 C 178.757812 167.878906 178.730469 167.972656 178.730469 167.972656 "
              fill-opacity="1"
              fill-rule="nonzero"
            />
          </g>
        </g>
        <g clip-path="url(#63ecbc6025)">
          <g clip-path="url(#89e6cba003)">
            <path
              fill="#d6855a"
              d="M 187.953125 171.324219 C 182.617188 171.324219 178.730469 169.101562 178.730469 169.101562 C 180.285156 163.667969 185.828125 163.273438 187.410156 163.273438 C 187.675781 163.273438 187.832031 163.285156 187.832031 163.285156 C 187.933594 163.28125 188.035156 163.28125 188.140625 163.28125 C 194.492188 163.28125 196.734375 169.101562 196.734375 169.101562 C 193.648438 170.769531 190.617188 171.324219 187.953125 171.324219 "
              fill-opacity="1"
              fill-rule="nonzero"
            />
          </g>
        </g>
        <g clip-path="url(#8f88cf0958)">
          <g clip-path="url(#98ed7ea75b)">
            <path
              fill="#211a1b"
              d="M 174.402344 146.765625 C 174.402344 151.148438 172.4375 154.703125 170.023438 154.703125 C 167.59375 154.703125 165.640625 151.148438 165.640625 146.765625 C 165.640625 142.386719 167.59375 138.832031 170.023438 138.832031 C 172.4375 138.832031 174.402344 142.386719 174.402344 146.765625 "
              fill-opacity="1"
              fill-rule="nonzero"
            />
          </g>
        </g>
        <g clip-path="url(#04a15ea2d2)">
          <g clip-path="url(#60e82cf89e)">
            <path
              fill="#211a1b"
              d="M 210.027344 146.765625 C 210.027344 151.148438 208.066406 154.703125 205.644531 154.703125 C 203.222656 154.703125 201.261719 151.148438 201.261719 146.765625 C 201.261719 142.386719 203.222656 138.832031 205.644531 138.832031 C 208.066406 138.832031 210.027344 142.386719 210.027344 146.765625 "
              fill-opacity="1"
              fill-rule="nonzero"
            />
          </g>
        </g>
        <g clip-path="url(#d11dc0ba38)">
          <g clip-path="url(#4cda3c552e)">
            <path
              fill="#f6faca"
              d="M 163.363281 225.707031 C 163.363281 225.707031 175.929688 242.257812 189.523438 243.542969 C 189.523438 243.542969 162.722656 258.886719 156.230469 254.199219 L 159.511719 230.691406 C 159.511719 230.691406 159.324219 222.101562 163.363281 225.707031 "
              fill-opacity="1"
              fill-rule="nonzero"
            />
          </g>
        </g>
        <g clip-path="url(#5c10271f33)">
          <g clip-path="url(#bc2753cd1e)">
            <path
              fill="#f6faca"
              d="M 215.152344 225.707031 C 215.152344 225.707031 202.589844 242.257812 189 243.542969 C 189 243.542969 215.796875 258.886719 222.289062 254.199219 L 219.011719 230.691406 C 219.011719 230.691406 219.199219 222.101562 215.152344 225.707031 "
              fill-opacity="1"
              fill-rule="nonzero"
            />
          </g>
        </g>
        <g clip-path="url(#27be760c63)">
          <g clip-path="url(#b29b95a983)">
            <path
              fill="#211a1b"
              d="M 137.203125 143.609375 C 137.203125 143.609375 139.871094 113.898438 148.257812 107.300781 C 156.644531 100.703125 178.425781 109.902344 188.769531 108.820312 C 199.113281 107.738281 220.484375 102.269531 225.625 107.300781 C 230.761719 112.335938 238.03125 131.929688 238.238281 142.425781 C 238.238281 142.425781 247.589844 103.679688 238.265625 81.109375 C 233.832031 70.382812 210.609375 54.648438 186.617188 53.992188 C 165.09375 53.410156 142.941406 66.28125 133.179688 83.933594 C 133.179688 83.933594 125.808594 98.269531 137.203125 143.609375 "
              fill-opacity="1"
              fill-rule="nonzero"
            />
          </g>
        </g>
        <g clip-path="url(#c1d83799dc)">
          <g clip-path="url(#b82030df8a)">
            <path
              fill="#554c4e"
              d="M 141.199219 104.492188 C 135.753906 103.527344 132.996094 95.671875 131.660156 89.507812 C 130.335938 97.191406 129.660156 113.613281 137.203125 143.609375 C 137.203125 143.609375 139.871094 113.898438 148.257812 107.300781 L 148.496094 107.132812 C 147.265625 106.027344 145.214844 105.203125 141.199219 104.492188 "
              fill-opacity="1"
              fill-rule="nonzero"
            />
          </g>
        </g>
        <g clip-path="url(#ab08899c3f)">
          <g clip-path="url(#20b0e42116)">
            <path
              fill="#554c4e"
              d="M 238.238281 142.425781 C 238.238281 142.425781 246.5625 107.917969 239.65625 85.066406 C 239.375 88.75 238.683594 91.789062 237.285156 93.050781 C 233.265625 96.667969 228.542969 102.417969 226.828125 108.695312 C 231.828125 115.265625 238.050781 132.726562 238.238281 142.425781 "
              fill-opacity="1"
              fill-rule="nonzero"
            />
          </g>
        </g>
      </svg>