<svg xmlns="http://www.w3.org/2000/svg" xmlns:xlink="http://www.w3.org/1999/xlink" width="40" zoomAndPan="magnify" viewBox="0 0 375 374.999991" height="40" preserveAspectRatio="xMidYMid meet" version="1.0"><defs><clipPath id="ab642dcb28"><path d="M 11.019531 11.019531 L 364.269531 11.019531 L 364.269531 364.269531 L 11.019531 364.269531 Z M 11.019531 11.019531 " clip-rule="nonzero"/></clipPath><clipPath id="ea67bf8d0a"><path d="M 364.28125 187.644531 C 364.28125 285.199219 285.199219 364.28125 187.644531 364.28125 C 90.089844 364.28125 11.003906 285.199219 11.003906 187.644531 C 11.003906 90.089844 90.089844 11.003906 187.644531 11.003906 C 285.199219 11.003906 364.28125 90.089844 364.28125 187.644531 " clip-rule="nonzero"/></clipPath><clipPath id="612294cd53"><path d="M 79.140625 45.234375 L 295.941406 45.234375 L 295.941406 205 L 79.140625 205 Z M 79.140625 45.234375 " clip-rule="nonzero"/></clipPath><clipPath id="4fca7e7053"><path d="M 364.28125 187.644531 C 364.28125 285.199219 285.199219 364.28125 187.644531 364.28125 C 90.089844 364.28125 11.003906 285.199219 11.003906 187.644531 C 11.003906 90.089844 90.089844 11.003906 187.644531 11.003906 C 285.199219 11.003906 364.28125 90.089844 364.28125 187.644531 " clip-rule="nonzero"/></clipPath><clipPath id="332d6c99be"><path d="M 243 306.214844 L 264 306.214844 L 264 364.269531 L 243 364.269531 Z M 243 306.214844 " clip-rule="nonzero"/></clipPath><clipPath id="cc34c012f0"><path d="M 364.28125 187.644531 C 364.28125 285.199219 285.199219 364.28125 187.644531 364.28125 C 90.089844 364.28125 11.003906 285.199219 11.003906 187.644531 C 11.003906 90.089844 90.089844 11.003906 187.644531 11.003906 C 285.199219 11.003906 364.28125 90.089844 364.28125 187.644531 " clip-rule="nonzero"/></clipPath><clipPath id="c8d6bef82c"><path d="M 262.03125 333 L 263 333 L 263 334 L 262.03125 334 Z M 262.03125 333 " clip-rule="nonzero"/></clipPath><clipPath id="bba416690c"><path d="M 364.28125 187.644531 C 364.28125 285.199219 285.199219 364.28125 187.644531 364.28125 C 90.089844 364.28125 11.003906 285.199219 11.003906 187.644531 C 11.003906 90.089844 90.089844 11.003906 187.644531 11.003906 C 285.199219 11.003906 364.28125 90.089844 364.28125 187.644531 " clip-rule="nonzero"/></clipPath><clipPath id="47eab5bded"><path d="M 243.539062 333 L 263 333 L 263 355 L 243.539062 355 Z M 243.539062 333 " clip-rule="nonzero"/></clipPath><clipPath id="4db8431a53"><path d="M 364.28125 187.644531 C 364.28125 285.199219 285.199219 364.28125 187.644531 364.28125 C 90.089844 364.28125 11.003906 285.199219 11.003906 187.644531 C 11.003906 90.089844 90.089844 11.003906 187.644531 11.003906 C 285.199219 11.003906 364.28125 90.089844 364.28125 187.644531 " clip-rule="nonzero"/></clipPath><clipPath id="7ae4ea9381"><path d="M 227.097656 250 L 269.226562 250 L 269.226562 338 L 227.097656 338 Z M 227.097656 250 " clip-rule="nonzero"/></clipPath><clipPath id="2b100e79f1"><path d="M 364.28125 187.644531 C 364.28125 285.199219 285.199219 364.28125 187.644531 364.28125 C 90.089844 364.28125 11.003906 285.199219 11.003906 187.644531 C 11.003906 90.089844 90.089844 11.003906 187.644531 11.003906 C 285.199219 11.003906 364.28125 90.089844 364.28125 187.644531 " clip-rule="nonzero"/></clipPath><clipPath id="ee500dee47"><path d="M 235.320312 335 L 236 335 L 236 336 L 235.320312 336 Z M 235.320312 335 " clip-rule="nonzero"/></clipPath><clipPath id="2c6ca1db24"><path d="M 364.28125 187.644531 C 364.28125 285.199219 285.199219 364.28125 187.644531 364.28125 C 90.089844 364.28125 11.003906 285.199219 11.003906 187.644531 C 11.003906 90.089844 90.089844 11.003906 187.644531 11.003906 C 285.199219 11.003906 364.28125 90.089844 364.28125 187.644531 " clip-rule="nonzero"/></clipPath><clipPath id="b9dd309e0b"><path d="M 234.289062 259 L 252.785156 259 L 252.785156 338 L 234.289062 338 Z M 234.289062 259 " clip-rule="nonzero"/></clipPath><clipPath id="93ac762601"><path d="M 364.28125 187.644531 C 364.28125 285.199219 285.199219 364.28125 187.644531 364.28125 C 90.089844 364.28125 11.003906 285.199219 11.003906 187.644531 C 11.003906 90.089844 90.089844 11.003906 187.644531 11.003906 C 285.199219 11.003906 364.28125 90.089844 364.28125 187.644531 " clip-rule="nonzero"/></clipPath><clipPath id="841fc8669b"><path d="M 108 306.214844 L 129 306.214844 L 129 364.269531 L 108 364.269531 Z M 108 306.214844 " clip-rule="nonzero"/></clipPath><clipPath id="605773743a"><path d="M 364.28125 187.644531 C 364.28125 285.199219 285.199219 364.28125 187.644531 364.28125 C 90.089844 364.28125 11.003906 285.199219 11.003906 187.644531 C 11.003906 90.089844 90.089844 11.003906 187.644531 11.003906 C 285.199219 11.003906 364.28125 90.089844 364.28125 187.644531 " clip-rule="nonzero"/></clipPath><clipPath id="922d1dfcdf"><path d="M 109 333 L 109.964844 333 L 109.964844 339 L 109 339 Z M 109 333 " clip-rule="nonzero"/></clipPath><clipPath id="4800f3768a"><path d="M 364.28125 187.644531 C 364.28125 285.199219 285.199219 364.28125 187.644531 364.28125 C 90.089844 364.28125 11.003906 285.199219 11.003906 187.644531 C 11.003906 90.089844 90.089844 11.003906 187.644531 11.003906 C 285.199219 11.003906 364.28125 90.089844 364.28125 187.644531 " clip-rule="nonzero"/></clipPath><clipPath id="a1aed4585c"><path d="M 109 333 L 128.460938 333 L 128.460938 354 L 109 354 Z M 109 333 " clip-rule="nonzero"/></clipPath><clipPath id="c24c05688c"><path d="M 364.28125 187.644531 C 364.28125 285.199219 285.199219 364.28125 187.644531 364.28125 C 90.089844 364.28125 11.003906 285.199219 11.003906 187.644531 C 11.003906 90.089844 90.089844 11.003906 187.644531 11.003906 C 285.199219 11.003906 364.28125 90.089844 364.28125 187.644531 " clip-rule="nonzero"/></clipPath><clipPath id="5fd3ffbce8"><path d="M 103 250 L 144.898438 250 L 144.898438 338 L 103 338 Z M 103 250 " clip-rule="nonzero"/></clipPath><clipPath id="967879b4fb"><path d="M 364.28125 187.644531 C 364.28125 285.199219 285.199219 364.28125 187.644531 364.28125 C 90.089844 364.28125 11.003906 285.199219 11.003906 187.644531 C 11.003906 90.089844 90.089844 11.003906 187.644531 11.003906 C 285.199219 11.003906 364.28125 90.089844 364.28125 187.644531 " clip-rule="nonzero"/></clipPath><clipPath id="c76579f1ae"><path d="M 136.679688 335 L 137 335 L 137 336 L 136.679688 336 Z M 136.679688 335 " clip-rule="nonzero"/></clipPath><clipPath id="d521ff6d26"><path d="M 364.28125 187.644531 C 364.28125 285.199219 285.199219 364.28125 187.644531 364.28125 C 90.089844 364.28125 11.003906 285.199219 11.003906 187.644531 C 11.003906 90.089844 90.089844 11.003906 187.644531 11.003906 C 285.199219 11.003906 364.28125 90.089844 364.28125 187.644531 " clip-rule="nonzero"/></clipPath><clipPath id="eb7c19edb6"><path d="M 119.210938 258 L 138.734375 258 L 138.734375 338 L 119.210938 338 Z M 119.210938 258 " clip-rule="nonzero"/></clipPath><clipPath id="b60c3c6c32"><path d="M 364.28125 187.644531 C 364.28125 285.199219 285.199219 364.28125 187.644531 364.28125 C 90.089844 364.28125 11.003906 285.199219 11.003906 187.644531 C 11.003906 90.089844 90.089844 11.003906 187.644531 11.003906 C 285.199219 11.003906 364.28125 90.089844 364.28125 187.644531 " clip-rule="nonzero"/></clipPath><clipPath id="8d2c651b42"><path d="M 131.542969 234 L 241 234 L 241 364.269531 L 131.542969 364.269531 Z M 131.542969 234 " clip-rule="nonzero"/></clipPath><clipPath id="37f070d687"><path d="M 364.28125 187.644531 C 364.28125 285.199219 285.199219 364.28125 187.644531 364.28125 C 90.089844 364.28125 11.003906 285.199219 11.003906 187.644531 C 11.003906 90.089844 90.089844 11.003906 187.644531 11.003906 C 285.199219 11.003906 364.28125 90.089844 364.28125 187.644531 " clip-rule="nonzero"/></clipPath><clipPath id="80e5a539ff"><path d="M 169.558594 203.464844 L 204 203.464844 L 204 248.675781 L 169.558594 248.675781 Z M 169.558594 203.464844 " clip-rule="nonzero"/></clipPath><clipPath id="f0470c1194"><path d="M 364.28125 187.644531 C 364.28125 285.199219 285.199219 364.28125 187.644531 364.28125 C 90.089844 364.28125 11.003906 285.199219 11.003906 187.644531 C 11.003906 90.089844 90.089844 11.003906 187.644531 11.003906 C 285.199219 11.003906 364.28125 90.089844 364.28125 187.644531 " clip-rule="nonzero"/></clipPath><clipPath id="1b0dfc09dc"><path d="M 172.640625 216 L 202 216 L 202 228 L 172.640625 228 Z M 172.640625 216 " clip-rule="nonzero"/></clipPath><clipPath id="8407cf76af"><path d="M 364.28125 187.644531 C 364.28125 285.199219 285.199219 364.28125 187.644531 364.28125 C 90.089844 364.28125 11.003906 285.199219 11.003906 187.644531 C 11.003906 90.089844 90.089844 11.003906 187.644531 11.003906 C 285.199219 11.003906 364.28125 90.089844 364.28125 187.644531 " clip-rule="nonzero"/></clipPath><clipPath id="5ad5d9430f"><path d="M 172.640625 216 L 202 216 L 202 229 L 172.640625 229 Z M 172.640625 216 " clip-rule="nonzero"/></clipPath><clipPath id="e2f7032ec8"><path d="M 364.28125 187.644531 C 364.28125 285.199219 285.199219 364.28125 187.644531 364.28125 C 90.089844 364.28125 11.003906 285.199219 11.003906 187.644531 C 11.003906 90.089844 90.089844 11.003906 187.644531 11.003906 C 285.199219 11.003906 364.28125 90.089844 364.28125 187.644531 " clip-rule="nonzero"/></clipPath><clipPath id="3732d0409b"><path d="M 127.433594 149.007812 L 143.871094 149.007812 L 143.871094 174.695312 L 127.433594 174.695312 Z M 127.433594 149.007812 " clip-rule="nonzero"/></clipPath><clipPath id="d7e3241e53"><path d="M 364.28125 187.644531 C 364.28125 285.199219 285.199219 364.28125 187.644531 364.28125 C 90.089844 364.28125 11.003906 285.199219 11.003906 187.644531 C 11.003906 90.089844 90.089844 11.003906 187.644531 11.003906 C 285.199219 11.003906 364.28125 90.089844 364.28125 187.644531 " clip-rule="nonzero"/></clipPath><clipPath id="2569b83494"><path d="M 130 154 L 138.734375 154 L 138.734375 170.585938 L 130 170.585938 Z M 130 154 " clip-rule="nonzero"/></clipPath><clipPath id="eed9994c7c"><path d="M 364.28125 187.644531 C 364.28125 285.199219 285.199219 364.28125 187.644531 364.28125 C 90.089844 364.28125 11.003906 285.199219 11.003906 187.644531 C 11.003906 90.089844 90.089844 11.003906 187.644531 11.003906 C 285.199219 11.003906 364.28125 90.089844 364.28125 187.644531 " clip-rule="nonzero"/></clipPath><clipPath id="5e18b069d1"><path d="M 130 153.121094 L 139.761719 153.121094 L 139.761719 170.585938 L 130 170.585938 Z M 130 153.121094 " clip-rule="nonzero"/></clipPath><clipPath id="8589ded416"><path d="M 364.28125 187.644531 C 364.28125 285.199219 285.199219 364.28125 187.644531 364.28125 C 90.089844 364.28125 11.003906 285.199219 11.003906 187.644531 C 11.003906 90.089844 90.089844 11.003906 187.644531 11.003906 C 285.199219 11.003906 364.28125 90.089844 364.28125 187.644531 " clip-rule="nonzero"/></clipPath><clipPath id="1d794da50b"><path d="M 132 155.175781 L 137.707031 155.175781 L 137.707031 163 L 132 163 Z M 132 155.175781 " clip-rule="nonzero"/></clipPath><clipPath id="c230eb1e5e"><path d="M 364.28125 187.644531 C 364.28125 285.199219 285.199219 364.28125 187.644531 364.28125 C 90.089844 364.28125 11.003906 285.199219 11.003906 187.644531 C 11.003906 90.089844 90.089844 11.003906 187.644531 11.003906 C 285.199219 11.003906 364.28125 90.089844 364.28125 187.644531 " clip-rule="nonzero"/></clipPath><clipPath id="32eff0e39b"><path d="M 229.152344 149.007812 L 245.59375 149.007812 L 245.59375 174.695312 L 229.152344 174.695312 Z M 229.152344 149.007812 " clip-rule="nonzero"/></clipPath><clipPath id="e51e5c348d"><path d="M 364.28125 187.644531 C 364.28125 285.199219 285.199219 364.28125 187.644531 364.28125 C 90.089844 364.28125 11.003906 285.199219 11.003906 187.644531 C 11.003906 90.089844 90.089844 11.003906 187.644531 11.003906 C 285.199219 11.003906 364.28125 90.089844 364.28125 187.644531 " clip-rule="nonzero"/></clipPath><clipPath id="90d2f86a3b"><path d="M 234 154 L 242.511719 154 L 242.511719 170.585938 L 234 170.585938 Z M 234 154 " clip-rule="nonzero"/></clipPath><clipPath id="f7c48bdd2d"><path d="M 364.28125 187.644531 C 364.28125 285.199219 285.199219 364.28125 187.644531 364.28125 C 90.089844 364.28125 11.003906 285.199219 11.003906 187.644531 C 11.003906 90.089844 90.089844 11.003906 187.644531 11.003906 C 285.199219 11.003906 364.28125 90.089844 364.28125 187.644531 " clip-rule="nonzero"/></clipPath><clipPath id="0e386ecd53"><path d="M 233.261719 153.121094 L 242.511719 153.121094 L 242.511719 170.585938 L 233.261719 170.585938 Z M 233.261719 153.121094 " clip-rule="nonzero"/></clipPath><clipPath id="5b85f0165d"><path d="M 364.28125 187.644531 C 364.28125 285.199219 285.199219 364.28125 187.644531 364.28125 C 90.089844 364.28125 11.003906 285.199219 11.003906 187.644531 C 11.003906 90.089844 90.089844 11.003906 187.644531 11.003906 C 285.199219 11.003906 364.28125 90.089844 364.28125 187.644531 " clip-rule="nonzero"/></clipPath><clipPath id="fbbfdd7231"><path d="M 235.320312 155.175781 L 240.457031 155.175781 L 240.457031 163 L 235.320312 163 Z M 235.320312 155.175781 " clip-rule="nonzero"/></clipPath><clipPath id="613fa5e66c"><path d="M 364.28125 187.644531 C 364.28125 285.199219 285.199219 364.28125 187.644531 364.28125 C 90.089844 364.28125 11.003906 285.199219 11.003906 187.644531 C 11.003906 90.089844 90.089844 11.003906 187.644531 11.003906 C 285.199219 11.003906 364.28125 90.089844 364.28125 187.644531 " clip-rule="nonzero"/></clipPath><clipPath id="d5a4f65e9f"><path d="M 141 94 L 233 94 L 233 221.960938 L 141 221.960938 Z M 141 94 " clip-rule="nonzero"/></clipPath><clipPath id="e66a03589b"><path d="M 364.28125 187.644531 C 364.28125 285.199219 285.199219 364.28125 187.644531 364.28125 C 90.089844 364.28125 11.003906 285.199219 11.003906 187.644531 C 11.003906 90.089844 90.089844 11.003906 187.644531 11.003906 C 285.199219 11.003906 364.28125 90.089844 364.28125 187.644531 " clip-rule="nonzero"/></clipPath><clipPath id="84818ec864"><path d="M 186 221 L 188 221 L 188 221.960938 L 186 221.960938 Z M 186 221 " clip-rule="nonzero"/></clipPath><clipPath id="edd074d31a"><path d="M 364.28125 187.644531 C 364.28125 285.199219 285.199219 364.28125 187.644531 364.28125 C 90.089844 364.28125 11.003906 285.199219 11.003906 187.644531 C 11.003906 90.089844 90.089844 11.003906 187.644531 11.003906 C 285.199219 11.003906 364.28125 90.089844 364.28125 187.644531 " clip-rule="nonzero"/></clipPath><clipPath id="0b04debefe"><path d="M 141 106 L 220.933594 106 L 220.933594 221.960938 L 141 221.960938 Z M 141 106 " clip-rule="nonzero"/></clipPath><clipPath id="622b63b7c2"><path d="M 364.28125 187.644531 C 364.28125 285.199219 285.199219 364.28125 187.644531 364.28125 C 90.089844 364.28125 11.003906 285.199219 11.003906 187.644531 C 11.003906 90.089844 90.089844 11.003906 187.644531 11.003906 C 285.199219 11.003906 364.28125 90.089844 364.28125 187.644531 " clip-rule="nonzero"/></clipPath><clipPath id="e5d32b1126"><path d="M 171.613281 185 L 201.410156 185 L 201.410156 199 L 171.613281 199 Z M 171.613281 185 " clip-rule="nonzero"/></clipPath><clipPath id="3722c252cc"><path d="M 364.28125 187.644531 C 364.28125 285.199219 285.199219 364.28125 187.644531 364.28125 C 90.089844 364.28125 11.003906 285.199219 11.003906 187.644531 C 11.003906 90.089844 90.089844 11.003906 187.644531 11.003906 C 285.199219 11.003906 364.28125 90.089844 364.28125 187.644531 " clip-rule="nonzero"/></clipPath><clipPath id="65db49dae3"><path d="M 150.035156 131 L 177 131 L 177 138.734375 L 150.035156 138.734375 Z M 150.035156 131 " clip-rule="nonzero"/></clipPath><clipPath id="5686b61330"><path d="M 364.28125 187.644531 C 364.28125 285.199219 285.199219 364.28125 187.644531 364.28125 C 90.089844 364.28125 11.003906 285.199219 11.003906 187.644531 C 11.003906 90.089844 90.089844 11.003906 187.644531 11.003906 C 285.199219 11.003906 364.28125 90.089844 364.28125 187.644531 " clip-rule="nonzero"/></clipPath><clipPath id="463ba55cd8"><path d="M 194.21875 131 L 221.960938 131 L 221.960938 138.734375 L 194.21875 138.734375 Z M 194.21875 131 " clip-rule="nonzero"/></clipPath><clipPath id="04a1e01f08"><path d="M 364.28125 187.644531 C 364.28125 285.199219 285.199219 364.28125 187.644531 364.28125 C 90.089844 364.28125 11.003906 285.199219 11.003906 187.644531 C 11.003906 90.089844 90.089844 11.003906 187.644531 11.003906 C 285.199219 11.003906 364.28125 90.089844 364.28125 187.644531 " clip-rule="nonzero"/></clipPath><clipPath id="4f65398b1a"><path d="M 180 170.585938 L 193.191406 170.585938 L 193.191406 176.75 L 180 176.75 Z M 180 170.585938 " clip-rule="nonzero"/></clipPath><clipPath id="99eacf00f5"><path d="M 364.28125 187.644531 C 364.28125 285.199219 285.199219 364.28125 187.644531 364.28125 C 90.089844 364.28125 11.003906 285.199219 11.003906 187.644531 C 11.003906 90.089844 90.089844 11.003906 187.644531 11.003906 C 285.199219 11.003906 364.28125 90.089844 364.28125 187.644531 " clip-rule="nonzero"/></clipPath><clipPath id="cf547ee0a8"><path d="M 181 201.410156 L 193 201.410156 L 193 206 L 181 206 Z M 181 201.410156 " clip-rule="nonzero"/></clipPath><clipPath id="f775cf28ac"><path d="M 364.28125 187.644531 C 364.28125 285.199219 285.199219 364.28125 187.644531 364.28125 C 90.089844 364.28125 11.003906 285.199219 11.003906 187.644531 C 11.003906 90.089844 90.089844 11.003906 187.644531 11.003906 C 285.199219 11.003906 364.28125 90.089844 364.28125 187.644531 " clip-rule="nonzero"/></clipPath><clipPath id="609c403503"><path d="M 180 172.640625 L 193.191406 172.640625 L 193.191406 178.808594 L 180 178.808594 Z M 180 172.640625 " clip-rule="nonzero"/></clipPath><clipPath id="e0b2377e3b"><path d="M 364.28125 187.644531 C 364.28125 285.199219 285.199219 364.28125 187.644531 364.28125 C 90.089844 364.28125 11.003906 285.199219 11.003906 187.644531 C 11.003906 90.089844 90.089844 11.003906 187.644531 11.003906 C 285.199219 11.003906 364.28125 90.089844 364.28125 187.644531 " clip-rule="nonzero"/></clipPath><clipPath id="a8f0a250eb"><path d="M 165.449219 150.035156 L 174 150.035156 L 174 165.449219 L 165.449219 165.449219 Z M 165.449219 150.035156 " clip-rule="nonzero"/></clipPath><clipPath id="74c35c7118"><path d="M 364.28125 187.644531 C 364.28125 285.199219 285.199219 364.28125 187.644531 364.28125 C 90.089844 364.28125 11.003906 285.199219 11.003906 187.644531 C 11.003906 90.089844 90.089844 11.003906 187.644531 11.003906 C 285.199219 11.003906 364.28125 90.089844 364.28125 187.644531 " clip-rule="nonzero"/></clipPath><clipPath id="23843e023f"><path d="M 199.355469 150.035156 L 208 150.035156 L 208 165.449219 L 199.355469 165.449219 Z M 199.355469 150.035156 " clip-rule="nonzero"/></clipPath><clipPath id="84644d5ec0"><path d="M 364.28125 187.644531 C 364.28125 285.199219 285.199219 364.28125 187.644531 364.28125 C 90.089844 364.28125 11.003906 285.199219 11.003906 187.644531 C 11.003906 90.089844 90.089844 11.003906 187.644531 11.003906 C 285.199219 11.003906 364.28125 90.089844 364.28125 187.644531 " clip-rule="nonzero"/></clipPath><clipPath id="34f293e8e3"><path d="M 173 186 L 200.382812 186 L 200.382812 196 L 173 196 Z M 173 186 " clip-rule="nonzero"/></clipPath><clipPath id="7c06788bfa"><path d="M 364.28125 187.644531 C 364.28125 285.199219 285.199219 364.28125 187.644531 364.28125 C 90.089844 364.28125 11.003906 285.199219 11.003906 187.644531 C 11.003906 90.089844 90.089844 11.003906 187.644531 11.003906 C 285.199219 11.003906 364.28125 90.089844 364.28125 187.644531 " clip-rule="nonzero"/></clipPath><clipPath id="f73a2f082f"><path d="M 173 186 L 200.382812 186 L 200.382812 192 L 173 192 Z M 173 186 " clip-rule="nonzero"/></clipPath><clipPath id="376b742bfe"><path d="M 364.28125 187.644531 C 364.28125 285.199219 285.199219 364.28125 187.644531 364.28125 C 90.089844 364.28125 11.003906 285.199219 11.003906 187.644531 C 11.003906 90.089844 90.089844 11.003906 187.644531 11.003906 C 285.199219 11.003906 364.28125 90.089844 364.28125 187.644531 " clip-rule="nonzero"/></clipPath><clipPath id="a1ae4486d0"><path d="M 173 186 L 177.777344 186 L 177.777344 191.136719 L 173 191.136719 Z M 173 186 " clip-rule="nonzero"/></clipPath><clipPath id="a75e9b3d91"><path d="M 364.28125 187.644531 C 364.28125 285.199219 285.199219 364.28125 187.644531 364.28125 C 90.089844 364.28125 11.003906 285.199219 11.003906 187.644531 C 11.003906 90.089844 90.089844 11.003906 187.644531 11.003906 C 285.199219 11.003906 364.28125 90.089844 364.28125 187.644531 " clip-rule="nonzero"/></clipPath><clipPath id="3c3bbc1ddb"><path d="M 196.273438 186 L 200.382812 186 L 200.382812 191.136719 L 196.273438 191.136719 Z M 196.273438 186 " clip-rule="nonzero"/></clipPath><clipPath id="ff488af66b"><path d="M 364.28125 187.644531 C 364.28125 285.199219 285.199219 364.28125 187.644531 364.28125 C 90.089844 364.28125 11.003906 285.199219 11.003906 187.644531 C 11.003906 90.089844 90.089844 11.003906 187.644531 11.003906 C 285.199219 11.003906 364.28125 90.089844 364.28125 187.644531 " clip-rule="nonzero"/></clipPath><clipPath id="6fa74baae7"><path d="M 138 331 L 235 331 L 235 364.269531 L 138 364.269531 Z M 138 331 " clip-rule="nonzero"/></clipPath><clipPath id="94b71af0c9"><path d="M 364.28125 187.644531 C 364.28125 285.199219 285.199219 364.28125 187.644531 364.28125 C 90.089844 364.28125 11.003906 285.199219 11.003906 187.644531 C 11.003906 90.089844 90.089844 11.003906 187.644531 11.003906 C 285.199219 11.003906 364.28125 90.089844 364.28125 187.644531 " clip-rule="nonzero"/></clipPath><clipPath id="92303ae7b1"><path d="M 165.449219 229.152344 L 187 229.152344 L 187 250.730469 L 165.449219 250.730469 Z M 165.449219 229.152344 " clip-rule="nonzero"/></clipPath><clipPath id="b706e6fafb"><path d="M 364.28125 187.644531 C 364.28125 285.199219 285.199219 364.28125 187.644531 364.28125 C 90.089844 364.28125 11.003906 285.199219 11.003906 187.644531 C 11.003906 90.089844 90.089844 11.003906 187.644531 11.003906 C 285.199219 11.003906 364.28125 90.089844 364.28125 187.644531 " clip-rule="nonzero"/></clipPath><clipPath id="f7fc8bdde6"><path d="M 185 229.152344 L 207.578125 229.152344 L 207.578125 250.730469 L 185 250.730469 Z M 185 229.152344 " clip-rule="nonzero"/></clipPath><clipPath id="637840aef1"><path d="M 364.28125 187.644531 C 364.28125 285.199219 285.199219 364.28125 187.644531 364.28125 C 90.089844 364.28125 11.003906 285.199219 11.003906 187.644531 C 11.003906 90.089844 90.089844 11.003906 187.644531 11.003906 C 285.199219 11.003906 364.28125 90.089844 364.28125 187.644531 " clip-rule="nonzero"/></clipPath><clipPath id="6185e1bbec"><path d="M 135 84 L 236.347656 84 L 236.347656 155 L 135 155 Z M 135 84 " clip-rule="nonzero"/></clipPath><clipPath id="14efb8c42c"><path d="M 364.28125 187.644531 C 364.28125 285.199219 285.199219 364.28125 187.644531 364.28125 C 90.089844 364.28125 11.003906 285.199219 11.003906 187.644531 C 11.003906 90.089844 90.089844 11.003906 187.644531 11.003906 C 285.199219 11.003906 364.28125 90.089844 364.28125 187.644531 " clip-rule="nonzero"/></clipPath><clipPath id="dfc91a17b5"><path d="M 130 67 L 244.566406 67 L 244.566406 141.816406 L 130 141.816406 Z M 130 67 " clip-rule="nonzero"/></clipPath><clipPath id="471b572519"><path d="M 364.28125 187.644531 C 364.28125 285.199219 285.199219 364.28125 187.644531 364.28125 C 90.089844 364.28125 11.003906 285.199219 11.003906 187.644531 C 11.003906 90.089844 90.089844 11.003906 187.644531 11.003906 C 285.199219 11.003906 364.28125 90.089844 364.28125 187.644531 " clip-rule="nonzero"/></clipPath></defs><g clip-path="url(#ab642dcb28)"><g clip-path="url(#ea67bf8d0a)"><path fill="#f8a4ce" d="M 364.28125 187.644531 C 364.28125 285.199219 285.199219 364.28125 187.644531 364.28125 C 90.089844 364.28125 11.003906 285.199219 11.003906 187.644531 C 11.003906 90.089844 90.089844 11.003906 187.644531 11.003906 C 285.199219 11.003906 364.28125 90.089844 364.28125 187.644531 " fill-opacity="1" fill-rule="nonzero"/></g></g><g clip-path="url(#612294cd53)"><g clip-path="url(#4fca7e7053)"><path fill="#211a1b" d="M 217.203125 201.996094 C 217.203125 201.996094 273.398438 212.5625 256.476562 190.445312 C 256.476562 190.445312 292.78125 184.292969 281.136719 172.921875 C 281.136719 172.921875 305.796875 158.820312 287.988281 141.691406 C 287.988281 141.691406 308.539062 121.828125 281.136719 111.554688 C 281.136719 111.554688 298.984375 93.574219 269.164062 84.070312 C 269.164062 84.070312 286.640625 70.453125 252.039062 64.972656 C 252.039062 64.972656 252.816406 51.273438 225.539062 54.015625 C 225.539062 54.015625 222.53125 36.167969 188.472656 53.648438 C 188.472656 53.648438 126.933594 42.367188 141.019531 58.808594 C 141.019531 58.808594 100.730469 55.382812 120.035156 77.300781 C 120.035156 77.300781 76.289062 82.785156 103.019531 101.960938 C 103.019531 101.960938 60.570312 108.796875 90.710938 125.246094 C 90.710938 125.246094 70.84375 129.363281 92.082031 141.691406 C 92.082031 141.691406 64.644531 155.625 103.019531 169.207031 C 103.019531 169.207031 79.320312 181.1875 108.648438 191.582031 C 108.648438 191.582031 96.738281 211.164062 163.59375 201.429688 L 217.203125 201.996094 " fill-opacity="1" fill-rule="nonzero"/></g></g><g clip-path="url(#332d6c99be)"><g clip-path="url(#cc34c012f0)"><path fill="#98624b" d="M 258.828125 395.132812 C 261.152344 356.917969 263.972656 306.921875 263.972656 306.921875 L 243.429688 324.359375 C 243.863281 331.652344 244.898438 366.257812 245.726562 395.132812 L 258.828125 395.132812 " fill-opacity="1" fill-rule="nonzero"/></g></g><g clip-path="url(#c8d6bef82c)"><g clip-path="url(#bba416690c)"><path fill="#995b55" d="M 262.425781 333.984375 C 262.433594 333.855469 262.441406 333.726562 262.449219 333.597656 C 262.441406 333.726562 262.433594 333.855469 262.425781 333.984375 " fill-opacity="1" fill-rule="nonzero"/></g></g><g clip-path="url(#47eab5bded)"><g clip-path="url(#4db8431a53)"><path fill="#814e3c" d="M 244.535156 354.921875 C 244.328125 348.3125 244.132812 342.261719 243.957031 337.25 C 245.3125 337.367188 246.601562 337.421875 247.816406 337.421875 C 254.550781 337.421875 259.230469 335.726562 262.449219 333.597656 C 262.441406 333.726562 262.433594 333.855469 262.425781 333.984375 C 262.191406 338.085938 261.9375 342.5 261.667969 347.101562 C 258.214844 349.148438 254.367188 350.851562 250.765625 351.164062 L 250.726562 352.683594 C 248.679688 353.46875 246.617188 354.210938 244.535156 354.921875 " fill-opacity="1" fill-rule="nonzero"/></g></g><g clip-path="url(#7ae4ea9381)"><g clip-path="url(#2b100e79f1)"><path fill="#3aad43" d="M 239.621094 250.578125 C 239.621094 250.578125 253.902344 255.347656 259.726562 267.335938 C 265.550781 279.320312 269.164062 325.171875 269.164062 325.171875 C 269.164062 325.171875 264.523438 342.683594 235.40625 335.832031 C 235.40625 335.832031 214.722656 251.632812 239.621094 250.578125 " fill-opacity="1" fill-rule="nonzero"/></g></g><g clip-path="url(#ee500dee47)"><g clip-path="url(#2c6ca1db24)"><path fill="#949377" d="M 235.492188 335.851562 C 235.484375 335.851562 235.476562 335.847656 235.464844 335.847656 C 235.472656 335.847656 235.484375 335.851562 235.492188 335.851562 M 235.40625 335.832031 C 235.40625 335.828125 235.40625 335.828125 235.40625 335.824219 C 235.40625 335.828125 235.40625 335.828125 235.40625 335.832031 " fill-opacity="1" fill-rule="nonzero"/></g></g><g clip-path="url(#b9dd309e0b)"><g clip-path="url(#93ac762601)"><path fill="#379640" d="M 243.171875 337.109375 C 240.789062 336.898438 238.25 336.496094 235.535156 335.863281 C 235.523438 335.859375 235.507812 335.855469 235.492188 335.851562 C 235.484375 335.851562 235.472656 335.847656 235.464844 335.847656 C 235.441406 335.84375 235.425781 335.839844 235.40625 335.832031 C 235.40625 335.828125 235.40625 335.828125 235.40625 335.824219 C 235.375 335.695312 234.984375 334.101562 234.394531 331.441406 C 237.414062 301.371094 240.078125 272.699219 240.734375 259.023438 C 262.570312 273.183594 248.027344 322.597656 243.171875 337.109375 " fill-opacity="1" fill-rule="nonzero"/></g></g><g clip-path="url(#841fc8669b)"><g clip-path="url(#605773743a)"><path fill="#98624b" d="M 126.347656 395.132812 C 127.175781 366.257812 128.210938 331.652344 128.644531 324.359375 L 108.101562 306.921875 C 108.101562 306.921875 110.921875 356.917969 113.253906 395.132812 L 126.347656 395.132812 " fill-opacity="1" fill-rule="nonzero"/></g></g><g clip-path="url(#922d1dfcdf)"><g clip-path="url(#4800f3768a)"><path fill="#995b55" d="M 109.929688 338.894531 C 109.824219 337.050781 109.71875 335.257812 109.621094 333.515625 C 109.71875 335.257812 109.824219 337.050781 109.929688 338.894531 " fill-opacity="1" fill-rule="nonzero"/></g></g><g clip-path="url(#a1aed4585c)"><g clip-path="url(#c24c05688c)"><path fill="#814e3c" d="M 127.578125 353.804688 C 125.46875 353.042969 123.382812 352.242188 121.316406 351.40625 L 121.308594 351.164062 C 121.039062 351.140625 120.769531 351.105469 120.496094 351.070312 C 117.066406 349.660156 113.695312 348.144531 110.371094 346.527344 C 110.21875 343.910156 110.074219 341.359375 109.929688 338.894531 C 109.824219 337.050781 109.71875 335.257812 109.621094 333.515625 C 112.84375 335.683594 117.554688 337.421875 124.371094 337.421875 C 125.554688 337.421875 126.800781 337.367188 128.117188 337.261719 C 127.953125 341.988281 127.769531 347.636719 127.578125 353.804688 " fill-opacity="1" fill-rule="nonzero"/></g></g><g clip-path="url(#5fd3ffbce8)"><g clip-path="url(#967879b4fb)"><path fill="#3aad43" d="M 132.566406 250.578125 C 132.566406 250.578125 118.289062 255.347656 112.464844 267.335938 C 106.640625 279.320312 103.019531 325.171875 103.019531 325.171875 C 103.019531 325.171875 107.667969 342.683594 136.78125 335.832031 C 136.78125 335.832031 157.460938 251.632812 132.566406 250.578125 " fill-opacity="1" fill-rule="nonzero"/></g></g><g clip-path="url(#c76579f1ae)"><g clip-path="url(#d521ff6d26)"><path fill="#949377" d="M 136.699219 335.851562 C 136.707031 335.851562 136.714844 335.847656 136.722656 335.847656 C 136.714844 335.847656 136.707031 335.851562 136.699219 335.851562 M 136.78125 335.832031 C 136.785156 335.832031 136.785156 335.832031 136.785156 335.832031 C 136.785156 335.832031 136.785156 335.832031 136.78125 335.832031 M 136.785156 335.824219 C 136.785156 335.824219 136.785156 335.820312 136.785156 335.820312 C 136.785156 335.824219 136.785156 335.824219 136.785156 335.824219 " fill-opacity="1" fill-rule="nonzero"/></g></g><g clip-path="url(#eb7c19edb6)"><g clip-path="url(#b60c3c6c32)"><path fill="#379640" d="M 129.019531 337.109375 C 124.132812 322.519531 109.457031 272.628906 131.828125 258.789062 C 132.453125 272.191406 135.066406 300.445312 138.054688 330.25 C 137.324219 333.597656 136.828125 335.640625 136.785156 335.820312 C 136.785156 335.820312 136.785156 335.824219 136.785156 335.824219 C 136.785156 335.824219 136.785156 335.828125 136.785156 335.828125 C 136.785156 335.828125 136.785156 335.828125 136.785156 335.832031 C 136.785156 335.832031 136.785156 335.832031 136.78125 335.832031 C 136.761719 335.839844 136.742188 335.84375 136.722656 335.847656 C 136.714844 335.847656 136.707031 335.851562 136.699219 335.851562 C 133.96875 336.492188 131.414062 336.894531 129.019531 337.109375 " fill-opacity="1" fill-rule="nonzero"/></g></g><g clip-path="url(#8d2c651b42)"><g clip-path="url(#37f070d687)"><path fill="#3aad43" d="M 227.746094 395.132812 C 233.132812 345.058594 242.074219 258.972656 240.757812 251.238281 C 240.757812 251.238281 208.417969 237.535156 202.816406 234.109375 L 186.285156 237.449219 L 169.757812 234.109375 C 164.148438 237.535156 131.816406 251.238281 131.816406 251.238281 C 130.496094 258.972656 139.441406 345.058594 144.824219 395.132812 L 227.746094 395.132812 " fill-opacity="1" fill-rule="nonzero"/></g></g><g clip-path="url(#80e5a539ff)"><g clip-path="url(#f0470c1194)"><path fill="#98624b" d="M 199.625 203.972656 L 186.734375 209.367188 L 173.835938 203.972656 C 173.835938 203.972656 172.824219 229.660156 169.792969 235.566406 C 169.792969 235.566406 178.347656 247.898438 186.734375 248.410156 C 195.113281 247.898438 203.675781 235.566406 203.675781 235.566406 C 200.640625 229.660156 199.625 203.972656 199.625 203.972656 " fill-opacity="1" fill-rule="nonzero"/></g></g><g clip-path="url(#1b0dfc09dc)"><g clip-path="url(#8407cf76af)"><path fill="#8a514d" d="M 201.699219 227.742188 C 201.167969 224.316406 200.75 220.355469 200.4375 216.660156 C 200.75 220.355469 201.167969 224.316406 201.699219 227.742188 M 172.855469 218.632812 C 172.917969 217.960938 172.976562 217.289062 173.03125 216.628906 C 173.035156 216.628906 173.03125 216.628906 173.03125 216.628906 C 172.976562 217.289062 172.917969 217.960938 172.855469 218.632812 " fill-opacity="1" fill-rule="nonzero"/></g></g><g clip-path="url(#5ad5d9430f)"><g clip-path="url(#e2f7032ec8)"><path fill="#744536" d="M 195.828125 228.1875 C 182.984375 228.1875 175.492188 221.511719 172.855469 218.632812 C 172.917969 217.960938 172.976562 217.289062 173.03125 216.628906 C 178.046875 219.707031 182.871094 221.503906 186.734375 221.503906 C 186.742188 221.503906 186.75 221.503906 186.757812 221.503906 C 186.757812 221.503906 186.761719 221.503906 186.761719 221.503906 C 186.769531 221.503906 186.777344 221.503906 186.785156 221.503906 C 186.792969 221.503906 186.800781 221.503906 186.808594 221.5 C 186.8125 221.5 186.8125 221.5 186.816406 221.5 C 186.824219 221.5 186.832031 221.5 186.839844 221.5 C 186.839844 221.5 186.84375 221.5 186.84375 221.5 C 186.851562 221.5 186.859375 221.5 186.867188 221.5 C 186.871094 221.5 186.871094 221.5 186.871094 221.5 C 186.878906 221.5 186.886719 221.5 186.894531 221.5 C 186.894531 221.5 186.894531 221.5 186.898438 221.5 C 186.90625 221.5 186.914062 221.5 186.921875 221.5 C 186.921875 221.5 186.925781 221.5 186.925781 221.5 C 186.933594 221.5 186.941406 221.5 186.949219 221.5 C 186.949219 221.5 186.949219 221.5 186.953125 221.5 C 186.960938 221.5 186.964844 221.5 186.972656 221.5 C 186.976562 221.5 186.976562 221.5 186.980469 221.5 C 186.992188 221.5 187 221.5 187.003906 221.5 C 187.007812 221.5 187.007812 221.5 187.007812 221.5 C 187.015625 221.5 187.023438 221.5 187.035156 221.5 C 187.042969 221.5 187.050781 221.5 187.058594 221.5 C 187.058594 221.5 187.0625 221.5 187.0625 221.5 C 187.070312 221.496094 187.078125 221.496094 187.085938 221.496094 C 187.089844 221.496094 187.089844 221.496094 187.089844 221.496094 C 187.097656 221.496094 187.105469 221.496094 187.113281 221.496094 L 187.117188 221.496094 C 187.136719 221.496094 187.152344 221.496094 187.171875 221.496094 C 190.945312 221.367188 195.601562 219.605469 200.4375 216.660156 C 200.75 220.355469 201.167969 224.316406 201.699219 227.742188 C 199.628906 228.050781 197.675781 228.1875 195.828125 228.1875 " fill-opacity="1" fill-rule="nonzero"/></g></g><g clip-path="url(#3732d0409b)"><g clip-path="url(#d7e3241e53)"><path fill="#98624b" d="M 143.074219 160.390625 C 144.21875 167.3125 141.714844 173.480469 137.492188 174.179688 C 133.269531 174.878906 128.917969 169.835938 127.777344 162.917969 C 126.632812 156 129.132812 149.828125 133.355469 149.128906 C 137.582031 148.429688 141.933594 153.476562 143.074219 160.390625 " fill-opacity="1" fill-rule="nonzero"/></g></g><g clip-path="url(#2569b83494)"><g clip-path="url(#eed9994c7c)"><path fill="#84513d" d="M 136.152344 170.371094 C 134.699219 170.371094 133.015625 168.332031 133.015625 168.332031 C 133.75 168.808594 134.300781 168.988281 134.710938 168.988281 C 135.988281 168.988281 135.925781 167.230469 135.925781 167.230469 C 131.132812 164.695312 136.042969 159.746094 136.042969 159.746094 C 132.578125 160.894531 132.738281 163.742188 132.738281 163.742188 C 131.785156 157.835938 134.105469 156.222656 134.105469 156.222656 C 130.539062 157.40625 131.597656 161.375 131.597656 161.375 C 130.503906 161.222656 130.296875 159.261719 130.296875 159.261719 C 130.390625 159.621094 130.421875 159.773438 130.429688 159.773438 C 130.484375 159.773438 129.695312 154.695312 133.917969 154.144531 C 134.09375 154.121094 134.265625 154.109375 134.433594 154.109375 C 138.855469 154.109375 138.539062 162.25 138.539062 162.25 L 137.207031 162.902344 C 132.855469 165.328125 138.191406 166.316406 138.191406 166.316406 C 138.011719 169.4375 137.136719 170.371094 136.152344 170.371094 " fill-opacity="1" fill-rule="nonzero"/></g></g><g clip-path="url(#5e18b069d1)"><g clip-path="url(#8589ded416)"><path fill="#6f3728" d="M 130.386719 160.402344 C 130.21875 159.644531 130.195312 158.847656 130.308594 158.066406 C 130.363281 157.675781 130.453125 157.289062 130.59375 156.914062 C 130.730469 156.539062 130.90625 156.175781 131.144531 155.84375 C 131.253906 155.671875 131.378906 155.511719 131.523438 155.371094 C 131.660156 155.222656 131.792969 155.066406 131.960938 154.949219 C 132.261719 154.675781 132.613281 154.472656 132.96875 154.269531 C 133.335938 154.109375 133.699219 153.929688 134.097656 153.828125 C 134.484375 153.730469 134.957031 153.679688 135.375 153.773438 C 136.257812 153.929688 136.945312 154.585938 137.375 155.269531 C 137.828125 155.960938 138.113281 156.71875 138.34375 157.480469 C 138.574219 158.246094 138.734375 159.023438 138.855469 159.804688 C 138.910156 160.195312 138.964844 160.585938 139.003906 160.976562 C 139.046875 161.363281 139.066406 161.777344 139.082031 162.140625 L 139.101562 162.414062 L 138.855469 162.507812 C 138.296875 162.722656 137.726562 162.988281 137.210938 163.292969 C 136.699219 163.589844 136.160156 163.960938 135.925781 164.386719 C 135.808594 164.601562 135.8125 164.753906 135.9375 164.941406 C 136.066406 165.125 136.304688 165.285156 136.550781 165.425781 C 137.074219 165.6875 137.667969 165.863281 138.257812 166.03125 L 138.496094 166.097656 L 138.480469 166.324219 C 138.414062 167.144531 138.269531 167.929688 137.988281 168.703125 C 137.84375 169.085938 137.664062 169.464844 137.394531 169.796875 C 137.128906 170.128906 136.734375 170.40625 136.285156 170.464844 C 136.066406 170.5 135.847656 170.46875 135.640625 170.425781 C 135.433594 170.367188 135.238281 170.292969 135.058594 170.195312 C 134.695312 170.003906 134.371094 169.765625 134.074219 169.496094 C 133.476562 168.96875 132.972656 168.363281 132.496094 167.738281 C 133.035156 168.308594 133.589844 168.863281 134.203125 169.339844 C 134.507812 169.578125 134.835938 169.785156 135.183594 169.9375 C 135.523438 170.089844 135.898438 170.171875 136.230469 170.101562 C 136.917969 169.972656 137.316406 169.246094 137.542969 168.546875 C 137.765625 167.828125 137.871094 167.054688 137.898438 166.304688 L 138.121094 166.597656 C 137.496094 166.457031 136.871094 166.28125 136.261719 165.984375 C 135.964844 165.820312 135.65625 165.636719 135.410156 165.304688 C 135.28125 165.148438 135.207031 164.917969 135.191406 164.699219 C 135.191406 164.472656 135.246094 164.253906 135.34375 164.085938 C 135.734375 163.402344 136.308594 163.058594 136.855469 162.703125 C 137.421875 162.367188 137.992188 162.089844 138.601562 161.839844 L 138.375 162.207031 L 138.285156 161.046875 C 138.253906 160.664062 138.207031 160.285156 138.160156 159.90625 C 138.050781 159.148438 137.910156 158.398438 137.707031 157.667969 C 137.5 156.945312 137.234375 156.226562 136.84375 155.613281 C 136.457031 154.992188 135.921875 154.492188 135.253906 154.335938 C 134.914062 154.25 134.59375 154.257812 134.222656 154.339844 C 133.871094 154.40625 133.515625 154.5625 133.171875 154.691406 C 132.84375 154.863281 132.507812 155.035156 132.222656 155.273438 C 132.0625 155.371094 131.941406 155.507812 131.808594 155.640625 C 131.667969 155.765625 131.546875 155.90625 131.4375 156.058594 C 131.207031 156.347656 131.011719 156.675781 130.859375 157.019531 C 130.699219 157.367188 130.582031 157.726562 130.503906 158.105469 C 130.34375 158.851562 130.296875 159.632812 130.386719 160.402344 " fill-opacity="1" fill-rule="nonzero"/></g></g><g clip-path="url(#1d794da50b)"><g clip-path="url(#c230eb1e5e)"><path fill="#6f3728" d="M 132.535156 162.789062 C 132.535156 162.789062 132.402344 162.175781 132.363281 161.230469 C 132.34375 160.761719 132.351562 160.207031 132.433594 159.613281 C 132.5 159.023438 132.660156 158.402344 132.914062 157.800781 C 133.058594 157.507812 133.210938 157.210938 133.40625 156.949219 C 133.617188 156.695312 133.804688 156.429688 134.070312 156.25 C 134.191406 156.144531 134.3125 156.050781 134.433594 155.953125 C 134.570312 155.882812 134.699219 155.8125 134.828125 155.75 C 134.957031 155.679688 135.085938 155.617188 135.207031 155.550781 C 135.339844 155.515625 135.464844 155.480469 135.589844 155.449219 C 135.828125 155.386719 136.054688 155.292969 136.253906 155.28125 C 136.457031 155.261719 136.632812 155.246094 136.78125 155.234375 C 137.070312 155.207031 137.238281 155.195312 137.238281 155.195312 L 137.214844 156.054688 C 137.214844 156.054688 137.066406 156.054688 136.8125 156.054688 C 136.683594 156.054688 136.527344 156.054688 136.351562 156.054688 C 136.171875 156.054688 135.984375 156.117188 135.769531 156.144531 C 135.664062 156.167969 135.550781 156.1875 135.433594 156.210938 C 135.332031 156.253906 135.21875 156.296875 135.105469 156.347656 C 134.992188 156.394531 134.875 156.4375 134.757812 156.488281 C 134.648438 156.5625 134.539062 156.636719 134.429688 156.710938 C 134.1875 156.84375 134.011719 157.066406 133.804688 157.265625 C 133.613281 157.476562 133.457031 157.734375 133.300781 157.988281 C 133.023438 158.519531 132.816406 159.097656 132.703125 159.660156 C 132.574219 160.222656 132.523438 160.765625 132.496094 161.230469 C 132.457031 162.167969 132.535156 162.789062 132.535156 162.789062 " fill-opacity="1" fill-rule="nonzero"/></g></g><g clip-path="url(#32eff0e39b)"><g clip-path="url(#e51e5c348d)"><path fill="#98624b" d="M 229.5 160.390625 C 228.355469 167.3125 230.855469 173.480469 235.078125 174.179688 C 239.304688 174.878906 243.65625 169.835938 244.792969 162.917969 C 245.9375 156 243.4375 149.828125 239.210938 149.128906 C 234.988281 148.429688 230.636719 153.476562 229.5 160.390625 " fill-opacity="1" fill-rule="nonzero"/></g></g><g clip-path="url(#90d2f86a3b)"><g clip-path="url(#f7c48bdd2d)"><path fill="#84513d" d="M 236.417969 170.371094 C 235.433594 170.371094 234.558594 169.4375 234.382812 166.316406 C 234.382812 166.316406 239.71875 165.328125 235.367188 162.902344 L 234.03125 162.25 C 234.03125 162.25 233.71875 154.109375 238.140625 154.109375 C 238.304688 154.109375 238.476562 154.121094 238.652344 154.144531 C 242.875 154.695312 242.089844 159.773438 242.140625 159.773438 C 242.148438 159.773438 242.1875 159.621094 242.273438 159.261719 C 242.273438 159.261719 242.070312 161.222656 240.972656 161.375 C 240.972656 161.375 242.035156 157.40625 238.464844 156.222656 C 238.464844 156.222656 240.785156 157.835938 239.832031 163.742188 C 239.832031 163.742188 239.996094 160.894531 236.535156 159.746094 C 236.535156 159.746094 241.4375 164.695312 236.648438 167.230469 C 236.648438 167.230469 236.582031 168.988281 237.863281 168.988281 C 238.273438 168.988281 238.824219 168.808594 239.558594 168.332031 C 239.558594 168.332031 237.871094 170.371094 236.417969 170.371094 " fill-opacity="1" fill-rule="nonzero"/></g></g><g clip-path="url(#0e386ecd53)"><g clip-path="url(#5b85f0165d)"><path fill="#6f3728" d="M 242.1875 160.402344 C 242.273438 159.632812 242.230469 158.851562 242.066406 158.105469 C 241.988281 157.726562 241.871094 157.367188 241.710938 157.019531 C 241.558594 156.675781 241.371094 156.347656 241.128906 156.058594 C 241.027344 155.90625 240.90625 155.765625 240.765625 155.640625 C 240.632812 155.507812 240.507812 155.371094 240.347656 155.273438 C 240.0625 155.035156 239.730469 154.863281 239.398438 154.691406 C 239.054688 154.5625 238.703125 154.40625 238.347656 154.339844 C 237.980469 154.257812 237.660156 154.25 237.3125 154.335938 C 236.652344 154.492188 236.109375 154.992188 235.726562 155.613281 C 235.339844 156.226562 235.074219 156.945312 234.863281 157.667969 C 234.660156 158.398438 234.519531 159.148438 234.410156 159.90625 C 234.359375 160.285156 234.320312 160.664062 234.28125 161.046875 L 234.199219 162.207031 L 233.96875 161.839844 C 234.578125 162.089844 235.148438 162.367188 235.714844 162.703125 C 236.261719 163.058594 236.839844 163.402344 237.230469 164.085938 C 237.324219 164.253906 237.382812 164.472656 237.382812 164.699219 C 237.363281 164.917969 237.289062 165.148438 237.160156 165.304688 C 236.917969 165.636719 236.605469 165.820312 236.308594 165.984375 C 235.699219 166.28125 235.078125 166.457031 234.449219 166.597656 L 234.671875 166.304688 C 234.695312 167.054688 234.804688 167.828125 235.035156 168.546875 C 235.253906 169.246094 235.652344 169.972656 236.34375 170.101562 C 236.675781 170.171875 237.046875 170.089844 237.390625 169.9375 C 237.734375 169.785156 238.0625 169.578125 238.367188 169.339844 C 238.984375 168.863281 239.535156 168.308594 240.074219 167.738281 C 239.601562 168.363281 239.09375 168.96875 238.496094 169.496094 C 238.199219 169.765625 237.875 170.003906 237.515625 170.195312 C 237.332031 170.292969 237.136719 170.367188 236.933594 170.425781 C 236.722656 170.46875 236.507812 170.5 236.285156 170.464844 C 235.835938 170.40625 235.4375 170.128906 235.179688 169.796875 C 234.910156 169.464844 234.726562 169.085938 234.582031 168.703125 C 234.304688 167.929688 234.160156 167.144531 234.089844 166.324219 L 234.074219 166.097656 L 234.3125 166.03125 C 234.90625 165.863281 235.5 165.6875 236.019531 165.425781 C 236.269531 165.285156 236.507812 165.125 236.632812 164.941406 C 236.757812 164.753906 236.757812 164.601562 236.648438 164.386719 C 236.410156 163.960938 235.871094 163.589844 235.367188 163.292969 C 234.839844 162.988281 234.273438 162.722656 233.714844 162.507812 L 233.472656 162.414062 L 233.488281 162.140625 C 233.503906 161.777344 233.523438 161.363281 233.570312 160.976562 C 233.609375 160.585938 233.660156 160.195312 233.71875 159.804688 C 233.835938 159.023438 233.996094 158.246094 234.226562 157.480469 C 234.457031 156.71875 234.746094 155.960938 235.199219 155.269531 C 235.632812 154.585938 236.3125 153.929688 237.195312 153.773438 C 237.613281 153.679688 238.085938 153.730469 238.472656 153.828125 C 238.875 153.929688 239.234375 154.109375 239.605469 154.269531 C 239.957031 154.472656 240.3125 154.675781 240.613281 154.949219 C 240.78125 155.066406 240.914062 155.222656 241.050781 155.371094 C 241.195312 155.511719 241.320312 155.671875 241.425781 155.84375 C 241.664062 156.175781 241.839844 156.539062 241.976562 156.914062 C 242.113281 157.289062 242.214844 157.675781 242.261719 158.066406 C 242.378906 158.847656 242.355469 159.644531 242.1875 160.402344 " fill-opacity="1" fill-rule="nonzero"/></g></g><g clip-path="url(#fbbfdd7231)"><g clip-path="url(#613fa5e66c)"><path fill="#6f3728" d="M 240.039062 162.789062 C 240.039062 162.789062 240.113281 162.167969 240.074219 161.230469 C 240.050781 160.765625 240 160.222656 239.875 159.660156 C 239.757812 159.097656 239.546875 158.519531 239.273438 157.988281 C 239.117188 157.734375 238.957031 157.476562 238.765625 157.265625 C 238.5625 157.066406 238.378906 156.84375 238.144531 156.710938 C 238.03125 156.636719 237.921875 156.5625 237.820312 156.488281 C 237.695312 156.4375 237.578125 156.394531 237.464844 156.347656 C 237.351562 156.296875 237.242188 156.253906 237.136719 156.210938 C 237.019531 156.1875 236.90625 156.167969 236.804688 156.144531 C 236.585938 156.117188 236.402344 156.054688 236.222656 156.054688 C 236.042969 156.054688 235.886719 156.054688 235.761719 156.054688 C 235.507812 156.054688 235.359375 156.054688 235.359375 156.054688 L 235.335938 155.195312 C 235.335938 155.195312 235.503906 155.207031 235.796875 155.234375 C 235.941406 155.246094 236.113281 155.261719 236.316406 155.28125 C 236.519531 155.292969 236.742188 155.386719 236.984375 155.449219 C 237.105469 155.480469 237.234375 155.515625 237.363281 155.550781 C 237.484375 155.617188 237.613281 155.679688 237.742188 155.75 C 237.871094 155.8125 238.003906 155.882812 238.140625 155.953125 C 238.257812 156.050781 238.378906 156.144531 238.503906 156.25 C 238.765625 156.429688 238.953125 156.695312 239.167969 156.949219 C 239.359375 157.210938 239.511719 157.507812 239.65625 157.800781 C 239.910156 158.402344 240.074219 159.023438 240.140625 159.613281 C 240.21875 160.207031 240.226562 160.761719 240.207031 161.230469 C 240.171875 162.175781 240.039062 162.789062 240.039062 162.789062 " fill-opacity="1" fill-rule="nonzero"/></g></g><g clip-path="url(#d5a4f65e9f)"><g clip-path="url(#e66a03589b)"><path fill="#98624b" d="M 232.449219 155.351562 C 232.449219 163.527344 231.402344 172.953125 228.578125 182.082031 C 222.25 202.542969 199.28125 221.503906 186.734375 221.503906 C 174.003906 221.503906 150.820312 201.988281 144.613281 181.191406 C 141.976562 172.34375 141.019531 163.261719 141.019531 155.351562 C 141.019531 128.847656 145.683594 94.164062 186.734375 94.164062 C 227.78125 94.164062 232.449219 128.847656 232.449219 155.351562 " fill-opacity="1" fill-rule="nonzero"/></g></g><g clip-path="url(#84818ec864)"><g clip-path="url(#edd074d31a)"><path fill="#774636" d="M 186.757812 221.503906 C 186.757812 221.503906 186.761719 221.503906 186.761719 221.503906 C 186.761719 221.503906 186.757812 221.503906 186.757812 221.503906 M 186.808594 221.5 C 186.8125 221.5 186.8125 221.5 186.816406 221.5 C 186.8125 221.5 186.8125 221.5 186.808594 221.5 M 186.839844 221.5 C 186.84375 221.5 186.84375 221.5 186.84375 221.5 C 186.84375 221.5 186.839844 221.5 186.839844 221.5 M 186.867188 221.5 C 186.871094 221.5 186.871094 221.5 186.871094 221.5 C 186.871094 221.5 186.871094 221.5 186.867188 221.5 M 186.894531 221.5 C 186.894531 221.5 186.894531 221.5 186.898438 221.5 C 186.894531 221.5 186.894531 221.5 186.894531 221.5 M 186.921875 221.5 C 186.921875 221.5 186.925781 221.5 186.925781 221.5 C 186.925781 221.5 186.921875 221.5 186.921875 221.5 M 186.949219 221.5 C 186.949219 221.5 186.949219 221.5 186.953125 221.5 C 186.949219 221.5 186.949219 221.5 186.949219 221.5 M 186.972656 221.5 C 186.976562 221.5 186.976562 221.5 186.980469 221.5 C 186.976562 221.5 186.976562 221.5 186.972656 221.5 M 187.003906 221.5 C 187.007812 221.5 187.007812 221.5 187.007812 221.5 C 187.007812 221.5 187.007812 221.5 187.003906 221.5 M 187.058594 221.5 C 187.058594 221.5 187.058594 221.5 187.0625 221.5 C 187.0625 221.5 187.058594 221.5 187.058594 221.5 M 187.085938 221.496094 C 187.089844 221.496094 187.089844 221.496094 187.089844 221.496094 C 187.089844 221.496094 187.089844 221.496094 187.085938 221.496094 M 187.113281 221.496094 C 187.117188 221.496094 187.113281 221.496094 187.117188 221.496094 L 187.113281 221.496094 " fill-opacity="1" fill-rule="nonzero"/></g></g><g clip-path="url(#0b04debefe)"><g clip-path="url(#622b63b7c2)"><path fill="#814e3c" d="M 186.734375 221.503906 C 174.003906 221.503906 150.820312 201.988281 144.613281 181.191406 C 143.507812 177.472656 142.695312 173.714844 142.125 170.015625 C 141.339844 164.917969 141.019531 159.9375 141.019531 155.351562 C 141.019531 155.335938 141.019531 155.320312 141.019531 155.308594 C 141.019531 155.304688 141.019531 155.300781 141.019531 155.292969 C 141.019531 155.28125 141.019531 155.273438 141.019531 155.261719 C 141.019531 155.253906 141.019531 155.25 141.019531 155.246094 C 141.019531 155.238281 141.019531 155.226562 141.019531 155.214844 C 141.019531 155.210938 141.019531 155.207031 141.019531 155.199219 C 141.019531 155.171875 141.019531 155.136719 141.019531 155.109375 C 141.019531 155.105469 141.019531 155.105469 141.019531 155.105469 C 141.019531 155.089844 141.019531 155.078125 141.019531 155.0625 C 141.019531 155.058594 141.019531 155.058594 141.019531 155.054688 C 141.019531 155.011719 141.019531 154.960938 141.019531 154.914062 C 141.019531 154.898438 141.019531 154.886719 141.019531 154.871094 C 141.019531 154.867188 141.019531 154.867188 141.019531 154.863281 C 141.019531 154.84375 141.019531 154.832031 141.019531 154.820312 C 141.019531 154.816406 141.019531 154.816406 141.019531 154.8125 C 141.019531 154.785156 141.019531 154.753906 141.019531 154.722656 C 141.019531 154.71875 141.019531 154.71875 141.019531 154.714844 C 141.066406 138.277344 142.988281 118.851562 154.242188 106.519531 C 146.019531 118.933594 144.578125 136.085938 144.578125 150.742188 C 144.578125 158.660156 145.539062 167.738281 148.179688 176.585938 C 154.378906 197.382812 177.5625 216.894531 190.292969 216.894531 C 198.507812 216.894531 211.1875 208.773438 220.742188 197.421875 C 211.160156 210.898438 196.488281 221.175781 187.171875 221.496094 C 187.152344 221.496094 187.136719 221.496094 187.117188 221.496094 C 187.113281 221.496094 187.117188 221.496094 187.113281 221.496094 C 187.105469 221.496094 187.097656 221.496094 187.089844 221.496094 C 187.089844 221.496094 187.089844 221.496094 187.085938 221.496094 C 187.078125 221.496094 187.070312 221.496094 187.0625 221.5 C 187.058594 221.5 187.058594 221.5 187.058594 221.5 C 187.050781 221.5 187.042969 221.5 187.035156 221.5 C 187.023438 221.5 187.015625 221.5 187.007812 221.5 C 187.007812 221.5 187.007812 221.5 187.003906 221.5 C 187 221.5 186.992188 221.5 186.980469 221.5 C 186.976562 221.5 186.976562 221.5 186.972656 221.5 C 186.964844 221.5 186.960938 221.5 186.953125 221.5 C 186.949219 221.5 186.949219 221.5 186.949219 221.5 C 186.941406 221.5 186.933594 221.5 186.925781 221.5 C 186.925781 221.5 186.921875 221.5 186.921875 221.5 C 186.914062 221.5 186.90625 221.5 186.898438 221.5 C 186.894531 221.5 186.894531 221.5 186.894531 221.5 C 186.886719 221.5 186.878906 221.5 186.871094 221.5 C 186.871094 221.5 186.871094 221.5 186.867188 221.5 C 186.859375 221.5 186.851562 221.5 186.84375 221.5 C 186.84375 221.5 186.84375 221.5 186.839844 221.5 C 186.832031 221.5 186.824219 221.5 186.816406 221.5 C 186.8125 221.5 186.8125 221.5 186.808594 221.5 C 186.800781 221.503906 186.792969 221.503906 186.785156 221.503906 C 186.777344 221.503906 186.769531 221.503906 186.761719 221.503906 C 186.761719 221.503906 186.757812 221.503906 186.757812 221.503906 C 186.75 221.503906 186.742188 221.503906 186.734375 221.503906 " fill-opacity="1" fill-rule="nonzero"/></g></g><g clip-path="url(#e5d32b1126)"><g clip-path="url(#3722c252cc)"><path fill="#e82f76" d="M 171.925781 186.84375 C 171.925781 186.84375 182.523438 183.570312 201.144531 186.523438 C 201.144531 186.523438 187.515625 213.625 171.925781 186.84375 " fill-opacity="1" fill-rule="nonzero"/></g></g><g clip-path="url(#65db49dae3)"><g clip-path="url(#5686b61330)"><path fill="#211a1b" d="M 150.269531 138.683594 C 150.269531 138.683594 155.75 133.800781 161.027344 135.007812 C 166.308594 136.207031 174.515625 136.199219 176.921875 133.519531 C 176.921875 133.519531 159.039062 126.34375 150.269531 138.683594 " fill-opacity="1" fill-rule="nonzero"/></g></g><g clip-path="url(#463ba55cd8)"><g clip-path="url(#04a1e01f08)"><path fill="#211a1b" d="M 221.625 138.683594 C 221.625 138.683594 216.140625 133.800781 210.863281 135.007812 C 205.585938 136.207031 197.375 136.199219 194.96875 133.519531 C 194.96875 133.519531 212.855469 126.34375 221.625 138.683594 " fill-opacity="1" fill-rule="nonzero"/></g></g><g clip-path="url(#4f65398b1a)"><g clip-path="url(#99eacf00f5)"><path fill="#62362c" d="M 180.386719 176.238281 C 180.410156 176.230469 180.300781 175.976562 180.339844 175.46875 C 180.363281 175.214844 180.402344 174.902344 180.535156 174.574219 C 180.644531 174.230469 180.832031 173.867188 181.085938 173.503906 C 181.335938 173.140625 181.652344 172.769531 182.042969 172.445312 C 182.421875 172.105469 182.867188 171.800781 183.363281 171.546875 C 183.859375 171.304688 184.394531 171.070312 184.96875 170.949219 C 185.539062 170.800781 186.136719 170.746094 186.734375 170.722656 C 187.078125 170.746094 187.265625 170.738281 187.601562 170.789062 C 187.910156 170.828125 188.214844 170.871094 188.496094 170.949219 C 189.074219 171.0625 189.601562 171.304688 190.101562 171.546875 C 190.597656 171.800781 191.042969 172.105469 191.425781 172.441406 C 191.816406 172.765625 192.132812 173.136719 192.378906 173.5 C 192.632812 173.867188 192.820312 174.230469 192.929688 174.574219 C 193.058594 174.902344 193.101562 175.214844 193.125 175.464844 C 193.167969 175.964844 193.054688 176.242188 193.074219 176.238281 C 193.058594 176.242188 193.035156 175.957031 192.832031 175.535156 C 192.734375 175.328125 192.597656 175.085938 192.414062 174.835938 C 192.234375 174.585938 191.988281 174.332031 191.71875 174.074219 C 191.4375 173.820312 191.109375 173.582031 190.746094 173.355469 C 190.386719 173.128906 189.96875 172.945312 189.546875 172.765625 C 189.113281 172.601562 188.652344 172.476562 188.183594 172.386719 C 187.941406 172.328125 187.710938 172.308594 187.488281 172.28125 C 187.285156 172.25 186.925781 172.261719 186.734375 172.25 C 185.757812 172.242188 184.78125 172.441406 183.914062 172.761719 C 183.496094 172.945312 183.078125 173.125 182.714844 173.351562 C 182.355469 173.578125 182.027344 173.816406 181.746094 174.070312 C 181.476562 174.332031 181.226562 174.582031 181.050781 174.835938 C 180.867188 175.085938 180.730469 175.332031 180.636719 175.53125 C 180.433594 175.945312 180.402344 176.25 180.386719 176.238281 " fill-opacity="1" fill-rule="nonzero"/></g></g><g clip-path="url(#cf547ee0a8)"><g clip-path="url(#f775cf28ac)"><path fill="#814e3c" d="M 186.953125 205.894531 C 185.277344 205.894531 183.308594 204.917969 181.175781 201.996094 C 181.175781 201.996094 183.6875 203.199219 187.035156 203.199219 C 188.707031 203.199219 190.59375 202.894531 192.476562 201.996094 C 192.476562 201.996094 190.300781 205.894531 186.953125 205.894531 " fill-opacity="1" fill-rule="nonzero"/></g></g><g clip-path="url(#609c403503)"><g clip-path="url(#e0b2377e3b)"><path fill="#814e3c" d="M 186.886719 178.597656 C 183.128906 178.597656 180.386719 177.027344 180.386719 177.027344 C 181.484375 173.203125 185.390625 172.921875 186.503906 172.921875 C 186.695312 172.921875 186.800781 172.929688 186.800781 172.929688 C 186.875 172.929688 186.949219 172.929688 187.023438 172.929688 C 191.496094 172.929688 193.074219 177.027344 193.074219 177.027344 C 190.902344 178.203125 188.769531 178.597656 186.886719 178.597656 " fill-opacity="1" fill-rule="nonzero"/></g></g><g clip-path="url(#a8f0a250eb)"><g clip-path="url(#74c35c7118)"><path fill="#211a1b" d="M 173.980469 157.738281 C 173.980469 161.902344 172.117188 165.273438 169.820312 165.273438 C 167.519531 165.273438 165.652344 161.902344 165.652344 157.738281 C 165.652344 153.578125 167.519531 150.207031 169.820312 150.207031 C 172.117188 150.207031 173.980469 153.578125 173.980469 157.738281 " fill-opacity="1" fill-rule="nonzero"/></g></g><g clip-path="url(#23843e023f)"><g clip-path="url(#84644d5ec0)"><path fill="#211a1b" d="M 207.808594 157.738281 C 207.808594 161.902344 205.945312 165.273438 203.648438 165.273438 C 201.347656 165.273438 199.484375 161.902344 199.484375 157.738281 C 199.484375 153.578125 201.347656 150.207031 203.648438 150.207031 C 205.945312 150.207031 207.808594 153.578125 207.808594 157.738281 " fill-opacity="1" fill-rule="nonzero"/></g></g><g clip-path="url(#34f293e8e3)"><g clip-path="url(#7c06788bfa)"><path fill="#ffffff" d="M 173.320312 186.84375 C 173.320312 186.84375 183.851562 192.84375 200.332031 186.84375 C 200.332031 186.84375 187.324219 205.914062 173.320312 186.84375 " fill-opacity="1" fill-rule="nonzero"/></g></g><g clip-path="url(#f73a2f082f)"><g clip-path="url(#376b742bfe)"><path fill="#c7d3df" d="M 173.320312 186.84375 C 173.480469 187.0625 173.644531 187.277344 173.804688 187.484375 C 177.511719 190.226562 186.585938 195.054688 199.722656 187.648438 C 200.238281 187.019531 200.332031 186.84375 200.332031 186.84375 C 183.851562 192.84375 173.320312 186.84375 173.320312 186.84375 " fill-opacity="1" fill-rule="nonzero"/></g></g><g clip-path="url(#a1ae4486d0)"><g clip-path="url(#a75e9b3d91)"><path fill="#211a1b" d="M 177.003906 191.042969 C 176.273438 189.917969 175.667969 188.703125 175.222656 187.6875 C 173.976562 187.21875 173.320312 186.84375 173.320312 186.84375 C 174.558594 188.53125 175.792969 189.917969 177.003906 191.042969 " fill-opacity="1" fill-rule="nonzero"/></g></g><g clip-path="url(#3c3bbc1ddb)"><g clip-path="url(#ff488af66b)"><path fill="#211a1b" d="M 196.503906 191.027344 C 198.910156 188.925781 200.332031 186.84375 200.332031 186.84375 C 199.761719 187.046875 199.203125 187.238281 198.644531 187.417969 C 198.117188 188.492188 197.386719 189.820312 196.503906 191.027344 " fill-opacity="1" fill-rule="nonzero"/></g></g><g clip-path="url(#6fa74baae7)"><g clip-path="url(#94b71af0c9)"><path fill="#379640" d="M 187.644531 364.28125 C 171.457031 364.28125 155.789062 362.105469 140.898438 358.03125 C 140.035156 349.75 139.164062 341.269531 138.320312 332.878906 C 148.824219 337.386719 164.632812 342.195312 184.277344 342.195312 C 199.019531 342.195312 215.921875 339.484375 234.347656 331.898438 C 233.449219 340.859375 232.515625 349.933594 231.597656 358.769531 C 217.546875 362.367188 202.816406 364.28125 187.644531 364.28125 " fill-opacity="1" fill-rule="nonzero"/></g></g><g clip-path="url(#92303ae7b1)"><g clip-path="url(#b706e6fafb)"><path fill="#ffffff" d="M 169.820312 229.714844 L 186.734375 248.410156 L 167.179688 250.578125 L 165.652344 234.109375 L 169.820312 229.714844 " fill-opacity="1" fill-rule="nonzero"/></g></g><g clip-path="url(#f7fc8bdde6)"><g clip-path="url(#637840aef1)"><path fill="#ffffff" d="M 202.875 229.714844 L 185.964844 248.410156 L 205.515625 250.578125 L 207.039062 234.109375 L 202.875 229.714844 " fill-opacity="1" fill-rule="nonzero"/></g></g><g clip-path="url(#6185e1bbec)"><g clip-path="url(#14efb8c42c)"><path fill="#211a1b" d="M 140.84375 154 C 140.84375 154 146.453125 156.507812 146.710938 145.203125 C 146.710938 145.203125 153.574219 139.554688 150.269531 128.25 C 150.269531 128.25 160.066406 124.65625 160.066406 116.433594 C 160.066406 116.433594 171.199219 117.71875 173.980469 108.472656 C 173.980469 108.472656 185.144531 113.609375 185.964844 102.820312 C 185.964844 102.820312 188.710938 113.351562 200.332031 110.527344 C 200.332031 110.527344 201.167969 119.261719 209.386719 117.71875 C 209.386719 117.71875 205.789062 127.222656 215.550781 127.222656 C 215.550781 127.222656 212.210938 134.175781 223.515625 135.066406 C 223.515625 135.066406 220.6875 142.894531 227.367188 143.921875 C 227.367188 143.921875 226.230469 157.972656 232.449219 152.875 C 238.667969 147.773438 235.347656 111.554688 235.347656 111.554688 C 235.347656 111.554688 236.136719 106.628906 235.347656 106.519531 C 234.558594 106.417969 207.039062 85.609375 207.039062 85.609375 C 207.039062 85.609375 177.507812 84.070312 177.003906 84.070312 C 176.507812 84.070312 155.1875 94.164062 155.1875 94.164062 L 143.351562 119.148438 L 135.421875 141.09375 L 140.84375 154 " fill-opacity="1" fill-rule="nonzero"/></g></g><g clip-path="url(#dfc91a17b5)"><g clip-path="url(#471b572519)"><path fill="#ea7b20" d="M 188.472656 67.070312 L 188.472656 67.027344 C 188.078125 67.027344 187.695312 67.042969 187.308594 67.046875 C 186.917969 67.042969 186.535156 67.027344 186.144531 67.027344 L 186.144531 67.070312 C 130.070312 68.957031 130.292969 138.683594 130.292969 138.683594 L 135.421875 141.09375 C 139.949219 94.546875 179.941406 88.679688 187.308594 87.992188 C 194.671875 88.679688 234.664062 94.546875 239.191406 141.09375 L 244.320312 138.683594 C 244.320312 138.683594 244.546875 68.957031 188.472656 67.070312 " fill-opacity="1" fill-rule="nonzero"/></g></g></svg>