<svg xmlns="http://www.w3.org/2000/svg" xmlns:xlink="http://www.w3.org/1999/xlink" width="40" zoomAndPan="magnify" viewBox="0 0 375 374.999991" height="40" preserveAspectRatio="xMidYMid meet" version="1.0"><defs><clipPath id="ab912f9f8e"><path d="M 2.578125 2.578125 L 372.328125 2.578125 L 372.328125 372.328125 L 2.578125 372.328125 Z M 2.578125 2.578125 " clip-rule="nonzero"/></clipPath><clipPath id="32159e7bb7"><path d="M 372.339844 187.453125 C 372.339844 289.566406 289.566406 372.339844 187.453125 372.339844 C 85.34375 372.339844 2.5625 289.566406 2.5625 187.453125 C 2.5625 85.339844 85.34375 2.5625 187.453125 2.5625 C 289.566406 2.5625 372.339844 85.339844 372.339844 187.453125 " clip-rule="nonzero"/></clipPath><clipPath id="15de276c6d"><path d="M 113.675781 42 L 264 42 L 264 190 L 113.675781 190 Z M 113.675781 42 " clip-rule="nonzero"/></clipPath><clipPath id="6a4a3a5603"><path d="M 372.339844 187.453125 C 372.339844 289.566406 289.566406 372.339844 187.453125 372.339844 C 85.34375 372.339844 2.5625 289.566406 2.5625 187.453125 C 2.5625 85.339844 85.34375 2.5625 187.453125 2.5625 C 289.566406 2.5625 372.339844 85.339844 372.339844 187.453125 " clip-rule="nonzero"/></clipPath><clipPath id="97221968d3"><path d="M 113.675781 42 L 264 42 L 264 126 L 113.675781 126 Z M 113.675781 42 " clip-rule="nonzero"/></clipPath><clipPath id="8c4cfe296e"><path d="M 372.339844 187.453125 C 372.339844 289.566406 289.566406 372.339844 187.453125 372.339844 C 85.34375 372.339844 2.5625 289.566406 2.5625 187.453125 C 2.5625 85.339844 85.34375 2.5625 187.453125 2.5625 C 289.566406 2.5625 372.339844 85.339844 372.339844 187.453125 " clip-rule="nonzero"/></clipPath><clipPath id="ac5143e83a"><path d="M 257 291.128906 L 284.675781 291.128906 L 284.675781 372.328125 L 257 372.328125 Z M 257 291.128906 " clip-rule="nonzero"/></clipPath><clipPath id="71fda724b3"><path d="M 372.339844 187.453125 C 372.339844 289.566406 289.566406 372.339844 187.453125 372.339844 C 85.34375 372.339844 2.5625 289.566406 2.5625 187.453125 C 2.5625 85.339844 85.34375 2.5625 187.453125 2.5625 C 289.566406 2.5625 372.339844 85.339844 372.339844 187.453125 " clip-rule="nonzero"/></clipPath><clipPath id="842eb5cb0d"><path d="M 246 246 L 284.675781 246 L 284.675781 372.328125 L 246 372.328125 Z M 246 246 " clip-rule="nonzero"/></clipPath><clipPath id="561a84c1ed"><path d="M 372.339844 187.453125 C 372.339844 289.566406 289.566406 372.339844 187.453125 372.339844 C 85.34375 372.339844 2.5625 289.566406 2.5625 187.453125 C 2.5625 85.339844 85.34375 2.5625 187.453125 2.5625 C 289.566406 2.5625 372.339844 85.339844 372.339844 187.453125 " clip-rule="nonzero"/></clipPath><clipPath id="2fced68037"><path d="M 248 269 L 268.542969 269 L 268.542969 363 L 248 363 Z M 248 269 " clip-rule="nonzero"/></clipPath><clipPath id="688de99a74"><path d="M 372.339844 187.453125 C 372.339844 289.566406 289.566406 372.339844 187.453125 372.339844 C 85.34375 372.339844 2.5625 289.566406 2.5625 187.453125 C 2.5625 85.339844 85.34375 2.5625 187.453125 2.5625 C 289.566406 2.5625 372.339844 85.339844 372.339844 187.453125 " clip-rule="nonzero"/></clipPath><clipPath id="4baf8bf693"><path d="M 90.015625 291.128906 L 117.976562 291.128906 L 117.976562 372.328125 L 90.015625 372.328125 Z M 90.015625 291.128906 " clip-rule="nonzero"/></clipPath><clipPath id="97b5248224"><path d="M 372.339844 187.453125 C 372.339844 289.566406 289.566406 372.339844 187.453125 372.339844 C 85.34375 372.339844 2.5625 289.566406 2.5625 187.453125 C 2.5625 85.339844 85.34375 2.5625 187.453125 2.5625 C 289.566406 2.5625 372.339844 85.339844 372.339844 187.453125 " clip-rule="nonzero"/></clipPath><clipPath id="160c23d6c1"><path d="M 90.015625 245 L 129 245 L 129 372.328125 L 90.015625 372.328125 Z M 90.015625 245 " clip-rule="nonzero"/></clipPath><clipPath id="b2448c5795"><path d="M 372.339844 187.453125 C 372.339844 289.566406 289.566406 372.339844 187.453125 372.339844 C 85.34375 372.339844 2.5625 289.566406 2.5625 187.453125 C 2.5625 85.339844 85.34375 2.5625 187.453125 2.5625 C 289.566406 2.5625 372.339844 85.339844 372.339844 187.453125 " clip-rule="nonzero"/></clipPath><clipPath id="61df599454"><path d="M 106.144531 268.542969 L 127 268.542969 L 127 363 L 106.144531 363 Z M 106.144531 268.542969 " clip-rule="nonzero"/></clipPath><clipPath id="8853a259ce"><path d="M 372.339844 187.453125 C 372.339844 289.566406 289.566406 372.339844 187.453125 372.339844 C 85.34375 372.339844 2.5625 289.566406 2.5625 187.453125 C 2.5625 85.339844 85.34375 2.5625 187.453125 2.5625 C 289.566406 2.5625 372.339844 85.339844 372.339844 187.453125 " clip-rule="nonzero"/></clipPath><clipPath id="13c914b3a3"><path d="M 114 228 L 261 228 L 261 372.328125 L 114 372.328125 Z M 114 228 " clip-rule="nonzero"/></clipPath><clipPath id="b24f86db43"><path d="M 372.339844 187.453125 C 372.339844 289.566406 289.566406 372.339844 187.453125 372.339844 C 85.34375 372.339844 2.5625 289.566406 2.5625 187.453125 C 2.5625 85.339844 85.34375 2.5625 187.453125 2.5625 C 289.566406 2.5625 372.339844 85.339844 372.339844 187.453125 " clip-rule="nonzero"/></clipPath><clipPath id="5e7e76f543"><path d="M 124.429688 346 L 160.996094 346 L 160.996094 370.714844 L 124.429688 370.714844 Z M 124.429688 346 " clip-rule="nonzero"/></clipPath><clipPath id="57dd937662"><path d="M 372.339844 187.453125 C 372.339844 289.566406 289.566406 372.339844 187.453125 372.339844 C 85.34375 372.339844 2.5625 289.566406 2.5625 187.453125 C 2.5625 85.339844 85.34375 2.5625 187.453125 2.5625 C 289.566406 2.5625 372.339844 85.339844 372.339844 187.453125 " clip-rule="nonzero"/></clipPath><clipPath id="a49deb4695"><path d="M 160 228 L 213.695312 228 L 213.695312 372.328125 L 160 372.328125 Z M 160 228 " clip-rule="nonzero"/></clipPath><clipPath id="49a6d2afca"><path d="M 372.339844 187.453125 C 372.339844 289.566406 289.566406 372.339844 187.453125 372.339844 C 85.34375 372.339844 2.5625 289.566406 2.5625 187.453125 C 2.5625 85.339844 85.34375 2.5625 187.453125 2.5625 C 289.566406 2.5625 372.339844 85.339844 372.339844 187.453125 " clip-rule="nonzero"/></clipPath><clipPath id="3cb76d552c"><path d="M 162.070312 196.488281 L 213.695312 196.488281 L 213.695312 243.808594 L 162.070312 243.808594 Z M 162.070312 196.488281 " clip-rule="nonzero"/></clipPath><clipPath id="f5c1d13f09"><path d="M 372.339844 187.453125 C 372.339844 289.566406 289.566406 372.339844 187.453125 372.339844 C 85.34375 372.339844 2.5625 289.566406 2.5625 187.453125 C 2.5625 85.339844 85.34375 2.5625 187.453125 2.5625 C 289.566406 2.5625 372.339844 85.339844 372.339844 187.453125 " clip-rule="nonzero"/></clipPath><clipPath id="422c6d3f2b"><path d="M 166.371094 196.488281 L 210.46875 196.488281 L 210.46875 222 L 166.371094 222 Z M 166.371094 196.488281 " clip-rule="nonzero"/></clipPath><clipPath id="249e81b35e"><path d="M 372.339844 187.453125 C 372.339844 289.566406 289.566406 372.339844 187.453125 372.339844 C 85.34375 372.339844 2.5625 289.566406 2.5625 187.453125 C 2.5625 85.339844 85.34375 2.5625 187.453125 2.5625 C 289.566406 2.5625 372.339844 85.339844 372.339844 187.453125 " clip-rule="nonzero"/></clipPath><clipPath id="1a3814f31b"><path d="M 231 131 L 251 131 L 251 163 L 231 163 Z M 231 131 " clip-rule="nonzero"/></clipPath><clipPath id="0e78a5f951"><path d="M 372.339844 187.453125 C 372.339844 289.566406 289.566406 372.339844 187.453125 372.339844 C 85.34375 372.339844 2.5625 289.566406 2.5625 187.453125 C 2.5625 85.339844 85.34375 2.5625 187.453125 2.5625 C 289.566406 2.5625 372.339844 85.339844 372.339844 187.453125 " clip-rule="nonzero"/></clipPath><clipPath id="c604510478"><path d="M 237.355469 137.335938 L 248 137.335938 L 248 158 L 237.355469 158 Z M 237.355469 137.335938 " clip-rule="nonzero"/></clipPath><clipPath id="f6bd5d5238"><path d="M 372.339844 187.453125 C 372.339844 289.566406 289.566406 372.339844 187.453125 372.339844 C 85.34375 372.339844 2.5625 289.566406 2.5625 187.453125 C 2.5625 85.339844 85.34375 2.5625 187.453125 2.5625 C 289.566406 2.5625 372.339844 85.339844 372.339844 187.453125 " clip-rule="nonzero"/></clipPath><clipPath id="2a544f083e"><path d="M 236.277344 137 L 248 137 L 248 158.84375 L 236.277344 158.84375 Z M 236.277344 137 " clip-rule="nonzero"/></clipPath><clipPath id="5aba7b12e9"><path d="M 372.339844 187.453125 C 372.339844 289.566406 289.566406 372.339844 187.453125 372.339844 C 85.34375 372.339844 2.5625 289.566406 2.5625 187.453125 C 2.5625 85.339844 85.34375 2.5625 187.453125 2.5625 C 289.566406 2.5625 372.339844 85.339844 372.339844 187.453125 " clip-rule="nonzero"/></clipPath><clipPath id="f5a8623255"><path d="M 238 139 L 245 139 L 245 148.089844 L 238 148.089844 Z M 238 139 " clip-rule="nonzero"/></clipPath><clipPath id="15dbc73e7e"><path d="M 372.339844 187.453125 C 372.339844 289.566406 289.566406 372.339844 187.453125 372.339844 C 85.34375 372.339844 2.5625 289.566406 2.5625 187.453125 C 2.5625 85.339844 85.34375 2.5625 187.453125 2.5625 C 289.566406 2.5625 372.339844 85.339844 372.339844 187.453125 " clip-rule="nonzero"/></clipPath><clipPath id="54e7a80203"><path d="M 124.429688 131 L 144.863281 131 L 144.863281 163 L 124.429688 163 Z M 124.429688 131 " clip-rule="nonzero"/></clipPath><clipPath id="358e078696"><path d="M 372.339844 187.453125 C 372.339844 289.566406 289.566406 372.339844 187.453125 372.339844 C 85.34375 372.339844 2.5625 289.566406 2.5625 187.453125 C 2.5625 85.339844 85.34375 2.5625 187.453125 2.5625 C 289.566406 2.5625 372.339844 85.339844 372.339844 187.453125 " clip-rule="nonzero"/></clipPath><clipPath id="5dd3d1a8b2"><path d="M 128 137.335938 L 138 137.335938 L 138 157.769531 L 128 157.769531 Z M 128 137.335938 " clip-rule="nonzero"/></clipPath><clipPath id="8ab042bffc"><path d="M 372.339844 187.453125 C 372.339844 289.566406 289.566406 372.339844 187.453125 372.339844 C 85.34375 372.339844 2.5625 289.566406 2.5625 187.453125 C 2.5625 85.339844 85.34375 2.5625 187.453125 2.5625 C 289.566406 2.5625 372.339844 85.339844 372.339844 187.453125 " clip-rule="nonzero"/></clipPath><clipPath id="a52e9d3ff3"><path d="M 128 137 L 139.484375 137 L 139.484375 158.84375 L 128 158.84375 Z M 128 137 " clip-rule="nonzero"/></clipPath><clipPath id="abb99a711d"><path d="M 372.339844 187.453125 C 372.339844 289.566406 289.566406 372.339844 187.453125 372.339844 C 85.34375 372.339844 2.5625 289.566406 2.5625 187.453125 C 2.5625 85.339844 85.34375 2.5625 187.453125 2.5625 C 289.566406 2.5625 372.339844 85.339844 372.339844 187.453125 " clip-rule="nonzero"/></clipPath><clipPath id="fa22ba1df5"><path d="M 130 139 L 138 139 L 138 148.089844 L 130 148.089844 Z M 130 139 " clip-rule="nonzero"/></clipPath><clipPath id="267d33fd6c"><path d="M 372.339844 187.453125 C 372.339844 289.566406 289.566406 372.339844 187.453125 372.339844 C 85.34375 372.339844 2.5625 289.566406 2.5625 187.453125 C 2.5625 85.339844 85.34375 2.5625 187.453125 2.5625 C 289.566406 2.5625 372.339844 85.339844 372.339844 187.453125 " clip-rule="nonzero"/></clipPath><clipPath id="ea3d17c647"><path d="M 137.335938 81.410156 L 238.429688 81.410156 L 238.429688 215 L 137.335938 215 Z M 137.335938 81.410156 " clip-rule="nonzero"/></clipPath><clipPath id="65037857b0"><path d="M 372.339844 187.453125 C 372.339844 289.566406 289.566406 372.339844 187.453125 372.339844 C 85.34375 372.339844 2.5625 289.566406 2.5625 187.453125 C 2.5625 85.339844 85.34375 2.5625 187.453125 2.5625 C 289.566406 2.5625 372.339844 85.339844 372.339844 187.453125 " clip-rule="nonzero"/></clipPath><clipPath id="4fe0fc5a0c"><path d="M 147.015625 82.484375 L 231.976562 82.484375 L 231.976562 114 L 147.015625 114 Z M 147.015625 82.484375 " clip-rule="nonzero"/></clipPath><clipPath id="39b2d6a18e"><path d="M 372.339844 187.453125 C 372.339844 289.566406 289.566406 372.339844 187.453125 372.339844 C 85.34375 372.339844 2.5625 289.566406 2.5625 187.453125 C 2.5625 85.339844 85.34375 2.5625 187.453125 2.5625 C 289.566406 2.5625 372.339844 85.339844 372.339844 187.453125 " clip-rule="nonzero"/></clipPath><clipPath id="e557122d0b"><path d="M 187 213 L 195 213 L 195 215 L 187 215 Z M 187 213 " clip-rule="nonzero"/></clipPath><clipPath id="8623e4e5a5"><path d="M 372.339844 187.453125 C 372.339844 289.566406 289.566406 372.339844 187.453125 372.339844 C 85.34375 372.339844 2.5625 289.566406 2.5625 187.453125 C 2.5625 85.339844 85.34375 2.5625 187.453125 2.5625 C 289.566406 2.5625 372.339844 85.339844 372.339844 187.453125 " clip-rule="nonzero"/></clipPath><clipPath id="9659da232e"><path d="M 137.335938 101 L 224 101 L 224 215 L 137.335938 215 Z M 137.335938 101 " clip-rule="nonzero"/></clipPath><clipPath id="f158bc47f6"><path d="M 372.339844 187.453125 C 372.339844 289.566406 289.566406 372.339844 187.453125 372.339844 C 85.34375 372.339844 2.5625 289.566406 2.5625 187.453125 C 2.5625 85.339844 85.34375 2.5625 187.453125 2.5625 C 289.566406 2.5625 372.339844 85.339844 372.339844 187.453125 " clip-rule="nonzero"/></clipPath><clipPath id="aeba0cff86"><path d="M 148.089844 93.242188 L 155 93.242188 L 155 102.917969 L 148.089844 102.917969 Z M 148.089844 93.242188 " clip-rule="nonzero"/></clipPath><clipPath id="4cdfd15c0e"><path d="M 372.339844 187.453125 C 372.339844 289.566406 289.566406 372.339844 187.453125 372.339844 C 85.34375 372.339844 2.5625 289.566406 2.5625 187.453125 C 2.5625 85.339844 85.34375 2.5625 187.453125 2.5625 C 289.566406 2.5625 372.339844 85.339844 372.339844 187.453125 " clip-rule="nonzero"/></clipPath><clipPath id="5fa56327ec"><path d="M 149.164062 120.128906 L 178 120.128906 L 178 128.730469 L 149.164062 128.730469 Z M 149.164062 120.128906 " clip-rule="nonzero"/></clipPath><clipPath id="6f86a8915b"><path d="M 372.339844 187.453125 C 372.339844 289.566406 289.566406 372.339844 187.453125 372.339844 C 85.34375 372.339844 2.5625 289.566406 2.5625 187.453125 C 2.5625 85.339844 85.34375 2.5625 187.453125 2.5625 C 289.566406 2.5625 372.339844 85.339844 372.339844 187.453125 " clip-rule="nonzero"/></clipPath><clipPath id="a11ff70abb"><path d="M 196 120.128906 L 224.449219 120.128906 L 224.449219 128.730469 L 196 128.730469 Z M 196 120.128906 " clip-rule="nonzero"/></clipPath><clipPath id="3f76fc4fa9"><path d="M 372.339844 187.453125 C 372.339844 289.566406 289.566406 372.339844 187.453125 372.339844 C 85.34375 372.339844 2.5625 289.566406 2.5625 187.453125 C 2.5625 85.339844 85.34375 2.5625 187.453125 2.5625 C 289.566406 2.5625 372.339844 85.339844 372.339844 187.453125 " clip-rule="nonzero"/></clipPath><clipPath id="468da521ee"><path d="M 178.203125 160 L 197 160 L 197 168.523438 L 178.203125 168.523438 Z M 178.203125 160 " clip-rule="nonzero"/></clipPath><clipPath id="7b568254b5"><path d="M 372.339844 187.453125 C 372.339844 289.566406 289.566406 372.339844 187.453125 372.339844 C 85.34375 372.339844 2.5625 289.566406 2.5625 187.453125 C 2.5625 85.339844 85.34375 2.5625 187.453125 2.5625 C 289.566406 2.5625 372.339844 85.339844 372.339844 187.453125 " clip-rule="nonzero"/></clipPath><clipPath id="47ea3601b2"><path d="M 167 176.050781 L 209 176.050781 L 209 190 L 167 190 Z M 167 176.050781 " clip-rule="nonzero"/></clipPath><clipPath id="a518bed3a8"><path d="M 372.339844 187.453125 C 372.339844 289.566406 289.566406 372.339844 187.453125 372.339844 C 85.34375 372.339844 2.5625 289.566406 2.5625 187.453125 C 2.5625 85.339844 85.34375 2.5625 187.453125 2.5625 C 289.566406 2.5625 372.339844 85.339844 372.339844 187.453125 " clip-rule="nonzero"/></clipPath><clipPath id="9bc1fffb7a"><path d="M 167 176.050781 L 209 176.050781 L 209 184 L 167 184 Z M 167 176.050781 " clip-rule="nonzero"/></clipPath><clipPath id="65faba063f"><path d="M 372.339844 187.453125 C 372.339844 289.566406 289.566406 372.339844 187.453125 372.339844 C 85.34375 372.339844 2.5625 289.566406 2.5625 187.453125 C 2.5625 85.339844 85.34375 2.5625 187.453125 2.5625 C 289.566406 2.5625 372.339844 85.339844 372.339844 187.453125 " clip-rule="nonzero"/></clipPath><clipPath id="b20bcde8e1"><path d="M 181.429688 194.335938 L 194 194.335938 L 194 198.636719 L 181.429688 198.636719 Z M 181.429688 194.335938 " clip-rule="nonzero"/></clipPath><clipPath id="b24ffeec06"><path d="M 372.339844 187.453125 C 372.339844 289.566406 289.566406 372.339844 187.453125 372.339844 C 85.34375 372.339844 2.5625 289.566406 2.5625 187.453125 C 2.5625 85.339844 85.34375 2.5625 187.453125 2.5625 C 289.566406 2.5625 372.339844 85.339844 372.339844 187.453125 " clip-rule="nonzero"/></clipPath><clipPath id="72d02fcc96"><path d="M 178.203125 163.144531 L 197 163.144531 L 197 171.75 L 178.203125 171.75 Z M 178.203125 163.144531 " clip-rule="nonzero"/></clipPath><clipPath id="60d3951d1e"><path d="M 372.339844 187.453125 C 372.339844 289.566406 289.566406 372.339844 187.453125 372.339844 C 85.34375 372.339844 2.5625 289.566406 2.5625 187.453125 C 2.5625 85.339844 85.34375 2.5625 187.453125 2.5625 C 289.566406 2.5625 372.339844 85.339844 372.339844 187.453125 " clip-rule="nonzero"/></clipPath><clipPath id="693e1cf8b4"><path d="M 167 176.050781 L 173 176.050781 L 173 183.582031 L 167 183.582031 Z M 167 176.050781 " clip-rule="nonzero"/></clipPath><clipPath id="7ea00e8c5c"><path d="M 372.339844 187.453125 C 372.339844 289.566406 289.566406 372.339844 187.453125 372.339844 C 85.34375 372.339844 2.5625 289.566406 2.5625 187.453125 C 2.5625 85.339844 85.34375 2.5625 187.453125 2.5625 C 289.566406 2.5625 372.339844 85.339844 372.339844 187.453125 " clip-rule="nonzero"/></clipPath><clipPath id="6fd1bdd58d"><path d="M 202 176.050781 L 209 176.050781 L 209 183.582031 L 202 183.582031 Z M 202 176.050781 " clip-rule="nonzero"/></clipPath><clipPath id="18ac9ec496"><path d="M 372.339844 187.453125 C 372.339844 289.566406 289.566406 372.339844 187.453125 372.339844 C 85.34375 372.339844 2.5625 289.566406 2.5625 187.453125 C 2.5625 85.339844 85.34375 2.5625 187.453125 2.5625 C 289.566406 2.5625 372.339844 85.339844 372.339844 187.453125 " clip-rule="nonzero"/></clipPath><clipPath id="6c6a552aa4"><path d="M 165.296875 140 L 174.976562 140 L 174.976562 156.695312 L 165.296875 156.695312 Z M 165.296875 140 " clip-rule="nonzero"/></clipPath><clipPath id="54d1cfc5ec"><path d="M 372.339844 187.453125 C 372.339844 289.566406 289.566406 372.339844 187.453125 372.339844 C 85.34375 372.339844 2.5625 289.566406 2.5625 187.453125 C 2.5625 85.339844 85.34375 2.5625 187.453125 2.5625 C 289.566406 2.5625 372.339844 85.339844 372.339844 187.453125 " clip-rule="nonzero"/></clipPath><clipPath id="2438862528"><path d="M 201 140 L 210 140 L 210 156.695312 L 201 156.695312 Z M 201 140 " clip-rule="nonzero"/></clipPath><clipPath id="06cbf9a5e2"><path d="M 372.339844 187.453125 C 372.339844 289.566406 289.566406 372.339844 187.453125 372.339844 C 85.34375 372.339844 2.5625 289.566406 2.5625 187.453125 C 2.5625 85.339844 85.34375 2.5625 187.453125 2.5625 C 289.566406 2.5625 372.339844 85.339844 372.339844 187.453125 " clip-rule="nonzero"/></clipPath><clipPath id="9aa99de09d"><path d="M 137.335938 77.109375 L 238.429688 77.109375 L 238.429688 136 L 137.335938 136 Z M 137.335938 77.109375 " clip-rule="nonzero"/></clipPath><clipPath id="4146e0beb8"><path d="M 372.339844 187.453125 C 372.339844 289.566406 289.566406 372.339844 187.453125 372.339844 C 85.34375 372.339844 2.5625 289.566406 2.5625 187.453125 C 2.5625 85.339844 85.34375 2.5625 187.453125 2.5625 C 289.566406 2.5625 372.339844 85.339844 372.339844 187.453125 " clip-rule="nonzero"/></clipPath></defs><g clip-path="url(#ab912f9f8e)"><g clip-path="url(#32159e7bb7)"><path fill="#82d7f6" d="M 372.339844 187.453125 C 372.339844 289.566406 289.566406 372.339844 187.453125 372.339844 C 85.34375 372.339844 2.5625 289.566406 2.5625 187.453125 C 2.5625 85.339844 85.34375 2.5625 187.453125 2.5625 C 289.566406 2.5625 372.339844 85.339844 372.339844 187.453125 " fill-opacity="1" fill-rule="nonzero"/></g></g><g clip-path="url(#15de276c6d)"><g clip-path="url(#6a4a3a5603)"><path fill="#211a1b" d="M 263.488281 122.492188 C 263.488281 159.371094 229.96875 189.265625 188.613281 189.265625 C 147.261719 189.265625 113.738281 159.371094 113.738281 122.492188 C 113.738281 85.621094 132.125 42.636719 189.570312 42.636719 C 250.867188 42.636719 263.488281 85.621094 263.488281 122.492188 " fill-opacity="1" fill-rule="nonzero"/></g></g><g clip-path="url(#97221968d3)"><g clip-path="url(#8c4cfe296e)"><path fill="#3e2e2c" d="M 189.570312 49.96875 C 248.257812 49.96875 262.324219 89.367188 263.414062 125.085938 C 263.453125 124.222656 263.488281 123.367188 263.488281 122.492188 C 263.488281 85.621094 250.867188 42.636719 189.570312 42.636719 C 132.125 42.636719 113.738281 85.621094 113.738281 122.492188 C 113.738281 123.515625 113.773438 124.535156 113.824219 125.542969 C 115.214844 89.703125 134.339844 49.96875 189.570312 49.96875 " fill-opacity="1" fill-rule="nonzero"/></g></g><g clip-path="url(#ac5143e83a)"><g clip-path="url(#71fda724b3)"><path fill="#98624b" d="M 278.28125 394.769531 C 281.132812 347.277344 284.25 291.964844 284.25 291.964844 L 257.617188 314.574219 C 258.125 323.070312 259.257812 360.164062 260.257812 394.769531 L 278.28125 394.769531 " fill-opacity="1" fill-rule="nonzero"/></g></g><g clip-path="url(#842eb5cb0d)"><g clip-path="url(#561a84c1ed)"><path fill="#ef2d56" d="M 281.636719 394.769531 C 283.84375 344.675781 286.160156 274.671875 282.289062 266.710938 C 276.195312 254.167969 258.574219 246.554688 258.574219 246.554688 C 240.976562 247.296875 245.679688 336.753906 250.597656 394.769531 L 281.636719 394.769531 " fill-opacity="1" fill-rule="nonzero"/></g></g><g clip-path="url(#2fced68037)"><g clip-path="url(#688de99a74)"><path fill="#cd2b4c" d="M 248.160156 362.144531 C 248.109375 361.378906 248.0625 360.613281 248.011719 359.847656 C 252.328125 327.609375 256.867188 292.082031 259.148438 269.320312 C 267.316406 281.824219 268.972656 317.351562 268.203125 353.820312 C 261.722656 356.972656 255.035156 359.753906 248.160156 362.144531 " fill-opacity="1" fill-rule="nonzero"/></g></g><g clip-path="url(#4baf8bf693)"><g clip-path="url(#97b5248224)"><path fill="#98624b" d="M 114.53125 394.769531 C 115.53125 360.164062 116.664062 323.070312 117.175781 314.574219 L 90.535156 291.964844 C 90.535156 291.964844 93.65625 347.277344 96.507812 394.769531 L 114.53125 394.769531 " fill-opacity="1" fill-rule="nonzero"/></g></g><g clip-path="url(#160c23d6c1)"><g clip-path="url(#b2448c5795)"><path fill="#ef2d56" d="M 124.222656 394.769531 C 129.164062 336.789062 134.035156 246.238281 116.328125 245.488281 C 116.328125 245.488281 98.710938 253.101562 92.613281 265.648438 C 88.71875 273.667969 91.09375 344.613281 93.3125 394.769531 L 124.222656 394.769531 " fill-opacity="1" fill-rule="nonzero"/></g></g><g clip-path="url(#61df599454)"><g clip-path="url(#8853a259ce)"><path fill="#cd2b4c" d="M 126.679688 362.117188 C 119.835938 359.742188 113.175781 356.96875 106.726562 353.835938 C 105.910156 317.460938 107.464844 281.804688 115.4375 268.757812 C 117.722656 291.722656 122.378906 328.070312 126.765625 360.828125 C 126.734375 361.257812 126.707031 361.691406 126.679688 362.117188 " fill-opacity="1" fill-rule="nonzero"/></g></g><g clip-path="url(#13c914b3a3)"><g clip-path="url(#b24f86db43)"><path fill="#ef2d56" d="M 243.269531 394.769531 C 250.523438 342.101562 262.222656 254.089844 260.472656 246.101562 C 260.472656 246.101562 217.050781 231.757812 209.523438 228.175781 L 187.324219 231.671875 L 165.125 228.175781 C 157.597656 231.757812 114.175781 246.101562 114.175781 246.101562 C 112.425781 254.089844 124.117188 342.101562 131.378906 394.769531 L 243.269531 394.769531 " fill-opacity="1" fill-rule="nonzero"/></g></g><g clip-path="url(#5e7e76f543)"><g clip-path="url(#57dd937662)"><path fill="#cd2b4c" d="M 160.113281 370.332031 C 148.683594 368.640625 137.601562 365.898438 126.949219 362.214844 C 126.273438 357.1875 125.59375 352.066406 124.914062 346.914062 C 124.917969 346.917969 136.941406 360.695312 160.113281 370.332031 " fill-opacity="1" fill-rule="nonzero"/></g></g><g clip-path="url(#a49deb4695)"><g clip-path="url(#49a6d2afca)"><path fill="#f6faca" d="M 175.878906 394.769531 L 205.511719 394.769531 C 205.84375 344.207031 207.359375 265.648438 213.324219 229.757812 C 211.675781 229.121094 210.371094 228.578125 209.523438 228.175781 L 187.324219 231.671875 L 165.125 228.175781 C 164.199219 228.613281 162.734375 229.21875 160.878906 229.933594 L 162.246094 229.699219 C 162.246094 229.699219 173.785156 314.726562 175.878906 394.769531 " fill-opacity="1" fill-rule="nonzero"/></g></g><g clip-path="url(#3cb76d552c)"><g clip-path="url(#f5c1d13f09)"><path fill="#875440" d="M 207.230469 196.628906 L 187.789062 202.277344 L 168.355469 196.628906 C 168.355469 196.628906 166.816406 223.515625 162.246094 229.699219 C 162.246094 229.699219 175.152344 242.605469 187.789062 243.144531 C 200.425781 242.605469 213.332031 229.699219 213.332031 229.699219 C 208.761719 223.515625 207.230469 196.628906 207.230469 196.628906 " fill-opacity="1" fill-rule="nonzero"/></g></g><g clip-path="url(#422c6d3f2b)"><g clip-path="url(#249e81b35e)"><path fill="#703f31" d="M 166.867188 211.972656 C 171.414062 215.421875 185.542969 224.0625 210.359375 221.503906 C 208.070312 211.339844 207.230469 196.628906 207.230469 196.628906 L 187.789062 202.277344 L 168.355469 196.628906 C 168.355469 196.628906 167.925781 204.039062 166.867188 211.972656 " fill-opacity="1" fill-rule="nonzero"/></g></g><g clip-path="url(#1a3814f31b)"><g clip-path="url(#0e78a5f951)"><path fill="#98624b" d="M 231.460938 146.234375 C 230.808594 154.972656 234.605469 162.382812 239.941406 162.78125 C 245.28125 163.175781 250.144531 156.417969 250.789062 147.675781 C 251.445312 138.9375 247.644531 131.527344 242.304688 131.125 C 236.96875 130.726562 232.113281 137.492188 231.460938 146.234375 " fill-opacity="1" fill-rule="nonzero"/></g></g><g clip-path="url(#c604510478)"><g clip-path="url(#f6bd5d5238)"><path fill="#814e3c" d="M 241.023438 157.894531 C 239.859375 157.894531 238.746094 156.761719 238.199219 153.066406 C 238.199219 153.066406 244.734375 151.246094 239.046875 148.703125 L 238.015625 148.308594 C 238.019531 147.4375 238.019531 146.582031 238.019531 145.734375 C 238.019531 144.015625 237.996094 142.265625 237.949219 140.496094 C 238.613281 138.765625 239.816406 137.429688 241.949219 137.429688 C 242.023438 137.429688 242.09375 137.429688 242.164062 137.4375 C 247.484375 137.652344 247.070312 144.058594 247.132812 144.058594 C 247.148438 144.058594 247.171875 143.863281 247.25 143.402344 C 247.25 143.402344 247.207031 145.871094 245.863281 146.183594 C 245.863281 146.183594 246.734375 141.121094 242.164062 140.042969 C 242.164062 140.042969 245.226562 141.792969 244.707031 149.253906 C 244.707031 149.253906 244.585938 145.691406 240.148438 144.648438 C 240.148438 144.648438 246.808594 150.261719 241.128906 153.957031 C 241.128906 153.957031 241.230469 156.015625 242.691406 156.015625 C 243.21875 156.015625 243.925781 155.746094 244.871094 155 C 244.871094 155 242.882812 157.894531 241.023438 157.894531 " fill-opacity="1" fill-rule="nonzero"/></g></g><g clip-path="url(#2a544f083e)"><g clip-path="url(#5aba7b12e9)"><path fill="#6f3728" d="M 247.265625 144.832031 C 247.28125 143.863281 247.144531 142.894531 246.859375 141.980469 C 246.722656 141.523438 246.53125 141.082031 246.292969 140.675781 C 246.066406 140.261719 245.792969 139.871094 245.46875 139.539062 C 245.316406 139.359375 245.148438 139.199219 244.960938 139.0625 C 244.78125 138.914062 244.609375 138.753906 244.402344 138.648438 C 244.015625 138.386719 243.589844 138.207031 243.15625 138.03125 C 242.710938 137.910156 242.257812 137.753906 241.808594 137.707031 C 241.335938 137.652344 240.9375 137.675781 240.519531 137.816406 C 239.710938 138.085938 239.09375 138.773438 238.6875 139.585938 C 238.265625 140.398438 238.019531 141.316406 237.84375 142.242188 C 237.664062 143.175781 237.574219 144.125 237.527344 145.078125 C 237.503906 145.554688 237.492188 146.035156 237.496094 146.515625 L 237.515625 147.96875 L 237.191406 147.539062 C 237.976562 147.777344 238.71875 148.066406 239.460938 148.421875 C 239.828125 148.597656 240.191406 148.796875 240.539062 149.035156 C 240.882812 149.277344 241.230469 149.550781 241.5 149.96875 C 241.640625 150.167969 241.726562 150.4375 241.757812 150.714844 C 241.761719 150.996094 241.691406 151.289062 241.550781 151.5 C 241.28125 151.9375 240.917969 152.199219 240.5625 152.4375 C 239.839844 152.875 239.082031 153.167969 238.316406 153.410156 L 238.558594 153.023438 C 238.679688 153.949219 238.894531 154.90625 239.257812 155.773438 C 239.441406 156.207031 239.667969 156.617188 239.96875 156.953125 C 240.117188 157.117188 240.277344 157.269531 240.46875 157.371094 C 240.648438 157.484375 240.859375 157.535156 241.0625 157.5625 C 241.277344 157.585938 241.496094 157.558594 241.714844 157.507812 C 241.929688 157.4375 242.144531 157.351562 242.351562 157.238281 C 242.761719 157.011719 243.148438 156.71875 243.503906 156.386719 C 244.214844 155.730469 244.84375 154.972656 245.449219 154.199219 C 244.929688 155.03125 244.367188 155.84375 243.679688 156.566406 C 243.339844 156.933594 242.964844 157.269531 242.535156 157.550781 C 242.320312 157.695312 242.085938 157.800781 241.835938 157.898438 C 241.585938 157.980469 241.316406 158.042969 241.035156 158.023438 C 240.757812 158.003906 240.472656 157.941406 240.230469 157.800781 C 239.980469 157.679688 239.769531 157.503906 239.578125 157.316406 C 239.210938 156.929688 238.941406 156.480469 238.71875 156.015625 C 238.277344 155.089844 238.015625 154.121094 237.84375 153.113281 L 237.792969 152.832031 L 238.085938 152.722656 C 238.804688 152.449219 239.523438 152.160156 240.144531 151.773438 C 240.433594 151.574219 240.714844 151.339844 240.855469 151.101562 C 240.933594 150.980469 240.933594 150.871094 240.945312 150.761719 C 240.921875 150.652344 240.898438 150.53125 240.808594 150.410156 C 240.464844 149.90625 239.757812 149.507812 239.089844 149.191406 C 238.40625 148.875 237.667969 148.605469 236.945312 148.394531 L 236.636719 148.308594 L 236.625 147.96875 C 236.605469 147.515625 236.585938 146.992188 236.597656 146.507812 C 236.601562 146.015625 236.621094 145.523438 236.652344 145.027344 C 236.710938 144.042969 236.824219 143.058594 237.023438 142.082031 C 237.230469 141.109375 237.5 140.132812 237.988281 139.21875 C 238.234375 138.765625 238.519531 138.316406 238.914062 137.949219 C 239.296875 137.574219 239.785156 137.285156 240.308594 137.132812 C 240.820312 136.96875 241.417969 136.976562 241.90625 137.0625 C 242.417969 137.140625 242.886719 137.328125 243.367188 137.484375 C 243.828125 137.695312 244.285156 137.90625 244.695312 138.214844 C 244.917969 138.34375 245.097656 138.523438 245.285156 138.691406 C 245.484375 138.855469 245.65625 139.035156 245.8125 139.238281 C 245.976562 139.429688 246.128906 139.632812 246.253906 139.851562 C 246.382812 140.066406 246.515625 140.28125 246.609375 140.511719 C 246.828125 140.960938 246.992188 141.433594 247.097656 141.914062 C 247.328125 142.871094 247.386719 143.867188 247.265625 144.832031 " fill-opacity="1" fill-rule="nonzero"/></g></g><g clip-path="url(#f5a8623255)"><g clip-path="url(#15dbc73e7e)"><path fill="#6f3728" d="M 244.855469 148.042969 C 244.855469 148.042969 244.878906 147.257812 244.722656 146.097656 C 244.644531 145.523438 244.511719 144.855469 244.292969 144.171875 C 244.191406 143.824219 244.066406 143.472656 243.902344 143.136719 C 243.769531 142.785156 243.550781 142.472656 243.363281 142.152344 C 243.140625 141.851562 242.917969 141.554688 242.65625 141.308594 C 242.378906 141.078125 242.128906 140.824219 241.816406 140.6875 C 241.667969 140.601562 241.527344 140.523438 241.382812 140.449219 C 241.230469 140.398438 241.082031 140.351562 240.929688 140.308594 C 240.78125 140.261719 240.644531 140.21875 240.503906 140.175781 C 240.363281 140.164062 240.21875 140.144531 240.082031 140.136719 C 239.8125 140.121094 239.574219 140.058594 239.351562 140.085938 C 239.128906 140.101562 238.933594 140.121094 238.773438 140.136719 C 238.460938 140.164062 238.273438 140.175781 238.273438 140.175781 L 238.148438 139.109375 C 238.148438 139.109375 238.359375 139.109375 238.722656 139.109375 C 238.90625 139.109375 239.128906 139.109375 239.382812 139.109375 C 239.632812 139.105469 239.925781 139.191406 240.230469 139.238281 C 240.386719 139.273438 240.550781 139.300781 240.714844 139.332031 C 240.875 139.394531 241.042969 139.460938 241.210938 139.527344 C 241.378906 139.597656 241.550781 139.671875 241.726562 139.742188 C 241.886719 139.851562 242.046875 139.957031 242.214844 140.070312 C 242.558594 140.265625 242.828125 140.578125 243.113281 140.867188 C 243.386719 141.171875 243.609375 141.523438 243.824219 141.871094 C 243.996094 142.238281 244.199219 142.59375 244.308594 142.972656 C 244.449219 143.34375 244.542969 143.714844 244.625 144.082031 C 244.789062 144.808594 244.863281 145.496094 244.890625 146.085938 C 244.945312 147.261719 244.855469 148.042969 244.855469 148.042969 " fill-opacity="1" fill-rule="nonzero"/></g></g><g clip-path="url(#54e7a80203)"><g clip-path="url(#358e078696)"><path fill="#98624b" d="M 144.316406 146.234375 C 144.972656 154.972656 141.171875 162.382812 135.835938 162.78125 C 130.496094 163.175781 125.640625 156.417969 124.988281 147.675781 C 124.332031 138.9375 128.132812 131.527344 133.46875 131.125 C 138.808594 130.726562 143.671875 137.492188 144.316406 146.234375 " fill-opacity="1" fill-rule="nonzero"/></g></g><g clip-path="url(#5dd3d1a8b2)"><g clip-path="url(#8ab042bffc)"><path fill="#814e3c" d="M 134.570312 157.570312 C 134.402344 157.570312 134.234375 157.546875 134.066406 157.507812 C 133.847656 157.4375 133.632812 157.351562 133.429688 157.238281 C 133.015625 157.011719 132.628906 156.71875 132.277344 156.386719 C 131.859375 156.003906 131.472656 155.585938 131.105469 155.152344 C 131.953125 155.78125 132.601562 156.015625 133.09375 156.015625 C 134.546875 156.015625 134.65625 153.957031 134.65625 153.957031 C 128.96875 150.261719 135.628906 144.648438 135.628906 144.648438 C 131.191406 145.691406 131.074219 149.253906 131.074219 149.253906 C 130.984375 147.960938 131 146.84375 131.089844 145.867188 C 131.167969 145.347656 131.289062 144.761719 131.484375 144.164062 C 131.59375 143.824219 131.710938 143.472656 131.878906 143.136719 C 132.011719 142.785156 132.230469 142.472656 132.414062 142.152344 C 132.636719 141.851562 132.863281 141.554688 133.125 141.308594 C 133.402344 141.078125 133.652344 140.824219 133.960938 140.6875 C 134.113281 140.601562 134.253906 140.523438 134.394531 140.449219 C 134.550781 140.398438 134.699219 140.351562 134.847656 140.308594 C 134.996094 140.261719 135.136719 140.21875 135.277344 140.175781 C 135.417969 140.164062 135.5625 140.144531 135.695312 140.136719 C 135.921875 140.125 136.125 140.078125 136.316406 140.078125 C 136.355469 140.078125 136.394531 140.082031 136.425781 140.085938 C 136.648438 140.101562 136.847656 140.121094 137.003906 140.136719 C 137.15625 140.144531 137.273438 140.152344 137.355469 140.164062 C 137.457031 140.410156 137.546875 140.667969 137.621094 140.925781 C 137.582031 142.550781 137.566406 144.15625 137.566406 145.734375 C 137.566406 146.21875 137.566406 146.707031 137.566406 147.199219 C 137.566406 147.429688 137.566406 147.65625 137.566406 147.886719 C 137.144531 148.042969 136.730469 148.21875 136.324219 148.421875 C 135.953125 148.597656 135.589844 148.796875 135.242188 149.035156 C 134.894531 149.277344 134.546875 149.550781 134.277344 149.96875 C 134.136719 150.167969 134.050781 150.4375 134.023438 150.714844 C 134.019531 150.996094 134.085938 151.289062 134.226562 151.5 C 134.496094 151.9375 134.859375 152.199219 135.214844 152.4375 C 135.847656 152.820312 136.507812 153.09375 137.179688 153.316406 C 137.054688 154.152344 136.84375 155 136.519531 155.773438 C 136.335938 156.207031 136.109375 156.617188 135.8125 156.953125 C 135.664062 157.117188 135.5 157.269531 135.308594 157.371094 C 135.128906 157.484375 134.921875 157.535156 134.714844 157.5625 C 134.667969 157.566406 134.617188 157.570312 134.570312 157.570312 M 129.914062 146.183594 C 128.902344 145.945312 128.628906 144.484375 128.558594 143.78125 C 128.5625 143.738281 128.566406 143.691406 128.570312 143.648438 C 128.617188 143.933594 128.632812 144.058594 128.644531 144.058594 C 128.664062 144.058594 128.640625 143.464844 128.742188 142.636719 C 128.792969 142.414062 128.851562 142.195312 128.921875 141.980469 C 129.058594 141.523438 129.246094 141.082031 129.484375 140.675781 C 129.710938 140.261719 129.988281 139.871094 130.316406 139.539062 C 130.460938 139.359375 130.628906 139.199219 130.816406 139.058594 C 130.996094 138.914062 131.167969 138.753906 131.378906 138.648438 C 131.761719 138.386719 132.191406 138.207031 132.621094 138.03125 C 133.066406 137.910156 133.519531 137.753906 133.972656 137.707031 C 134.128906 137.6875 134.273438 137.679688 134.414062 137.679688 C 134.710938 137.679688 134.976562 137.722656 135.257812 137.816406 C 135.902344 138.03125 136.421875 138.511719 136.816406 139.109375 C 136.6875 139.109375 136.550781 139.109375 136.398438 139.109375 C 136.394531 139.109375 136.390625 139.109375 136.386719 139.109375 C 136.132812 139.109375 135.851562 139.191406 135.546875 139.238281 C 135.390625 139.273438 135.230469 139.300781 135.066406 139.332031 C 134.902344 139.394531 134.738281 139.460938 134.570312 139.527344 C 134.398438 139.597656 134.226562 139.671875 134.054688 139.742188 C 133.902344 139.84375 133.75 139.945312 133.601562 140.050781 C 129.042969 141.128906 129.914062 146.183594 129.914062 146.183594 M 130.21875 138.945312 C 130.535156 138.585938 130.914062 138.269531 131.375 138.015625 C 131.273438 138.078125 131.175781 138.144531 131.082031 138.214844 C 130.859375 138.34375 130.679688 138.519531 130.496094 138.691406 C 130.398438 138.773438 130.304688 138.855469 130.21875 138.945312 " fill-opacity="1" fill-rule="nonzero"/></g></g><g clip-path="url(#a52e9d3ff3)"><g clip-path="url(#abb99a711d)"><path fill="#6f3728" d="M 128.515625 144.832031 C 128.394531 143.867188 128.449219 142.871094 128.679688 141.914062 C 128.789062 141.429688 128.949219 140.960938 129.167969 140.511719 C 129.261719 140.28125 129.394531 140.066406 129.523438 139.851562 C 129.652344 139.632812 129.800781 139.429688 129.964844 139.238281 C 130.121094 139.035156 130.292969 138.855469 130.496094 138.691406 C 130.679688 138.519531 130.859375 138.34375 131.082031 138.214844 C 131.492188 137.90625 131.949219 137.695312 132.414062 137.484375 C 132.894531 137.328125 133.359375 137.140625 133.875 137.0625 C 134.359375 136.976562 134.960938 136.96875 135.46875 137.132812 C 135.996094 137.285156 136.480469 137.574219 136.863281 137.949219 C 137.257812 138.316406 137.546875 138.765625 137.792969 139.21875 C 138.28125 140.132812 138.554688 141.109375 138.753906 142.082031 C 138.957031 143.058594 139.066406 144.042969 139.128906 145.027344 C 139.160156 145.523438 139.179688 146.015625 139.183594 146.507812 C 139.191406 146.992188 139.175781 147.515625 139.152344 147.96875 L 139.140625 148.308594 L 138.832031 148.394531 C 138.113281 148.605469 137.371094 148.871094 136.6875 149.191406 C 136.019531 149.507812 135.3125 149.90625 134.972656 150.410156 C 134.882812 150.53125 134.855469 150.652344 134.835938 150.761719 C 134.84375 150.871094 134.84375 150.980469 134.929688 151.101562 C 135.0625 151.339844 135.34375 151.574219 135.636719 151.773438 C 136.253906 152.160156 136.972656 152.449219 137.695312 152.722656 L 137.984375 152.832031 L 137.941406 153.113281 C 137.761719 154.121094 137.5 155.089844 137.0625 156.015625 C 136.839844 156.480469 136.570312 156.929688 136.199219 157.316406 C 136.007812 157.503906 135.796875 157.679688 135.550781 157.800781 C 135.304688 157.941406 135.023438 158.003906 134.746094 158.023438 C 134.464844 158.042969 134.195312 157.980469 133.945312 157.898438 C 133.691406 157.800781 133.457031 157.695312 133.242188 157.550781 C 132.820312 157.269531 132.4375 156.933594 132.101562 156.566406 C 131.414062 155.84375 130.851562 155.03125 130.328125 154.199219 C 130.9375 154.972656 131.566406 155.726562 132.277344 156.386719 C 132.628906 156.71875 133.015625 157.011719 133.429688 157.238281 C 133.632812 157.351562 133.847656 157.4375 134.066406 157.507812 C 134.285156 157.558594 134.503906 157.585938 134.714844 157.5625 C 134.921875 157.535156 135.128906 157.484375 135.308594 157.371094 C 135.5 157.269531 135.664062 157.117188 135.8125 156.953125 C 136.109375 156.617188 136.335938 156.207031 136.519531 155.773438 C 136.882812 154.90625 137.101562 153.949219 137.21875 153.023438 L 137.460938 153.410156 C 136.695312 153.167969 135.941406 152.875 135.214844 152.4375 C 134.859375 152.199219 134.496094 151.9375 134.226562 151.5 C 134.085938 151.289062 134.019531 150.996094 134.023438 150.714844 C 134.050781 150.4375 134.136719 150.167969 134.277344 149.96875 C 134.546875 149.550781 134.894531 149.277344 135.242188 149.035156 C 135.589844 148.796875 135.953125 148.597656 136.324219 148.421875 C 137.058594 148.066406 137.804688 147.777344 138.585938 147.539062 L 138.261719 147.96875 L 138.285156 146.515625 C 138.289062 146.035156 138.277344 145.554688 138.253906 145.078125 C 138.207031 144.125 138.113281 143.175781 137.941406 142.242188 C 137.757812 141.316406 137.511719 140.398438 137.089844 139.585938 C 136.683594 138.777344 136.066406 138.085938 135.257812 137.816406 C 134.84375 137.675781 134.441406 137.652344 133.972656 137.707031 C 133.519531 137.753906 133.066406 137.910156 132.621094 138.03125 C 132.191406 138.207031 131.761719 138.386719 131.378906 138.648438 C 131.167969 138.753906 130.996094 138.914062 130.816406 139.058594 C 130.628906 139.199219 130.460938 139.359375 130.316406 139.539062 C 129.988281 139.871094 129.710938 140.261719 129.484375 140.675781 C 129.246094 141.082031 129.058594 141.523438 128.921875 141.980469 C 128.632812 142.894531 128.496094 143.863281 128.515625 144.832031 " fill-opacity="1" fill-rule="nonzero"/></g></g><g clip-path="url(#fa22ba1df5)"><g clip-path="url(#267d33fd6c)"><path fill="#6f3728" d="M 130.925781 148.042969 C 130.925781 148.042969 130.832031 147.261719 130.890625 146.085938 C 130.914062 145.496094 130.992188 144.808594 131.15625 144.082031 C 131.234375 143.714844 131.328125 143.34375 131.46875 142.972656 C 131.578125 142.59375 131.78125 142.238281 131.957031 141.871094 C 132.167969 141.523438 132.390625 141.171875 132.664062 140.867188 C 132.953125 140.578125 133.21875 140.265625 133.566406 140.070312 C 133.730469 139.957031 133.894531 139.851562 134.054688 139.742188 C 134.226562 139.671875 134.398438 139.597656 134.570312 139.527344 C 134.738281 139.460938 134.902344 139.394531 135.066406 139.332031 C 135.230469 139.300781 135.390625 139.273438 135.546875 139.238281 C 135.855469 139.191406 136.144531 139.105469 136.398438 139.109375 C 136.648438 139.109375 136.871094 139.109375 137.054688 139.109375 C 137.417969 139.109375 137.628906 139.109375 137.628906 139.109375 L 137.503906 140.175781 C 137.503906 140.175781 137.324219 140.164062 137.003906 140.136719 C 136.847656 140.121094 136.648438 140.101562 136.425781 140.085938 C 136.203125 140.0625 135.96875 140.121094 135.695312 140.136719 C 135.5625 140.144531 135.417969 140.164062 135.277344 140.175781 C 135.136719 140.21875 134.996094 140.261719 134.847656 140.308594 C 134.699219 140.351562 134.550781 140.398438 134.394531 140.449219 C 134.253906 140.523438 134.113281 140.601562 133.960938 140.6875 C 133.652344 140.824219 133.402344 141.078125 133.125 141.308594 C 132.863281 141.554688 132.636719 141.851562 132.414062 142.152344 C 132.230469 142.472656 132.011719 142.785156 131.878906 143.136719 C 131.710938 143.472656 131.59375 143.824219 131.484375 144.164062 C 131.261719 144.855469 131.132812 145.523438 131.054688 146.097656 C 130.898438 147.257812 130.925781 148.042969 130.925781 148.042969 " fill-opacity="1" fill-rule="nonzero"/></g></g><g clip-path="url(#ea3d17c647)"><g clip-path="url(#65037857b0)"><path fill="#98624b" d="M 238.019531 145.734375 C 238.019531 154.289062 238.011719 164.160156 234.839844 173.710938 C 227.726562 195.128906 201.578125 214.972656 187.789062 214.972656 C 173.804688 214.972656 147.414062 194.550781 140.441406 172.78125 C 137.472656 163.519531 137.566406 154.011719 137.566406 145.734375 C 137.566406 117.996094 142.691406 81.691406 187.789062 81.691406 C 232.894531 81.691406 238.019531 117.996094 238.019531 145.734375 " fill-opacity="1" fill-rule="nonzero"/></g></g><g clip-path="url(#4fe0fc5a0c)"><g clip-path="url(#39b2d6a18e)"><path fill="#814e3c" d="M 186.289062 113.714844 C 171.734375 113.714844 158.929688 108.097656 149.53125 102.320312 C 151.058594 99.089844 152.84375 96.121094 154.914062 93.558594 C 152.445312 95.867188 150.285156 98.597656 148.40625 101.617188 C 148.003906 101.363281 147.609375 101.113281 147.222656 100.859375 C 152.917969 91.933594 161.855469 85.121094 175.800781 82.679688 C 175.976562 82.644531 176.132812 82.617188 176.308594 82.585938 L 176.316406 82.585938 C 191.238281 84.863281 205.769531 87.089844 216.15625 88.707031 L 216.160156 88.710938 C 220.828125 91.617188 224.519531 95.296875 227.4375 99.5 L 227.519531 99.621094 C 228.058594 100.398438 228.558594 101.191406 229.039062 102 L 229.210938 102.285156 C 229.671875 103.066406 230.109375 103.859375 230.519531 104.667969 L 230.664062 104.949219 C 231.101562 105.832031 231.523438 106.726562 231.917969 107.636719 L 231.917969 107.640625 C 229.820312 107.144531 227.464844 106.953125 225.070312 106.953125 C 216.960938 106.953125 208.457031 109.152344 208.457031 109.152344 C 200.78125 112.402344 193.332031 113.714844 186.289062 113.714844 " fill-opacity="1" fill-rule="nonzero"/></g></g><g clip-path="url(#e557122d0b)"><g clip-path="url(#8623e4e5a5)"><path fill="#764434" d="M 187.816406 214.972656 C 187.820312 214.972656 187.820312 214.972656 187.824219 214.972656 C 187.824219 214.972656 187.820312 214.972656 187.816406 214.972656 M 187.84375 214.972656 C 187.84375 214.972656 187.847656 214.972656 187.847656 214.972656 C 187.847656 214.972656 187.84375 214.972656 187.84375 214.972656 M 187.875 214.972656 C 187.875 214.972656 187.878906 214.972656 187.878906 214.972656 C 187.878906 214.972656 187.878906 214.972656 187.875 214.972656 M 187.898438 214.972656 C 187.902344 214.972656 187.902344 214.972656 187.90625 214.972656 C 187.902344 214.972656 187.902344 214.972656 187.898438 214.972656 M 187.929688 214.972656 C 187.929688 214.972656 187.933594 214.972656 187.933594 214.972656 C 187.933594 214.972656 187.929688 214.972656 187.929688 214.972656 M 187.957031 214.972656 C 187.960938 214.972656 187.960938 214.972656 187.960938 214.972656 C 187.960938 214.972656 187.957031 214.972656 187.957031 214.972656 M 187.984375 214.972656 C 187.988281 214.972656 187.988281 214.972656 187.992188 214.972656 C 187.988281 214.972656 187.988281 214.972656 187.984375 214.972656 M 188.011719 214.972656 C 188.015625 214.972656 188.019531 214.972656 188.019531 214.972656 C 188.015625 214.972656 188.015625 214.972656 188.011719 214.972656 M 188.042969 214.972656 C 188.042969 214.972656 188.046875 214.972656 188.050781 214.972656 C 188.046875 214.972656 188.042969 214.972656 188.042969 214.972656 M 188.066406 214.972656 C 188.066406 214.972656 188.070312 214.972656 188.074219 214.972656 C 188.070312 214.972656 188.066406 214.972656 188.066406 214.972656 M 188.097656 214.972656 C 188.101562 214.972656 188.105469 214.972656 188.105469 214.972656 C 188.101562 214.972656 188.101562 214.972656 188.097656 214.972656 M 188.125 214.972656 C 188.125 214.972656 188.128906 214.972656 188.132812 214.972656 C 188.128906 214.972656 188.125 214.972656 188.125 214.972656 M 188.15625 214.96875 C 188.15625 214.96875 188.15625 214.96875 188.160156 214.96875 C 188.15625 214.96875 188.15625 214.96875 188.15625 214.96875 M 188.179688 214.96875 C 188.183594 214.96875 188.1875 214.96875 188.195312 214.96875 C 188.1875 214.96875 188.183594 214.96875 188.179688 214.96875 M 188.207031 214.96875 C 188.210938 214.96875 188.214844 214.96875 188.21875 214.96875 C 188.214844 214.96875 188.210938 214.96875 188.207031 214.96875 M 188.238281 214.96875 C 188.242188 214.96875 188.246094 214.96875 188.253906 214.96875 C 188.246094 214.96875 188.242188 214.96875 188.238281 214.96875 M 188.265625 214.96875 C 188.269531 214.96875 188.273438 214.96875 188.277344 214.96875 C 188.273438 214.96875 188.269531 214.96875 188.265625 214.96875 M 188.292969 214.96875 C 188.292969 214.960938 188.296875 214.960938 188.300781 214.960938 C 188.296875 214.960938 188.292969 214.960938 188.292969 214.96875 M 188.324219 214.960938 C 188.328125 214.960938 188.332031 214.960938 188.335938 214.960938 C 188.332031 214.960938 188.328125 214.960938 188.324219 214.960938 M 188.347656 214.960938 C 188.351562 214.960938 188.355469 214.960938 188.363281 214.960938 C 188.355469 214.960938 188.351562 214.960938 188.347656 214.960938 M 188.378906 214.960938 C 188.382812 214.960938 188.386719 214.960938 188.390625 214.960938 C 188.386719 214.960938 188.382812 214.960938 188.378906 214.960938 M 188.40625 214.957031 C 188.410156 214.957031 188.417969 214.957031 188.421875 214.957031 C 188.417969 214.957031 188.410156 214.957031 188.40625 214.957031 M 188.4375 214.957031 C 188.4375 214.957031 188.441406 214.957031 188.445312 214.957031 C 188.441406 214.957031 188.4375 214.957031 188.4375 214.957031 M 188.464844 214.957031 C 188.46875 214.957031 188.476562 214.957031 188.480469 214.957031 C 188.476562 214.957031 188.46875 214.957031 188.464844 214.957031 M 188.492188 214.957031 C 188.496094 214.957031 188.5 214.957031 188.503906 214.953125 C 188.5 214.957031 188.496094 214.957031 188.492188 214.957031 M 188.515625 214.953125 C 188.523438 214.953125 188.535156 214.953125 188.542969 214.953125 C 188.535156 214.953125 188.523438 214.953125 188.515625 214.953125 M 188.550781 214.953125 C 188.558594 214.953125 188.5625 214.953125 188.566406 214.953125 C 188.5625 214.953125 188.558594 214.953125 188.550781 214.953125 M 188.574219 214.953125 C 188.578125 214.953125 188.585938 214.953125 188.59375 214.953125 C 188.589844 214.953125 188.578125 214.953125 188.574219 214.953125 M 188.597656 214.949219 C 188.609375 214.949219 188.621094 214.949219 188.628906 214.949219 C 188.621094 214.949219 188.609375 214.949219 188.597656 214.949219 M 188.632812 214.949219 C 188.644531 214.949219 188.648438 214.949219 188.652344 214.945312 C 188.648438 214.949219 188.640625 214.949219 188.632812 214.949219 M 188.660156 214.945312 C 188.675781 214.945312 188.699219 214.945312 188.714844 214.945312 C 188.699219 214.945312 188.675781 214.945312 188.660156 214.945312 M 188.71875 214.945312 C 188.726562 214.941406 188.730469 214.941406 188.738281 214.941406 C 188.730469 214.941406 188.726562 214.941406 188.71875 214.945312 M 188.742188 214.941406 C 188.757812 214.941406 188.769531 214.941406 188.78125 214.941406 C 188.769531 214.941406 188.757812 214.941406 188.742188 214.941406 M 188.78125 214.941406 C 188.789062 214.941406 188.792969 214.9375 188.796875 214.9375 C 188.792969 214.9375 188.789062 214.941406 188.78125 214.941406 M 188.800781 214.9375 C 188.824219 214.9375 188.84375 214.9375 188.867188 214.933594 C 188.84375 214.9375 188.824219 214.9375 188.800781 214.9375 M 188.867188 214.933594 C 188.875 214.933594 188.878906 214.933594 188.886719 214.933594 C 188.878906 214.933594 188.875 214.933594 188.867188 214.933594 M 188.886719 214.933594 C 188.90625 214.933594 188.929688 214.929688 188.949219 214.929688 C 188.929688 214.929688 188.90625 214.933594 188.886719 214.933594 M 188.949219 214.929688 C 188.980469 214.925781 189.007812 214.925781 189.035156 214.921875 C 189.007812 214.925781 188.980469 214.925781 188.949219 214.929688 M 189.035156 214.921875 C 190.78125 214.785156 192.691406 214.367188 194.71875 213.699219 C 192.695312 214.367188 190.78125 214.785156 189.035156 214.921875 M 194.71875 213.699219 C 194.742188 213.691406 194.765625 213.679688 194.789062 213.671875 C 194.765625 213.679688 194.742188 213.691406 194.71875 213.699219 M 194.796875 213.671875 C 194.800781 213.667969 194.804688 213.667969 194.8125 213.664062 C 194.804688 213.667969 194.800781 213.667969 194.796875 213.671875 M 194.832031 213.660156 C 194.835938 213.660156 194.839844 213.65625 194.84375 213.65625 C 194.839844 213.65625 194.835938 213.660156 194.832031 213.660156 M 194.867188 213.648438 C 194.875 213.644531 194.878906 213.644531 194.882812 213.644531 C 194.878906 213.644531 194.875 213.644531 194.867188 213.648438 M 194.902344 213.636719 C 194.902344 213.636719 194.90625 213.636719 194.910156 213.632812 C 194.90625 213.636719 194.902344 213.636719 194.902344 213.636719 M 194.972656 213.613281 C 194.972656 213.609375 194.976562 213.609375 194.976562 213.609375 C 194.976562 213.609375 194.972656 213.609375 194.972656 213.613281 " fill-opacity="1" fill-rule="nonzero"/></g></g><g clip-path="url(#9659da232e)"><g clip-path="url(#f158bc47f6)"><path fill="#814e3c" d="M 187.789062 214.972656 C 173.804688 214.972656 147.414062 194.550781 140.441406 172.78125 C 138.464844 166.617188 137.847656 160.347656 137.652344 154.402344 C 137.632812 153.828125 137.621094 153.257812 137.609375 152.691406 C 137.582031 151.378906 137.570312 150.089844 137.566406 148.820312 C 137.566406 148.511719 137.566406 148.195312 137.566406 147.886719 C 137.566406 147.65625 137.566406 147.429688 137.566406 147.199219 C 137.566406 146.707031 137.566406 146.21875 137.566406 145.734375 C 137.566406 131.828125 140.582031 114.183594 148.40625 101.617188 C 148.773438 101.851562 149.148438 102.085938 149.53125 102.320312 C 143.960938 114.0625 141.734375 129.285156 141.734375 141.210938 C 141.734375 149.492188 141.640625 159 144.605469 168.257812 C 151.582031 190.027344 177.972656 210.449219 191.957031 210.449219 C 200.316406 210.449219 213.21875 203.148438 223.667969 192.628906 C 215.164062 202.628906 203.996094 210.550781 194.976562 213.609375 C 194.976562 213.609375 194.972656 213.609375 194.972656 213.613281 C 194.953125 213.617188 194.933594 213.625 194.910156 213.632812 C 194.90625 213.636719 194.902344 213.636719 194.902344 213.636719 C 194.894531 213.640625 194.886719 213.640625 194.882812 213.644531 C 194.878906 213.644531 194.875 213.644531 194.867188 213.648438 C 194.859375 213.652344 194.851562 213.652344 194.84375 213.65625 C 194.839844 213.65625 194.835938 213.660156 194.832031 213.660156 C 194.824219 213.660156 194.820312 213.664062 194.8125 213.664062 C 194.804688 213.667969 194.800781 213.667969 194.796875 213.671875 C 194.792969 213.671875 194.792969 213.671875 194.789062 213.671875 C 194.765625 213.679688 194.742188 213.691406 194.71875 213.699219 C 192.691406 214.367188 190.78125 214.785156 189.035156 214.921875 C 189.007812 214.925781 188.980469 214.925781 188.949219 214.929688 C 188.929688 214.929688 188.90625 214.933594 188.886719 214.933594 C 188.878906 214.933594 188.875 214.933594 188.867188 214.933594 C 188.84375 214.9375 188.824219 214.9375 188.800781 214.9375 C 188.800781 214.9375 188.800781 214.9375 188.796875 214.9375 C 188.792969 214.9375 188.789062 214.941406 188.78125 214.941406 C 188.769531 214.941406 188.757812 214.941406 188.742188 214.941406 C 188.738281 214.941406 188.738281 214.941406 188.738281 214.941406 C 188.730469 214.941406 188.726562 214.941406 188.71875 214.945312 C 188.71875 214.945312 188.71875 214.945312 188.714844 214.945312 C 188.699219 214.945312 188.675781 214.945312 188.660156 214.945312 C 188.65625 214.945312 188.65625 214.945312 188.652344 214.945312 C 188.648438 214.949219 188.644531 214.949219 188.632812 214.949219 C 188.632812 214.949219 188.628906 214.949219 188.628906 214.949219 C 188.621094 214.949219 188.609375 214.949219 188.597656 214.949219 C 188.597656 214.949219 188.59375 214.949219 188.59375 214.953125 C 188.585938 214.953125 188.578125 214.953125 188.574219 214.953125 C 188.570312 214.953125 188.570312 214.953125 188.566406 214.953125 C 188.5625 214.953125 188.558594 214.953125 188.550781 214.953125 C 188.546875 214.953125 188.546875 214.953125 188.542969 214.953125 C 188.535156 214.953125 188.523438 214.953125 188.515625 214.953125 C 188.511719 214.953125 188.507812 214.953125 188.503906 214.953125 C 188.5 214.957031 188.496094 214.957031 188.492188 214.957031 C 188.488281 214.957031 188.484375 214.957031 188.480469 214.957031 C 188.476562 214.957031 188.46875 214.957031 188.464844 214.957031 C 188.457031 214.957031 188.453125 214.957031 188.445312 214.957031 C 188.441406 214.957031 188.4375 214.957031 188.4375 214.957031 C 188.429688 214.957031 188.425781 214.957031 188.421875 214.957031 C 188.417969 214.957031 188.410156 214.957031 188.40625 214.957031 C 188.402344 214.960938 188.398438 214.960938 188.390625 214.960938 C 188.386719 214.960938 188.382812 214.960938 188.378906 214.960938 C 188.371094 214.960938 188.367188 214.960938 188.363281 214.960938 C 188.355469 214.960938 188.351562 214.960938 188.347656 214.960938 C 188.34375 214.960938 188.339844 214.960938 188.335938 214.960938 C 188.332031 214.960938 188.328125 214.960938 188.324219 214.960938 C 188.316406 214.960938 188.3125 214.960938 188.300781 214.960938 C 188.296875 214.960938 188.292969 214.960938 188.292969 214.96875 C 188.285156 214.96875 188.28125 214.96875 188.277344 214.96875 C 188.273438 214.96875 188.269531 214.96875 188.265625 214.96875 C 188.261719 214.96875 188.257812 214.96875 188.253906 214.96875 C 188.246094 214.96875 188.242188 214.96875 188.238281 214.96875 C 188.230469 214.96875 188.222656 214.96875 188.21875 214.96875 C 188.214844 214.96875 188.210938 214.96875 188.207031 214.96875 C 188.203125 214.96875 188.199219 214.96875 188.195312 214.96875 C 188.1875 214.96875 188.183594 214.96875 188.179688 214.96875 C 188.171875 214.96875 188.167969 214.96875 188.160156 214.96875 C 188.15625 214.96875 188.15625 214.96875 188.15625 214.96875 C 188.148438 214.96875 188.140625 214.972656 188.132812 214.972656 C 188.128906 214.972656 188.125 214.972656 188.125 214.972656 C 188.117188 214.972656 188.113281 214.972656 188.105469 214.972656 C 188.105469 214.972656 188.101562 214.972656 188.097656 214.972656 C 188.09375 214.972656 188.085938 214.972656 188.074219 214.972656 C 188.070312 214.972656 188.066406 214.972656 188.066406 214.972656 C 188.058594 214.972656 188.054688 214.972656 188.050781 214.972656 C 188.046875 214.972656 188.042969 214.972656 188.042969 214.972656 C 188.035156 214.972656 188.023438 214.972656 188.019531 214.972656 C 188.019531 214.972656 188.015625 214.972656 188.011719 214.972656 C 188.007812 214.972656 188 214.972656 187.992188 214.972656 C 187.988281 214.972656 187.988281 214.972656 187.984375 214.972656 C 187.980469 214.972656 187.972656 214.972656 187.960938 214.972656 C 187.960938 214.972656 187.960938 214.972656 187.957031 214.972656 C 187.949219 214.972656 187.941406 214.972656 187.933594 214.972656 C 187.933594 214.972656 187.929688 214.972656 187.929688 214.972656 C 187.921875 214.972656 187.917969 214.972656 187.90625 214.972656 C 187.902344 214.972656 187.902344 214.972656 187.898438 214.972656 C 187.894531 214.972656 187.886719 214.972656 187.878906 214.972656 C 187.878906 214.972656 187.875 214.972656 187.875 214.972656 C 187.867188 214.972656 187.855469 214.972656 187.847656 214.972656 C 187.847656 214.972656 187.84375 214.972656 187.84375 214.972656 C 187.835938 214.972656 187.832031 214.972656 187.824219 214.972656 C 187.820312 214.972656 187.820312 214.972656 187.816406 214.972656 C 187.8125 214.972656 187.800781 214.972656 187.789062 214.972656 " fill-opacity="1" fill-rule="nonzero"/></g></g><g clip-path="url(#aeba0cff86)"><g clip-path="url(#4cdfd15c0e)"><path fill="#7b4837" d="M 149.53125 102.320312 C 149.148438 102.085938 148.773438 101.851562 148.40625 101.617188 C 150.285156 98.597656 152.445312 95.867188 154.914062 93.558594 C 152.84375 96.121094 151.058594 99.089844 149.53125 102.320312 " fill-opacity="1" fill-rule="nonzero"/></g></g><g clip-path="url(#5fa56327ec)"><g clip-path="url(#6f86a8915b)"><path fill="#211a1b" d="M 149.628906 128.285156 C 149.628906 128.285156 155.363281 123.179688 160.886719 124.441406 C 166.410156 125.699219 175.003906 125.691406 177.523438 122.882812 C 177.523438 122.882812 158.800781 115.371094 149.628906 128.285156 " fill-opacity="1" fill-rule="nonzero"/></g></g><g clip-path="url(#a11ff70abb)"><g clip-path="url(#3f76fc4fa9)"><path fill="#211a1b" d="M 224.308594 128.285156 C 224.308594 128.285156 218.574219 123.179688 213.046875 124.441406 C 207.523438 125.699219 198.929688 125.691406 196.414062 122.882812 C 196.414062 122.882812 215.136719 115.371094 224.308594 128.285156 " fill-opacity="1" fill-rule="nonzero"/></g></g><g clip-path="url(#468da521ee)"><g clip-path="url(#7b568254b5)"><path fill="#62362c" d="M 178.847656 168.027344 C 178.847656 168.027344 178.832031 167.929688 178.808594 167.75 C 178.773438 167.570312 178.738281 167.308594 178.773438 166.945312 C 178.808594 166.582031 178.867188 166.144531 179.050781 165.679688 C 179.207031 165.195312 179.472656 164.6875 179.824219 164.171875 C 180.183594 163.660156 180.621094 163.136719 181.171875 162.679688 C 181.710938 162.203125 182.339844 161.773438 183.039062 161.414062 C 183.742188 161.070312 184.496094 160.742188 185.304688 160.566406 C 186.105469 160.347656 186.949219 160.285156 187.789062 160.257812 C 188.28125 160.285156 188.546875 160.273438 189.015625 160.335938 C 189.453125 160.386719 189.886719 160.457031 190.277344 160.5625 C 191.089844 160.738281 191.84375 161.070312 192.546875 161.410156 C 193.242188 161.769531 193.875 162.195312 194.410156 162.675781 C 194.960938 163.132812 195.402344 163.660156 195.757812 164.171875 C 196.113281 164.6875 196.378906 165.195312 196.53125 165.675781 C 196.71875 166.144531 196.78125 166.585938 196.804688 166.9375 C 196.84375 167.292969 196.808594 167.566406 196.777344 167.75 C 196.75 167.929688 196.738281 168.027344 196.738281 168.027344 C 196.738281 168.027344 196.714844 167.9375 196.660156 167.757812 C 196.621094 167.582031 196.523438 167.339844 196.390625 167.039062 C 196.253906 166.746094 196.0625 166.40625 195.800781 166.054688 C 195.554688 165.695312 195.203125 165.339844 194.824219 164.972656 C 194.429688 164.621094 193.964844 164.28125 193.453125 163.964844 C 192.941406 163.640625 192.355469 163.390625 191.761719 163.132812 C 191.152344 162.902344 190.503906 162.722656 189.832031 162.601562 C 189.492188 162.523438 189.171875 162.5 188.851562 162.460938 C 188.566406 162.410156 188.066406 162.425781 187.789062 162.40625 C 186.417969 162.417969 185.039062 162.667969 183.820312 163.132812 C 183.222656 163.390625 182.636719 163.636719 182.128906 163.964844 C 181.617188 164.28125 181.152344 164.621094 180.757812 164.972656 C 180.375 165.339844 180.027344 165.691406 179.777344 166.054688 C 179.519531 166.402344 179.320312 166.75 179.195312 167.035156 C 179.058594 167.324219 178.960938 167.578125 178.921875 167.757812 C 178.871094 167.9375 178.847656 168.027344 178.847656 168.027344 " fill-opacity="1" fill-rule="nonzero"/></g></g><g clip-path="url(#47ea3601b2)"><g clip-path="url(#a518bed3a8)"><path fill="#ffffff" d="M 167.328125 176.679688 C 167.328125 176.679688 183.367188 185.820312 208.457031 176.679688 C 208.457031 176.679688 188.648438 205.714844 167.328125 176.679688 " fill-opacity="1" fill-rule="nonzero"/></g></g><g clip-path="url(#9bc1fffb7a)"><g clip-path="url(#65faba063f)"><path fill="#c7d3df" d="M 167.328125 176.679688 C 167.570312 177.015625 167.816406 177.335938 168.066406 177.65625 C 173.703125 181.828125 187.519531 189.179688 207.53125 177.914062 C 208.3125 176.945312 208.457031 176.679688 208.457031 176.679688 C 183.367188 185.820312 167.328125 176.679688 167.328125 176.679688 " fill-opacity="1" fill-rule="nonzero"/></g></g><g clip-path="url(#b20bcde8e1)"><g clip-path="url(#b24ffeec06)"><path fill="#784636" d="M 181.976562 194.558594 C 181.976562 194.558594 187.890625 197.382812 193.804688 194.558594 C 193.804688 194.558594 188.679688 203.738281 181.976562 194.558594 " fill-opacity="1" fill-rule="nonzero"/></g></g><g clip-path="url(#72d02fcc96)"><g clip-path="url(#60d3951d1e)"><path fill="#814e3c" d="M 188.007812 171.359375 C 182.707031 171.359375 178.847656 169.148438 178.847656 169.148438 C 180.386719 163.75 185.898438 163.355469 187.464844 163.355469 C 187.734375 163.355469 187.890625 163.367188 187.890625 163.367188 C 187.992188 163.363281 188.09375 163.363281 188.195312 163.363281 C 194.511719 163.363281 196.738281 169.148438 196.738281 169.148438 C 193.671875 170.808594 190.664062 171.359375 188.007812 171.359375 " fill-opacity="1" fill-rule="nonzero"/></g></g><g clip-path="url(#693e1cf8b4)"><g clip-path="url(#7ea00e8c5c)"><path fill="#211a1b" d="M 172.9375 183.078125 C 171.816406 181.359375 170.902344 179.515625 170.222656 177.964844 C 168.328125 177.25 167.328125 176.679688 167.328125 176.679688 C 169.210938 179.25 171.085938 181.359375 172.9375 183.078125 " fill-opacity="1" fill-rule="nonzero"/></g></g><g clip-path="url(#6fd1bdd58d)"><g clip-path="url(#18ac9ec496)"><path fill="#211a1b" d="M 202.621094 183.050781 C 206.289062 179.851562 208.457031 176.679688 208.457031 176.679688 C 207.585938 176.992188 206.734375 177.28125 205.886719 177.554688 C 205.082031 179.1875 203.96875 181.210938 202.621094 183.050781 " fill-opacity="1" fill-rule="nonzero"/></g></g><g clip-path="url(#6c6a552aa4)"><g clip-path="url(#54d1cfc5ec)"><path fill="#211a1b" d="M 174.449219 148.238281 C 174.449219 152.589844 172.492188 156.121094 170.085938 156.121094 C 167.683594 156.121094 165.730469 152.589844 165.730469 148.238281 C 165.730469 143.878906 167.683594 140.347656 170.085938 140.347656 C 172.492188 140.347656 174.449219 143.878906 174.449219 148.238281 " fill-opacity="1" fill-rule="nonzero"/></g></g><g clip-path="url(#2438862528)"><g clip-path="url(#06cbf9a5e2)"><path fill="#211a1b" d="M 209.855469 148.238281 C 209.855469 152.589844 207.902344 156.121094 205.496094 156.121094 C 203.089844 156.121094 201.136719 152.589844 201.136719 148.238281 C 201.136719 143.878906 203.089844 140.347656 205.496094 140.347656 C 207.902344 140.347656 209.855469 143.878906 209.855469 148.238281 " fill-opacity="1" fill-rule="nonzero"/></g></g><g clip-path="url(#9aa99de09d)"><g clip-path="url(#4146e0beb8)"><path fill="#211a1b" d="M 188.613281 77.773438 C 150.570312 77.773438 135.675781 106.664062 138.074219 132.265625 C 139.742188 132.191406 145.199219 130.582031 149.628906 113.714844 C 149.628906 113.714844 151.289062 100.898438 153.519531 95.421875 C 153.519531 95.421875 189.179688 113.789062 219.652344 95.421875 C 219.652344 95.421875 227.179688 107.363281 227.179688 113.714844 C 227.179688 119.925781 229.765625 141.292969 237.644531 134.085938 C 241.128906 107.886719 227.601562 77.773438 188.613281 77.773438 " fill-opacity="1" fill-rule="nonzero"/></g></g></svg>